<svg width="25" height="24" viewBox="0 0 25 24" fill="none" xmlns="http://www.w3.org/2000/svg">
<path fill-rule="evenodd" clip-rule="evenodd" d="M8.57959 10.4068C5.86223 11.0284 6.67151 15.6274 9.36029 15.0418C10.3866 14.8178 11.1816 13.6607 10.9937 12.3231C10.8349 11.2312 9.86629 10.1107 8.57959 10.4073V10.4068ZM15.6625 10.4068C12.9452 11.0284 13.7544 15.6274 16.4432 15.0418C17.4769 14.8178 18.2719 13.6607 18.0766 12.3231C17.9247 11.2312 16.9566 10.1107 15.6625 10.4073V10.4068ZM4.43844 6.09739C5.45044 4.72378 7.9508 3.95013 9.49049 3.42218L9.23009 2.90906C7.59671 2.95989 5.41391 3.92153 4.04835 4.87575C3.41956 5.31686 2.81246 6.87157 2.50918 7.60868C1.3675 10.3925 0.702188 13.7402 0.5 17.0519C1.73589 19.0186 5.44356 20.2476 7.61152 20.3636C7.81371 19.9876 8.21861 19.5757 8.45732 19.1923C8.27684 19.026 6.15915 18.3535 4.27277 16.5457C4.14997 16.4228 3.94038 16.1406 3.83928 16.0611C6.09405 17.6953 8.80453 18.686 12.3963 18.722C14.7887 18.7438 17.2747 18.2809 19.3199 17.1965C20.18 16.7411 20.5415 16.4302 21.0835 16.1263C20.7511 16.7988 18.5323 18.2809 17.8601 18.5992C17.4843 18.7581 16.8698 18.9752 16.5448 19.1923C16.711 19.4311 17.2673 20.2265 17.4341 20.3562C19.7179 20.3271 22.2331 19.1557 23.4976 18.0712C24.7478 16.9936 24.5747 17.2976 24.3143 15.0269C24.1772 13.8339 23.9745 12.6409 23.7072 11.5129C23.3531 10.0234 22.0447 5.60545 20.9607 4.88952C20.2308 4.41241 19.8333 4.17359 18.9806 3.76902C18.2793 3.44389 16.6391 2.8794 15.7647 2.91594L15.526 3.45077C16.7693 3.67476 19.8264 4.97637 20.5055 6.06085C20.0138 5.90888 18.7059 5.09922 16.9138 4.57868C12.9679 3.44336 8.97126 3.92047 5.29218 5.68488C5.01007 5.81515 4.7142 5.99572 4.4395 6.09686L4.43844 6.09739Z" fill="#7A7F88"/>
</svg>
