<svg width="25" height="24" viewBox="0 0 25 24" fill="none" xmlns="http://www.w3.org/2000/svg">
<g clip-path="url(#clip0_56_7267)">
<path fill-rule="evenodd" clip-rule="evenodd" d="M18.4667 0H6.51428C3.20262 0 0.5 2.70476 0.5 6.01905V18C0.5 21.2952 3.20262 24 6.51428 24H11.7951V15.2853H8.75V11.8133H11.7951V9.17035C11.7951 6.15803 13.5845 4.50003 16.3259 4.50003C17.6392 4.50003 19.0099 4.73806 19.0099 4.73806V7.69292H17.4997C16.014 7.69292 15.5462 8.61221 15.5462 9.56433V11.8133H18.8786L18.3451 15.2853H15.538V24H18.4857C21.7974 24 24.5 21.2952 24.5 17.981V6.01905C24.481 2.70476 21.7784 0 18.4667 0Z" fill="#646974"/>
</g>
<defs>
<clipPath id="clip0_56_7267">
<rect width="24" height="24" fill="white" transform="translate(0.5)"/>
</clipPath>
</defs>
</svg>
