<svg width="25" height="24" viewBox="0 0 25 24" fill="none" xmlns="http://www.w3.org/2000/svg">
<g clip-path="url(#clip0_56_7268)">
<path fill-rule="evenodd" clip-rule="evenodd" d="M18.4667 0H6.51428C3.20262 0 0.5 2.70476 0.5 6.01905V18C0.5 21.2952 3.20262 24 6.51428 24H18.4857C21.7974 24 24.5 21.2952 24.5 17.981V6.01905C24.481 2.70476 21.7784 0 18.4667 0ZM16.207 7.26369C16.207 6.68609 16.6796 6.21351 17.2677 6.21351C17.8453 6.21351 18.3179 6.68609 18.3284 7.26369C18.3284 7.85178 17.8558 8.32436 17.2677 8.32436C16.6796 8.32436 16.207 7.85178 16.207 7.26369ZM12.5735 7.56827C10.1266 7.56827 8.14181 9.5531 8.14181 12C8.14181 14.4469 10.1266 16.4317 12.5735 16.4317C15.0205 16.4317 17.0053 14.4469 17.0053 12C17.0053 9.5531 15.0205 7.56827 12.5735 7.56827ZM12.5735 14.846C11.0088 14.846 9.73807 13.5753 9.73807 12.0105C9.73807 10.4457 11.0088 9.17504 12.5735 9.17504C14.1383 9.17504 15.409 10.4457 15.409 12.0105C15.409 13.5753 14.1383 14.846 12.5735 14.846ZM8.9084 21H16.0916C19.0741 21 21.5 18.5741 21.5 15.5916V8.40837C21.5 5.42587 19.0741 2.99997 16.0916 2.99997H8.9084C5.9259 2.99997 3.5 5.42587 3.5 8.40837V15.5916C3.5 18.5741 5.9259 21 8.9084 21ZM5.19078 8.40837C5.19078 6.36053 6.86056 4.69075 8.9084 4.69075H16.0916C18.1394 4.69075 19.8092 6.36053 19.8092 8.40837V15.5916C19.8092 17.6394 18.1394 19.3092 16.0916 19.3092H8.9084C6.86056 19.3092 5.19078 17.6394 5.19078 15.5916V8.40837Z" fill="#646974"/>
</g>
<defs>
<clipPath id="clip0_56_7268">
<rect width="24" height="24" fill="white" transform="translate(0.5)"/>
</clipPath>
</defs>
</svg>
