<svg width="25" height="24" viewBox="0 0 25 24" fill="none" xmlns="http://www.w3.org/2000/svg">
<g clip-path="url(#clip0_56_7269)">
<path d="M22.0573 7.73728V7.08625C23.0038 6.40421 23.8282 5.53617 24.5 4.54412C23.6145 4.94714 22.6679 5.19515 21.6603 5.31916C22.6679 4.69913 23.4618 3.73808 23.8282 2.59102C22.8817 3.18005 21.8435 3.58307 20.7137 3.80008C19.7977 2.83903 18.5153 2.25 17.1107 2.25C14.3931 2.25 12.1947 4.45111 12.1947 7.17925C12.1947 7.55127 12.2252 7.92329 12.3168 8.29531C8.22519 8.0783 4.62214 6.1252 2.17939 3.14905C1.75191 3.89308 1.50763 4.73013 1.50763 5.62917C1.50763 7.33426 2.39313 8.85334 3.70611 9.72138C2.91221 9.69038 2.11832 9.47337 1.50763 9.10135V9.16336C1.50763 11.5505 3.18702 13.5346 5.3855 13.9996C4.98855 14.1236 4.53053 14.1856 4.07252 14.1856C3.76718 14.1856 3.46183 14.1546 3.15649 14.0926C3.79771 16.0457 5.59924 17.4718 7.76717 17.5028C6.08779 18.8359 3.98092 19.6109 1.66031 19.6109C1.26336 19.6109 0.896946 19.5799 0.5 19.5489C2.66794 20.944 5.26336 21.75 8.04198 21.75C17.1107 21.75 22.0573 14.2476 22.0573 7.73728Z" fill="#7A7F88"/>
</g>
<defs>
<clipPath id="clip0_56_7269">
<rect width="24" height="24" fill="white" transform="translate(0.5)"/>
</clipPath>
</defs>
</svg>
