<svg width="25" height="24" viewBox="0 0 25 24" fill="none" xmlns="http://www.w3.org/2000/svg">
<g clip-path="url(#clip0_56_7270)">
<path fill-rule="evenodd" clip-rule="evenodd" d="M8.11178 20.2251L13.0312 20.3151C13.0391 20.3151 13.0548 20.3151 13.0547 20.3272C15.7942 20.3784 18.4633 20.2177 21.1951 20.018C23.3754 19.8654 23.8921 18.2838 24.1621 16.3979C24.4987 14.1202 24.573 11.815 24.3969 9.52167C24.3885 9.41295 24.3803 9.30325 24.372 9.19286V9.19282C24.2079 6.99849 24.0234 4.53237 21.4299 4.07776C20.8781 3.97986 20.3146 3.89385 19.7549 3.87811C14.4559 3.70646 9.10975 3.66285 3.79892 4.03079C2.22569 4.13217 1.20838 5.06384 0.949876 6.62518C0.491971 9.4078 0.398036 12.2648 0.640682 15.0708L0.649766 15.1741C0.823217 17.148 1.0259 19.4546 3.3606 19.9315C4.61753 20.193 5.89726 20.2034 7.17938 20.2139H7.17967C7.49033 20.2165 7.80113 20.219 8.11178 20.2251ZM12.6928 14.0733C13.8827 13.3894 15.0687 12.7077 16.264 12.0221C15.1529 11.3853 14.0553 10.7542 12.9592 10.1239C12.0207 9.5843 11.0833 9.04527 10.1391 8.50373V15.5405C10.9956 15.0487 11.8452 14.5604 12.6928 14.0733Z" fill="#7A7F88"/>
</g>
<defs>
<clipPath id="clip0_56_7270">
<rect width="24" height="24" fill="white" transform="translate(0.5)"/>
</clipPath>
</defs>
</svg>
