<svg width="120" height="120" viewBox="0 0 120 120" fill="none" xmlns="http://www.w3.org/2000/svg">
<g id="Group 120">
<path id="Vector" d="M106.904 108.741C88.5178 123.753 31.107 123.753 13.0957 108.741C-5.29073 93.7294 -3.41459 29.5543 13.0957 12.6661C29.6061 -4.22205 90.3939 -4.22205 106.904 12.6661C123.415 29.5543 125.291 93.7297 106.904 108.741Z" fill="#329C69"/>
<path id="Intersect" opacity="0.2" fill-rule="evenodd" clip-rule="evenodd" d="M2.60432 88.0803C16.7533 85.1882 31.1182 78.503 44.3616 68.0246C67.1917 49.7937 80.2929 24.6872 81.423 1.82907C56.9609 -2.59914 24.4879 1.01322 13.0957 12.6661C0.986927 25.0521 -3.25033 62.8731 2.60432 88.0803Z" fill="white"/>
<path id="Vector_2" d="M53.2978 85.3106C51.306 85.3106 49.3145 84.4562 48.1764 82.7477L32.2431 62.2438C29.9669 59.396 30.5361 55.4092 33.3812 53.1309C36.2264 50.8527 40.2097 51.4223 42.486 54.2701L53.2978 68.2241L77.1978 37.1836C79.474 34.3358 83.4573 33.7662 86.3025 36.0444C89.1477 38.3227 89.7169 42.3095 87.4406 45.1572L58.4192 82.7477C56.9966 84.1715 55.2895 85.3106 53.2978 85.3106Z" fill="white"/>
</g>
</svg>
