<svg width="32" height="32" viewBox="0 0 32 32" fill="none" xmlns="http://www.w3.org/2000/svg">
    <g filter="url(#0lyvd1oy2a)">
        <path d="M21.75 3H8.25A5.25 5.25 0 0 0 3 8.25v13.5C3 24.65 5.35 27 8.25 27h13.5c2.9 0 5.25-2.35 5.25-5.25V8.25C27 5.35 24.65 3 21.75 3z" fill="#FF4B55"/>
        <path d="m8.345 7.087.596 1.788 1.885.014a.254.254 0 0 1 .149.459l-1.517 1.12.569 1.797a.254.254 0 0 1-.39.283l-1.533-1.096-1.534 1.096a.254.254 0 0 1-.39-.283l.569-1.798-1.517-1.12a.254.254 0 0 1 .15-.458l1.884-.014.597-1.788a.254.254 0 0 1 .482 0zM15.19 7.527l.427.583.69-.215a.097.097 0 0 1 .108.15l-.422.586.418.59a.097.097 0 0 1-.11.15l-.688-.221-.431.58a.097.097 0 0 1-.176-.058l-.003-.723-.685-.23a.097.097 0 0 1 0-.186l.687-.226.008-.723a.097.097 0 0 1 .176-.057zM12.586 5.79l.719.077.306-.655a.097.097 0 0 1 .184.022l.148.708.717.089a.097.097 0 0 1 .037.181l-.628.36.137.71a.097.097 0 0 1-.161.09l-.536-.486-.633.35a.097.097 0 0 1-.136-.125l.297-.66-.528-.494a.097.097 0 0 1 .077-.168zM13.722 12.797l-.427.583-.69-.216a.097.097 0 0 0-.109.15l.423.587-.419.59a.097.097 0 0 0 .11.149l.688-.22.432.58a.097.097 0 0 0 .175-.058l.003-.723.686-.231a.097.097 0 0 0-.001-.185l-.687-.227-.008-.723a.097.097 0 0 0-.176-.056zM16.326 11.163l-.72.079-.306-.655a.097.097 0 0 0-.184.021l-.147.708-.718.09a.097.097 0 0 0-.036.18l.627.36-.137.71a.097.097 0 0 0 .161.09l.536-.486.633.35a.097.097 0 0 0 .136-.125l-.296-.66.528-.494a.097.097 0 0 0-.077-.168z" fill="#FFE15A"/>
    </g>
    <defs>
        <filter id="0lyvd1oy2a" x="0" y="0" width="32" height="32" filterUnits="userSpaceOnUse" color-interpolation-filters="sRGB">
            <feFlood flood-opacity="0" result="BackgroundImageFix"/>
            <feColorMatrix in="SourceAlpha" values="0 0 0 0 0 0 0 0 0 0 0 0 0 0 0 0 0 0 127 0" result="hardAlpha"/>
            <feOffset dx="1" dy="1"/>
            <feGaussianBlur stdDeviation="2"/>
            <feColorMatrix values="0 0 0 0 0 0 0 0 0 0 0 0 0 0 0 0 0 0 0.12 0"/>
            <feBlend in2="BackgroundImageFix" result="effect1_dropShadow_173_4859"/>
            <feBlend in="SourceGraphic" in2="effect1_dropShadow_173_4859" result="shape"/>
        </filter>
    </defs>
</svg>
