<svg width="32" height="32" viewBox="0 0 32 32" fill="none" xmlns="http://www.w3.org/2000/svg">
    <g filter="url(#lgpjxc1yra)">
        <path d="M21.75 3H8.25c-1.538 0-2.92.661-3.88 1.714h21.26A5.236 5.236 0 0 0 21.75 3z" fill="#FF4B55"/>
        <path d="M25.631 4.714H4.37A5.25 5.25 0 0 0 3.325 6.43h23.35a5.248 5.248 0 0 0-1.044-1.715z" fill="#F5F5F5"/>
        <path d="M26.675 6.429H3.325A5.234 5.234 0 0 0 3 8.143h23.997a5.235 5.235 0 0 0-.323-1.714z" fill="#FF4B55"/>
        <path d="M3.001 8.143 3 8.25v1.607h24V8.25l-.001-.107H3z" fill="#F5F5F5"/>
        <path d="M27 9.857H3v1.715h24V9.857z" fill="#FF4B55"/>
        <path d="M27 11.572H3v1.714h24v-1.714z" fill="#F5F5F5"/>
        <path d="M27 13.286H3V15h24v-1.714z" fill="#FF4B55"/>
        <path d="M3 15.632h.632v1.082H27V15H3v.632z" fill="#F5F5F5"/>
        <path d="M3.632 15.632H3v2.797h24v-1.715H3.632v-1.082z" fill="#FF4B55"/>
        <path d="M27 18.428H3v1.715h24v-1.715z" fill="#F5F5F5"/>
        <path d="m3 21.75.001.107H27L27 21.75v-1.607H3v1.607z" fill="#FF4B55"/>
        <path d="M3.324 23.571h23.35a5.232 5.232 0 0 0 .324-1.714H3.001c.012.602.125 1.179.323 1.714z" fill="#F5F5F5"/>
        <path d="M4.37 25.286H25.63a5.249 5.249 0 0 0 1.045-1.715H3.326a5.25 5.25 0 0 0 1.044 1.715z" fill="#FF4B55"/>
        <path d="M8.25 27h13.5c1.538 0 2.92-.661 3.88-1.714H4.37A5.237 5.237 0 0 0 8.25 27z" fill="#F5F5F5"/>
        <path d="M16.714 3H8.25A5.25 5.25 0 0 0 3 8.25v8.464h13.714V3z" fill="#41479B"/>
        <path d="M5.941 9.85a3.693 3.693 0 0 1 5.134-3.397c.058.024.101-.056.05-.091a4.202 4.202 0 0 0-2.596-.724c-2.117.11-3.848 1.815-3.985 3.931a4.218 4.218 0 0 0 6.574 3.772c.052-.035.01-.115-.049-.09a3.693 3.693 0 0 1-5.128-3.4z" fill="#FFE15A"/>
        <path d="m14.378 9.85 1.56-.604c.077-.03.05-.145-.032-.138l-1.667.134 1.146-1.225c.056-.06-.017-.153-.089-.111l-1.448.845.5-1.598c.025-.08-.082-.13-.128-.062l-.937 1.389-.24-1.658c-.012-.082-.13-.082-.143 0l-.153 1.049-.064.444-.024.165-.938-1.388c-.046-.068-.152-.017-.128.062l.502 1.597-1.448-.845c-.071-.042-.145.05-.088.11l1.145 1.226-1.667-.134c-.083-.007-.11.109-.032.138l1.562.604-1.562.604c-.077.03-.05.145.032.138l1.667-.133-1.146 1.228c-.056.06.018.152.09.11l1.447-.847-.502 1.597c-.024.079.082.13.128.061l.938-1.387.024.169.064.44.153 1.051c.012.082.13.082.142 0l.24-1.66.938 1.388c.046.069.153.018.128-.061l-.5-1.598 1.448.848c.072.041.145-.05.089-.111l-1.146-1.228 1.667.133c.083.007.11-.108.032-.138l-1.56-.604z" fill="#FFE15A"/>
    </g>
    <defs>
        <filter id="lgpjxc1yra" x="0" y="0" width="32" height="32" filterUnits="userSpaceOnUse" color-interpolation-filters="sRGB">
            <feFlood flood-opacity="0" result="BackgroundImageFix"/>
            <feColorMatrix in="SourceAlpha" values="0 0 0 0 0 0 0 0 0 0 0 0 0 0 0 0 0 0 127 0" result="hardAlpha"/>
            <feOffset dx="1" dy="1"/>
            <feGaussianBlur stdDeviation="2"/>
            <feColorMatrix values="0 0 0 0 0 0 0 0 0 0 0 0 0 0 0 0 0 0 0.12 0"/>
            <feBlend in2="BackgroundImageFix" result="effect1_dropShadow_162_13923"/>
            <feBlend in="SourceGraphic" in2="effect1_dropShadow_162_13923" result="shape"/>
        </filter>
    </defs>
</svg>
