<svg width="32" height="32" viewBox="0 0 32 32" fill="none" xmlns="http://www.w3.org/2000/svg">
    <g filter="url(#koansemcga)">
        <path d="M21.75 3H8.25A5.25 5.25 0 0 0 3 8.25v13.5C3 24.65 5.35 27 8.25 27h13.5c2.9 0 5.25-2.35 5.25-5.25V8.25C27 5.35 24.65 3 21.75 3z" fill="#F5F5F5"/>
        <path d="M17.297 11.556a4.139 4.139 0 0 0-5.736 1.149A2.067 2.067 0 1 0 15 14.999a2.067 2.067 0 1 1 3.44 2.294 4.137 4.137 0 0 0-1.144-5.737z" fill="#FF4B55"/>
        <path d="M11.561 12.705a2.067 2.067 0 1 0 3.44 2.294 2.067 2.067 0 1 1 3.44 2.294 4.13 4.13 0 0 1-5.734 1.15 4.138 4.138 0 0 1-1.146-5.738z" fill="#41479B"/>
        <path d="m19.402 9.993.752 1.13a.207.207 0 0 1-.057.287l-.19.127a.207.207 0 0 1-.288-.057l-.753-1.13a.207.207 0 0 1 .058-.286l.191-.128a.207.207 0 0 1 .288.057zM20.562 11.735l.754 1.13a.207.207 0 0 1-.058.287l-.191.126a.207.207 0 0 1-.286-.057l-.754-1.128a.207.207 0 0 1 .057-.287l.191-.128a.207.207 0 0 1 .287.057zM20.207 9.456l1.914 2.873a.207.207 0 0 1-.057.286l-.192.128a.207.207 0 0 1-.288-.057L19.67 9.814a.207.207 0 0 1 .057-.287l.193-.128a.207.207 0 0 1 .287.057zM21.01 8.92l.753 1.132a.207.207 0 0 1-.058.287l-.192.127a.207.207 0 0 1-.286-.058l-.754-1.13a.207.207 0 0 1 .058-.287l.192-.129a.207.207 0 0 1 .287.058zM22.17 10.666l.752 1.13a.207.207 0 0 1-.057.286l-.19.128a.207.207 0 0 1-.288-.058l-.752-1.13a.207.207 0 0 1 .057-.286l.191-.128a.207.207 0 0 1 .287.058zM9.221 16.78l1.914 2.87a.207.207 0 0 1-.057.286l-.192.128a.207.207 0 0 1-.287-.057l-1.914-2.869a.207.207 0 0 1 .058-.287l.191-.128a.207.207 0 0 1 .287.057zM8.418 17.317l.751 1.127a.207.207 0 0 1-.057.287l-.19.127a.207.207 0 0 1-.287-.057l-.753-1.126a.207.207 0 0 1 .057-.287l.192-.128a.207.207 0 0 1 .287.057zM9.58 19.06l.751 1.13a.207.207 0 0 1-.057.286l-.191.128a.207.207 0 0 1-.287-.057l-.753-1.13a.207.207 0 0 1 .057-.287l.192-.128a.207.207 0 0 1 .287.058zM7.615 17.854l1.912 2.869a.207.207 0 0 1-.057.287l-.191.127a.207.207 0 0 1-.287-.057l-1.914-2.869a.207.207 0 0 1 .057-.287l.193-.128a.207.207 0 0 1 .287.058zM8.686 12.864l1.913-2.871a.207.207 0 0 1 .287-.057l.192.128c.095.063.12.191.057.287L9.22 13.22a.207.207 0 0 1-.287.057l-.19-.126a.207.207 0 0 1-.058-.288zM7.882 12.329l1.914-2.872a.207.207 0 0 1 .287-.058l.19.128c.096.063.121.192.058.287l-1.913 2.872a.207.207 0 0 1-.287.057l-.192-.128a.207.207 0 0 1-.057-.286zM7.078 11.795 8.992 8.92a.207.207 0 0 1 .287-.057l.19.128c.096.063.121.191.058.286l-1.913 2.876a.207.207 0 0 1-.287.057l-.192-.128a.207.207 0 0 1-.057-.287zM18.867 19.65l.752-1.127a.207.207 0 0 1 .287-.057l.19.127c.096.064.121.192.058.287l-.751 1.127a.207.207 0 0 1-.287.057l-.192-.128a.207.207 0 0 1-.057-.287zM20.027 17.913l.753-1.132a.207.207 0 0 1 .287-.058l.192.128c.096.064.121.192.058.287l-.755 1.13a.207.207 0 0 1-.287.058l-.19-.126a.207.207 0 0 1-.058-.287zM19.67 20.189l.753-1.13a.207.207 0 0 1 .287-.057l.192.128c.095.064.12.192.057.287l-.752 1.13a.207.207 0 0 1-.287.057l-.193-.128a.207.207 0 0 1-.057-.287zM20.831 18.444l.753-1.127a.207.207 0 0 1 .287-.058l.192.129c.096.063.121.192.058.287l-.753 1.127a.207.207 0 0 1-.287.057l-.192-.128a.207.207 0 0 1-.058-.287zM20.474 20.723l.753-1.128a.207.207 0 0 1 .286-.058l.192.127a.207.207 0 0 1 .058.287l-.753 1.13a.207.207 0 0 1-.287.057l-.192-.128a.207.207 0 0 1-.057-.287zM21.635 18.983l.752-1.129a.207.207 0 0 1 .287-.057l.191.127c.095.064.12.192.057.287l-.752 1.128a.207.207 0 0 1-.287.057l-.19-.126a.207.207 0 0 1-.058-.287z" fill="#464655"/>
    </g>
    <defs>
        <filter id="koansemcga" x="0" y="0" width="32" height="32" filterUnits="userSpaceOnUse" color-interpolation-filters="sRGB">
            <feFlood flood-opacity="0" result="BackgroundImageFix"/>
            <feColorMatrix in="SourceAlpha" values="0 0 0 0 0 0 0 0 0 0 0 0 0 0 0 0 0 0 127 0" result="hardAlpha"/>
            <feOffset dx="1" dy="1"/>
            <feGaussianBlur stdDeviation="2"/>
            <feColorMatrix values="0 0 0 0 0 0 0 0 0 0 0 0 0 0 0 0 0 0 0.12 0"/>
            <feBlend in2="BackgroundImageFix" result="effect1_dropShadow_222_13133"/>
            <feBlend in="SourceGraphic" in2="effect1_dropShadow_222_13133" result="shape"/>
        </filter>
    </defs>
</svg>
