<svg width="32" height="32" viewBox="0 0 32 32" fill="none" xmlns="http://www.w3.org/2000/svg">
    <g filter="url(#uaq1ms8sma)">
        <path d="M3.202 6.787C3.07 7.247 3 7.735 3 8.242v2.337h24V8.242c0-.502-.07-.99-.202-1.455H3.202zM3 21.758c0 .502.07.99.202 1.455h23.592c.131-.46.201-.948.201-1.455V19.42H3v2.337z" fill="#F5F5F5"/>
        <path d="M7.884 27h14.231a5.255 5.255 0 0 0 4.678-3.792H3.201A5.254 5.254 0 0 0 7.884 27zM22.115 3H7.885a5.255 5.255 0 0 0-4.679 3.792h23.592A5.254 5.254 0 0 0 22.115 3z" fill="#FF4B55"/>
        <path d="M27 10.58H3v8.84h24v-8.84z" fill="#41479B"/>
    </g>
    <defs>
        <filter id="uaq1ms8sma" x="0" y="0" width="32" height="32" filterUnits="userSpaceOnUse" color-interpolation-filters="sRGB">
            <feFlood flood-opacity="0" result="BackgroundImageFix"/>
            <feColorMatrix in="SourceAlpha" values="0 0 0 0 0 0 0 0 0 0 0 0 0 0 0 0 0 0 127 0" result="hardAlpha"/>
            <feOffset dx="1" dy="1"/>
            <feGaussianBlur stdDeviation="2"/>
            <feColorMatrix values="0 0 0 0 0 0 0 0 0 0 0 0 0 0 0 0 0 0 0.12 0"/>
            <feBlend in2="BackgroundImageFix" result="effect1_dropShadow_162_14036"/>
            <feBlend in="SourceGraphic" in2="effect1_dropShadow_162_14036" result="shape"/>
        </filter>
    </defs>
</svg>
