<svg width="32" height="32" viewBox="0 0 32 32" fill="none" xmlns="http://www.w3.org/2000/svg">
<g clip-path="url(#clip0_221_8121)">
<g clip-path="url(#clip1_221_8121)">
<rect width="32" height="32" fill="#FF4B55"/>
<path d="M32 2.28564H1.82567C1.22492 2.94471 0.74848 3.71896 0.433105 4.57139H32V2.28564Z" fill="#F5F5F5"/>
<path d="M0.0018125 6.85718C0.000875 6.90474 0 6.9523 0 7.00005V9.14293H32V7.00005C32 6.9523 31.9991 6.90474 31.9982 6.85718H0.0018125Z" fill="#F5F5F5"/>
<path d="M32 11.4287H0V13.7144H32V11.4287Z" fill="#F5F5F5"/>
<path d="M0 16.8421H0.842125L0.842313 18.2857H32V16H0V16.8421Z" fill="#F5F5F5"/>
<path d="M32 20.5713H0V22.857H32V20.5713Z" fill="#F5F5F5"/>
<path d="M0.00170898 27.4285H31.9982C31.9982 27.4285 31.9822 25.9451 31.9982 25.1428H0.00190336C0.0179659 25.9451 0.00170898 27.4285 0.00170898 27.4285Z" fill="#F5F5F5"/>
<path d="M0.000174582 32H32V29.7144H0L0.000174582 32Z" fill="#F5F5F5"/>
<path d="M18.2857 0H1.88351e-05L0 18.2857H18.2857V0Z" fill="#41479B"/>
<path d="M3.92146 9.13362C3.92146 6.41599 6.12727 4.21149 8.8424 4.21149C9.52553 4.21149 10.1751 4.35137 10.7667 4.60337C10.8435 4.63605 10.9013 4.52918 10.8323 4.48224C9.85346 3.81587 8.65646 3.45087 7.37253 3.51755C4.54971 3.6643 2.24153 5.93793 2.05903 8.75868C1.84678 12.0397 4.44309 14.7577 7.67209 14.7577C8.83896 14.7577 9.92371 14.3981 10.8245 13.7885C10.8939 13.7416 10.8364 13.6344 10.7593 13.6671C10.1696 13.9171 9.52265 14.0559 8.8424 14.0559C6.12727 14.0559 3.92146 11.8514 3.92146 9.13362Z" fill="#FFE15A"/>
<path d="M15.1706 9.13368L17.251 8.32868C17.3538 8.28887 17.3188 8.13531 17.2088 8.14412L14.986 8.32212L16.5136 6.68925C16.5889 6.60875 16.4908 6.48568 16.3955 6.54125L14.465 7.6675L15.1313 5.53687C15.1641 5.43168 15.0223 5.36343 14.9607 5.45481L13.7109 7.30625L13.3903 5.09643C13.3745 4.98731 13.217 4.98718 13.201 5.09631L12.9961 6.49456L12.9111 7.08625L12.8785 7.30625L11.6286 5.45643C11.5669 5.36506 11.4251 5.43343 11.4581 5.53862L12.127 7.6675L10.1965 6.54125C10.1013 6.48568 10.0031 6.60868 10.0785 6.68925L11.606 8.32212L9.38258 8.14412C9.27258 8.13531 9.23752 8.28893 9.34046 8.32868L11.4227 9.13362L9.34039 9.93875C9.23752 9.97856 9.27252 10.1321 9.38252 10.1233L11.606 9.94531L10.0784 11.5823C10.0031 11.6629 10.1015 11.7858 10.1966 11.7301L12.127 10.5999L11.4581 12.7288C11.4251 12.834 11.567 12.9024 11.6286 12.8111L12.8784 10.9612L12.9111 11.1864L12.9961 11.7729L13.2009 13.1748C13.2168 13.284 13.3744 13.2839 13.3902 13.1747L13.7108 10.9612L14.9606 12.8126C15.0223 12.904 15.1641 12.8357 15.1312 12.7306L14.4649 10.5999L16.3953 11.7301C16.4905 11.7858 16.5888 11.6629 16.5136 11.5823L14.986 9.94531L17.2088 10.1233C17.3188 10.1321 17.3539 9.97856 17.251 9.93875L15.1706 9.13368Z" fill="#FFE15A"/>
</g>
</g>
<defs>
<clipPath id="clip0_221_8121">
<rect width="32" height="32" rx="1" fill="white"/>
</clipPath>
<clipPath id="clip1_221_8121">
<rect width="32" height="32" fill="white"/>
</clipPath>
</defs>
</svg>
