<svg width="24" height="24" viewBox="0 0 24 24" fill="none" xmlns="http://www.w3.org/2000/svg">
<path d="M8.00037 23.3198V17.7998L3.88037 20.8398C5.04037 21.9198 6.44037 22.7598 8.00037 23.3198Z" fill="#2A5F9E"/>
<path d="M16 23.3198C17.56 22.7598 18.96 21.9198 20.12 20.8398L16 17.7598V23.3198Z" fill="#2A5F9E"/>
<path d="M0.680176 16C0.800176 16.4 0.960176 16.76 1.16018 17.16L2.72018 16H0.680176Z" fill="#2A5F9E"/>
<path d="M21.2803 16L22.8403 17.16C23.0003 16.8 23.1603 16.4 23.3203 16H21.2803Z" fill="#2A5F9E"/>
<path d="M8.60023 14.3999H0.240234C0.360234 14.9599 0.520234 15.4799 0.680234 15.9999H2.72023L1.16023 17.1599C1.48023 17.8399 1.84023 18.4399 2.28023 19.0399L6.40023 15.9999H8.00023V16.7999L3.32023 20.2399L3.88023 20.7999L8.00023 17.7999V23.3199C8.52023 23.5199 9.04023 23.6399 9.60023 23.7599V14.3999H8.60023Z" fill="white"/>
<path d="M23.7604 14.3999H14.4004V23.7599C14.9604 23.6399 15.4804 23.4799 16.0004 23.3199V17.7999L20.1204 20.7999C20.6804 20.2799 21.1604 19.7199 21.6404 19.1199L17.3604 15.9999H20.0804L22.5204 17.7999C22.6404 17.5999 22.7604 17.3599 22.8404 17.1599L21.2804 15.9999H23.3204C23.4804 15.4799 23.6404 14.9599 23.7604 14.3999Z" fill="white"/>
<path d="M2.27979 19.04C2.59979 19.48 2.91979 19.88 3.27979 20.28L7.99978 16.84V16.04H6.39979L2.27979 19.04Z" fill="#ED4C5C"/>
<path d="M17.3999 16L21.6799 19.12C21.8399 18.92 21.9599 18.72 22.1199 18.52C22.1599 18.48 22.1599 18.44 22.1999 18.44C22.3199 18.24 22.4799 18 22.5999 17.8L20.0799 16H17.3999Z" fill="#ED4C5C"/>
<path d="M16 0.680176V6.20018L20.12 3.16018C18.96 2.08018 17.56 1.24018 16 0.680176Z" fill="#2A5F9E"/>
<path d="M8.00037 0.680176C6.44037 1.24018 5.04037 2.08018 3.88037 3.16018L8.00037 6.24018V0.680176Z" fill="#2A5F9E"/>
<path d="M23.3203 8.00033C23.2003 7.60033 23.0403 7.24033 22.8403 6.84033L21.2803 8.00033H23.3203Z" fill="#2A5F9E"/>
<path d="M2.72018 8.00033L1.16018 6.84033C1.00018 7.24033 0.840176 7.60033 0.680176 8.00033H2.72018Z" fill="#2A5F9E"/>
<path d="M15.4004 9.60023H23.7204C23.6004 9.04023 23.4404 8.52023 23.2804 8.00023H21.2404L22.8004 6.84023C22.4804 6.16023 22.1204 5.56023 21.6804 4.96023L17.6004 8.00023H16.0004V7.20023L20.6804 3.76023L20.1204 3.20023L16.0004 6.20023V0.680234C15.4804 0.480234 14.9604 0.360234 14.4004 0.240234V9.60023H15.4004Z" fill="white"/>
<path d="M0.240234 9.60023H9.60023V0.240234C9.04023 0.360234 8.52023 0.520234 8.00023 0.680234V6.20023L3.88023 3.20023C3.32023 3.72023 2.84023 4.28023 2.36023 4.88023L6.64023 8.00023H3.92023L1.48023 6.20023C1.36023 6.40023 1.24023 6.64023 1.16023 6.84023L2.72023 8.00023H0.680234C0.520234 8.52023 0.360234 9.04023 0.240234 9.60023Z" fill="white"/>
<path d="M21.72 4.96021C21.4 4.52021 21.08 4.12021 20.72 3.72021L16 7.16021V7.96021H17.6L21.72 4.96021Z" fill="#ED4C5C"/>
<path d="M6.59994 7.99988L2.35994 4.87988C2.19994 5.07988 2.07994 5.27988 1.91994 5.47988C1.87994 5.51988 1.87994 5.55988 1.83994 5.55988C1.71994 5.75988 1.55994 5.99988 1.43994 6.19988L3.87994 7.99988H6.59994Z" fill="#ED4C5C"/>
<path d="M23.76 9.6H14.4V0.24C13.64 0.08 12.84 0 12 0C11.16 0 10.36 0.08 9.6 0.24V9.6H0.24C0.08 10.36 0 11.16 0 12C0 12.84 0.08 13.64 0.24 14.4H9.6V23.76C10.36 23.92 11.16 24 12 24C12.84 24 13.64 23.92 14.4 23.76V14.4H23.76C23.92 13.64 24 12.84 24 12C24 11.16 23.92 10.36 23.76 9.6Z" fill="#ED4C5C"/>
</svg>
