<svg width="32" height="32" viewBox="0 0 32 32" fill="none" xmlns="http://www.w3.org/2000/svg">
<g clip-path="url(#clip0_221_8118)">
<rect width="32" height="32" fill="#F5F5F5"/>
<path d="M19.0629 11.4083C16.5278 9.71818 13.1036 10.4092 11.4146 12.94C10.5674 14.2032 10.9117 15.9196 12.1793 16.7647C13.4458 17.6097 15.1568 17.2666 16.0018 15.9989C16.8469 14.7314 18.5589 14.3924 19.8255 15.2331C21.0941 16.0782 21.4353 17.7946 20.5891 19.0578C22.2792 16.5227 21.596 13.0984 19.0629 11.4083Z" fill="#FF4B55"/>
<path d="M11.4146 12.9399C10.5674 14.2031 10.9118 15.9196 12.1793 16.7646C13.4459 17.6097 15.1568 17.2665 16.0019 15.9989C16.8469 14.7313 18.559 14.3924 19.8256 15.2331C21.0941 16.0781 21.4353 17.7946 20.5891 19.0578C18.9013 21.5973 15.4781 22.2795 12.943 20.5894C10.4101 18.8994 9.72457 15.4751 11.4146 12.9399Z" fill="#41479B"/>
<path d="M21.8701 9.32437L22.8723 10.8307C22.9565 10.9572 22.9224 11.1281 22.7961 11.2127L22.542 11.3829C22.4152 11.4678 22.2435 11.4336 22.1589 11.3066L21.1555 9.80062C21.071 9.67393 21.1052 9.50274 21.2318 9.41824L21.4872 9.24774C21.6141 9.16305 21.7856 9.19743 21.8701 9.32437Z" fill="#464655"/>
<path d="M23.4162 11.647L24.4216 13.1524C24.5065 13.2795 24.4718 13.4515 24.3443 13.5358L24.0891 13.7045C23.9625 13.7881 23.792 13.7538 23.7077 13.6276L22.7028 12.1238C22.6182 11.9971 22.6522 11.8258 22.7788 11.7411L23.0335 11.5709C23.1602 11.4861 23.3315 11.5202 23.4162 11.647Z" fill="#464655"/>
<path d="M22.9429 8.60837L25.4947 12.438C25.5792 12.5647 25.5449 12.736 25.4182 12.8205L25.1618 12.9914C25.035 13.0759 24.8637 13.0417 24.7792 12.9149L22.2265 9.08562C22.142 8.95881 22.1763 8.78743 22.3032 8.703L22.5604 8.53181C22.6873 8.44731 22.8585 8.48162 22.9429 8.60837Z" fill="#464655"/>
<path d="M24.0132 7.89317L25.0176 9.40248C25.1022 9.52961 25.0674 9.70123 24.9401 9.78548L24.6846 9.95429C24.5579 10.038 24.3873 10.0036 24.303 9.87717L23.2979 8.36986C23.2133 8.24311 23.2476 8.07179 23.3744 7.98729L23.6306 7.81654C23.7574 7.73192 23.9287 7.76629 24.0132 7.89317Z" fill="#464655"/>
<path d="M25.5605 10.2207L26.5634 11.7269C26.6477 11.8535 26.6136 12.0245 26.4871 12.109L26.2324 12.2794C26.1056 12.3642 25.934 12.3299 25.8494 12.2029L24.8466 10.6967C24.7622 10.5701 24.7964 10.3991 24.9229 10.3145L25.1776 10.1442C25.3044 10.0594 25.4759 10.0937 25.5605 10.2207Z" fill="#464655"/>
<path d="M8.29512 18.3739L10.8466 22.1994C10.9311 22.3261 10.897 22.4974 10.7703 22.5819L10.5147 22.7525C10.388 22.8372 10.2166 22.803 10.1321 22.6762L7.58056 18.8507C7.49606 18.724 7.53025 18.5527 7.65687 18.4682L7.91243 18.2975C8.03925 18.2129 8.21056 18.2472 8.29512 18.3739Z" fill="#464655"/>
<path d="M7.22398 19.0894L8.22567 20.592C8.31004 20.7186 8.27604 20.8896 8.14961 20.9742L7.89548 21.1444C7.76879 21.2292 7.59729 21.1951 7.51261 21.0683L6.50961 19.5661C6.42498 19.4394 6.45917 19.2681 6.58586 19.1835L6.84123 19.013C6.96804 18.9284 7.13942 18.9626 7.22398 19.0894Z" fill="#464655"/>
<path d="M8.77201 21.4128L9.77494 22.9191C9.85926 23.0457 9.82513 23.2168 9.69863 23.3013L9.44376 23.4717C9.31694 23.5564 9.14544 23.5222 9.06088 23.3953L8.05732 21.8892C7.97288 21.7625 8.00707 21.5914 8.13369 21.5069L8.38919 21.3362C8.51601 21.2516 8.68751 21.2859 8.77201 21.4128Z" fill="#464655"/>
<path d="M6.15264 19.8048L8.70252 23.6305C8.78696 23.7571 8.75283 23.9282 8.62627 24.0128L8.37145 24.1831C8.2447 24.2678 8.07327 24.2336 7.98864 24.1068L5.43727 20.2816C5.3527 20.1549 5.38695 19.9836 5.51377 19.899L5.77008 19.7281C5.89683 19.6438 6.06814 19.678 6.15264 19.8048Z" fill="#464655"/>
<path d="M7.58101 13.1525L10.1321 9.32398C10.2167 9.1971 10.3881 9.16285 10.5149 9.24754L10.7703 9.4181C10.897 9.50266 10.9311 9.67391 10.8466 9.8006L8.29451 13.627C8.2102 13.7534 8.03951 13.7879 7.91276 13.704L7.65833 13.5356C7.53095 13.4513 7.49633 13.2797 7.58101 13.1525Z" fill="#464655"/>
<path d="M6.50922 12.4381L9.06085 8.60877C9.14541 8.48183 9.31691 8.44764 9.44372 8.53239L9.69854 8.7027C9.82504 8.78727 9.85916 8.95833 9.77479 9.08495L7.22385 12.9145C7.13935 13.0414 6.96791 13.0757 6.8411 12.991L6.5856 12.8205C6.45897 12.736 6.42479 12.5648 6.50922 12.4381Z" fill="#464655"/>
<path d="M5.43691 11.7265L7.98873 7.8934C8.07329 7.7664 8.24485 7.73215 8.37166 7.81696L8.62648 7.98734C8.75291 8.0719 8.7871 8.24284 8.70285 8.36946L6.15254 12.2031C6.0681 12.33 5.89673 12.3644 5.76985 12.2798L5.51354 12.109C5.38679 12.0245 5.35248 11.8533 5.43691 11.7265Z" fill="#464655"/>
<path d="M21.1558 22.1994L22.1588 20.6972C22.2435 20.5704 22.415 20.5363 22.5418 20.6211L22.7959 20.7913C22.9223 20.8759 22.9563 21.047 22.872 21.1735L21.8702 22.676C21.7857 22.8029 21.6143 22.8371 21.4875 22.7525L21.2322 22.582C21.1054 22.4974 21.0712 22.3261 21.1558 22.1994Z" fill="#464655"/>
<path d="M22.7027 19.8838L23.7073 18.3742C23.7917 18.2472 23.9631 18.2129 24.09 18.2975L24.346 18.4681C24.4728 18.5527 24.507 18.7241 24.4223 18.8508L23.4156 20.3581C23.3313 20.4845 23.1605 20.5188 23.0338 20.4348L22.78 20.2666C22.6528 20.1823 22.6182 20.0108 22.7027 19.8838Z" fill="#464655"/>
<path d="M22.2267 22.9186L23.2304 21.4125C23.3149 21.2857 23.4862 21.2514 23.613 21.3359L23.8695 21.507C23.9962 21.5915 24.0305 21.7626 23.946 21.8894L22.9431 23.3957C22.8587 23.5225 22.6874 23.5569 22.5606 23.4724L22.3034 23.3012C22.1766 23.2168 22.1422 23.0455 22.2267 22.9186Z" fill="#464655"/>
<path d="M23.775 20.5915L24.7792 19.0889C24.8637 18.9624 25.0349 18.9282 25.1615 19.0127L25.4178 19.1835C25.5447 19.2681 25.5789 19.4395 25.4942 19.5664L24.4901 21.069C24.4055 21.1955 24.2344 21.2297 24.1077 21.1452L23.8513 20.9743C23.7245 20.8897 23.6903 20.7183 23.775 20.5915Z" fill="#464655"/>
<path d="M23.2982 23.63L24.3029 22.1265C24.3872 22.0003 24.5577 21.966 24.6843 22.0497L24.9398 22.2185C25.0673 22.3027 25.102 22.4745 25.0172 22.6017L24.0133 24.1072C23.9288 24.2339 23.7575 24.2682 23.6307 24.1837L23.3745 24.0129C23.2477 23.9283 23.2135 23.7568 23.2982 23.63Z" fill="#464655"/>
<path d="M24.847 21.3106L25.8493 19.8053C25.9338 19.6783 26.1054 19.644 26.2322 19.7288L26.4867 19.899C26.6133 19.9836 26.6473 20.1548 26.5628 20.2814L25.5598 21.7847C25.4755 21.9111 25.3046 21.9455 25.178 21.8615L24.9243 21.6933C24.7971 21.6091 24.7625 21.4376 24.847 21.3106Z" fill="#464655"/>
</g>
<defs>
<clipPath id="clip0_221_8118">
<rect width="32" height="32" rx="1" fill="white"/>
</clipPath>
</defs>
</svg>
