<svg width="32" height="32" viewBox="0 0 32 32" fill="none" xmlns="http://www.w3.org/2000/svg">
<g clip-path="url(#clip0_221_8116)">
<rect width="32" height="32" fill="#FF4B55"/>
<path d="M7.1264 5.44892L7.92153 7.83305L10.4347 7.85255C10.76 7.85505 10.895 8.2703 10.6332 8.46361L8.61147 9.95655L9.36953 12.3527C9.46765 12.663 9.11447 12.9196 8.84972 12.7304L6.80509 11.2689L4.76047 12.7304C4.49578 12.9195 4.14253 12.6629 4.24065 12.3527L4.99872 9.95655L2.97697 8.46361C2.71522 8.2703 2.85015 7.85511 3.17553 7.85255L5.68865 7.83305L6.48378 5.44892C6.58684 5.14024 7.02347 5.14024 7.1264 5.44892Z" fill="#FFE15A"/>
<path d="M16.2524 6.03637L16.8225 6.81387L17.7427 6.52612C17.8618 6.48887 17.9598 6.62468 17.8869 6.72599L17.3237 7.50849L17.8817 8.29474C17.9539 8.39656 17.855 8.53168 17.7361 8.49368L16.8178 8.19981L16.2425 8.97343C16.168 9.07362 16.0089 9.02131 16.0084 8.89649L16.0042 7.93237L15.0906 7.62431C14.9723 7.58443 14.9729 7.41693 15.0914 7.37781L16.007 7.07587L16.0177 6.11181C16.0192 5.98693 16.1786 5.93568 16.2524 6.03637Z" fill="#FFE15A"/>
<path d="M12.7811 3.71881L13.7396 3.823L14.1484 2.94987C14.2014 2.83681 14.3677 2.85618 14.3932 2.97843L14.5904 3.92219L15.5471 4.04125C15.671 4.05669 15.7039 4.22087 15.5956 4.28287L14.7589 4.76194L14.9414 5.70862C14.965 5.83118 14.819 5.91331 14.7266 5.82944L14.0124 5.18175L13.1684 5.64781C13.0591 5.70812 12.9359 5.59469 12.9871 5.48081L13.3823 4.60144L12.6782 3.94275C12.5871 3.85756 12.657 3.70531 12.7811 3.71881Z" fill="#FFE15A"/>
<path d="M14.2963 13.0624L13.7261 13.8399L12.806 13.5521C12.6868 13.5149 12.5888 13.6507 12.6618 13.752L13.225 14.5345L12.667 15.3207C12.5948 15.4226 12.6936 15.5577 12.8126 15.5197L13.7308 15.2258L14.3061 15.9994C14.3806 16.0996 14.5398 16.0473 14.5403 15.9225L14.5445 14.9584L15.4581 14.6503C15.5763 14.6104 15.5758 14.4429 15.4573 14.4039L14.5416 14.1019L14.531 13.1379C14.5296 13.0129 14.3701 12.9617 14.2963 13.0624Z" fill="#FFE15A"/>
<path d="M17.7675 10.8845L16.809 10.9887L16.4001 10.1155C16.3472 10.0025 16.1808 10.0218 16.1553 10.144L15.9582 11.0878L15.0014 11.2068C14.8775 11.2223 14.8446 11.3865 14.9529 11.4485L15.7896 11.9275L15.6072 12.8742C15.5835 12.9968 15.7295 13.0789 15.822 12.995L16.5362 12.3473L17.3802 12.8134C17.4894 12.8737 17.6126 12.7603 17.5615 12.6464L17.1662 11.767L17.8703 11.1083C17.9614 11.0232 17.8915 10.871 17.7675 10.8845Z" fill="#FFE15A"/>
</g>
<defs>
<clipPath id="clip0_221_8116">
<rect width="32" height="32" rx="1" fill="white"/>
</clipPath>
</defs>
</svg>
