<svg width="32" height="32" viewBox="0 0 32 32" fill="none" xmlns="http://www.w3.org/2000/svg">
<g clip-path="url(#clip0_221_8123)">
<path d="M31.99 10.4399H0V21.5599H31.99V10.4399Z" fill="#F5F5F5"/>
<path d="M31.99 10.44V7C31.99 5.14348 32 2 32 2L31.99 0H-0.00998256L-0.0100098 2.05025C-0.0100098 2.05025 -0.0100098 5.14348 -0.0100098 7V10.44H31.99Z" fill="#F79835"/>
<path d="M-0.0100098 21.5601V25.0001C-0.0100098 26.8566 -0.0100098 29.9498 -0.0100098 29.9498V32.0001H31.99V29.9498C31.99 29.9498 31.99 26.8566 31.99 25.0001V21.5601H-0.0100098Z" fill="#138943"/>
<path d="M15.9901 11.8199C15.1633 11.8199 14.3552 12.0651 13.6678 12.5244C12.9804 12.9837 12.4446 13.6365 12.1282 14.4003C11.8119 15.1641 11.7291 16.0046 11.8904 16.8154C12.0517 17.6263 12.4498 18.3711 13.0344 18.9557C13.6189 19.5402 14.3637 19.9383 15.1746 20.0996C15.9854 20.2609 16.8259 20.1781 17.5897 19.8618C18.3535 19.5454 19.0063 19.0096 19.4656 18.3222C19.9249 17.6348 20.1701 16.8267 20.1701 15.9999C20.1701 14.8913 19.7297 13.8281 18.9458 13.0442C18.1619 12.2603 17.0987 11.8199 15.9901 11.8199ZM19.3801 16.5799C19.3965 16.622 19.4254 16.658 19.463 16.6831C19.5006 16.7081 19.5449 16.721 19.5901 16.7199C19.5507 16.8962 19.5006 17.0698 19.4401 17.2399C19.4097 17.2224 19.3752 17.2132 19.3401 17.2132C19.305 17.2132 19.2705 17.2224 19.2401 17.2399C19.1988 17.256 19.1633 17.2842 19.1383 17.3208C19.1133 17.3574 19.0999 17.4006 19.0999 17.4449C19.0999 17.4893 19.1133 17.5325 19.1383 17.5691C19.1633 17.6057 19.1988 17.6339 19.2401 17.6499C19.1692 17.8085 19.0821 17.9593 18.9801 18.0999C18.9455 18.0787 18.9057 18.0675 18.8651 18.0675C18.8245 18.0675 18.7847 18.0787 18.7501 18.0999C18.723 18.1109 18.6983 18.1271 18.6776 18.1477C18.6569 18.1683 18.6404 18.1928 18.6293 18.2198C18.6181 18.2468 18.6124 18.2757 18.6125 18.3049C18.6127 18.3342 18.6186 18.3631 18.6301 18.3899C18.6515 18.4301 18.6824 18.4644 18.7201 18.4899C18.6001 18.6199 18.4701 18.7399 18.3401 18.8599C18.313 18.8154 18.271 18.7819 18.2216 18.7654C18.1721 18.7489 18.1184 18.7505 18.0701 18.7699C18.0365 18.797 18.0113 18.8328 17.9971 18.8735C17.983 18.9142 17.9805 18.958 17.9901 18.9999V19.0599C17.846 19.1621 17.6919 19.2492 17.5301 19.3199C17.5191 19.2929 17.5029 19.2682 17.4823 19.2475C17.4617 19.2267 17.4372 19.2103 17.4102 19.1991C17.3832 19.188 17.3543 19.1823 17.3251 19.1824C17.2958 19.1826 17.2669 19.1885 17.2401 19.1999C17.1878 19.2221 17.1461 19.2636 17.1238 19.3158C17.1014 19.368 17.1001 19.4268 17.1201 19.4799C16.9595 19.5305 16.7958 19.5706 16.6301 19.5999C16.6291 19.5833 16.6291 19.5666 16.6301 19.5499C16.6059 19.4969 16.5625 19.4551 16.5087 19.4328C16.4549 19.4105 16.3946 19.4095 16.3401 19.4299C16.2964 19.449 16.2601 19.4818 16.2367 19.5233C16.2132 19.5647 16.2039 19.6127 16.2101 19.6599H15.6901C15.6994 19.6239 15.6994 19.586 15.6901 19.5499C15.6679 19.4977 15.6264 19.456 15.5742 19.4336C15.522 19.4113 15.4632 19.41 15.4101 19.4299C15.3762 19.4456 15.3467 19.4693 15.3241 19.4989C15.3014 19.5285 15.2863 19.5632 15.2801 19.5999C15.1095 19.5686 14.9421 19.5217 14.7801 19.4599C14.8001 19.4085 14.8001 19.3514 14.7801 19.2999C14.7691 19.2729 14.7529 19.2482 14.7323 19.2275C14.7117 19.2067 14.6872 19.1903 14.6602 19.1791C14.6332 19.168 14.6043 19.1623 14.5751 19.1624C14.5458 19.1626 14.5169 19.1685 14.4901 19.1799C14.4362 19.2032 14.3933 19.2461 14.3701 19.2999L13.9301 18.9999C13.9494 18.9665 13.9595 18.9286 13.9595 18.8899C13.9595 18.8513 13.9494 18.8134 13.9301 18.7799C13.9171 18.7436 13.8945 18.7115 13.8645 18.6872C13.8346 18.6629 13.7985 18.6473 13.7603 18.6421C13.7221 18.637 13.6832 18.6424 13.6479 18.6579C13.6125 18.6734 13.5822 18.6983 13.5601 18.7299C13.4269 18.6168 13.3032 18.4931 13.1901 18.3599C13.2123 18.3376 13.23 18.3111 13.242 18.2819C13.254 18.2527 13.2601 18.2215 13.2601 18.1899C13.2601 18.1615 13.2543 18.1334 13.2432 18.1072C13.232 18.0811 13.2156 18.0574 13.1951 18.0378C13.1745 18.0182 13.1501 18.0029 13.1235 17.993C13.0969 17.983 13.0685 17.9786 13.0401 17.9799C13.0006 17.9709 12.9596 17.9709 12.9201 17.9799C12.825 17.8402 12.7414 17.6931 12.6701 17.5399C12.7049 17.5225 12.7339 17.4951 12.7535 17.4614C12.773 17.4276 12.7823 17.3889 12.7801 17.3499C12.7801 17.2916 12.7569 17.2356 12.7156 17.1944C12.6744 17.1531 12.6184 17.1299 12.5601 17.1299H12.5001C12.4416 16.9668 12.3948 16.7997 12.3601 16.6299C12.3872 16.63 12.414 16.6245 12.439 16.6138C12.4639 16.6032 12.4864 16.5875 12.5051 16.5679C12.5238 16.5482 12.5384 16.525 12.5478 16.4996C12.5572 16.4741 12.5614 16.447 12.5601 16.4199C12.5614 16.3915 12.557 16.3632 12.547 16.3365C12.5371 16.3099 12.5218 16.2855 12.5022 16.2649C12.4826 16.2444 12.459 16.228 12.4328 16.2168C12.4067 16.2057 12.3785 16.1999 12.3501 16.1999H12.3001C12.3001 16.1099 12.3001 16.0199 12.3001 15.9199C12.3001 15.8199 12.3001 15.7499 12.3001 15.6599H12.3501C12.3785 15.66 12.4067 15.6542 12.4328 15.6431C12.459 15.6319 12.4826 15.6155 12.5022 15.5949C12.5218 15.5744 12.5371 15.55 12.547 15.5234C12.557 15.4967 12.5614 15.4684 12.5601 15.4399C12.5603 15.3849 12.5399 15.3318 12.5028 15.291C12.4658 15.2503 12.4149 15.225 12.3601 15.2199C12.3914 15.0428 12.4383 14.8688 12.5001 14.6999C12.5267 14.7215 12.558 14.7365 12.5915 14.7438C12.625 14.7511 12.6598 14.7505 12.693 14.742C12.7262 14.7335 12.757 14.7173 12.7828 14.6948C12.8087 14.6723 12.8289 14.6441 12.8419 14.6124C12.8549 14.5807 12.8604 14.5463 12.8578 14.5122C12.8552 14.478 12.8446 14.4449 12.8269 14.4155C12.8093 14.3861 12.785 14.3613 12.756 14.343C12.727 14.3246 12.6942 14.3133 12.6601 14.3099C12.7639 14.2002 12.874 14.0967 12.9901 13.9999C13.0242 14.0223 13.0642 14.0342 13.1051 14.0342C13.1459 14.0342 13.1859 14.0223 13.2201 13.9999C13.2723 13.9778 13.314 13.9363 13.3364 13.8841C13.3587 13.8319 13.3601 13.7731 13.3401 13.7199C13.3241 13.6762 13.2919 13.6404 13.2501 13.6199C13.3665 13.4835 13.4936 13.3564 13.6301 13.2399C13.6555 13.2861 13.6975 13.321 13.7475 13.3377C13.7975 13.3543 13.852 13.3516 13.9001 13.3299C13.9523 13.3078 13.994 13.2663 14.0164 13.2141C14.0387 13.1619 14.0401 13.1031 14.0201 13.0499C14.0093 13.0229 13.9921 12.9989 13.9701 12.9799C14.1128 12.8783 14.2632 12.788 14.4201 12.7099C14.431 12.737 14.4473 12.7617 14.4678 12.7824C14.4884 12.8031 14.5129 12.8196 14.5399 12.8308C14.5669 12.8419 14.5958 12.8476 14.6251 12.8475C14.6543 12.8473 14.6832 12.8414 14.7101 12.8299C14.7623 12.8078 14.804 12.7663 14.8264 12.7141C14.8487 12.6619 14.8501 12.6031 14.8301 12.5499C14.9974 12.494 15.1676 12.4473 15.3401 12.4099C15.3344 12.4363 15.3344 12.4636 15.3401 12.4899C15.351 12.517 15.3673 12.5417 15.3878 12.5624C15.4084 12.5831 15.4329 12.5996 15.4599 12.6108C15.4869 12.6219 15.5158 12.6276 15.5451 12.6275C15.5743 12.6273 15.6032 12.6214 15.6301 12.6099C15.6784 12.5882 15.7177 12.5505 15.7413 12.5031C15.765 12.4557 15.7716 12.4016 15.7601 12.3499H16.3001C16.2848 12.3954 16.2848 12.4445 16.3001 12.4899C16.31 12.5167 16.3252 12.5411 16.3448 12.5618C16.3645 12.5824 16.3881 12.5989 16.4143 12.6101C16.4405 12.6213 16.4687 12.6271 16.4972 12.6271C16.5257 12.627 16.5539 12.6212 16.5801 12.6099C16.6213 12.5954 16.657 12.5682 16.6821 12.5324C16.7072 12.4965 16.7205 12.4537 16.7201 12.4099C16.8871 12.4379 17.0511 12.4815 17.2101 12.5399C17.1976 12.5665 17.1911 12.5956 17.1911 12.6249C17.1911 12.6543 17.1976 12.6834 17.2101 12.7099C17.22 12.7367 17.2352 12.7611 17.2548 12.7818C17.2745 12.8024 17.2981 12.8189 17.3243 12.8301C17.3505 12.8413 17.3787 12.8471 17.4072 12.8471C17.4357 12.847 17.4639 12.8412 17.4901 12.8299C17.5187 12.8189 17.5444 12.8015 17.5652 12.7789C17.586 12.7564 17.6014 12.7294 17.6101 12.6999C17.7765 12.778 17.937 12.8682 18.0901 12.9699C18.0548 13.0021 18.0295 13.0436 18.0171 13.0897C18.0047 13.1358 18.0057 13.1844 18.0201 13.2299C18.0441 13.2829 18.088 13.3241 18.1424 13.3447C18.1967 13.3654 18.257 13.3636 18.3101 13.3399C18.3348 13.3299 18.3573 13.315 18.3762 13.2961C18.3951 13.2772 18.41 13.2547 18.4201 13.2299C18.5573 13.3489 18.6875 13.4758 18.8101 13.6099C18.7702 13.6403 18.742 13.6833 18.7299 13.7319C18.7178 13.7805 18.7226 13.8317 18.7436 13.8772C18.7646 13.9226 18.8004 13.9595 18.8453 13.9819C18.8901 14.0042 18.9411 14.0106 18.9901 13.9999C19.0212 13.9867 19.0486 13.9661 19.0701 13.9399C19.1664 14.0876 19.2532 14.2413 19.3301 14.3999C19.303 14.4109 19.2783 14.4271 19.2576 14.4477C19.2369 14.4683 19.2204 14.4928 19.2093 14.5198C19.1981 14.5468 19.1924 14.5757 19.1925 14.6049C19.1927 14.6342 19.1986 14.6631 19.2101 14.6899C19.2322 14.7422 19.2737 14.7839 19.3259 14.8062C19.3781 14.8286 19.4369 14.8299 19.4901 14.8099C19.5427 14.9774 19.5861 15.1477 19.6201 15.3199H19.5201C19.4942 15.3308 19.4708 15.3467 19.4512 15.3668C19.4316 15.3869 19.4163 15.4106 19.406 15.4367C19.3957 15.4628 19.3908 15.4907 19.3915 15.5188C19.3922 15.5468 19.3985 15.5744 19.4101 15.5999C19.4303 15.6517 19.4694 15.6939 19.5195 15.718C19.5696 15.7421 19.627 15.7464 19.6801 15.7299C19.6801 15.8099 19.6801 15.8999 19.6801 15.9899C19.6801 16.0799 19.6801 16.1799 19.6801 16.2799C19.6286 16.2599 19.5715 16.2599 19.5201 16.2799C19.489 16.2871 19.4599 16.3013 19.4351 16.3213C19.4103 16.3414 19.3904 16.3669 19.3769 16.3958C19.3634 16.4247 19.3566 16.4563 19.3572 16.4882C19.3578 16.5201 19.3656 16.5515 19.3801 16.5799Z" fill="#2A2B7A"/>
<path d="M16.67 16V15.88C17.602 15.7106 18.509 15.425 19.37 15.03C18.4366 15.1754 17.5236 15.4305 16.65 15.79V15.71C17.5157 15.3081 18.3285 14.8009 19.07 14.2C18.1973 14.5734 17.3743 15.0537 16.62 15.63L16.53 15.51C17.2824 14.9122 17.9546 14.2198 18.53 13.45C17.7811 14.0291 17.1091 14.7012 16.53 15.45L16.47 15.4C16.9859 14.6525 17.4122 13.847 17.74 13C17.1681 13.7537 16.6881 14.5728 16.31 15.44L16.21 15.39C16.5376 14.506 16.7591 13.5862 16.87 12.65C16.512 13.5234 16.2602 14.4366 16.12 15.37H16.03C16.1521 14.4239 16.1521 13.4661 16.03 12.52C15.9127 13.4664 15.9127 14.4236 16.03 15.37H15.89C15.7462 14.4482 15.498 13.5457 15.15 12.68C15.2567 13.6108 15.468 14.5266 15.78 15.41C15.3597 14.5509 14.8431 13.7424 14.24 13C14.5765 13.8607 15.0057 14.6822 15.52 15.45L15.46 15.5C14.8739 14.7573 14.2027 14.0861 13.46 13.5C13.932 14.1187 14.443 14.7066 14.99 15.26C14.3228 14.8814 13.6313 14.5473 12.92 14.26C13.669 14.8145 14.4773 15.2841 15.33 15.66V15.73C14.4602 15.4345 13.562 15.23 12.65 15.12C13.4978 15.4596 14.3795 15.7077 15.28 15.86C15.28 15.86 15.28 15.91 15.28 15.93C14.3504 15.8467 13.4143 15.8702 12.49 16C13.4021 16.117 14.3242 16.1338 15.24 16.05C15.2352 16.0899 15.2352 16.1302 15.24 16.17C14.3244 16.3229 13.4288 16.5778 12.57 16.93C13.4939 16.816 14.4027 16.6014 15.28 16.29C15.28 16.29 15.28 16.29 15.28 16.34C14.4677 16.7334 13.6999 17.2128 12.99 17.77C13.8474 17.4168 14.6652 16.9744 15.43 16.45V16.51C14.6842 17.0925 14.0125 17.7642 13.43 18.51C14.1697 17.9432 14.8409 17.2922 15.43 16.57L15.53 16.63C14.9847 17.3959 14.5347 18.2253 14.19 19.1C14.7866 18.3593 15.2872 17.5462 15.68 16.68C15.3584 17.5709 15.1468 18.4978 15.05 19.44C15.3992 18.5589 15.641 17.639 15.77 16.7H15.85C15.775 17.6344 15.812 18.5744 15.96 19.5C16.0673 18.5698 16.0673 17.6303 15.96 16.7H16.02C16.1791 17.6361 16.4511 18.5494 16.83 19.42C16.7027 18.484 16.4609 17.5671 16.11 16.69H16.19C16.6093 17.5141 17.1191 18.2888 17.71 19C17.3427 18.147 16.8797 17.3385 16.33 16.59C16.9295 17.2785 17.5999 17.902 18.33 18.45C17.7578 17.7333 17.1108 17.0796 16.4 16.5L16.45 16.43C17.2478 16.9473 18.0995 17.3765 18.99 17.71C18.2519 17.1634 17.4573 16.6975 16.62 16.32V16.26C17.4973 16.5694 18.4062 16.7807 19.33 16.89C18.5674 16.5993 17.7855 16.3621 16.99 16.18C17.8335 16.1879 18.6762 16.1277 19.51 16C18.5671 15.8812 17.6129 15.8812 16.67 16ZM16.67 16.1H16.75H16.67Z" fill="#2A2B7A"/>
</g>
<defs>
<clipPath id="clip0_221_8123">
<rect width="32" height="32" rx="1" fill="white"/>
</clipPath>
</defs>
</svg>
