<svg width="48" height="48" viewBox="0 0 48 48" fill="none" xmlns="http://www.w3.org/2000/svg">
<g clip-path="url(#clip0_912_5756)">
<path d="M39.486 36.09L31.824 34.174L31.172 31.566C33.222 29.536 34.626 26.748 35.042 23.888C36.1779 23.568 37.058 22.5939 37.2099 21.372L37.7099 17.372C37.8159 16.5279 37.5559 15.674 36.9959 15.0339C36.6679 14.6579 36.2539 14.3739 35.7959 14.1999L35.9799 10.4339L36.728 9.68391C37.854 8.48588 38.7879 6.43191 36.836 3.45187C35.336 1.16203 32.788 0 29.26 0C27.868 0 24.664 0 21.6801 2.004C13.16 2.18203 12 6.13997 12 10C12 10.8981 12.218 12.9201 12.362 14.14C11.8479 14.302 11.382 14.602 11.018 15.016C10.448 15.6621 10.184 16.5201 10.29 17.374L10.79 21.3741C10.9539 22.678 11.9439 23.704 13.196 23.9481C13.61 26.698 14.942 29.3961 16.874 31.3921L16.178 34.1781L8.51597 36.094C3.49997 37.344 0 41.828 0 47C0 47.552 0.448031 48 1.00003 48H47.0001C47.5521 48 48.0001 47.548 48.0001 46.996C48 41.828 44.5 37.344 39.486 36.09Z" fill="#CAAB72"/>
</g>
<defs>
<clipPath id="clip0_912_5756">
<rect width="48" height="48" fill="white"/>
</clipPath>
</defs>
</svg>
