<svg width="48" height="48" viewBox="0 0 48 48" fill="none" xmlns="http://www.w3.org/2000/svg">
<path d="M39.1003 14.0072C40.2559 11.5921 41.5451 8.67946 41.5451 7.55212C41.5451 6.11734 39.7598 5.37172 38.677 6.89266C37.2571 8.86809 36.657 6 35.0188 6C33.3805 6 32.5591 8.66312 31.3011 6.8778C30.1589 5.2529 28.1983 6.23319 28.1983 7.50608C28.1983 9.04335 29.4281 11.8238 30.5837 14.0785C28.1686 15.9663 25.4179 18.8641 23.6608 22.0114C29.8514 22.0262 34.8866 27.0747 34.8866 33.2817C34.8866 35.5201 34.2286 37.5995 33.1012 39.3402C33.6864 39.3981 34.2865 39.4278 34.8866 39.4278C42.1318 39.4278 48.0002 35.8127 48.0002 28.1887C48.0002 22.904 43.0675 17.0802 39.1018 14.0072H39.1003ZM42.7007 24.8958C42.5685 24.9686 42.4229 25.0117 42.2759 25.0117C41.9684 25.0117 41.6758 24.8512 41.5154 24.5735C40.5782 22.9204 39.1731 21.1633 37.563 19.6275C37.2125 19.2903 37.1977 18.7348 37.5333 18.3977C37.8705 18.0323 38.426 18.0323 38.778 18.368C40.5054 20.0062 42.0278 21.9104 43.0378 23.6942C43.2725 24.119 43.1254 24.6611 42.7007 24.8943V24.8958Z" fill="#CAAB72"/>
<path d="M9.84893 34.8858C6.09413 34.8858 2.19822 34.0778 0 32.5569V36.0265C0 37.4524 3.74292 39.4249 9.84893 39.4249C11.3699 39.4249 12.7482 39.3061 13.9483 39.0922C13.1641 37.7851 12.6413 36.3236 12.4274 34.7551C11.5719 34.8383 10.7045 34.8858 9.84893 34.8858Z" fill="#CAAB72"/>
<path d="M9.84893 33.1035C10.7282 33.1035 11.56 33.0679 12.3323 32.9847C12.3799 31.3093 12.7839 29.7289 13.4849 28.3031C12.2967 28.4813 11.0609 28.5645 9.84893 28.5645C6.09413 28.5645 2.19822 27.7565 0 26.2355V29.7052C0 31.131 3.74292 33.1035 9.84893 33.1035Z" fill="#CAAB72"/>
<path d="M9.84893 26.7836C11.7263 26.7836 13.3661 26.5935 14.7563 26.2964C16.0277 24.6804 17.7269 23.4209 19.6994 22.6857V19.9171C17.5011 21.4381 13.6037 22.2461 9.85042 22.2461C6.0971 22.2461 2.19822 21.4366 0 19.9156V23.3853C0 24.8112 3.74292 26.7836 9.84893 26.7836Z" fill="#CAAB72"/>
<path d="M9.85329 20.4593C15.9608 20.4593 19.7022 18.4868 19.7022 17.0609V13.5913C17.504 15.1122 13.6066 15.9202 9.85329 15.9202C6.09997 15.9202 2.20109 15.1122 0.00286865 13.5913V17.0609C0.00286865 18.4868 3.74579 20.4593 9.85181 20.4593H9.85329Z" fill="#CAAB72"/>
<path d="M9.85439 14.1379C15.9619 14.1379 19.7033 12.1654 19.7033 10.7396C19.7033 9.31368 15.9604 7.34122 9.85439 7.34122C3.74837 7.34122 0.00396729 9.32556 0.00396729 10.7396C0.00396729 12.1535 3.74689 14.1379 9.8529 14.1379H9.85439Z" fill="#CAAB72"/>
<path d="M23.6253 23.767C18.3822 23.767 14.1165 28.0327 14.1165 33.2758C14.1165 38.5189 18.3822 42.7846 23.6253 42.7846C28.8683 42.7846 33.1341 38.5189 33.1341 33.2758C33.1341 28.0327 28.8683 23.767 23.6253 23.767ZM24.4377 37.9946V39.1902C24.4377 39.3179 24.3337 39.4204 24.2075 39.4204H23.043C22.9153 39.4204 22.8128 39.3179 22.8128 39.1902V38.0243C21.6246 37.947 20.6651 37.0261 20.5463 35.8498C20.5329 35.7176 20.6458 35.6062 20.7794 35.6062H21.9573C22.0613 35.6062 22.1563 35.6745 22.1786 35.7755C22.2573 36.1394 22.5811 36.4127 22.9688 36.4127H23.9995C24.607 36.4127 25.1625 35.9775 25.2249 35.373C25.2962 34.6779 24.7496 34.0883 24.0694 34.0883H23.3104C21.8548 34.0883 20.5537 33.0278 20.4111 31.5796C20.2611 30.0468 21.3632 28.7353 22.8143 28.5407V27.3614C22.8143 27.2337 22.9183 27.1312 23.0445 27.1312H24.209C24.3367 27.1312 24.4392 27.2351 24.4392 27.3614V28.5273C25.6259 28.6031 26.5869 29.5255 26.7057 30.7018C26.7191 30.834 26.6062 30.9469 26.4726 30.9469H25.2947C25.1907 30.9469 25.0957 30.8785 25.0734 30.7775C24.9947 30.4122 24.6709 30.1389 24.2832 30.1389H23.2525C22.645 30.1389 22.0895 30.5756 22.0271 31.1801C21.9558 31.8752 22.5024 32.4648 23.1826 32.4648H24.0649C25.6943 32.4648 27.0013 33.8699 26.8394 35.532C26.7147 36.8123 25.6809 37.7881 24.4362 37.996L24.4377 37.9946Z" fill="#CAAB72"/>
</svg>
