<svg width="48" height="48" viewBox="0 0 48 48" fill="none" xmlns="http://www.w3.org/2000/svg">
<path d="M22.7321 17.226V26.4399C18.1539 26.9645 14.3458 30.0398 12.7735 34.2084H10.8982C10.0825 34.2084 9.41901 33.5449 9.41901 32.7291V17.226H22.7321Z" fill="#CAAB72"/>
<path d="M38.7598 17.226V32.7291C38.7598 33.5449 38.0964 34.2084 37.2925 34.2084H35.4172C33.8449 30.0381 30.0351 26.9628 25.4586 26.4399V17.226H38.7615H38.7598Z" fill="#CAAB72"/>
<path d="M39.9599 9.14269H32.9006C33.8094 8.86343 34.6252 8.33876 35.2294 7.55853C36.1264 6.40594 36.4294 4.93687 36.0689 3.52872C35.661 1.94456 34.4966 0.710736 32.9361 0.221608C31.3875 -0.26752 29.7204 0.0709771 28.4866 1.13047L24.0946 4.86917L19.7043 1.13047C18.4688 0.0675921 16.8034 -0.269212 15.2412 0.219916C13.6926 0.709044 12.5264 1.94456 12.1203 3.52703C11.7598 4.93687 12.0627 6.40425 12.9597 7.55683C13.5656 8.33707 14.3814 8.86174 15.2784 9.141H8.21738C7.41345 9.141 6.75 9.80445 6.75 10.6202V13.0083C6.75 13.8359 7.41345 14.4876 8.21738 14.4876H22.7304V9.37456H25.457V14.4876H39.9599C40.7875 14.4876 41.4391 13.8359 41.4391 13.0083V10.6202C41.4391 9.80445 40.7875 9.141 39.9599 9.141V9.14269ZM16.6629 6.42795C16.1264 6.42795 15.6271 6.18254 15.2886 5.75265C14.9619 5.32106 14.8451 4.78624 14.9856 4.26157C15.1363 3.66751 15.556 3.22577 16.1382 3.0379C16.3125 2.98036 16.4987 2.95666 16.6747 2.95666C17.0708 2.95666 17.4668 3.09545 17.7816 3.3764L21.3578 6.4161L16.6629 6.42795ZM31.5263 6.42795L26.8313 6.4161L30.3957 3.3764C30.8611 2.98036 31.467 2.85173 32.0492 3.0379C32.6315 3.22407 33.0512 3.66751 33.2018 4.26157C33.3305 4.78624 33.2255 5.32106 32.887 5.75265C32.5604 6.18423 32.0594 6.42795 31.5246 6.42795H31.5263Z" fill="#CAAB72"/>
<path d="M24.0915 28.938C18.8245 28.938 14.556 33.2081 14.556 38.4751C14.556 43.3935 18.2812 47.4301 23.0624 47.9463C28.7881 48.5437 33.6286 44.0806 33.6286 38.4751C33.6286 33.2081 29.3585 28.938 24.0915 28.938ZM20.4899 40.9428C20.4763 40.7938 20.6033 40.6669 20.7539 40.6669H22.1908C22.311 40.6669 22.4244 40.7448 22.443 40.8632C22.5378 41.4421 23.0421 41.8855 23.6464 41.8855H24.4706C25.0782 41.8855 25.6435 41.4725 25.7416 40.8717C25.8669 40.1101 25.2796 39.4483 24.5383 39.4483H23.7868C22.1333 39.4483 20.654 38.2433 20.4933 36.5982C20.3257 34.8938 21.5223 33.4315 23.1166 33.1624V31.9168C23.1166 31.7729 23.2334 31.6561 23.3756 31.6561H24.804C24.9479 31.6561 25.063 31.7729 25.063 31.9168V33.1641C26.4694 33.4011 27.5661 34.5638 27.6914 36.0041C27.7049 36.153 27.578 36.2817 27.4274 36.2817H25.9921C25.872 36.2817 25.7586 36.2021 25.74 36.0837C25.6452 35.5048 25.1408 35.0597 24.5366 35.0597H23.7124C23.1048 35.0597 22.5395 35.4727 22.4396 36.0718C22.3127 36.8351 22.9017 37.4986 23.643 37.4986H24.5366C26.3882 37.4986 27.8725 39.0946 27.688 40.9817C27.5492 42.4017 26.4288 43.4883 25.063 43.7608V45.0301C25.063 45.174 24.9462 45.2891 24.804 45.2891H23.3756C23.2317 45.2891 23.1166 45.1723 23.1166 45.0301V43.7811C21.7102 43.5441 20.6134 42.3814 20.4882 40.9411L20.4899 40.9428Z" fill="#CAAB72"/>
</svg>
