<svg width="48" height="48" viewBox="0 0 48 48" fill="none" xmlns="http://www.w3.org/2000/svg">
<path d="M41.3164 3.75H32.108C31.2457 3.75 30.548 4.44772 30.548 5.30995C30.548 6.17218 31.2472 6.8699 32.108 6.8699H37.5502L25.7889 18.6312L18.6824 11.5248C18.0978 10.9402 17.0608 10.9402 16.4762 11.5248L3.65433 24.3466C3.04475 24.9562 3.04475 25.9433 3.65433 26.5529C3.95839 26.8569 4.35792 27.0097 4.75746 27.0097C5.15699 27.0097 5.55653 26.8569 5.86059 26.5529L17.5793 14.8342L24.6857 21.9406C24.978 22.2329 25.3746 22.3974 25.7889 22.3974C26.2031 22.3974 26.5997 22.2329 26.892 21.9406L39.7564 9.07615V14.5198C39.7564 15.382 40.4556 16.0798 41.3164 16.0798C42.1771 16.0798 42.8763 15.382 42.8763 14.5198V5.30995C42.8763 4.44772 42.1771 3.75 41.3164 3.75Z" fill="#CAAB72"/>
<path d="M34.5277 21.1092H46.6945C47.4142 21.1092 47.9988 21.6938 47.9988 22.4136V24.2761C47.9988 24.9959 47.4142 25.579 46.6959 25.579H34.5292C33.8095 25.579 33.2249 24.9944 33.2249 24.2747V22.4121C33.2249 21.6924 33.8095 21.1092 34.5277 21.1092Z" fill="#CAAB72"/>
<path d="M34.5285 27.1389H46.6952C47.415 27.1389 47.9996 27.7235 47.9996 28.4433V30.3058C47.9996 31.0256 47.415 31.6087 46.6967 31.6087H34.53C33.8102 31.6087 33.2256 31.0241 33.2256 30.3044V28.4418C33.2256 27.7221 33.8102 27.1375 34.53 27.1375L34.5285 27.1389Z" fill="#CAAB72"/>
<path d="M34.5277 33.1702H46.6945C47.4142 33.1702 47.9988 33.7548 47.9988 34.4745V36.3371C47.9988 37.0568 47.4142 37.64 46.6959 37.64H34.5292C33.8095 37.64 33.2249 37.0554 33.2249 36.3356V34.4731C33.2249 33.7533 33.8095 33.1702 34.5277 33.1702Z" fill="#CAAB72"/>
<path d="M34.5276 39.1999H46.6944C47.4141 39.1999 47.9987 39.7845 47.9987 40.5043V42.3668C47.9987 43.0865 47.4141 43.6712 46.6944 43.6712H34.5276C33.8079 43.6712 33.2233 43.0865 33.2233 42.3668V40.5043C33.2233 39.7845 33.8079 39.2014 34.5262 39.2014L34.5276 39.1999Z" fill="#CAAB72"/>
<path d="M17.9161 27.1389H30.0828C30.8025 27.1389 31.3871 27.7235 31.3871 28.4433V30.3058C31.3871 31.0256 30.8025 31.6087 30.0842 31.6087H17.9175C17.1978 31.6087 16.6132 31.0241 16.6132 30.3044V28.4418C16.6132 27.7221 17.1978 27.1375 17.9175 27.1375L17.9161 27.1389Z" fill="#CAAB72"/>
<path d="M17.9161 33.1702H30.0828C30.8025 33.1702 31.3871 33.7548 31.3871 34.4745V36.3371C31.3871 37.0568 30.8025 37.64 30.0842 37.64H17.9175C17.1978 37.64 16.6132 37.0554 16.6132 36.3356V34.4731C16.6132 33.7533 17.1978 33.1702 17.9161 33.1702Z" fill="#CAAB72"/>
<path d="M17.9159 39.1999H30.0827C30.8024 39.1999 31.387 39.7845 31.387 40.5043V42.3668C31.387 43.0865 30.8024 43.6712 30.0827 43.6712H17.9159C17.1962 43.6712 16.6116 43.0865 16.6116 42.3668V40.5043C16.6116 39.7845 17.1962 39.2014 17.9145 39.2014L17.9159 39.1999Z" fill="#CAAB72"/>
<path d="M1.3029 33.1702H13.4696C14.1894 33.1702 14.774 33.7548 14.774 34.4745V36.3371C14.774 37.0568 14.1894 37.64 13.4711 37.64H1.30436C0.584614 37.64 0 37.0554 0 36.3356V34.4731C0 33.7533 0.584614 33.1702 1.3029 33.1702Z" fill="#CAAB72"/>
<path d="M1.3029 39.1999H13.4696C14.1894 39.1999 14.774 39.7845 14.774 40.5043V42.3668C14.774 43.0865 14.1894 43.6712 13.4696 43.6712H1.30436C0.584614 43.6712 0 43.0865 0 42.3668V40.5043C0 39.7845 0.584614 39.2014 1.3029 39.2014V39.1999Z" fill="#CAAB72"/>
</svg>
