<svg xmlns="http://www.w3.org/2000/svg" width="80" height="40" fill="none" viewBox="0 0 80 40">
    <path fill="#fff" d="M45.373.182h-.265v38.96h.265V.183zM65.516 10.473c-2.57 0-4.662 2.051-4.662 4.571 0 2.52 2.093 4.571 4.662 4.571 2.57 0 4.662-2.052 4.662-4.571.027-2.52-2.066-4.572-4.662-4.572z"/>
    <path fill="#92278F" d="M55.662 6.966c-.027.052-.027.104 0 .156.026.026.026.052.053.052l4.953 2.831c.053.026.106.026.16 0 .026 0 .026-.026.052-.052v-.026c.45-.805 1.086-1.506 1.908-2.052.82-.571 1.695-.909 2.622-1.065h.027c.026 0 .026 0 .053-.026.053-.026.08-.104.053-.156l-1.06-5.506c0-.026-.026-.052-.026-.052-.027-.052-.08-.078-.16-.052h-.026c-1.748.312-3.47.987-5.033 2.078-1.483.987-2.702 2.338-3.576 3.87z"/>
    <path fill="#005BAA" d="M52.827 17.616c.027.051.08.077.133.103.026 0 .053 0 .08-.026l5.35-2.026c.053-.026.106-.078.106-.13v-.077c-.344-.858-.503-1.767-.45-2.754.053-.96.344-1.87.795-2.675v-.026c0-.026.026-.026.026-.052 0-.052-.026-.13-.08-.156l-5.032-2.65c-.027 0-.053-.025-.08-.025-.053 0-.106.026-.132.078-.848 1.532-1.378 3.273-1.51 5.143-.16 1.87.132 3.662.794 5.273z"/>
    <path fill="#009BDF" d="M59.609 26.369c.053.026.106 0 .159-.052.026-.026.026-.052.026-.078l1.696-5.35c.026-.053 0-.13-.053-.157-.027-.026-.027-.026-.053-.026h-.027c-.9-.26-1.748-.701-2.463-1.35-.742-.65-1.298-1.429-1.643-2.26v-.026c0-.026-.026-.026-.026-.052-.053-.052-.106-.052-.16-.026l-5.244 2.234c-.027 0-.053.026-.053.052-.027.052-.053.104-.027.156.689 1.61 1.775 3.09 3.18 4.337 1.377 1.221 2.992 2.104 4.688 2.598z"/>
    <path fill="#00A651" d="M70.761 26.628c.053-.026.08-.078.053-.155 0-.026-.026-.052-.026-.078l-3.18-4.65c-.026-.052-.105-.078-.158-.052-.027 0-.027 0-.053.026 0 0-.027 0-.027.026-.768.52-1.642.883-2.622 1.04-.98.155-1.934.077-2.835-.157h-.079c-.053 0-.106.052-.133.104l-1.51 5.403v.078c0 .052.054.104.106.13h.027c1.722.467 3.576.597 5.43.285 1.855-.311 3.55-1.013 5.007-2z"/>
    <path fill="#FFF200" d="M78.046 18.29c0-.051-.027-.103-.08-.13-.026-.025-.052-.025-.079-.025l-5.695-.442c-.053 0-.106.026-.16.078 0 .026-.026.026-.026.052v.026c-.053.91-.318 1.818-.794 2.675-.477.858-1.14 1.559-1.881 2.078h-.027c-.026 0-.026.026-.053.052-.026.052-.026.13 0 .156l3.39 4.52.054.052c.053.026.106.026.159 0 1.43-1.013 2.702-2.364 3.603-4 .953-1.61 1.457-3.351 1.589-5.091z"/>
    <path fill="#F68B1F" d="M75.874 7.486c-.053-.026-.106-.052-.16-.026-.026 0-.052.026-.052.052l-3.947 4.077c-.027.052-.053.104-.027.156 0 .026.027.026.027.052l.026.026c.689.624 1.245 1.377 1.616 2.286.371.91.504 1.844.45 2.753v.078c.027.052.08.104.133.104l5.722.26c.026 0 .053 0 .08-.026.052-.026.079-.078.105-.13v-.026c.106-1.74-.185-3.559-.9-5.273-.69-1.688-1.775-3.169-3.073-4.363z"/>
    <path fill="#ED1C24" d="M65.887 2.473c-.053 0-.106.051-.133.103v.078l.848 5.559c0 .052.053.104.106.13h.08c.927-.156 1.88-.104 2.834.181.954.26 1.801.728 2.49 1.351h.027c.026 0 .026.026.053.026.053.026.132 0 .159-.052l3.735-4.234c.026-.026.026-.026.026-.052.027-.051 0-.103-.053-.155-1.324-1.143-2.967-2.052-4.794-2.572-1.775-.545-3.63-.65-5.378-.363z"/>
    <path fill="#000" d="M65.516 10.395c-2.622 0-4.742 2.078-4.742 4.649s2.12 4.65 4.742 4.65c2.623 0 4.742-2.079 4.742-4.65s-2.12-4.65-4.742-4.65zm3.444 7.272c.08-.181.106-.415.106-.571-.106.078-.186.182-.318.26-.318.233-.689.39-1.007.441l-.9-.987.662 1.143c-.186.286-.424.572-.768.831-.106.078-.212.156-.345.208.16.026.398.078.583.078-.45.156-.954.26-1.457.26-.503 0-1.007-.078-1.457-.26.212 0 .424-.026.61-.078-.107-.052-.239-.13-.345-.208-.318-.233-.583-.52-.768-.805l.662-1.143-.927.987c-.344-.078-.689-.233-1.007-.441-.106-.078-.212-.156-.318-.26.027.182.053.39.106.571-.582-.727-.927-1.636-.927-2.623v-.13c.053.208.16.39.265.546.027-.13.053-.26.106-.39.133-.39.318-.701.556-.961l1.298.26v-.026l-1.218-.546c-.027-.337 0-.701.132-1.09.053-.13.08-.26.16-.364-.16.078-.398.181-.557.311.583-.83 1.43-1.454 2.437-1.74-.185.104-.344.286-.477.416.133-.026.265-.026.398-.026.397 0 .794.078 1.112.233l.16 1.3h.026l.158-1.3c.318-.13.69-.233 1.113-.233.133 0 .265 0 .397.026-.132-.13-.291-.312-.476-.416 1.006.286 1.88.91 2.437 1.74-.16-.13-.398-.233-.557-.311.053.104.106.233.16.363.132.364.158.754.132 1.091l-1.219.546v.026l1.298-.26c.239.26.424.571.557.961.052.13.079.26.105.39.08-.156.212-.364.265-.546v.13c-.026.961-.37 1.87-.953 2.597z"/>
    <path fill="#000" d="M63.609 14.42l.742 2.208h2.357l.742-2.207-1.934-1.351-1.907 1.35z"/>
    <path fill="#fff" d="M51.794 31.875v6.234h3.63v-1.403h-1.987v-4.83h-1.643zM58.47 34.42c-.742 0-1.192.546-1.192 1.195 0 .702.45 1.273 1.165 1.273.689 0 1.245-.493 1.245-1.22-.026-.754-.556-1.248-1.218-1.248zm-2.755 1.221c0-1.402 1.06-2.623 2.463-2.623.61 0 1.007.208 1.457.597v-.52h1.51v5.014H59.61v-.494s-.556.598-1.51.598c-1.43.026-2.384-.961-2.384-2.572zM65.701 38.109h-3.655v-6.234h1.642v4.831h2.013v1.403zM67.927 38.109H66.39v-4.987h1.537v4.987zm-1.696-6.26c0-.493.424-.909.928-.909.503 0 .927.39.927.91 0 .519-.424.934-.954.934-.503-.026-.9-.415-.9-.935zM71.132 34.317c-.715 0-1.06.571-1.06 1.194 0 .65.398 1.17 1.06 1.17.768 0 1.192-.598 1.192-1.17-.026-.649-.397-1.194-1.192-1.194zm-2.57 1.194c0-1.35.875-2.493 2.2-2.493.635 0 1.085.208 1.51.65v-.572h1.456v4.39c0 1.532-1.192 2.337-2.596 2.337-1.245 0-2.331-.623-2.49-1.74h1.722c.212.337.424.416.821.416.53 0 1.033-.234 1.033-.78v-.363c-.291.26-.848.571-1.457.571-1.298.026-2.198-1.039-2.198-2.416zM77.198 34.42c-.741 0-1.192.546-1.192 1.195 0 .702.45 1.273 1.166 1.273.689 0 1.245-.493 1.245-1.22-.027-.754-.556-1.248-1.219-1.248zm-2.755 1.221c0-1.402 1.06-2.623 2.464-2.623.61 0 1.007.208 1.457.597v-.52h1.51v5.014h-1.537v-.494s-.556.598-1.51.598c-1.43.026-2.384-.961-2.384-2.572zM12.691 30.94c.8 0 1.39.578 1.39 1.321s-.59 1.321-1.39 1.321c-.8 0-1.39-.578-1.39-1.32 0-.744.59-1.322 1.39-1.322zm0 2.105c.421 0 .8-.33.8-.784s-.337-.784-.8-.784c-.421 0-.8.33-.8.784 0 .413.379.784.8.784zM14.88 30.981h1.6v.496h-1.01v.536h.926v.496h-.926v.95h-.632V30.98h.042zM17.238 30.981h1.6v.496h-1.01v.536h.926v.496h-.927v.95h-.631V30.98h.042zM20.227 30.981v2.56h-.631v-2.56h.631zM21.027 32.261c0-.743.59-1.32 1.39-1.32.336 0 .673.123.926.288l-.295.454c-.168-.124-.337-.206-.59-.206-.42 0-.8.33-.8.784s.337.784.8.784c.253 0 .464-.123.632-.247l.337.454c-.253.206-.59.33-.926.33-.885-.041-1.474-.578-1.474-1.32zM24.732 30.981v2.56h-.631v-2.56h.631zM27.006 30.981l.884 2.56h-.632l-.168-.537h-.842l-.169.537h-.631l.884-2.56h.674zm-.337.62l-.295.908h.59l-.295-.909zM28.563 30.981h.632v2.023h.968v.537h-1.6v-2.56zM1.176 35.508c.548 0 .926.33.926.826 0 .371-.21.619-.505.743l.59.95h-.674l-.505-.867H.839v.866H.25v-2.56h.926v.042zm-.337.454v.702h.295c.253 0 .379-.165.379-.372 0-.206-.126-.371-.379-.371H.84v.041zM2.86 35.508h1.642v.496h-1.01v.495h.926v.495h-.926v.537h1.052v.495H2.86v-2.518zM5.85 36.788c0 .454.336.784.8.784.126 0 .252-.041.336-.082v-.413h-.505v-.454h1.137v1.156c-.253.206-.59.33-.969.33-.8 0-1.389-.578-1.389-1.321s.59-1.321 1.39-1.321c.336 0 .673.124.926.289l-.295.454c-.168-.124-.337-.206-.59-.206-.505-.042-.841.33-.841.784zM9.05 35.508v2.56h-.632v-2.56h.631zM11.239 35.467c.8 0 1.389.578 1.389 1.32 0 .744-.59 1.322-1.39 1.322-.8 0-1.389-.578-1.389-1.321s.59-1.321 1.39-1.321zm0 2.105c.42 0 .8-.33.8-.784s-.337-.784-.8-.784c-.421 0-.8.33-.8.784.042.413.379.784.8.784zM13.428 35.508h.631l.884 1.61v-1.61h.59v2.56h-.674l-.884-1.61v1.61h-.59v-2.56h.043zM17.764 35.508l.884 2.56h-.631l-.169-.537h-.842l-.168.537h-.632l.885-2.56h.673zm-.337.62l-.294.908h.59l-.296-.909zM19.364 35.508h.632v2.023h1.01v.537h-1.6v-2.56h-.042zM23.743 37.2v.868h-.632v-2.56h.968c.548 0 .927.33.927.826 0 .495-.38.825-.927.825h-.336v.042zm.294-1.238h-.294v.743h.294c.253 0 .38-.165.38-.371 0-.207-.17-.372-.38-.372zM27.11 35.508l.885 2.56h-.632l-.168-.537h-.842l-.168.537h-.632l.884-2.56h.674zm-.336.62l-.295.908h.59l-.295-.909zM29.637 35.508c.547 0 .926.33.926.826 0 .371-.21.619-.505.743l.59.95h-.674l-.506-.867H29.3v.866h-.59v-2.56h.927v.042zm-.337.454v.702h.295c.252 0 .379-.165.379-.372 0-.206-.127-.371-.38-.371H29.3v.041zM31.784 36.004h-.631v-.537h1.894v.537h-.631v2.022h-.632v-2.022zM33.763 35.508h.631l.884 1.61v-1.61h.59v2.56h-.632l-.884-1.61v1.61h-.59v-2.56zM36.752 35.508h1.642v.496h-1.053v.495h.927v.495h-.927v.537h1.053v.495H36.71v-2.518h.042zM40.204 35.508c.548 0 .926.33.926.826 0 .371-.21.619-.505.743l.59.95h-.674l-.505-.867h-.169v.866h-.589v-2.56h.926v.042zm-.337.454v.702h.295c.253 0 .38-.165.38-.372 0-.206-.127-.371-.38-.371h-.294v.041z"/>
    <path fill="#CAAB72" d="M35.508 2.824H5.957v25.974h29.551V2.824z"/>
    <path fill="url(#paint0_radial)" d="M33.977 4.264H7.457v23.064h26.52V4.264z"/>
    <path fill="#fff" d="M16.89 15.689v9.372c0 .215-.062.337-.25.337-.187 0-.25-.122-.25-.337v-1.225h-.468c-.438 0-2.187 1.44-2.624 1.715-.75-.428-1.687-.857-2.406-1.102-.406.367-.687.612-.874.796-.188.184-.25.276-.344.276-.125 0-.281-.153-.281-.276 0-.122.281-.429 1.624-1.776.906-.92 1.281-2.053 1.281-3.737 0-2.818-1.218-5.207-2.624-5.207-.469 0-.687.184-.781.643-.031.245-.125.306-.25.306-.219 0-.312-.337-.312-.919 0-1.286.906-2.328 2.03-2.328.969 0 1.375.766 1.937.705v-1.9c0-.49-.187-.918-.531-1.194-.312-.245-1.937-1.347-2.53-1.347-.219 0-.313.092-.438.092-.093 0-.093-.031-.093-.062 0-.092.062-.122.218-.306l2.062-2.022c.094-.091.156-.122.25-.122.687 0 3.53 2.236 3.842 2.236.531 0 3.405-2.175 4.186-2.175.219 0 .438.184 2 1.44.25.214.78.674 1.249.95.437.244.437.306.437.796.25-.062.531-.245 2.187-1.562.468-.399 1.843-1.501 1.968-1.501s1.28.46 2.968 1.164c.5.214.562.245.562.582v13.354c0 .429.062.582.25.766.78.674 1.25.95 1.5.95.093 0 .187-.031.25-.093.124-.183.155-.214.249-.214s.156.092.156.215c0 .153-1.187 1.623-2.374 2.542-.718-.245-2-1.103-2.686-1.838-.25-.245-.282-.306-.282-.766V13.33c0-1.103.344-1.868 1.656-3.584.687-.857.719-1.133.594-1.133-.094 0-1.687 1.133-2 1.317-1.405-.796-1.843-1.041-2.592-1.041-.407 0-.688.214-.688.46v15.896c0 .215-.093.368-.25.368-.124 0-.218-.123-.218-.337V24.08c-1.125.184-2.03 1.47-2.28 1.47-.282 0-2-2.021-2-2.174v-7.688h-3.03zm-.468-6.586c0-.52-.063-.704-.157-.704-.25 0-1.062.52-1.062.704v7.168c0 3.522-.437 3.92-1.374 4.87-.438.429-.531.551-.844.919.531.765 2.374 1.102 3.405 1.041V9.103h.032zm.468 4.135h3.061V10.39c0-.552-1.968-2.022-2.624-2.022-.28 0-.437.184-.437.52v4.35zm7.341-3.645c0-.06-.031-.092-.094-.092-.093 0-.218.062-.28.092l-.626.368c-.343.214-.437.306-.437.46v2.603c0 .184.25.306.437.306h1.031l-.031-3.737zm0 6.065h-1c-.28 0-.437.214-.437.613v5.299c0 1.041.437 1.531 1.406 1.623v-7.535h.031z"/>
    <defs>
        <radialGradient id="paint0_radial" cx="0" cy="0" r="1" gradientTransform="matrix(47.0623 0 0 23.0434 21.288 5.495)" gradientUnits="userSpaceOnUse">
            <stop stop-color="#C22127"/>
            <stop offset=".505" stop-color="#BF2029"/>
            <stop offset="1" stop-color="#C92127"/>
        </radialGradient>
    </defs>
</svg>
