<svg xmlns="http://www.w3.org/2000/svg" width="262" height="64" fill="none" viewBox="0 0 262 64">
    <g clip-path="url(#clip0)">
        <path fill="#fff" d="M113.254 0h-.612v64h.612V0zM144.398 38.608c4.021 0 7.281-3.26 7.281-7.281s-3.26-7.281-7.281-7.281-7.281 3.26-7.281 7.28c0 4.022 3.26 7.282 7.281 7.282zM185.392 39.893h-11.381V20.069h5.14v15.357h6.241v4.467zM194.876 28.145c-2.264 0-3.733 1.713-3.733 3.794 0 2.203 1.408 4.038 3.61 4.038 2.142 0 3.916-1.59 3.916-3.855-.061-2.325-1.713-3.977-3.793-3.977zm-8.627 3.916c0-4.405 3.242-8.321 7.648-8.321 1.958 0 3.12.673 4.527 1.958v-1.652h4.712v15.908h-4.834v-1.53s-1.713 1.958-4.711 1.958c-4.344-.06-7.342-3.242-7.342-8.32zM217.392 39.893h-11.381V20.069h5.14v15.357h6.241v4.467zM224.367 39.893h-4.772V23.985h4.772v15.908zm-5.262-19.885c0-1.591 1.285-2.937 2.876-2.937s2.937 1.285 2.937 2.875c0 1.652-1.285 2.937-2.937 2.937s-2.876-1.284-2.876-2.875zM234.402 27.84c-2.264 0-3.366 1.835-3.366 3.793 0 2.019 1.224 3.732 3.304 3.732 2.387 0 3.671-1.897 3.671-3.67.062-2.142-1.162-3.856-3.609-3.856zm-8.016 3.793c0-4.283 2.754-7.954 6.914-7.954 2.019 0 3.365.673 4.711 2.08v-1.774h4.589v14.011c0 4.895-3.671 7.465-8.137 7.465-3.916 0-7.281-1.958-7.771-5.568h5.384c.674 1.101 1.347 1.285 2.509 1.285 1.652 0 3.243-.796 3.243-2.509v-1.162c-.918.856-2.631 1.835-4.528 1.835-4.099.061-6.914-3.365-6.914-7.71zM253.308 28.145c-2.264 0-3.733 1.713-3.733 3.794 0 2.203 1.408 4.038 3.61 4.038 2.142 0 3.916-1.59 3.916-3.855-.061-2.325-1.652-3.977-3.793-3.977zm-8.627 3.916c0-4.405 3.242-8.321 7.648-8.321 1.958 0 3.12.673 4.589 1.958v-1.652h4.711v15.908h-4.834v-1.53s-1.713 1.958-4.711 1.958c-4.405-.06-7.403-3.242-7.403-8.32z"/>
        <path fill="#893A96" d="M129.04 18.54c-.061.06-.061.183 0 .244 0 .061.061.061.123.061l7.709 4.467c.061.06.184.06.245 0l.061-.062v-.06c.734-1.286 1.713-2.387 2.937-3.244 1.285-.917 2.631-1.468 4.099-1.713 0 0 .061 0 .061-.06.062-.062.123-.184.123-.246l-1.53-8.75c0-.06 0-.06-.061-.122-.061-.06-.122-.122-.245-.122-2.692.49-5.384 1.59-7.831 3.304-2.387 1.713-4.283 3.916-5.691 6.302z"/>
        <path fill="#0065B1" d="M124.635 35.426c.061.061.122.123.183.123h.123l8.321-3.182c.061-.061.122-.122.122-.245v-.06V32c-.55-1.346-.795-2.815-.673-4.344.123-1.53.551-2.998 1.224-4.222v-.122c0-.123-.061-.184-.122-.245l-7.771-4.222h-.122c-.123 0-.184.061-.245.123-1.346 2.447-2.141 5.2-2.325 8.137-.184 2.937.306 5.752 1.285 8.321z"/>
        <path fill="#0B9BD7" d="M135.22 49.316c.061 0 .183 0 .245-.062 0-.06.061-.06.061-.122l2.631-8.505c0-.061 0-.183-.061-.245l-.062-.06h-.061c-1.407-.43-2.692-1.102-3.854-2.142-1.163-1.04-2.02-2.264-2.57-3.61l-.061-.061c-.062-.062-.184-.062-.245-.062l-8.199 3.488c-.061 0-.061.061-.061.061-.061.061-.061.184-.061.245 1.101 2.57 2.753 4.895 4.956 6.914 2.202 2.019 4.711 3.365 7.342 4.16z"/>
        <path fill="#0FB15F" d="M152.597 49.744c.061-.061.122-.123.122-.245 0-.061 0-.061-.061-.122l-4.956-7.404c-.061-.061-.123-.122-.245-.122h-.061-.061c-1.163.795-2.57 1.407-4.1 1.652-1.529.245-2.998.122-4.405-.245h-.123c-.122 0-.183.061-.183.184l-2.386 8.566v.122c0 .061.061.183.183.183 2.631.735 5.568.98 8.444.49 2.876-.428 5.507-1.468 7.832-3.06z"/>
        <path fill="#FDDC2D" d="M163.855 36.467c0-.062-.062-.184-.123-.245-.061 0-.061-.061-.122-.061l-8.872-.674c-.122 0-.184.062-.245.123v.122c-.122 1.469-.489 2.876-1.223 4.222-.735 1.346-1.775 2.447-2.937 3.304l-.062.061c-.061.061-.061.184 0 .245l5.262 7.159.062.06c.061.062.183.062.244 0 2.264-1.651 4.161-3.793 5.629-6.362 1.469-2.387 2.203-5.201 2.387-7.954z"/>
        <path fill="#F68D32" d="M160.551 19.335c-.061-.062-.184-.062-.245-.062s-.061.062-.122.062l-6.119 6.485c-.061.061-.061.184-.061.245 0 0 0 .061.061.061 1.04.98 1.958 2.203 2.509 3.61.55 1.407.795 2.937.734 4.344v.123c.061.122.122.122.183.183l8.872.428h.123c.061-.06.122-.122.122-.183.122-2.753-.306-5.63-1.407-8.383-.979-2.63-2.631-5.017-4.65-6.913z"/>
        <path fill="#EE3435" d="M144.948 11.38c-.061 0-.183.062-.183.184v.122l1.285 8.811c0 .061.061.184.183.184h.123c1.407-.245 2.937-.184 4.405.244 1.469.429 2.815 1.163 3.855 2.142l.061.061c.122 0 .183 0 .245-.061l5.812-6.73s.061-.062.061-.123 0-.183-.061-.245c-2.08-1.835-4.589-3.242-7.464-4.038-2.692-.795-5.568-.979-8.322-.55z"/>
        <path fill="#000" d="M149.782 35.487c.122-.305.122-.672.184-.917-.123.122-.306.245-.49.428-.489.367-1.04.612-1.591.734l-1.407-1.53 1.04 1.836c-.245.49-.673.918-1.162 1.285-.184.123-.368.245-.551.306.245.061.612.122.918.122-.735.245-1.469.367-2.264.367-.796 0-1.591-.122-2.264-.367.306 0 .673-.06.918-.122-.184-.122-.367-.183-.551-.306-.489-.367-.918-.795-1.162-1.285l1.04-1.835-1.408 1.53c-.55-.123-1.101-.368-1.59-.735-.184-.122-.306-.245-.49-.428.061.245.061.612.184.917-.918-1.162-1.408-2.57-1.408-4.16v-.245c.062.306.245.612.429.857.061-.184.061-.428.122-.612.184-.612.49-1.101.857-1.53l2.019.429-1.897-.857c-.061-.55 0-1.101.184-1.713.061-.184.122-.367.244-.55-.244.121-.611.305-.856.489.918-1.346 2.202-2.325 3.793-2.754-.306.184-.55.49-.734.673.184 0 .428-.06.612-.06.612 0 1.224.122 1.713.366l.245 2.08.245-2.08c.489-.244 1.101-.367 1.713-.367.183 0 .428 0 .612.061-.184-.183-.49-.49-.735-.673 1.591.429 2.937 1.407 3.794 2.754-.245-.245-.612-.367-.857-.49.061.184.184.367.245.55.184.613.245 1.163.184 1.714l-1.897.857 2.019-.429c.367.429.673.918.857 1.53.061.183.122.428.122.612.122-.245.306-.55.367-.857v.245c.061 1.59-.489 3.06-1.346 4.16zm-5.384-11.502c-4.039 0-7.343 3.304-7.343 7.342s3.304 7.342 7.343 7.342c4.038 0 7.342-3.304 7.342-7.342.061-4.038-3.243-7.342-7.342-7.342z"/>
        <path fill="#000" d="M141.461 30.41l1.101 3.487h3.671l1.163-3.488-2.998-2.203-2.937 2.203z"/>
        <path fill="#CAAB72" d="M50.6 6.424H17.132v30.043h33.53V6.424H50.6z"/>
        <path fill="url(#paint0_radial)" d="M48.887 8.076H18.845v26.677h30.042V8.076z"/>
        <path fill="#fff" d="M29.552 21.293v10.83c0 .244-.06.367-.244.367s-.306-.184-.306-.368v-1.407h-.55c-.49 0-2.51 1.652-2.938 2.02-.856-.49-1.896-.98-2.692-1.286-.428.429-.795.735-.979.918-.183.184-.306.306-.367.306-.183 0-.306-.184-.306-.306 0-.183.306-.49 1.836-2.08 1.04-1.04 1.468-2.386 1.468-4.344 0-3.243-1.407-6.058-2.998-6.058-.55 0-.795.184-.857.734-.06.245-.183.368-.244.368-.245 0-.367-.367-.367-1.04 0-1.469 1.04-2.693 2.325-2.693 1.101 0 1.53.918 2.202.796v-2.142c0-.55-.183-1.04-.612-1.407-.367-.306-2.202-1.53-2.875-1.53-.245 0-.367.123-.49.123-.122 0-.122-.061-.122-.123 0-.122.061-.183.245-.367l2.325-2.325c.122-.122.183-.183.306-.183.795 0 3.977 2.57 4.344 2.57.612 0 3.854-2.51 4.711-2.51.245 0 .49.184 2.264 1.653.306.245.856.795 1.407 1.101.49.306.49.367.49.918.306-.061.611-.306 2.508-1.836.55-.428 2.08-1.713 2.203-1.713.184 0 1.468.55 3.365 1.346.55.245.673.306.673.673v15.419c0 .49.061.673.245.857.857.795 1.407 1.1 1.713 1.1.123 0 .184-.06.306-.121.184-.184.184-.245.245-.245s.183.122.183.245c0 .183-1.346 1.835-2.692 2.936-.856-.305-2.264-1.284-3.06-2.141-.244-.306-.305-.367-.305-.857V18.54c0-1.285.428-2.141 1.897-4.16.795-.98.856-1.346.673-1.346-.123 0-1.897 1.346-2.264 1.53-1.59-.919-2.08-1.225-2.937-1.225-.49 0-.795.245-.795.551v18.356c0 .245-.123.428-.306.428-.184 0-.245-.184-.245-.367V30.96c-1.285.183-2.325 1.713-2.57 1.713-.306 0-2.264-2.325-2.264-2.509v-8.872h-3.549zm-.55-7.587c0-.612-.061-.796-.184-.796-.245 0-1.223.612-1.223.796v8.26c0 4.099-.49 4.527-1.53 5.629-.49.49-.612.611-.918 1.04.612.856 2.692 1.285 3.855 1.223V13.706zm.55 4.772h3.488v-3.304c0-.612-2.203-2.325-2.937-2.325-.306 0-.49.184-.49.612v5.017h-.06zm8.26-4.283c0-.061-.06-.122-.122-.122-.122 0-.245.06-.306.122l-.673.49c-.367.244-.49.367-.49.55v2.998c0 .184.246.367.49.367h1.163l-.062-4.405zm0 7.036h-1.1c-.307 0-.49.245-.49.673v6.119c0 1.224.49 1.774 1.59 1.835v-8.627zM23.128 46.011v-.367c.857-.122.918-.183.857-1.223v-4.344h-.061l-2.448 5.812h-.306l-2.264-5.69h-.06l-.123 2.937c-.061.917-.061 1.468 0 1.774.06.49.245.612.979.673v.367h-2.693v-.367c.612-.061.857-.245.918-.673.061-.367.184-.979.245-2.141l.184-2.203c.122-1.285 0-1.407-.918-1.53v-.367h2.325l2.141 4.895 2.203-4.895h2.203v.367c-.857.123-.918.184-.918 1.102l.122 4.16c0 1.04.062 1.102.918 1.224v.367h-3.304v.122zM31.082 46.011v-.367c.673-.122.735-.244.551-.734-.122-.306-.245-.795-.428-1.285h-2.142c-.122.367-.245.734-.428 1.224-.184.55-.123.673.673.795v.367h-2.509v-.367c.735-.122.857-.183 1.224-1.162l2.264-5.752.55-.183c.735 1.958 1.408 3.916 2.142 5.812.367.98.49 1.102 1.224 1.224v.367l-3.12.061zm-.918-5.445c-.367.795-.611 1.652-.917 2.447h1.713l-.796-2.447zM42.463 39.097c-.612.062-.857.184-.857.673-.061.368-.122.857-.122 1.836v4.467h-.551l-4.65-5.568h-.061v2.508c0 .98.06 1.469.122 1.836.061.49.245.673 1.04.734v.367h-2.753v-.367c.612-.061.856-.245.918-.673.06-.367.122-.856.122-1.835v-2.326c0-.734 0-.979-.245-1.223-.183-.245-.49-.367-.918-.429v-.367h2.08l4.284 4.895h.061v-1.958c0-.979-.061-1.53-.122-1.835-.062-.49-.306-.673-1.102-.735v-.367h2.692v.367h.062zM46.807 40.566c-.245-.673-.673-1.53-1.53-1.53-.612 0-1.101.49-1.101 1.102 0 .611.428.979 1.407 1.468 1.163.55 1.958 1.224 1.958 2.325 0 1.285-1.101 2.264-2.692 2.264-.428 0-.796-.061-1.101-.184-.306-.122-.49-.183-.673-.244-.123-.245-.245-1.224-.306-1.897l.367-.122c.244.734.856 1.958 1.958 1.958.673 0 1.1-.49 1.1-1.163s-.489-1.101-1.345-1.53c-1.163-.611-1.958-1.162-1.958-2.264 0-1.223.979-2.202 2.57-2.202.734 0 1.346.245 1.53.306.06.428.122.917.183 1.59l-.367.123zM47.908 46.011v-.367c.857-.06.918-.183.918-1.101V40.26c0-.979-.122-1.04-.918-1.101v-.367h3.304v.367c-.856.06-.918.183-.918 1.101v4.283c0 .979.123 1.04.918 1.101v.367h-3.304zM55.495 38.547c2.02 0 3.671 1.468 3.671 3.732 0 2.447-1.713 3.916-3.793 3.916-2.264 0-3.794-1.652-3.794-3.794 0-1.957 1.408-3.854 3.916-3.854zm-.183.49c-1.102 0-1.958 1.223-1.958 3.12s.856 3.549 2.264 3.549c1.04 0 1.896-1.04 1.896-3.12 0-2.204-.917-3.55-2.202-3.55zM67.243 39.097c-.612.062-.857.184-.857.673-.061.368-.122.857-.122 1.836v4.467h-.55l-4.651-5.568h-.061v2.508c0 .98.061 1.469.122 1.836.061.49.245.673 1.102.734v.367h-2.754v-.367c.612-.061.857-.245.918-.673.061-.367.122-.856.122-1.835v-2.326c0-.734 0-.979-.244-1.223-.184-.245-.49-.367-.918-.429v-.367h2.08l4.283 4.895h.061v-1.958c0-.979-.06-1.53-.122-1.835-.061-.49-.306-.673-1.101-.735v-.367h2.692v.367zM75.503 38.67c-.061 0-.184.183-.184.244-.06.061-.183.245-.183.245h-.796c-.612-.306-.917-.306-.979-.306-.06 0-.06.244-.06.244v2.999c0 .367-.062 1.04-.184 1.59-.184.612-.429.918-.796 1.346-.428.429-1.224.796-1.346.857-.122.061-.122.122-.122.122s-.123.062.49-.122c.733-.184 1.345-.55 1.651-.734 1.224-.857 1.224-2.142 1.224-2.142h1.162v1.652c0 .062-.06.123-.122.184-.122.122-.49.122-.673.122-.122 0-.306 0-.306.062 0 .06.245.183.428.305.184.123.184.367.245.49.061.122.55.245.98-.123.427-.367.366-.978.366-.978v-5.14l.123-.122c.06-.062.183-.184 0-.429-.368-.306-.857-.367-.918-.367zm-.184 4.16h-1.162c.061-.98.061-.98.061-1.713h1.101v1.713zm0-1.897h-1.101v-1.346s0-.306.183-.306h.857l.061 1.652z"/>
        <path fill="#fff" d="M70.67 43.87h.978v.49s0 .122.061.183c.062.061.184.061.429.061.244 0 .306-.122.367-.183.061-.062.061-.245.061-.245V39.77s0-.06.061-.06c.061-.062.245-.123.184-.184-.184-.429-.612-.55-.735-.612-.122-.061-.244-.061-.305 0-.062.061-.123.183-.184.245l-.122.122h-.918s-.55-.306-.673-.245c-.123 0-.123.184-.123.184v5.629s0 .122.062.122c.06.062.183 0 .306 0 .122 0 .305 0 .428-.122.122-.122.122-.245.122-.245v-.734zm.183-4.467h.795v2.142h-.979v-1.836c0-.06 0-.306.184-.306zm.795 2.264v2.08h-.979v-2.08h.98zM85.109 40.26c-.061 0-.122.061-.184.184-.06.122-.305.428-.305.428h-.184v-1.775c0-.06.122-.122.122-.183s-.183-.122-.428-.184c-.184 0-.49-.06-.612-.06s-.122.183-.122.183v2.019h-.918v-1.163s.734-.244.795-.244c.123-.062.123-.123.062-.123 0-.061-.062-.061-.184-.122s-.306-.184-.49-.306c-.183-.122-.183-.122-.305-.122-.062 0-.123.06-.245.183-.49.49-1.407 1.163-1.53 1.285.061.061.98-.245.98-.245v.918h-1.408c-.122 0 0 .061.061.122l.061.062H81.5s0 .49-.061.795c-.061.55-.367 1.04-.367 1.04v.123c.06.06.183-.062.428-.184.306-.184.55-.428.673-.673.184-.367.306-1.04.306-1.04h.979v1.958c0 .06.061.183.367.183.367 0 .49-.122.55-.183.062-.062.062-.184.062-.184v-1.958h1.224c.06 0 .122-.06.122-.122 0-.061-.122-.245-.245-.367-.245-.123-.367-.245-.428-.245z"/>
        <path fill="#fff" d="M84.68 44.727c-.183-.123-.244 0-.366.122-.062.061-.429.55-.429.55h-.856v-1.407h1.223c.184 0 .245 0 .368-.06.06-.062 0-.184-.184-.307-.184-.183-.49-.367-.55-.367-.062 0-.184.122-.184.184-.061.06-.245.367-.245.367h-.367v-.857c0-.061.183-.122.183-.245 0-.06-.06-.183-.183-.244-.184-.123-.49-.123-.734-.123-.184 0-.184.245-.184.245v1.224h-1.04c-.061 0-.184 0-.061.061.122.061.183.061.183.061h.857v1.407h-2.08c-.123 0-.062.062 0 .123H85.109c.061 0 .428 0 .184-.245-.429-.367-.551-.49-.612-.49zM80.459 43.686c.061-.06.061-.183.061-.244 0-.062.061-.184.061-.306v-.245-.122c-.061-.367-.306-.735-.55-.98-.306-.305-.674-.489-.674-.489.306-.49.551-.856.735-1.162.306-.429.49-.673.49-.673s.06-.062 0-.123c-.123-.122-.49-.367-.613-.428-.183-.061-.183-.122-.244-.122-.062 0-.123.06-.123.122-.06.061-.183.245-.183.245h-.367s-.551-.306-.796-.306c-.122 0-.122.122-.122.122v6.792c0 .06 0 .183.122.183.184.061.49-.06.55-.122.123-.061.123-.245.123-.245v-2.141c.428.122.49.367.49.49.06.121 0 .366.367.244.183-.061.306-.123.428-.184.061 0 .184-.122.245-.306zm-.734-.611c-.184.367-.796.305-.796.305v-3.793c0-.245.184-.245.184-.245h.428c-.122 1.102-.428 2.142-.428 2.142s.306.367.49.612c.183.244.305.673.122.979zM64.184 20.987c3.243-.49 3.977-2.142 3.977-5.079v-3.06c0-3.18-2.57-4.833-7.71-4.833-5.14 0-7.71 1.591-7.71 4.834v3.61c0 2.509.552 3.855 3.55 4.344-2.937.673-3.55 2.509-3.55 5.2v3.917c0 3.242 2.57 4.833 7.71 4.833 5.14 0 7.71-1.59 7.71-4.833v-3.916c0-2.937-.734-4.65-3.977-5.017zm-3.794-1.714c-1.162 0-1.713-.55-1.713-1.59v-5.14c0-1.04.55-1.53 1.713-1.53s1.713.551 1.713 1.53v5.14c.061 1.04-.55 1.59-1.713 1.59zm0 12.36c-1.162 0-1.713-.55-1.713-1.591v-5.813c0-1.1.55-1.652 1.713-1.652s1.713.551 1.713 1.652v5.813c.061 1.101-.55 1.59-1.713 1.59zM81.683 20.987c3.242-.49 3.977-2.142 3.977-5.079v-3.06c0-3.18-2.57-4.833-7.71-4.833-5.14 0-7.709 1.591-7.709 4.834v3.61c0 2.509.55 3.855 3.549 4.344-2.937.673-3.549 2.509-3.549 5.2v3.917c0 3.242 2.57 4.833 7.71 4.833 5.139 0 7.709-1.59 7.709-4.833v-3.916c0-2.937-.734-4.65-3.977-5.017zm-3.794-1.714c-1.162 0-1.713-.55-1.713-1.59v-5.14c0-1.04.55-1.53 1.713-1.53s1.713.551 1.713 1.53v5.14c.061 1.04-.55 1.59-1.713 1.59zm0 12.36c-1.162 0-1.713-.55-1.713-1.591v-5.813c0-1.1.55-1.652 1.713-1.652s1.713.551 1.713 1.652v5.813c.061 1.101-.55 1.59-1.713 1.59zM2.325 53.17c1.285 0 2.325.98 2.325 2.203 0 1.224-.979 2.203-2.325 2.203-1.285 0-2.325-.98-2.325-2.203 0-1.285.979-2.203 2.325-2.203zm0 3.549c.734 0 1.285-.55 1.285-1.346 0-.734-.55-1.346-1.285-1.346-.734 0-1.285.55-1.285 1.346 0 .734.55 1.346 1.285 1.346zM5.935 53.231h2.631v.857H6.914v.918h1.53v.856h-1.53v1.652h-.979v-4.283zM9.85 53.231h2.693v.857h-1.652v.918h1.53v.856h-1.53v1.652h-1.04v-4.283zM14.807 53.231v4.283h-1.04v-4.283h1.04zM16.092 55.373c0-1.224.979-2.203 2.325-2.203.612 0 1.101.184 1.53.49l-.49.734c-.245-.184-.612-.367-.979-.367-.734 0-1.285.55-1.285 1.346 0 .734.55 1.346 1.285 1.346.367 0 .734-.184 1.04-.428l.55.734c-.427.367-.978.55-1.529.55-1.468 0-2.447-.978-2.447-2.202zM22.21 53.231v4.283h-1.04v-4.283h1.04zM26.004 53.231l1.468 4.283h-1.04l-.306-.917H24.72l-.306.917h-1.04l1.468-4.283h1.163zm-.612 1.04l-.49 1.53h.98l-.49-1.53zM28.574 53.231h1.04v3.427h1.652v.856h-2.692v-4.283zM36.467 53.231c.917 0 1.53.551 1.53 1.408 0 .611-.307 1.04-.857 1.284l.979 1.652h-1.102l-.918-1.59h-.244v1.53h-.98V53.23h1.592zm-.612.796v1.224h.49c.366 0 .611-.245.611-.612s-.245-.612-.612-.612h-.49zM39.281 53.231h2.753v.857h-1.713v.857h1.591v.856h-1.59v.857h1.773v.856h-2.814v-4.283zM44.176 55.373c0 .734.55 1.346 1.285 1.346.183 0 .428-.061.55-.122v-.735h-.856v-.795h1.835v1.897c-.428.367-.979.55-1.59.55-1.285 0-2.325-.979-2.325-2.202 0-1.224.978-2.203 2.325-2.203.611 0 1.1.184 1.53.49l-.43.795c-.244-.184-.611-.367-.978-.367-.795 0-1.346.55-1.346 1.346zM49.5 53.231v4.283h-1.041v-4.283h1.04zM53.109 53.17c1.285 0 2.325.98 2.325 2.203 0 1.224-.979 2.203-2.325 2.203-1.285 0-2.325-.98-2.325-2.203.061-1.285 1.04-2.203 2.325-2.203zm0 3.549c.734 0 1.285-.55 1.285-1.346 0-.734-.55-1.346-1.285-1.346-.734 0-1.285.55-1.285 1.346 0 .734.55 1.346 1.285 1.346zM56.719 53.231h1.04l1.469 2.754V53.23h.917v4.283h-1.04l-1.468-2.753v2.753h-.918v-4.283zM63.939 53.231l1.468 4.283h-1.04l-.306-.917h-1.407l-.306.917h-1.04l1.468-4.283h1.163zm-.55 1.04l-.49 1.53h.979l-.49-1.53zM66.57 53.231h1.04v3.427h1.652v.856H66.57v-4.283zM73.85 56.046v1.468h-1.04v-4.283h1.592c.917 0 1.53.612 1.53 1.408 0 .856-.613 1.407-1.53 1.407h-.551zm.43-2.02h-.49v1.224h.49c.366 0 .611-.244.611-.611s-.245-.612-.612-.612zM79.358 53.231l1.468 4.283h-1.04l-.306-.917h-1.407l-.306.917h-1.04l1.468-4.283h1.163zm-.551 1.04l-.49 1.53h.98l-.49-1.53zM83.58 53.231c.917 0 1.529.551 1.529 1.408 0 .611-.306 1.04-.857 1.284l.98 1.652H84.13l-.857-1.468h-.244v1.407h-1.04v-4.283h1.59zm-.612.796v1.224h.489c.367 0 .612-.245.612-.612s-.245-.612-.612-.612h-.49zM87.128 54.088h-1.04v-.857h3.12v.857h-1.04v3.426h-1.04v-3.426zM90.432 53.231h1.04l1.469 2.754V53.23h.918v4.283h-1.04l-1.47-2.753v2.753h-.917v-4.283zM95.388 53.231h2.753v.857h-1.713v.857h1.591v.856h-1.59v.857h1.774v.856h-2.815v-4.283zM101.078 53.231c.918 0 1.53.551 1.53 1.408 0 .611-.306 1.04-.856 1.284l.978 1.652h-1.101l-.856-1.468h-.245v1.407h-.98v-4.283h1.53zm-.55.796v1.224h.489c.367 0 .612-.245.612-.612s-.245-.612-.612-.612h-.489z"/>
    </g>
    <defs>
        <radialGradient id="paint0_radial" cx="0" cy="0" r="1" gradientTransform="matrix(53.354 0 0 26.6431 34.503 9.495)" gradientUnits="userSpaceOnUse">
            <stop stop-color="#C22127"/>
            <stop offset=".505" stop-color="#BF2029"/>
            <stop offset="1" stop-color="#C92127"/>
        </radialGradient>
        <clipPath id="clip0">
            <path fill="#fff" d="M0 0H261.629V64H0z"/>
        </clipPath>
    </defs>
</svg>
