<svg width="144" height="48" viewBox="0 0 173 48" fill="none" xmlns="http://www.w3.org/2000/svg">
<mask id="mask0_912_5699" style="mask-type:luminance" maskUnits="userSpaceOnUse" x="4" y="5" width="42" height="38">
<path d="M45.4803 5.77216H4.55698V42.2279H45.4803V5.77216Z" fill="white"/>
</mask>
<g mask="url(#mask0_912_5699)">
<path d="M4.55698 6.29375C4.55698 6.00544 4.79026 5.77216 5.07857 5.77216H44.9594C45.2471 5.77216 45.481 6.00544 45.481 6.29375V41.7063C45.481 41.9946 45.2477 42.2279 44.9594 42.2279H5.07857C4.79087 42.2279 4.55698 41.994 4.55698 41.7063V6.29375Z" fill="#D3B271"/>
<path d="M6.57812 8.31911C6.57812 8.0308 6.81141 7.79749 7.09971 7.79749H42.9385C43.2262 7.79749 43.4598 8.0308 43.4598 8.31911V39.6808C43.4598 39.9691 43.2268 40.2025 42.9385 40.2025H7.0991C6.81141 40.2025 6.57751 39.9685 6.57751 39.6808V8.31911H6.57812Z" fill="#BE181B"/>
<path fill-rule="evenodd" clip-rule="evenodd" d="M20.3676 23.8589V35.342C20.3676 35.592 20.3029 35.7494 20.0799 35.7494C19.8569 35.7494 19.7632 35.592 19.7632 35.342V33.826H19.1945C18.7859 33.826 17.4695 34.8392 16.6324 35.4826C16.364 35.6895 16.1452 35.8575 16.0213 35.9426C15.1002 35.4067 13.9561 34.8705 13.0997 34.584C12.9461 34.7271 12.8059 34.8571 12.6784 34.9744C12.4112 35.2211 12.2027 35.4134 12.0565 35.5638C12.0021 35.6181 11.9549 35.6664 11.9144 35.7093C11.7881 35.8405 11.7174 35.9143 11.6467 35.9143C11.4883 35.9143 11.2943 35.7281 11.2943 35.5638C11.2943 35.3994 11.6467 35.0276 13.2659 33.3758C14.3743 32.239 14.8204 30.8801 14.8204 28.7926C14.8204 25.3463 13.3305 22.4005 11.6183 22.4005C11.0495 22.4005 10.7618 22.6223 10.6681 23.194C10.6391 23.4799 10.5098 23.573 10.3804 23.573C10.1284 23.573 9.99908 23.1584 9.99908 22.4645C9.99908 20.8846 11.1076 19.619 12.4747 19.619C13.1099 19.619 13.5403 19.8976 13.912 20.1388C14.2269 20.3431 14.5001 20.5195 14.8204 20.4773V18.1678C14.8204 17.5671 14.5974 17.0594 14.1513 16.6804C13.7699 16.3655 11.8056 15.0358 11.0713 15.0358C10.9311 15.0358 10.8283 15.0648 10.7376 15.0902C10.6657 15.1108 10.6017 15.1289 10.5316 15.1289C10.4379 15.1289 10.4022 15.1005 10.4022 15.0358C10.4022 14.9536 10.453 14.8932 10.595 14.7264C10.6131 14.7052 10.6325 14.6823 10.6536 14.6569L13.1577 12.1903C13.1806 12.174 13.2012 12.1583 13.2205 12.1438C13.31 12.0767 13.3674 12.0331 13.4744 12.0331C13.9803 12.0331 15.3837 12.9845 16.5315 13.763C17.3262 14.3015 17.9983 14.7572 18.1657 14.7572C18.4698 14.7572 19.3703 14.1975 20.3446 13.5913C21.4942 12.8763 22.7471 12.0972 23.2458 12.0972C23.4821 12.0972 23.7251 12.293 25.3515 13.6022L25.3593 13.6088C25.4621 13.6916 25.5709 13.7787 25.6851 13.8711C25.7637 13.9334 25.8616 14.015 25.9734 14.1087C26.3125 14.3915 26.7779 14.7802 27.2106 15.0437C27.7214 15.3586 27.7504 15.4226 27.7504 16.0234C28.0671 15.9594 28.4194 15.7085 30.4129 14.093C30.9816 13.6209 32.6652 12.2556 32.7947 12.2556C32.9529 12.2556 34.3492 12.8273 36.4144 13.6783C37.019 13.9286 37.1125 13.9932 37.1125 14.3716V30.7303C37.1125 31.2665 37.1772 31.4598 37.4002 31.6454C38.3505 32.4675 38.9259 32.7822 39.2425 32.7822C39.336 32.7822 39.4654 32.7466 39.559 32.6537C39.7176 32.4316 39.7531 32.4034 39.8467 32.4034C39.9406 32.4034 40.0408 32.5322 40.0408 32.6537C40.0408 32.8463 38.6163 34.6123 37.1554 35.7567C36.2707 35.4416 34.745 34.3978 33.8886 33.5113C33.6009 33.1963 33.5429 33.1322 33.5429 32.5963V20.8846C33.5429 19.5259 33.9816 18.6036 35.5726 16.4876C36.3998 15.4154 36.4572 15.0932 36.2996 15.0932C36.2224 15.0932 35.5042 15.5882 34.8556 16.0349C34.4157 16.3383 34.0071 16.6194 33.8531 16.7094C33.7841 16.6701 33.717 16.6315 33.6517 16.5946C32.0984 15.7055 31.5919 15.4154 30.7082 15.4154C30.2048 15.4154 29.8519 15.6656 29.8519 15.9872V35.4422C29.8519 35.6926 29.7225 35.8852 29.5352 35.8852C29.3768 35.8852 29.2831 35.7281 29.2831 35.4778V34.0196C28.3892 34.1645 27.6065 34.8899 27.0825 35.3745C26.8051 35.6315 26.6008 35.8211 26.4908 35.8211C26.1457 35.8211 24.0804 33.3545 24.0804 33.1613V23.8589H20.367H20.3676ZM19.7922 15.7937C19.7922 15.1573 19.7275 14.9427 19.6048 14.9427C19.3244 14.9427 18.3024 15.5792 18.3024 15.7937V24.5527C18.3024 28.8023 17.8176 29.3106 16.7194 30.4621C16.6977 30.4843 16.6765 30.5074 16.6541 30.5301C16.1434 31.0663 16.0207 31.1951 15.6394 31.6387C16.3084 32.5537 18.5248 32.9684 19.7988 32.9043V15.7937H19.7916H19.7922ZM24.081 20.8562H20.3676V15.5435C20.3676 15.1289 20.555 14.9071 20.9073 14.9071C21.6991 14.9071 24.081 16.7088 24.081 17.3737V20.8556V20.8562ZM29.2837 16.3589C29.2837 16.2942 29.2547 16.2658 29.1544 16.2658C29.0607 16.2658 28.9023 16.3298 28.802 16.3945L28.0749 16.8375C27.6645 17.0878 27.5352 17.2165 27.5352 17.4093V20.5697C27.5352 20.7915 27.8229 20.9487 28.0459 20.9487H29.2837V16.3582V16.3589ZM28.0749 23.7948H29.2765V32.9684C28.1033 32.8755 27.5636 32.2751 27.5636 31.0095V24.5243C27.5636 24.0523 27.7292 23.7948 28.0743 23.7948H28.0749Z" fill="white"/>
</g>
<path d="M53.6832 5.77216H53.0756V42.2279H53.6832V5.77216Z" fill="white"/>
<path d="M67.9876 24.5575C68.5119 24.5575 68.9692 24.4937 69.3592 24.3661C69.749 24.2314 70.0716 24.0435 70.3268 23.8025C70.589 23.5544 70.784 23.2567 70.9116 22.9094C71.0392 22.5549 71.103 22.1615 71.103 21.7291C71.103 21.318 71.0392 20.9458 70.9116 20.6126C70.784 20.2795 70.5927 19.9959 70.3375 19.762C70.0823 19.5281 69.7596 19.3509 69.3699 19.2304C68.9798 19.1028 68.5192 19.039 67.9876 19.039H65.8504V24.5575H67.9876ZM67.9876 16.8273C69.0153 16.8273 69.9049 16.9478 70.6564 17.1888C71.4077 17.4298 72.0281 17.7666 72.5172 18.199C73.0063 18.6314 73.3678 19.1489 73.6018 19.7514C73.8427 20.3539 73.9633 21.0131 73.9633 21.7291C73.9633 22.4734 73.839 23.1575 73.5911 23.7813C73.3429 24.398 72.9708 24.9296 72.4747 25.3762C71.9783 25.8228 71.3546 26.1701 70.6033 26.4182C69.859 26.6663 68.9871 26.7904 67.9876 26.7904H65.8504V32.2025H62.9901V16.8273H67.9876ZM83.2003 26.397L81.3289 21.2825C81.2365 21.0557 81.1408 20.7863 81.0418 20.4744C80.9424 20.1625 80.8431 19.8258 80.7441 19.4643C80.6517 19.8258 80.556 20.1661 80.457 20.485C80.3576 20.797 80.2619 21.0699 80.1699 21.3038L78.3091 26.397H83.2003ZM88.2509 32.2025H86.0393C85.791 32.2025 85.589 32.1424 85.4332 32.0218C85.277 31.8942 85.1601 31.7383 85.0823 31.5539L83.9339 28.4172H77.5648L76.4165 31.5539C76.3596 31.7171 76.2497 31.8659 76.0868 32.0005C75.9237 32.1351 75.7217 32.2025 75.4808 32.2025H73.2478L79.298 16.8273H82.2114L88.2509 32.2025ZM94.4888 24.1428C95.0277 24.1428 95.4956 24.0754 95.8923 23.9407C96.2964 23.8061 96.626 23.6218 96.8812 23.3878C97.1437 23.1468 97.3384 22.8633 97.466 22.5372C97.5936 22.2111 97.6574 21.8531 97.6574 21.4633C97.6574 20.6835 97.3989 20.0846 96.8812 19.6663C96.3708 19.2481 95.5876 19.039 94.5313 19.039H92.7024V24.1428H94.4888ZM101.847 32.2025H99.263C98.7738 32.2025 98.4196 32.0111 98.1997 31.6283L94.9673 26.7053C94.847 26.521 94.7121 26.3899 94.5632 26.3119C94.4216 26.2339 94.209 26.1949 93.9252 26.1949H92.7024V32.2025H89.8422V16.8273H94.5313C95.5733 16.8273 96.4665 16.9372 97.2108 17.1569C97.9624 17.3696 98.5755 17.6709 99.0503 18.0607C99.5324 18.4506 99.887 18.9185 100.114 19.4643C100.341 20.003 100.454 20.5985 100.454 21.2506C100.454 21.7681 100.376 22.2572 100.22 22.718C100.071 23.1787 99.8514 23.5969 99.5607 23.9726C99.2772 24.3484 98.9227 24.678 98.4974 24.9615C98.0794 25.245 97.6009 25.4683 97.0619 25.6314C97.2463 25.7377 97.4165 25.8653 97.5723 26.0142C97.7285 26.1559 97.8701 26.3261 97.9976 26.5245L101.847 32.2025ZM113.852 19.1772H109.216V32.2025H106.356V19.1772H101.72V16.8273H113.852V19.1772ZM128.826 16.8273V32.2025H127.358C127.131 32.2025 126.94 32.167 126.784 32.0962C126.635 32.0181 126.49 31.8905 126.348 31.7134L118.32 21.4633C118.363 21.9311 118.384 22.3635 118.384 22.7605V32.2025H115.864V16.8273H117.363C117.484 16.8273 117.587 16.8344 117.672 16.8486C117.764 16.8557 117.842 16.8769 117.906 16.9124C117.976 16.9407 118.044 16.9868 118.108 17.0506C118.171 17.1073 118.242 17.1853 118.32 17.2845L126.38 27.5772C126.359 27.3291 126.341 27.0845 126.327 26.8435C126.313 26.6025 126.306 26.3792 126.306 26.1737V16.8273H128.826ZM135.12 19.1028V23.3666H140.5V25.5676H135.12V29.9164H141.947V32.2025H132.249V16.8273H141.947V19.1028H135.12ZM149.128 24.1428C149.667 24.1428 150.134 24.0754 150.532 23.9407C150.936 23.8061 151.265 23.6218 151.52 23.3878C151.783 23.1468 151.978 22.8633 152.105 22.5372C152.233 22.2111 152.297 21.8531 152.297 21.4633C152.297 20.6835 152.038 20.0846 151.52 19.6663C151.01 19.2481 150.227 19.039 149.171 19.039H147.342V24.1428H149.128ZM156.486 32.2025H153.902C153.413 32.2025 153.059 32.0111 152.839 31.6283L149.607 26.7053C149.486 26.521 149.351 26.3899 149.202 26.3119C149.061 26.2339 148.848 26.1949 148.564 26.1949H147.342V32.2025H144.481V16.8273H149.171C150.213 16.8273 151.106 16.9372 151.85 17.1569C152.601 17.3696 153.214 17.6709 153.69 18.0607C154.171 18.4506 154.526 18.9185 154.753 19.4643C154.979 20.003 155.093 20.5985 155.093 21.2506C155.093 21.7681 155.015 22.2572 154.859 22.718C154.71 23.1787 154.49 23.5969 154.2 23.9726C153.916 24.3484 153.562 24.678 153.137 24.9615C152.718 25.245 152.24 25.4683 151.701 25.6314C151.885 25.7377 152.055 25.8653 152.212 26.0142C152.367 26.1559 152.509 26.3261 152.637 26.5245L156.486 32.2025ZM166.334 19.6238C166.249 19.7726 166.157 19.8825 166.057 19.9534C165.965 20.0172 165.848 20.0491 165.706 20.0491C165.557 20.0491 165.395 19.9959 165.217 19.8896C165.047 19.7762 164.842 19.6521 164.6 19.5175C164.36 19.3828 164.076 19.2623 163.75 19.1559C163.431 19.0425 163.052 18.9858 162.612 18.9858C162.215 18.9858 161.868 19.0354 161.57 19.1347C161.272 19.2268 161.021 19.358 160.815 19.5281C160.617 19.6982 160.468 19.9038 160.369 20.1448C160.27 20.3787 160.22 20.6375 160.22 20.921C160.22 21.2825 160.319 21.5838 160.517 21.8248C160.723 22.0658 160.993 22.2714 161.326 22.4415C161.659 22.6116 162.038 22.764 162.463 22.8987C162.889 23.0334 163.324 23.1787 163.771 23.3347C164.218 23.4835 164.654 23.6607 165.079 23.8663C165.504 24.0648 165.884 24.32 166.217 24.6319C166.55 24.9367 166.816 25.3124 167.014 25.759C167.22 26.2056 167.322 26.7478 167.322 27.3858C167.322 28.0805 167.202 28.7326 166.961 29.3423C166.727 29.9448 166.38 30.473 165.919 30.9266C165.465 31.3732 164.909 31.7277 164.25 31.9899C163.59 32.2451 162.835 32.3727 161.985 32.3727C161.496 32.3727 161.014 32.3231 160.539 32.2238C160.064 32.1317 159.607 31.9969 159.167 31.8197C158.735 31.6426 158.327 31.43 157.944 31.1818C157.561 30.9336 157.221 30.6571 156.923 30.3524L157.763 28.9807C157.835 28.8815 157.927 28.8 158.04 28.7362C158.154 28.6653 158.274 28.6299 158.401 28.6299C158.579 28.6299 158.77 28.7043 158.976 28.8532C159.181 28.9949 159.426 29.1544 159.709 29.3316C159.993 29.5088 160.323 29.6719 160.698 29.8208C161.081 29.9625 161.538 30.0334 162.07 30.0334C162.885 30.0334 163.516 29.842 163.962 29.4592C164.409 29.0694 164.632 28.5129 164.632 27.7899C164.632 27.3858 164.53 27.0562 164.324 26.801C164.126 26.5458 163.86 26.3332 163.527 26.163C163.194 25.9858 162.814 25.837 162.389 25.7164C161.963 25.5959 161.531 25.4648 161.092 25.323C160.652 25.1812 160.22 25.0111 159.794 24.8126C159.369 24.6142 158.99 24.3554 158.657 24.0364C158.324 23.7175 158.054 23.3205 157.849 22.8456C157.65 22.3635 157.551 21.7716 157.551 21.0699C157.551 20.5099 157.661 19.964 157.88 19.4324C158.107 18.9007 158.433 18.4293 158.859 18.0182C159.284 17.6071 159.809 17.2775 160.432 17.0293C161.056 16.7812 161.772 16.6572 162.58 16.6572C163.488 16.6572 164.324 16.799 165.09 17.0825C165.855 17.366 166.507 17.763 167.046 18.2734L166.334 19.6238Z" fill="white"/>
</svg>

