<svg width="243" height="40" viewBox="0 0 243 40" fill="none" xmlns="http://www.w3.org/2000/svg">
    <path d="M64.87 19.307c4.842-.725 5.902-3.247 5.902-7.566V7.189c0-4.783-3.81-7.189-11.46-7.189s-11.46 2.406-11.46 7.19v5.362c0 3.769.83 5.74 5.243 6.494-4.412.985-5.243 3.74-5.243 7.769v5.884c0 4.842 3.81 7.248 11.46 7.248s11.46-2.406 11.46-7.248v-5.826c0-4.436-1.06-6.958-5.902-7.566zm-5.615-2.522c-1.69 0-2.521-.812-2.521-2.406V6.725c0-1.565.83-2.319 2.52-2.319 1.72 0 2.58.783 2.58 2.32v7.653c0 1.594-.86 2.406-2.58 2.406zm0 18.523c-1.69 0-2.521-.811-2.521-2.406v-8.667c0-1.653.83-2.464 2.52-2.464 1.72 0 2.58.811 2.58 2.464v8.667c0 1.595-.86 2.406-2.58 2.406zM91.014 19.307c4.845-.725 5.906-3.247 5.906-7.566V7.189C96.92 2.406 93.107 0 85.451 0c-7.656 0-11.47 2.406-11.47 7.19v5.362c0 3.769.832 5.74 5.248 6.494-4.416.985-5.247 3.74-5.247 7.769v5.884c0 4.842 3.813 7.248 11.47 7.248 7.655 0 11.468-2.406 11.468-7.248v-5.826c0-4.436-1.06-6.958-5.906-7.566zm-5.62-2.522c-1.692 0-2.523-.812-2.523-2.406V6.725c0-1.565.831-2.319 2.523-2.319 1.72 0 2.58.783 2.58 2.32v7.653c.029 1.594-.831 2.406-2.58 2.406zm0 18.523c-1.692 0-2.523-.811-2.523-2.406v-8.667c0-1.653.831-2.464 2.523-2.464 1.72 0 2.58.811 2.58 2.464v8.667c.029 1.595-.831 2.406-2.58 2.406z" fill="#fff"/>
    <path d="M0 .572A.57.57 0 0 1 .569 0h43.527a.57.57 0 0 1 .57.572v38.803a.57.57 0 0 1-.57.572H.57A.57.57 0 0 1 0 39.375V.572z" fill="#D3B271"/>
    <path d="M2.206 2.79a.57.57 0 0 1 .569-.57H41.89a.57.57 0 0 1 .569.57v34.366a.57.57 0 0 1-.57.571H2.776a.57.57 0 0 1-.57-.571V2.79z" fill="url(#625zm3utva)"/>
    <path fill-rule="evenodd" clip-rule="evenodd" d="M17.256 19.819V32.4c0 .275-.07.447-.314.447-.243 0-.345-.172-.345-.447v-1.66h-.62c-.447 0-1.884 1.11-2.797 1.815-.293.226-.532.41-.667.504-1.006-.588-2.254-1.176-3.189-1.489-.167.157-.32.299-.46.428-.291.27-.52.481-.679.645-.06.06-.11.113-.155.16-.138.144-.215.224-.292.224-.173 0-.385-.203-.385-.384 0-.172.385-.587 2.152-2.397C10.715 29 11.2 27.513 11.2 25.225c0-3.777-1.626-7.004-3.495-7.004-.62 0-.935.242-1.037.87-.031.313-.172.415-.314.415-.275 0-.416-.455-.416-1.215 0-1.731 1.21-3.118 2.702-3.118.693 0 1.163.305 1.569.57.344.223.642.417.991.37v-2.53c0-.659-.243-1.215-.73-1.63-.417-.345-2.56-1.802-3.362-1.802-.153 0-.265.031-.364.06a.815.815 0 0 1-.225.042c-.102 0-.141-.032-.141-.102 0-.09.055-.156.21-.34l.065-.075 2.733-2.703.069-.051c.097-.074.16-.122.276-.122.553 0 2.084 1.043 3.337 1.896.867.59 1.601 1.09 1.784 1.09.332 0 1.315-.614 2.379-1.278 1.254-.784 2.622-1.637 3.166-1.637.258 0 .523.214 2.299 1.649l.364.294c.085.068.192.158.314.26.37.31.878.736 1.35 1.025.558.344.59.415.59 1.073.345-.07.73-.345 2.905-2.115.621-.517 2.459-2.014 2.6-2.014.173 0 1.697.627 3.95 1.56.66.273.762.344.762.76v17.925c0 .588.071.8.315 1.003 1.036.9 1.665 1.246 2.01 1.246.102 0 .244-.04.346-.141.173-.243.212-.275.314-.275.102 0 .212.141.212.275 0 .211-1.555 2.146-3.15 3.4-.965-.345-2.63-1.489-3.565-2.46-.314-.345-.377-.416-.377-1.003V16.56c0-1.489.48-2.5 2.215-4.819.903-1.175.966-1.527.793-1.527-.084 0-.868.542-1.576 1.031-.48.333-.926.64-1.094.74l-.22-.127c-1.695-.974-2.248-1.292-3.212-1.292-.55 0-.935.274-.935.627V32.51c0 .274-.141.486-.346.486-.172 0-.274-.172-.274-.447v-1.598c-.976.159-1.83.954-2.402 1.485-.303.282-.526.49-.646.49-.377 0-2.63-2.704-2.63-2.915V19.819h-4.053zm-.628-8.838c0-.697-.07-.932-.204-.932-.306 0-1.422.697-1.422.932v9.598c0 4.657-.529 5.213-1.727 6.475l-.071.075c-.558.587-.691.728-1.108 1.214.73 1.003 3.15 1.457 4.54 1.387V10.98h-.008zm4.681 5.547h-4.053v-5.82c0-.455.205-.698.59-.698.863 0 3.463 1.974 3.463 2.703v3.815zm5.678-4.928c0-.07-.03-.102-.14-.102-.103 0-.276.07-.386.141l-.793.486c-.448.274-.589.415-.589.627v3.463c0 .243.314.415.558.415h1.35V11.6zm-1.319 8.148h1.312V29.8c-1.28-.102-1.87-.76-1.87-2.146v-7.107c0-.517.181-.799.558-.799z" fill="#fff"/>
    <path opacity=".6" d="M110.082 0h-.398v40h.398V0z" fill="#fff"/>
    <path d="M141.371 13.762c-3.483 0-6.333 2.846-6.333 6.324 0 3.477 2.85 6.323 6.333 6.323 3.484 0 6.334-2.846 6.334-6.323.053-3.478-2.797-6.323-6.334-6.323zM176.735 27.463h-9.818V10.39h4.434v13.226h5.384v3.847zM184.916 17.346c-1.953 0-3.22 1.475-3.22 3.267 0 1.896 1.214 3.477 3.114 3.477 1.848 0 3.378-1.37 3.378-3.32-.053-2.002-1.478-3.424-3.272-3.424zm-7.442 3.372c0-3.794 2.797-7.166 6.597-7.166 1.689 0 2.692.58 3.906 1.686v-1.423h4.064v13.7h-4.17v-1.317s-1.477 1.686-4.064 1.686c-3.747-.053-6.333-2.793-6.333-7.166zM204.339 27.463h-9.817V10.39h4.434v13.226h5.383v3.847zM210.356 27.463h-4.117v-13.7h4.117v13.7zm-4.539-17.125c0-1.37 1.108-2.53 2.481-2.53 1.372 0 2.533 1.107 2.533 2.477a2.499 2.499 0 0 1-2.533 2.529c-1.425 0-2.481-1.107-2.481-2.476zM219.012 17.082c-1.952 0-2.902 1.58-2.902 3.267 0 1.739 1.055 3.214 2.85 3.214 2.058 0 3.167-1.633 3.167-3.161.052-1.845-1.003-3.32-3.115-3.32zm-6.914 3.267c0-3.688 2.375-6.85 5.964-6.85 1.742 0 2.903.58 4.065 1.792v-1.529h3.958V25.83c0 4.215-3.167 6.429-7.02 6.429-3.378 0-6.281-1.687-6.703-4.795h4.645c.58.948 1.161 1.106 2.164 1.106 1.425 0 2.797-.685 2.797-2.16v-1.001c-.791.737-2.269 1.58-3.906 1.58-3.536.053-5.964-2.898-5.964-6.639zM235.322 17.346c-1.953 0-3.22 1.475-3.22 3.267 0 1.896 1.214 3.477 3.114 3.477 1.847 0 3.378-1.37 3.378-3.32-.053-2.002-1.425-3.424-3.272-3.424zm-7.443 3.372c0-3.794 2.798-7.166 6.598-7.166 1.689 0 2.692.58 3.959 1.686v-1.423h4.064v13.7h-4.17v-1.317s-1.478 1.686-4.064 1.686c-3.8-.053-6.387-2.793-6.387-7.166z" fill="#fff"/>
    <path d="M128.123 9.073a.16.16 0 0 0 0 .21c0 .053.053.053.106.053l6.65 3.847a.16.16 0 0 0 .211 0l.053-.053v-.053a8.56 8.56 0 0 1 2.533-2.792 8.328 8.328 0 0 1 3.537-1.476s.053 0 .053-.052a.404.404 0 0 0 .105-.211l-1.319-7.535c0-.053 0-.053-.053-.106-.053-.052-.106-.105-.211-.105-2.323.422-4.645 1.37-6.756 2.845-2.059 1.476-3.695 3.373-4.909 5.428z" fill="#893A96"/>
    <path d="M124.323 23.616c.053.053.105.105.158.105h.106l7.178-2.74c.053-.052.106-.105.106-.158v-.105a8.095 8.095 0 0 1-.581-3.741c.106-1.318.475-2.582 1.056-3.636v-.105c0-.106-.053-.159-.106-.211l-6.703-3.689h-.106c-.105 0-.158.053-.211.106-1.161 2.107-1.847 4.479-2.006 7.008a17.052 17.052 0 0 0 1.109 7.166z" fill="#0065B1"/>
    <path d="M133.454 35.577c.053 0 .159 0 .211-.052 0-.053.053-.053.053-.106l2.27-7.324c0-.053 0-.158-.053-.21l-.053-.054h-.053c-1.214-.368-2.322-.948-3.325-1.844a8.445 8.445 0 0 1-2.217-3.109l-.052-.052c-.053-.053-.159-.053-.212-.053l-7.072 3.003c-.053 0-.053.053-.053.053-.053.053-.053.158-.053.21.95 2.214 2.375 4.216 4.275 5.955a16.27 16.27 0 0 0 6.334 3.583z" fill="#0A9BD7"/>
    <path d="M148.444 35.946c.053-.053.106-.105.106-.21 0-.053 0-.053-.053-.106l-4.275-6.376c-.053-.053-.106-.105-.211-.105h-.106a8.78 8.78 0 0 1-3.536 1.422c-1.32.211-2.587.106-3.801-.21h-.105c-.106 0-.158.052-.158.158l-2.059 7.377V38c0 .053.053.158.158.158 2.27.633 4.804.843 7.284.422a16.059 16.059 0 0 0 6.756-2.635z" fill="#0FB05F"/>
    <path d="M158.156 24.512a.399.399 0 0 0-.106-.211c-.052 0-.052-.053-.105-.053l-7.653-.58c-.106 0-.159.053-.212.106v.105c-.105 1.265-.422 2.477-1.055 3.636-.634 1.16-1.531 2.108-2.534 2.846l-.052.052a.16.16 0 0 0 0 .211l4.539 6.165.052.053a.162.162 0 0 0 .212 0c1.952-1.423 3.589-3.267 4.855-5.48 1.214-2.055 1.901-4.479 2.059-6.85z" fill="#FDDC2D"/>
    <path d="M155.306 9.758c-.053-.053-.159-.053-.211-.053-.053 0-.053.053-.106.053l-5.278 5.585c-.053.053-.053.158-.053.211 0 0 0 .053.053.053.897.843 1.689 1.897 2.164 3.108a9.314 9.314 0 0 1 .633 3.742v.158c.053.105.106.105.159.158l7.653.369h.106c.052-.053.105-.106.105-.158a17.343 17.343 0 0 0-1.214-7.22c-.844-2.318-2.269-4.373-4.011-6.006z" fill="#F68D32"/>
    <path d="M141.846 2.908c-.052 0-.158.052-.158.158v.105l1.108 7.588c0 .053.053.158.159.158h.105a8.495 8.495 0 0 1 3.801.21c1.266.37 2.427 1.002 3.325 1.845l.053.053c.105 0 .158 0 .211-.053l5.014-5.796s.053-.053.053-.106c0-.052 0-.158-.053-.21a16.233 16.233 0 0 0-6.439-3.478 16.553 16.553 0 0 0-7.179-.474z" fill="#EE3435"/>
    <path d="M146.016 23.669c.106-.264.106-.58.158-.79a2.994 2.994 0 0 1-.422.368 3.6 3.6 0 0 1-1.372.633l-1.214-1.318.897 1.58c-.211.422-.58.791-1.003 1.108-.158.105-.316.21-.475.263.211.053.528.105.792.105a6.065 6.065 0 0 1-1.953.317c-.686 0-1.372-.106-1.953-.317.264 0 .581-.052.792-.105-.158-.106-.317-.158-.475-.264-.422-.316-.792-.684-1.003-1.106l.897-1.58-1.214 1.317a3.6 3.6 0 0 1-1.372-.633 2.635 2.635 0 0 1-.422-.369c.053.211.053.527.158.79-.792-1-1.214-2.212-1.214-3.582v-.211c.053.263.211.527.37.738.052-.159.052-.37.105-.527.159-.527.422-.949.739-1.318l1.742.37-1.636-.739c-.053-.474 0-.948.158-1.475.053-.158.106-.316.211-.474-.211.105-.528.263-.739.421.792-1.159 1.9-2.002 3.273-2.37-.264.157-.475.42-.634.579.159 0 .37-.053.528-.053.528 0 1.056.106 1.478.316l.211 1.792.211-1.792c.422-.21.95-.316 1.478-.316.158 0 .37 0 .528.053a6.86 6.86 0 0 0-.633-.58 5.57 5.57 0 0 1 3.272 2.371c-.211-.21-.528-.316-.739-.421.053.158.158.316.211.474.158.527.211 1.001.158 1.475l-1.636.738 1.742-.369c.317.37.581.79.739 1.318.053.158.106.368.106.527.105-.211.263-.475.316-.738v.21a5.514 5.514 0 0 1-1.161 3.584zm-4.645-9.907c-3.483 0-6.333 2.846-6.333 6.324 0 3.477 2.85 6.323 6.333 6.323 3.484 0 6.334-2.846 6.334-6.323.053-3.478-2.797-6.323-6.334-6.323z" fill="#000"/>
    <path d="m138.838 19.295.95 3.004h3.167l1.003-3.004-2.587-1.897-2.533 1.897z" fill="#000"/>
    <defs>
        <radialGradient id="625zm3utva" cx="0" cy="0" r="1" gradientUnits="userSpaceOnUse" gradientTransform="matrix(71.4655 0 0 63.0401 23.218 4.095)">
            <stop stop-color="#C01617"/>
            <stop offset=".505" stop-color="#BE181B"/>
            <stop offset="1" stop-color="#C7120C"/>
        </radialGradient>
    </defs>
</svg>
