<svg xmlns="http://www.w3.org/2000/svg" xmlns:xlink="http://www.w3.org/1999/xlink" preserveAspectRatio="xMidYMid meet" width="260" height="48" viewBox="0 0 260 48" style="width:100%;height:100%"><defs><animate repeatCount="indefinite" dur="13s" begin="0s" xlink:href="#_R_G_L_0_G_L_14_G" fill="freeze" attributeName="opacity" from="0" to="0" keyTimes="0;0.0769231;0.4230769;0.5;1" values="0;1;1;0;0" keySplines="0.1 0 0.9 1;0.1 0 0.9 1;0.1 0 0.9 1;0 0 0 0" calcMode="spline"/><animate repeatCount="indefinite" dur="13s" begin="0s" xlink:href="#_R_G_L_0_G_L_14_G_M" fill="freeze" attributeName="opacity" from="1" to="0" keyTimes="0;0.5;0.5;1" values="1;1;0;0" keySplines="0 0 0 0;0 0 0 0;0 0 0 0" calcMode="spline"/><animate repeatCount="indefinite" dur="13s" begin="0s" xlink:href="#_R_G_L_0_G_L_13_G" fill="freeze" attributeName="opacity" from="0" to="1" keyTimes="0;0.4999974;0.5769205;0.9230769;1" values="0;0;1;1;1" keySplines="0.333 0 0.667 1;0.333 0 0.667 1;0.333 0 0.667 1;0 0 0 0" calcMode="spline"/><animate repeatCount="indefinite" dur="13s" begin="0s" xlink:href="#_R_G_L_0_G_L_13_G_M" fill="freeze" attributeName="opacity" from="0" to="1" keyTimes="0;0.5;0.5000003;1" values="0;0;1;1" keySplines="0 0 0 0;0 0 0 0;0 0 0 0" calcMode="spline"/><animate repeatCount="indefinite" dur="13s" begin="0s" xlink:href="#_R_G_L_0_G_L_12_G" fill="freeze" attributeName="opacity" from="1" to="0" keyTimes="0;0.0731692;0.1219513;0.2170718;0.2902436;0.3390256;0.4390256;0.5121949;0.5609744;0.6585359;0.7317077;0.7804897;0.8780487;0.9512205;1" values="1;1;0;0;1;0;0;1;0;0;1;0;0;1;0" keySplines="1 0 0.95 1;1 0 0.95 1;0.167 0 0.95 1;0.167 0 0.833 1;1 0 0.95 1;0.167 0 0.95 1;0.167 0 0.833 1;1 0 0.95 1;0.167 0 0.95 1;0.167 0 0.833 1;1 0 0.95 1;0.167 0 0.95 1;0.167 0 0.833 1;1 0 0.95 1" calcMode="spline"/><animateTransform repeatCount="indefinite" dur="13s" begin="0s" xlink:href="#_R_G_L_0_G_L_12_G" fill="freeze" attributeName="transform" from="0 0" to="9.96 9.96" type="scale" additive="sum" keyTimes="0;0.0742564;0.2170718;0.2913308;0.4390256;0.5132821;0.6585359;0.7327923;0.8780487;0.9523062;1" values="0 0;9.96 9.96;0 0;9.96 9.96;0 0;9.96 9.96;0 0;9.96 9.96;0 0;9.96 9.96;9.96 9.96" keySplines="1 0 0.833 1;0.167 0 0.95 1;1 0 0.833 1;0.167 0 0.95 1;1 0 0.833 1;0.167 0 0.95 1;1 0 0.833 1;0.167 0 0.95 1;1 0 0.833 1;0 0 0 0" calcMode="spline"/><animateTransform repeatCount="indefinite" dur="13s" begin="0s" xlink:href="#_R_G_L_0_G_L_12_G" fill="freeze" attributeName="transform" from="-6.5 -7" to="-6.5 -7" type="translate" additive="sum" keyTimes="0;1" values="-6.5 -7;-6.5 -7" keySplines="0 0 1 1" calcMode="spline"/><animate repeatCount="indefinite" dur="13s" begin="0s" xlink:href="#_R_G_L_0_G_L_11_G" fill="freeze" attributeName="opacity" from="1" to="1" keyTimes="0;0.1128205;0.1616;0.2567231;0.3298949;0.3786769;0.4786769;0.5518462;0.6006256;0.6981872;0.771359;0.8201385;0.9307692;0.9724154;1" values="1;1;0;0;1;0;0;1;0;0;1;0;0;1;1" keySplines="1 0 0.95 1;1 0 0.95 1;0.167 0 0.95 1;0.167 0 0.833 1;1 0 0.95 1;0.167 0 0.95 1;0.167 0 0.833 1;1 0 0.95 1;0.167 0 0.95 1;0.167 0 0.833 1;1 0 0.95 1;0.167 0 0.95 1;0.167 0 0.833 1;0 0 0 0" calcMode="spline"/><animateTransform repeatCount="indefinite" dur="13s" begin="0s" xlink:href="#_R_G_L_0_G_L_11_G" fill="freeze" attributeName="transform" from="0 0" to="9.96 9.96" type="scale" additive="sum" keyTimes="0;0.0384615;0.1127179;0.2555333;0.3297923;0.4774872;0.5517436;0.6969974;0.7712538;0.9300923;0.9723558;1" values="0 0;0 0;9.96 9.96;0 0;9.96 9.96;0 0;9.96 9.96;0 0;9.96 9.96;0 0;9.96 9.96;9.96 9.96" keySplines="1 0 0.833 1;1 0 0.833 1;0.167 0 0.95 1;1 0 0.833 1;0.167 0 0.95 1;1 0 0.833 1;0.167 0 0.95 1;1 0 0.833 1;0.167 0 0.95 1;1 0 0.833 1;0 0 0 0" calcMode="spline"/><animateTransform repeatCount="indefinite" dur="13s" begin="0s" xlink:href="#_R_G_L_0_G_L_11_G" fill="freeze" attributeName="transform" from="-6 -5.5" to="-6 -5.5" type="translate" additive="sum" keyTimes="0;1" values="-6 -5.5;-6 -5.5" keySplines="0 0 1 1" calcMode="spline"/><animateTransform repeatCount="indefinite" dur="13s" begin="0s" xlink:href="#_R_G_L_0_G_L_9_G" fill="freeze" attributeName="transform" from="30" to="30" type="rotate" additive="sum" keyTimes="0;0.0013256;0.0724641;0.1436026;0.2147436;0.2858821;0.3570231;0.428159;0.4993026;0.570441;0.6415821;0.7127205;0.783859;0.855;0.9261385;1" values="30;30;-30;30;-30;30;-30;30;-30;30;-30;30;-30;30;-30;30" keySplines="0.1 0 0.9 1;0.1 0 0.9 1;0.1 0 0.9 1;0.1 0 0.9 1;0.1 0 0.9 1;0.1 0 0.9 1;0.1 0 0.9 1;0.1 0 0.9 1;0.1 0 0.9 1;0.1 0 0.9 1;0.1 0 0.9 1;0.1 0 0.9 1;0.1 0 0.9 1;0.1 0 0.9 1;0.1 0 0.9 1" calcMode="spline"/><animateTransform repeatCount="indefinite" dur="13s" begin="0s" xlink:href="#_R_G_L_0_G_L_9_G" fill="freeze" attributeName="transform" from="9.96 9.96" to="9.96 9.96" type="scale" additive="sum" keyTimes="0;1" values="9.96 9.96;9.96 9.96" keySplines="0 0 1 1" calcMode="spline"/><animateTransform repeatCount="indefinite" dur="13s" begin="0s" xlink:href="#_R_G_L_0_G_L_9_G" fill="freeze" attributeName="transform" from="-3.735 -8.834" to="-3.735 -8.834" type="translate" additive="sum" keyTimes="0;1" values="-3.735 -8.834;-3.735 -8.834" keySplines="0 0 1 1" calcMode="spline"/><animateTransform repeatCount="indefinite" dur="13s" begin="0s" xlink:href="#_R_G_L_0_G_L_7_G" fill="freeze" attributeName="transform" from="0" to="0" type="rotate" additive="sum" keyTimes="0;0.071259;0.1425179;0.2137769;0.2850359;0.3562949;0.4275538;0.4988128;0.5700718;0.6413308;0.7125897;0.7838487;0.8551051;0.9263641;1" values="0;21;0;21;0;21;0;21;0;21;0;21;0;21;0" keySplines="0.1 0 0.9 1;0.1 0 0.9 1;0.1 0 0.9 1;0.1 0 0.9 1;0.1 0 0.9 1;0.1 0 0.9 1;0.1 0 0.9 1;0.1 0 0.9 1;0.1 0 0.9 1;0.1 0 0.9 1;0.1 0 0.9 1;0.1 0 0.9 1;0.1 0 0.9 1;0.1 0 0.9 1" calcMode="spline"/><animateTransform repeatCount="indefinite" dur="13s" begin="0s" xlink:href="#_R_G_L_0_G_L_7_G" fill="freeze" attributeName="transform" from="9.96 9.96" to="9.96 9.96" type="scale" additive="sum" keyTimes="0;1" values="9.96 9.96;9.96 9.96" keySplines="0 0 1 1" calcMode="spline"/><animateTransform repeatCount="indefinite" dur="13s" begin="0s" xlink:href="#_R_G_L_0_G_L_7_G" fill="freeze" attributeName="transform" from="0.446 -7.895" to="0.446 -7.895" type="translate" additive="sum" keyTimes="0;1" values="0.446 -7.895;0.446 -7.895" keySplines="0 0 1 1" calcMode="spline"/><animateTransform repeatCount="indefinite" dur="13s" begin="0s" xlink:href="#_R_G_L_0_G_L_6_G" fill="freeze" attributeName="transform" from="0 9.96" to="9.96 9.96" type="scale" additive="sum" keyTimes="0;0.0659974;0.3717949;0.4377923;0.4619923;0.5279897;0.9263641;1" values="0 9.96;9.96 9.96;9.96 9.96;0 9.96;0 9.96;9.96 9.96;9.96 9.96;9.96 9.96" keySplines="0.75 0 0.67 1;0.75 0 0.67 1;0.75 0 0.67 1;0.75 0 0.67 1;0.75 0 0.67 1;0.167 0 0.67 1;0 0 0 0" calcMode="spline"/><animateTransform repeatCount="indefinite" dur="13s" begin="0s" xlink:href="#_R_G_L_0_G_L_6_G" fill="freeze" attributeName="transform" from="-0.5 -1.833" to="-0.5 -1.833" type="translate" additive="sum" keyTimes="0;1" values="-0.5 -1.833;-0.5 -1.833" keySplines="0 0 1 1" calcMode="spline"/><animateTransform repeatCount="indefinite" dur="13s" begin="0s" xlink:href="#_R_G_L_0_G_L_5_G" fill="freeze" attributeName="transform" from="0 9.96" to="9.96 9.96" type="scale" additive="sum" keyTimes="0;0.0659974;0.3717949;0.4377923;0.4619923;0.5279897;0.9263641;1" values="0 9.96;9.96 9.96;9.96 9.96;0 9.96;0 9.96;9.96 9.96;9.96 9.96;9.96 9.96" keySplines="0.75 0 0.67 1;0.75 0 0.67 1;0.75 0 0.67 1;0.75 0 0.67 1;0.75 0 0.67 1;0.167 0 0.67 1;0 0 0 0" calcMode="spline"/><animateTransform repeatCount="indefinite" dur="13s" begin="0s" xlink:href="#_R_G_L_0_G_L_5_G" fill="freeze" attributeName="transform" from="-0.5 -1.972" to="-0.5 -1.972" type="translate" additive="sum" keyTimes="0;1" values="-0.5 -1.972;-0.5 -1.972" keySplines="0 0 1 1" calcMode="spline"/><animateMotion repeatCount="indefinite" dur="13s" begin="0s" xlink:href="#_R_G_L_0_G_L_4_G" fill="freeze" keyTimes="0;0.0715077;0.1430128;0.2145205;0.2860282;0.3575333;0.429041;0.5005513;0.572059;0.6435641;0.7150718;0.7865795;0.8580846;0.9284923;1" path="M857.58 244.53 C857.58,244.53 857.58,217.53 857.58,217.53 C857.58,217.53 857.58,244.53 857.58,244.53 C857.58,244.53 857.58,217.53 857.58,217.53 C857.58,217.53 857.58,244.53 857.58,244.53 C857.58,244.53 857.58,217.53 857.58,217.53 C857.58,217.53 857.58,244.53 857.58,244.53 C857.58,244.53 857.58,217.53 857.58,217.53 C857.58,217.53 857.58,244.53 857.58,244.53 C857.58,244.53 857.58,217.53 857.58,217.53 C857.58,217.53 857.58,244.53 857.58,244.53 C857.58,244.53 857.58,217.53 857.58,217.53 C857.58,217.53 857.58,244.53 857.58,244.53 C857.58,244.53 857.58,217.53 857.58,217.53 C857.58,217.53 857.58,244.53 857.58,244.53 " keyPoints="0;0.07;0.14;0.21;0.29;0.36;0.43;0.5;0.57;0.64;0.71;0.79;0.86;0.93;1" keySplines="0.25 0 0.75 1;0.25 0 0.75 1;0.25 0 0.75 1;0.25 0 0.75 1;0.25 0 0.75 1;0.25 0 0.75 1;0.25 0 0.75 1;0.25 0 0.75 1;0.25 0 0.75 1;0.25 0 0.75 1;0.25 0 0.75 1;0.25 0 0.75 1;0.167 0 0.75 1;0.25 0 0.75 1" calcMode="spline"/><animateTransform repeatCount="indefinite" dur="13s" begin="0s" xlink:href="#_R_G_L_0_G_L_4_G" fill="freeze" attributeName="transform" from="9.96 9.96" to="9.96 9.96" type="scale" additive="sum" keyTimes="0;1" values="9.96 9.96;9.96 9.96" keySplines="0 0 1 1" calcMode="spline"/><animateTransform repeatCount="indefinite" dur="13s" begin="0s" xlink:href="#_R_G_L_0_G_L_4_G" fill="freeze" attributeName="transform" from="-5.5 -11.073" to="-5.5 -11.073" type="translate" additive="sum" keyTimes="0;1" values="-5.5 -11.073;-5.5 -11.073" keySplines="0 0 1 1" calcMode="spline"/><animateTransform repeatCount="indefinite" dur="13s" begin="0s" xlink:href="#_R_G_L_0_G_L_3_G" fill="freeze" attributeName="transform" from="0" to="30" type="rotate" additive="sum" keyTimes="0;0.2161513;0.2636564;0.3111641;0.3562949;0.7387179;0.7862231;0.8337282;0.8788587;1" values="0;0;30;-30;30;0;30;-30;30;30" keySplines="0.33 0 0.67 1;0.33 0 0.67 1;0.33 0 0.67 1;0.33 0 0.67 1;0.33 0 0.67 1;0.33 0 0.67 1;0.33 0 0.67 1;0.33 0 0.67 1;0 0 0 0" calcMode="spline"/><animateTransform repeatCount="indefinite" dur="13s" begin="0s" xlink:href="#_R_G_L_0_G_L_3_G" fill="freeze" attributeName="transform" from="0 0" to="0 0" type="scale" additive="sum" keyTimes="0;0.1686436;0.2161513;0.2636564;0.3111641;0.3562949;0.6912103;0.7387179;0.7862231;0.8337282;0.8788587;1" values="0 0;0 0;9.96 9.96;9.96 9.96;9.96 9.96;0 0;0 0;9.96 9.96;9.96 9.96;9.96 9.96;0 0;0 0" keySplines="0.33 0 0.67 1;0.33 0 0.67 1;0.33 0 0.67 1;0.33 0 0.67 1;0.33 0 0.67 1;0.33 0 0.67 1;0.33 0 0.67 1;0.33 0 0.67 1;0.33 0 0.67 1;0.33 0 0.67 1;0 0 0 0" calcMode="spline"/><animateTransform repeatCount="indefinite" dur="13s" begin="0s" xlink:href="#_R_G_L_0_G_L_3_G" fill="freeze" attributeName="transform" from="-5.116 -8.586" to="-5.116 -8.586" type="translate" additive="sum" keyTimes="0;1" values="-5.116 -8.586;-5.116 -8.586" keySplines="0 0 1 1" calcMode="spline"/><animateMotion repeatCount="indefinite" dur="13s" begin="0s" xlink:href="#_R_G_L_0_G_L_2_G" fill="freeze" keyTimes="0;0.0475051;0.1187641;0.1900231;0.5066718;0.5779308;0.6491887;1" path="M323.09 326.18 C323.09,326.18 323.09,326.18 323.09,326.18 C400.76,326.18 789.09,326.18 789.09,326.18 C789.09,326.18 400.76,326.18 323.09,326.18 C323.09,326.18 323.09,326.18 323.09,326.18 C400.76,326.18 789.09,326.18 789.09,326.18 C789.09,326.18 400.76,326.18 323.09,326.18 C323.09,326.18 323.09,326.18 323.09,326.18 " keyPoints="0;0;0.25;0.5;0.5;0.75;1;1" keySplines="0.33 0 0.67 1;0.33 0 0.67 1;0.33 0 0.67 1;0.33 0.33 0.67 0.67;0.33 0 0.67 1;0.33 0 0.67 1;0 0 0 0" calcMode="spline"/><animateTransform repeatCount="indefinite" dur="13s" begin="0s" xlink:href="#_R_G_L_0_G_L_2_G" fill="freeze" attributeName="transform" from="0" to="0" type="rotate" additive="sum" keyTimes="0;0.0475051;0.1187641;0.1900231;0.5066718;0.5779308;0.6491887;1" values="0;0;360;0;0;360;0;0" keySplines="0.33 0 0.67 1;0.33 0 0.67 1;0.33 0 0.67 1;0.33 0 0.67 1;0.33 0 0.67 1;0.33 0 0.67 1;0 0 0 0" calcMode="spline"/><animateTransform repeatCount="indefinite" dur="13s" begin="0s" xlink:href="#_R_G_L_0_G_L_2_G" fill="freeze" attributeName="transform" from="0 0" to="0 0" type="scale" additive="sum" keyTimes="0;0.0475051;0.3800487;0.4038;0.4615385;0.5090436;0.9333333;0.9570863;1" values="0 0;9.96 9.96;9.96 9.96;0 0;0 0;9.96 9.96;9.96 9.96;0 0;0 0" keySplines="1 0 0.95 1;1 0 0.95 1;1 0 0.95 1;1 0 0.95 1;1 0 0.95 1;0.167 0 0.95 1;1 0 0.95 1;0 0 0 0" calcMode="spline"/><animateTransform repeatCount="indefinite" dur="13s" begin="0s" xlink:href="#_R_G_L_0_G_L_2_G" fill="freeze" attributeName="transform" from="-5.837 -6.271" to="-5.837 -6.271" type="translate" additive="sum" keyTimes="0;1" values="-5.837 -6.271;-5.837 -6.271" keySplines="0 0 1 1" calcMode="spline"/><animateTransform repeatCount="indefinite" dur="13s" begin="0s" xlink:href="#_R_G_L_0_G_L_0_G" fill="freeze" attributeName="transform" from="9.96 9.96" to="9.96 9.96" type="scale" additive="sum" keyTimes="0;0.0384615;0.1153846;0.3410256;0.3846154;0.5;0.5769231;0.8948718;0.9384615;1" values="9.96 9.96;9.96 9.96;9.96 0;9.96 0;9.96 9.96;9.96 9.96;9.96 0;9.96 0;9.96 9.96;9.96 9.96" keySplines="1 0 0 1;1 0 0 1;0.167 0 0 1;0.167 0 0.833 1;0.167 0 0.833 1;1 0 0 1;0.167 0 0 1;0.167 0 0.833 1;0 0 0 0" calcMode="spline"/><animateTransform repeatCount="indefinite" dur="13s" begin="0s" xlink:href="#_R_G_L_0_G_L_0_G" fill="freeze" attributeName="transform" from="-0.862 -0.25" to="-0.862 -0.25" type="translate" additive="sum" keyTimes="0;1" values="-0.862 -0.25;-0.862 -0.25" keySplines="0 0 1 1" calcMode="spline"/><animate attributeType="XML" attributeName="opacity" dur="13s" from="0" to="1" xlink:href="#time_group"/></defs><g id="_R_G"><g id="_R_G_L_0_G" transform=" translate(130, 24) scale(0.12903, 0.12903) translate(-998, -186)"><g id="_R_G_L_0_G_L_15_G" transform=" translate(998, 186) translate(0, 0)"/><g id="_R_G_L_0_G_L_14_G_M"><g id="_R_G_L_0_G_L_14_G" transform=" translate(1160, 186) scale(0.65724, 0.65724) translate(-180.647, -283)"><path id="_R_G_L_0_G_L_14_G_D_0_P_0" fill="#191513" fill-opacity="1" fill-rule="nonzero" d=" M308.82 83.46 C276.31,32.18 231.19,0.35 180.65,0 C79.56,0.52 0,127.58 0,283.08 C0,360.74 19.93,431.43 52.46,482.69 C84.99,533.96 130.1,565.81 180.65,566 C231.19,565.81 276.31,533.96 308.82,482.69 C341.36,431.43 361.29,360.74 361.29,283.08 C361.29,205.4 341.36,134.72 308.82,83.46z "/><path id="_R_G_L_0_G_L_14_G_D_1_P_0" fill="#f62711" fill-opacity="1" fill-rule="nonzero" d=" M341.63 174.85 C332.7,141.46 319.76,111.48 303.84,86.46 C287.76,61.4 268.87,41.14 248.06,27.17 C227.25,13.39 204.61,5.72 180.65,5.72 C156.69,5.72 134.04,13.39 113.23,27.17 C92.42,41.14 73.54,61.4 57.45,86.46 C41.53,111.48 28.59,141.46 19.67,174.85 C10.75,208.06 5.85,244.68 5.85,283.17 C5.85,359.82 25.63,429.48 57.45,479.55 C73.54,504.6 92.42,524.85 113.23,538.82 C134.04,552.63 156.69,560.28 180.65,560.28 C204.61,560.28 227.25,552.63 248.06,538.82 C268.87,524.85 287.76,504.6 303.84,479.55 C335.67,429.48 355.44,359.82 355.44,283.17 C355.44,244.68 350.54,208.06 341.63,174.85z "/><path id="_R_G_L_0_G_L_14_G_D_2_P_0" fill="#191513" fill-opacity="1" fill-rule="nonzero" d=" M180.65 544.45 C91.28,543.92 21.42,426.42 21.42,283.17 C21.42,139.76 91.28,22.23 180.65,21.73 C270.01,22.23 339.87,139.76 339.87,283.17 C339.87,426.42 270.01,543.92 180.65,544.45z "/><path id="_R_G_L_0_G_L_14_G_D_3_P_0" fill="#ffffff" fill-opacity="1" fill-rule="nonzero" d=" M180.65 129.37 C240.63,129.37 292.64,161.91 319.41,209.76 C312.23,170.78 299.82,135.84 283.2,107.57 C256.8,62.77 220.52,35.55 180.65,35.37 C140.77,35.55 104.49,62.77 78.1,107.57 C61.47,135.84 49.06,170.78 41.89,209.76 C68.65,161.91 120.66,129.37 180.65,129.37z "/><path id="_R_G_L_0_G_L_14_G_D_4_P_0" fill="#ffffff" fill-opacity="1" fill-rule="nonzero" d=" M180.65 436.8 C120.66,436.8 68.82,404.28 42.07,356.42 C49.06,395.41 61.47,430.32 78.1,458.45 C91.38,480.74 106.94,498.98 124.43,511.4 C141.74,524 160.72,530.82 180.65,530.82 C200.58,530.82 219.55,524 236.86,511.4 C254.35,498.98 269.91,480.74 283.2,458.45 C299.82,430.32 312.23,395.41 319.23,356.42 C292.47,404.28 240.63,436.8 180.65,436.8z "/><path id="_R_G_L_0_G_L_14_G_D_5_P_0" fill="#191513" fill-opacity="1" fill-rule="nonzero" d=" M233.04 438.11 C223.27,441.38 217.8,448.82 221.64,459.69 C224.23,467.09 232.01,471.62 241.58,468.45 C244.92,467.29 248.56,465.28 249.73,461.51 C249.73,461.51 249.92,461.61 249.92,461.61 C253.13,470.94 249.92,474.76 246.06,476.69 C242.24,478.49 238.73,477.57 236.45,474.89 C236.45,474.89 236.42,474.85 236.42,474.85 C236.42,474.85 229.99,479.18 229.99,479.18 C233.72,484.62 240.7,486.28 248.41,483.69 C257.43,480.68 264.59,472.08 258.57,455.01 C256.4,448.76 250.32,432.34 233.04,438.11z  M241.23 460.8 C237.5,462.02 232.49,462.04 230.16,455.43 C227.95,449.12 232.95,446.13 235.46,445.36 C240.55,443.68 244.06,445.93 245.86,450.92 C247.7,456.2 244.65,459.63 241.23,460.8z "/><path id="_R_G_L_0_G_L_14_G_D_6_P_0" fill="#191513" fill-opacity="1" fill-rule="nonzero" d=" M183.44 117.94 C193.65,117.94 202.87,113.68 209.24,106.87 C209.24,106.87 201.68,100.13 201.68,100.13 C197.16,104.93 190.67,107.96 183.44,107.96 C169.74,107.96 158.63,97.16 158.63,83.82 C158.63,70.39 169.74,59.57 183.44,59.57 C190.67,59.57 197.16,62.62 201.68,67.41 C201.68,67.41 209.22,60.64 209.22,60.64 C202.81,53.86 193.65,49.59 183.44,49.59 C164.09,49.59 148.4,64.9 148.4,83.82 C148.4,102.64 164.09,117.94 183.44,117.94z "/><path id="_R_G_L_0_G_L_14_G_D_7_P_0" fill="#191513" fill-opacity="1" fill-rule="nonzero" d=" M231.66 90.3 C231.66,90.3 239.14,128.42 239.14,128.42 C240.92,129.16 242.66,129.85 244.43,130.66 C244.43,130.66 255.04,105.27 255.04,105.27 C255.04,105.27 266.15,142.01 266.15,142.01 C270.49,144.74 274.76,147.75 278.82,150.91 C278.82,150.91 259.54,87.44 259.54,87.44 C259.54,87.44 253.53,82.81 253.53,82.81 C253.53,82.81 244.83,103.74 244.83,103.74 C244.83,103.74 237.6,70.24 237.6,70.24 C237.6,70.24 229.24,64.81 229.24,64.81 C229.24,64.81 211.78,120.59 211.78,120.59 C215.05,121.22 218.29,121.93 221.51,122.76 C221.51,122.76 231.66,90.3 231.66,90.3z "/><path id="_R_G_L_0_G_L_14_G_D_8_P_0" fill="#191513" fill-opacity="1" fill-rule="nonzero" d=" M105.66 122.02 C105.66,122.02 136.1,110.23 136.1,110.23 C136.1,110.23 139.97,122.75 139.97,122.75 C143.12,121.92 146.36,121.22 149.6,120.59 C149.6,120.59 132.38,64.81 132.38,64.81 C132.38,64.81 119.78,72.7 119.78,72.7 C119.78,72.7 80.08,152.85 80.08,152.85 C85.07,148.83 90.38,145.09 95.85,141.64 C95.85,141.64 105.66,122.02 105.66,122.02z  M126.65 79.79 C126.65,79.79 133.2,100.91 133.2,100.91 C133.2,100.91 112.09,109.08 112.09,109.08 C112.09,109.08 126.65,79.79 126.65,79.79z "/><path id="_R_G_L_0_G_L_14_G_D_9_P_0" fill="#191513" fill-opacity="1" fill-rule="nonzero" d=" M193.71 445.64 C183.44,446.51 176.28,452.39 177.25,463.85 C177.94,471.55 184.34,477.88 194.42,477.02 C197.97,476.76 201.95,475.66 204.06,472.35 C204.06,472.35 204.21,472.45 204.21,472.45 C204.96,482.27 200.85,485.23 196.66,486.07 C192.51,486.99 189.35,485.29 187.82,482.13 C187.82,482.13 187.82,482.06 187.82,482.06 C187.82,482.06 180.5,484.77 180.5,484.77 C182.71,490.8 189.12,494.08 197.21,493.45 C206.67,492.68 215.78,486.07 214.25,468.09 C213.74,461.49 211.94,444.19 193.71,445.64z  M196.02 469.51 C192.07,469.86 187.19,468.74 186.58,461.74 C186.05,455.02 191.63,453.39 194.31,453.22 C199.6,452.78 202.5,455.76 202.96,461.08 C203.44,466.65 199.6,469.27 196.02,469.51z "/><path id="_R_G_L_0_G_L_14_G_D_10_P_0" fill="#191513" fill-opacity="1" fill-rule="nonzero" d=" M154.41 443.96 C145.33,442.36 137.38,445.93 135.99,453.88 C135.2,458.15 136.85,461.45 140.63,464.02 C132.15,465.87 131.06,472.04 130.64,474.36 C129.48,480.72 132.71,489.29 146.09,491.66 C159.83,493.99 165.69,485.56 166.78,479.71 C167.83,473.71 165.59,470.31 161,467.19 C165.53,466.03 167.96,462.88 168.68,458.89 C169.81,452.47 165.13,445.82 154.41,443.96z  M156.63 478.38 C156.05,481.59 152.81,485.29 147.48,484.32 C142.81,483.53 139.69,479.98 140.51,475.45 C141.4,470.47 146.13,469.05 149.87,469.76 C155.57,470.65 157.25,475.1 156.63,478.38z  M159.09 458.24 C158.48,461.53 155.36,463.54 151.32,462.85 C146.91,462.04 144.8,458.6 145.27,455.91 C145.89,452.45 149.14,450.58 153.75,451.35 C157.02,451.94 159.72,454.69 159.09,458.24z "/><path id="_R_G_L_0_G_L_14_G_D_11_P_0" fill="#191513" fill-opacity="1" fill-rule="nonzero" d=" M105.02 439.42 C105.02,439.42 103.63,438.95 103.63,438.95 C103.63,438.95 101.64,444.48 101.64,444.48 C101.64,444.48 101.71,444.5 101.71,444.5 C101.71,444.5 100.73,447.18 100.73,447.18 C100.73,447.18 102.64,447.87 102.64,447.87 C107.68,449.63 111.12,449.63 113.42,448.7 C113.42,448.7 103.04,478.38 103.04,478.38 C103.04,478.38 112.94,481.65 112.94,481.65 C112.94,481.65 128.22,438.05 128.22,438.05 C128.22,438.05 119.23,435 119.23,435 C118.53,437.02 112.52,441.87 105.02,439.42z "/><path id="_R_G_L_0_G_L_14_G_D_12_P_0" fill="#ffffff" fill-opacity="1" fill-rule="nonzero" d=" M279.19 304.98 C279.19,304.98 279.19,390.31 279.19,390.31 C304.02,368.67 321.34,338.7 326.59,304.98 C326.59,304.98 279.19,304.98 279.19,304.98z "/><path id="_R_G_L_0_G_L_14_G_D_13_P_0" fill="#ffffff" fill-opacity="1" fill-rule="nonzero" d=" M188.79 426.59 C201.03,425.9 212.91,423.69 224.1,420.45 C224.1,420.45 224.1,304.98 224.1,304.98 C224.1,304.98 188.79,304.98 188.79,304.98 C188.79,304.98 188.79,426.59 188.79,426.59z "/><path id="_R_G_L_0_G_L_14_G_D_14_P_0" fill="#ffffff" fill-opacity="1" fill-rule="nonzero" d=" M325.89 256.43 C319.78,224.65 303.07,196.61 279.19,176.02 C279.19,176.02 279.19,256.43 279.19,256.43 C279.19,256.43 325.89,256.43 325.89,256.43z "/><path id="_R_G_L_0_G_L_14_G_D_15_P_0" fill="#ffffff" fill-opacity="1" fill-rule="nonzero" d=" M188.79 256.43 C188.79,256.43 224.1,256.43 224.1,256.43 C224.1,256.43 224.1,145.72 224.1,145.72 C212.73,142.5 201.03,140.28 188.79,139.6 C188.79,139.6 188.79,256.43 188.79,256.43z "/><path id="_R_G_L_0_G_L_14_G_D_16_P_0" fill="#ffffff" fill-opacity="1" fill-rule="nonzero" d=" M279.19 175.87 C279.19,175.87 279.02,175.87 279.02,175.87 C279.08,175.92 279.13,175.97 279.19,176.02 C279.19,176.02 279.19,175.87 279.19,175.87z "/><path id="_R_G_L_0_G_L_14_G_D_17_P_0" fill="#f62711" fill-opacity="1" fill-rule="nonzero" d=" M50.97 352.14 C50.97,352.14 50.97,214.01 50.97,214.01 C39.61,234.64 32.97,258.14 32.97,283.17 C32.97,308.04 39.61,331.54 50.97,352.14z "/><path id="_R_G_L_0_G_L_14_G_D_18_P_0" fill="#f62711" fill-opacity="1" fill-rule="nonzero" d=" M231.81 148.28 C231.81,148.28 231.81,264.09 231.81,264.09 C231.81,264.09 188.77,264.09 188.77,264.09 C188.77,264.09 188.77,297.31 188.77,297.31 C188.77,297.31 231.81,297.49 231.81,297.49 C231.81,297.49 231.81,417.9 231.81,417.9 C246.12,412.8 259.43,405.45 271.33,396.44 C271.33,396.44 271.33,297.49 271.33,297.49 C271.33,297.49 327.8,297.49 327.8,297.49 C328.33,292.7 328.5,287.95 328.5,283.17 C328.5,276.71 327.97,270.23 327.1,264.09 C327.1,264.09 271.33,264.09 271.33,264.09 C271.33,264.09 271.33,169.73 271.33,169.73 C259.43,160.71 246.12,153.39 231.81,148.28z "/><path id="_R_G_L_0_G_L_14_G_D_19_P_0" fill="#f62711" fill-opacity="1" fill-rule="nonzero" d=" M133.69 419.43 C142.61,422.33 151.71,424.37 161.32,425.73 C161.32,425.73 161.32,140.44 161.32,140.44 C151.71,141.63 142.61,143.86 133.69,146.76 C133.69,146.76 133.69,419.43 133.69,419.43z "/><path id="_R_G_L_0_G_L_14_G_D_20_P_0" fill="#f62711" fill-opacity="1" fill-rule="nonzero" d=" M78.61 386.89 C87.01,394.73 96.1,401.36 106.06,407.18 C106.06,407.18 106.06,159.01 106.06,159.01 C96.1,164.63 87.01,171.43 78.61,179.28 C78.61,179.28 78.61,386.89 78.61,386.89z "/></g></g><g id="_R_G_L_0_G_L_13_G_M"><g id="_R_G_L_0_G_L_13_G" transform=" translate(1272, 186) scale(3.64354, 3.64354) translate(-353.162, -104.453)"><path id="_R_G_L_0_G_L_13_G_D_0_P_0" fill="#ec250a" fill-opacity="1" fill-rule="nonzero" d=" M415.91 53.4 C415.91,53.4 307.07,85.98 307.07,85.98 C297.46,88.77 290.37,95.11 290.39,104.81 C290.41,113.93 296.84,120.8 305.46,123.31 C305.46,123.31 305.46,123.31 305.47,123.32 C307.03,123.77 415.94,155.5 415.94,155.5 C415.94,155.5 415.91,53.4 415.91,53.4z "/><path id="_R_G_L_0_G_L_13_G_D_1_P_0" fill="#ffffff" fill-opacity="1" fill-rule="nonzero" d=" M327.72 98.16 C327.37,99.83 326.15,100.91 323.09,100.91 C323.09,100.91 319.96,100.91 319.96,100.91 C319.96,100.91 321.15,95.41 321.15,95.41 C321.15,95.41 324.24,95.41 324.24,95.41 C327.55,95.41 328.1,96.38 327.72,98.16z  M326.5 108.39 C326.05,110.48 324.52,111.42 320.87,111.42 C320.87,111.42 317.73,111.42 317.73,111.42 C317.73,111.42 319.02,105.37 319.02,105.37 C319.02,105.37 322.16,105.37 322.16,105.37 C325.81,105.37 326.92,106.3 326.5,108.39z  M380.51 90.75 C375.7,90.75 374.51,94.18 374.51,94.18 C374.51,94.18 369.34,106.44 369.34,106.44 C369.34,106.44 369.23,106.44 369.23,106.44 C369.23,106.44 367.91,90.75 367.91,90.75 C367.91,90.75 359.78,90.75 359.78,90.75 C355.88,90.75 354.3,94.3 354.3,94.3 C354.3,94.3 348.11,106.44 348.11,106.44 C348.11,106.44 348.01,106.44 348.01,106.44 C348.01,106.44 347.98,90.75 347.98,90.75 C347.98,90.75 342.46,90.75 342.46,90.75 C338.81,90.75 338.01,92.72 337.85,93.84 C336.8,91.82 333.89,90.75 328.69,90.75 C328.69,90.75 315.61,90.75 315.61,90.75 C311.37,90.75 310.99,93.91 310.99,93.91 C310.99,93.91 306.22,115.87 306.22,115.87 C306.22,115.87 324.73,115.87 324.73,115.87 C330.16,115.87 331.89,115.32 333.85,113.92 C335.17,112.98 336.24,111.35 336.66,109.4 C337.57,105.09 334.5,103.38 331.02,103.17 C331.02,103.17 331.02,103.1 331.02,103.1 C334.2,102.37 336.9,100.98 337.91,98.15 C337.91,98.15 338.3,115.87 338.3,115.87 C338.3,115.87 347.14,115.87 347.14,115.87 C352.21,115.87 354.08,111.26 354.08,111.26 C354.08,111.26 359.49,100.6 359.49,100.6 C359.49,100.6 359.6,100.6 359.6,100.6 C359.6,100.6 360.85,115.87 360.85,115.87 C360.85,115.87 368.74,115.87 368.74,115.87 C374.45,115.87 376.4,110.91 376.4,110.91 C376.4,110.91 383.35,95.42 383.35,95.42 C383.35,95.42 379.01,115.87 379.01,115.87 C379.01,115.87 383.73,115.87 383.73,115.87 C389.82,115.87 390.63,111.01 390.63,111.01 C390.63,111.01 391.58,106.55 391.58,106.55 C391.58,106.55 398.35,106.55 398.35,106.55 C403.56,106.55 404.31,102.58 404.31,102.58 C404.31,102.58 404.59,101.26 404.59,101.26 C404.59,101.26 392.69,101.26 392.69,101.26 C392.69,101.26 393.8,96.04 393.8,96.04 C393.8,96.04 401.28,96.04 401.28,96.04 C406.39,96.04 407.12,92.26 407.12,92.26 C407.12,92.26 407.44,90.75 407.44,90.75 C407.44,90.75 380.51,90.75 380.51,90.75z "/></g></g><g id="_R_G_L_0_G_L_12_G" transform=" translate(857.58, 84.44)"><path id="_R_G_L_0_G_L_12_G_D_0_P_0" fill="#003cdc" fill-opacity="1" fill-rule="nonzero" d=" M5.97 1.46 C5.97,0.52 6.48,0.42 6.48,0.42 C6.48,0.42 6.98,0.52 6.98,1.46 C6.98,2.41 6.48,3.86 6.48,3.86 C6.48,3.86 5.97,2.41 5.97,1.46z "/><path id="_R_G_L_0_G_L_12_G_D_1_P_0" fill="#ff0000" fill-opacity="1" fill-rule="nonzero" d=" M5.92 3.92 C6.14,4.58 5.81,4.76 5.81,4.76 C5.81,4.76 5.43,4.81 5.22,4.15 C5,3.49 5.03,2.37 5.03,2.37 C5.03,2.37 5.71,3.26 5.92,3.92z "/><path id="_R_G_L_0_G_L_12_G_D_2_P_0" fill="#ffc900" fill-opacity="1" fill-rule="nonzero" d=" M2.92 2.79 C2.36,2.02 2.71,1.64 2.71,1.64 C2.71,1.64 3.18,1.42 3.73,2.19 C4.29,2.96 4.73,4.42 4.73,4.42 C4.73,4.42 3.47,3.55 2.92,2.79z "/><path id="_R_G_L_0_G_L_12_G_D_3_P_0" fill="#ffffff" fill-opacity="1" fill-rule="nonzero" d=" M4.32 4.8 C4.88,5.21 4.72,5.55 4.72,5.55 C4.72,5.55 4.44,5.81 3.88,5.4 C3.32,4.99 2.68,4.07 2.68,4.07 C2.68,4.07 3.76,4.39 4.32,4.8z "/><path id="_R_G_L_0_G_L_12_G_D_4_P_0" fill="#00b754" fill-opacity="1" fill-rule="nonzero" d=" M1.22 5.65 C0.32,5.36 0.38,4.85 0.38,4.85 C0.38,4.85 0.63,4.4 1.53,4.69 C2.44,4.98 3.65,5.91 3.65,5.91 C3.65,5.91 2.12,5.95 1.22,5.65z "/><path id="_R_G_L_0_G_L_12_G_D_5_P_0" fill="#003cdc" fill-opacity="1" fill-rule="nonzero" d=" M3.54 6.46 C4.23,6.46 4.3,6.83 4.3,6.83 C4.3,6.83 4.23,7.2 3.54,7.2 C2.84,7.2 1.79,6.83 1.79,6.83 C1.79,6.83 2.84,6.46 3.54,6.46z "/><path id="_R_G_L_0_G_L_12_G_D_6_P_0" fill="#ff0000" fill-opacity="1" fill-rule="nonzero" d=" M1.53 8.97 C0.63,9.26 0.38,8.81 0.38,8.81 C0.38,8.81 0.32,8.3 1.22,8.01 C2.12,7.71 3.65,7.75 3.65,7.75 C3.65,7.75 2.44,8.68 1.53,8.97z "/><path id="_R_G_L_0_G_L_12_G_D_7_P_0" fill="#ffc900" fill-opacity="1" fill-rule="nonzero" d=" M3.88 8.26 C4.44,7.85 4.72,8.11 4.72,8.11 C4.72,8.11 4.88,8.45 4.32,8.86 C3.75,9.27 2.68,9.59 2.68,9.59 C2.68,9.59 3.32,8.67 3.88,8.26z "/><path id="_R_G_L_0_G_L_12_G_D_8_P_0" fill="#ffffff" fill-opacity="1" fill-rule="nonzero" d=" M3.73 11.47 C3.18,12.23 2.71,12.02 2.71,12.02 C2.71,12.02 2.36,11.64 2.92,10.87 C3.47,10.1 4.73,9.23 4.73,9.23 C4.73,9.23 4.29,10.7 3.73,11.47z "/><path id="_R_G_L_0_G_L_12_G_D_9_P_0" fill="#00b754" fill-opacity="1" fill-rule="nonzero" d=" M5.22 9.51 C5.43,8.85 5.81,8.9 5.81,8.9 C5.81,8.9 6.14,9.08 5.92,9.74 C5.71,10.4 5.03,11.29 5.03,11.29 C5.03,11.29 5,10.17 5.22,9.51z "/><path id="_R_G_L_0_G_L_12_G_D_10_P_0" fill="#003cdc" fill-opacity="1" fill-rule="nonzero" d=" M6.98 12.19 C6.98,13.14 6.48,13.24 6.48,13.24 C6.48,13.24 5.97,13.14 5.97,12.19 C5.97,11.25 6.48,9.8 6.48,9.8 C6.48,9.8 6.98,11.25 6.98,12.19z "/><path id="_R_G_L_0_G_L_12_G_D_11_P_0" fill="#ff0000" fill-opacity="1" fill-rule="nonzero" d=" M7.04 9.74 C6.82,9.08 7.15,8.9 7.15,8.9 C7.15,8.9 7.52,8.85 7.74,9.51 C7.95,10.17 7.93,11.29 7.93,11.29 C7.93,11.29 7.25,10.4 7.04,9.74z "/><path id="_R_G_L_0_G_L_12_G_D_12_P_0" fill="#ffc900" fill-opacity="1" fill-rule="nonzero" d=" M10.04 10.87 C10.6,11.64 10.25,12.02 10.25,12.02 C10.25,12.02 9.78,12.23 9.22,11.47 C8.67,10.7 8.23,9.23 8.23,9.23 C8.23,9.23 9.48,10.1 10.04,10.87z "/><path id="_R_G_L_0_G_L_12_G_D_13_P_0" fill="#ffffff" fill-opacity="1" fill-rule="nonzero" d=" M8.64 8.86 C8.08,8.45 8.24,8.11 8.24,8.11 C8.24,8.11 8.51,7.85 9.07,8.26 C9.64,8.67 10.27,9.59 10.27,9.59 C10.27,9.59 9.2,9.27 8.64,8.86z "/><path id="_R_G_L_0_G_L_12_G_D_14_P_0" fill="#00b754" fill-opacity="1" fill-rule="nonzero" d=" M11.74 8.01 C12.64,8.3 12.58,8.81 12.58,8.81 C12.58,8.81 12.33,9.26 11.42,8.97 C10.52,8.67 9.31,7.75 9.31,7.75 C9.31,7.75 10.83,7.71 11.74,8.01z "/><path id="_R_G_L_0_G_L_12_G_D_15_P_0" fill="#003cdc" fill-opacity="1" fill-rule="nonzero" d=" M9.42 7.2 C8.73,7.2 8.65,6.83 8.65,6.83 C8.65,6.83 8.73,6.46 9.42,6.46 C10.11,6.46 11.17,6.83 11.17,6.83 C11.17,6.83 10.11,7.2 9.42,7.2z "/><path id="_R_G_L_0_G_L_12_G_D_16_P_0" fill="#ff0000" fill-opacity="1" fill-rule="nonzero" d=" M11.42 4.69 C12.33,4.4 12.58,4.85 12.58,4.85 C12.58,4.85 12.64,5.36 11.74,5.65 C10.83,5.95 9.31,5.91 9.31,5.91 C9.31,5.91 10.52,4.98 11.42,4.69z "/><path id="_R_G_L_0_G_L_12_G_D_17_P_0" fill="#ffc900" fill-opacity="1" fill-rule="nonzero" d=" M9.08 5.4 C8.51,5.81 8.24,5.55 8.24,5.55 C8.24,5.55 8.08,5.21 8.64,4.8 C9.2,4.39 10.27,4.07 10.27,4.07 C10.27,4.07 9.64,4.99 9.08,5.4z "/><path id="_R_G_L_0_G_L_12_G_D_18_P_0" fill="#ffffff" fill-opacity="1" fill-rule="nonzero" d=" M9.22 2.19 C9.78,1.42 10.25,1.64 10.25,1.64 C10.25,1.64 10.6,2.02 10.04,2.79 C9.48,3.55 8.23,4.42 8.23,4.42 C8.23,4.42 8.67,2.96 9.22,2.19z "/><path id="_R_G_L_0_G_L_12_G_D_19_P_0" fill="#00b754" fill-opacity="1" fill-rule="nonzero" d=" M7.74 4.15 C7.52,4.81 7.15,4.76 7.15,4.76 C7.15,4.76 6.82,4.58 7.03,3.92 C7.25,3.26 7.93,2.37 7.93,2.37 C7.93,2.37 7.95,3.49 7.74,4.15z "/></g><g id="_R_G_L_0_G_L_11_G" transform=" translate(314.76, 59.58)"><path id="_R_G_L_0_G_L_11_G_D_0_P_0" fill="#003cdc" fill-opacity="1" fill-rule="nonzero" d=" M1.87 6.3 C1.13,6.3 1.05,5.9 1.05,5.9 C1.05,5.9 1.13,5.51 1.87,5.51 C2.61,5.51 3.73,5.9 3.73,5.9 C3.73,5.9 2.61,6.3 1.87,6.3z "/><path id="_R_G_L_0_G_L_11_G_D_1_P_0" fill="#ff0000" fill-opacity="1" fill-rule="nonzero" d=" M3.78 6.34 C4.29,6.17 4.43,6.43 4.43,6.43 C4.43,6.43 4.47,6.72 3.96,6.89 C3.44,7.05 2.57,7.03 2.57,7.03 C2.57,7.03 3.26,6.5 3.78,6.34z "/><path id="_R_G_L_0_G_L_11_G_D_2_P_0" fill="#ffc900" fill-opacity="1" fill-rule="nonzero" d=" M2.9 8.68 C2.3,9.11 2.01,8.84 2.01,8.84 C2.01,8.84 1.84,8.47 2.44,8.04 C3.03,7.61 4.17,7.26 4.17,7.26 C4.17,7.26 3.5,8.24 2.9,8.68z "/><path id="_R_G_L_0_G_L_11_G_D_3_P_0" fill="#ffffff" fill-opacity="1" fill-rule="nonzero" d=" M4.47 7.59 C4.78,7.15 5.05,7.27 5.05,7.27 C5.05,7.27 5.25,7.49 4.93,7.93 C4.61,8.36 3.9,8.86 3.9,8.86 C3.9,8.86 4.15,8.02 4.47,7.59z "/><path id="_R_G_L_0_G_L_11_G_D_4_P_0" fill="#00b754" fill-opacity="1" fill-rule="nonzero" d=" M5.13 10 C4.9,10.7 4.5,10.65 4.5,10.65 C4.5,10.65 4.15,10.46 4.38,9.75 C4.61,9.05 5.33,8.11 5.33,8.11 C5.33,8.11 5.36,9.3 5.13,10z "/><path id="_R_G_L_0_G_L_11_G_D_5_P_0" fill="#003cdc" fill-opacity="1" fill-rule="nonzero" d=" M5.76 8.19 C5.76,7.65 6.05,7.6 6.05,7.6 C6.05,7.6 6.33,7.65 6.33,8.19 C6.33,8.74 6.05,9.56 6.05,9.56 C6.05,9.56 5.76,8.74 5.76,8.19z "/><path id="_R_G_L_0_G_L_11_G_D_6_P_0" fill="#ff0000" fill-opacity="1" fill-rule="nonzero" d=" M7.71 9.75 C7.94,10.46 7.59,10.65 7.59,10.65 C7.59,10.65 7.19,10.7 6.96,10 C6.73,9.3 6.76,8.11 6.76,8.11 C6.76,8.11 7.48,9.05 7.71,9.75z "/><path id="_R_G_L_0_G_L_11_G_D_7_P_0" fill="#ffc900" fill-opacity="1" fill-rule="nonzero" d=" M7.16 7.93 C6.84,7.49 7.04,7.27 7.04,7.27 C7.04,7.27 7.31,7.15 7.63,7.59 C7.94,8.03 8.19,8.86 8.19,8.86 C8.19,8.86 7.48,8.36 7.16,7.93z "/><path id="_R_G_L_0_G_L_11_G_D_8_P_0" fill="#ffffff" fill-opacity="1" fill-rule="nonzero" d=" M9.66 8.04 C10.26,8.48 10.08,8.84 10.08,8.84 C10.08,8.84 9.79,9.11 9.19,8.68 C8.6,8.24 7.92,7.26 7.92,7.26 C7.92,7.26 9.06,7.61 9.66,8.04z "/><path id="_R_G_L_0_G_L_11_G_D_9_P_0" fill="#00b754" fill-opacity="1" fill-rule="nonzero" d=" M8.14 6.89 C7.62,6.72 7.66,6.43 7.66,6.43 C7.66,6.43 7.8,6.17 8.31,6.34 C8.83,6.51 9.52,7.03 9.52,7.03 C9.52,7.03 8.65,7.05 8.14,6.89z "/><path id="_R_G_L_0_G_L_11_G_D_10_P_0" fill="#003cdc" fill-opacity="1" fill-rule="nonzero" d=" M10.22 5.51 C10.96,5.51 11.04,5.9 11.04,5.9 C11.04,5.9 10.96,6.3 10.22,6.3 C9.48,6.3 8.36,5.9 8.36,5.9 C8.36,5.9 9.48,5.51 10.22,5.51z "/><path id="_R_G_L_0_G_L_11_G_D_11_P_0" fill="#ff0000" fill-opacity="1" fill-rule="nonzero" d=" M8.31 5.47 C7.8,5.64 7.66,5.38 7.66,5.38 C7.66,5.38 7.62,5.09 8.14,4.92 C8.65,4.76 9.52,4.77 9.52,4.77 C9.52,4.77 8.83,5.3 8.31,5.47z "/><path id="_R_G_L_0_G_L_11_G_D_12_P_0" fill="#ffc900" fill-opacity="1" fill-rule="nonzero" d=" M9.19 3.13 C9.79,2.7 10.08,2.97 10.08,2.97 C10.08,2.97 10.26,3.33 9.66,3.77 C9.06,4.2 7.92,4.54 7.92,4.54 C7.92,4.54 8.6,3.57 9.19,3.13z "/><path id="_R_G_L_0_G_L_11_G_D_13_P_0" fill="#ffffff" fill-opacity="1" fill-rule="nonzero" d=" M7.63 4.22 C7.31,4.66 7.04,4.53 7.04,4.53 C7.04,4.53 6.84,4.32 7.16,3.88 C7.48,3.44 8.19,2.95 8.19,2.95 C8.19,2.95 7.94,3.78 7.63,4.22z "/><path id="_R_G_L_0_G_L_11_G_D_14_P_0" fill="#00b754" fill-opacity="1" fill-rule="nonzero" d=" M6.96 1.81 C7.19,1.11 7.59,1.16 7.59,1.16 C7.59,1.16 7.94,1.35 7.71,2.05 C7.48,2.76 6.76,3.7 6.76,3.7 C6.76,3.7 6.73,2.51 6.96,1.81z "/><path id="_R_G_L_0_G_L_11_G_D_15_P_0" fill="#003cdc" fill-opacity="1" fill-rule="nonzero" d=" M6.33 3.61 C6.33,4.15 6.05,4.21 6.05,4.21 C6.05,4.21 5.76,4.15 5.76,3.61 C5.76,3.07 6.05,2.25 6.05,2.25 C6.05,2.25 6.33,3.07 6.33,3.61z "/><path id="_R_G_L_0_G_L_11_G_D_16_P_0" fill="#ff0000" fill-opacity="1" fill-rule="nonzero" d=" M4.38 2.05 C4.15,1.35 4.5,1.16 4.5,1.16 C4.5,1.16 4.9,1.11 5.13,1.81 C5.36,2.51 5.33,3.7 5.33,3.7 C5.33,3.7 4.61,2.76 4.38,2.05z "/><path id="_R_G_L_0_G_L_11_G_D_17_P_0" fill="#ffc900" fill-opacity="1" fill-rule="nonzero" d=" M4.93 3.88 C5.25,4.32 5.05,4.53 5.05,4.53 C5.05,4.53 4.79,4.66 4.47,4.22 C4.15,3.78 3.9,2.95 3.9,2.95 C3.9,2.95 4.62,3.44 4.93,3.88z "/><path id="_R_G_L_0_G_L_11_G_D_18_P_0" fill="#ffffff" fill-opacity="1" fill-rule="nonzero" d=" M2.44 3.77 C1.84,3.33 2.01,2.97 2.01,2.97 C2.01,2.97 2.3,2.7 2.9,3.13 C3.5,3.56 4.17,4.54 4.17,4.54 C4.17,4.54 3.03,4.2 2.44,3.77z "/><path id="_R_G_L_0_G_L_11_G_D_19_P_0" fill="#00b754" fill-opacity="1" fill-rule="nonzero" d=" M3.96 4.92 C4.47,5.09 4.43,5.38 4.43,5.38 C4.43,5.38 4.29,5.64 3.78,5.47 C3.26,5.3 2.57,4.77 2.57,4.77 C2.57,4.77 3.44,4.76 3.96,4.92z "/></g><g id="_R_G_L_0_G_L_10_G" transform=" translate(149.7, 188.959) scale(9.96, 9.96) translate(-11.428, -9.494)"><path id="_R_G_L_0_G_L_10_G_D_0_P_0" fill="#d0af71" fill-opacity="1" fill-rule="nonzero" d=" M-3.5 -3.42 C-3.5,-3.63 -3.33,-3.8 -3.12,-3.8 C-3.12,-3.8 25.97,-3.8 25.97,-3.8 C26.18,-3.8 26.35,-3.63 26.35,-3.42 C26.35,-3.42 26.35,22.42 26.35,22.42 C26.35,22.63 26.18,22.8 25.97,22.8 C25.97,22.8 -3.12,22.8 -3.12,22.8 C-3.33,22.8 -3.5,22.62 -3.5,22.42 C-3.5,22.42 -3.5,-3.42 -3.5,-3.42z  M-2.03 -1.94 C-2.03,-2.15 -1.86,-2.32 -1.65,-2.32 C-1.65,-2.32 24.5,-2.32 24.5,-2.32 C24.71,-2.32 24.88,-2.15 24.88,-1.94 C24.88,-1.94 24.88,20.94 24.88,20.94 C24.88,21.15 24.71,21.32 24.5,21.32 C24.5,21.32 -1.65,21.32 -1.65,21.32 C-1.86,21.32 -2.03,21.15 -2.03,20.94 C-2.03,20.94 -2.03,-1.94 -2.03,-1.94z "/><path id="_R_G_L_0_G_L_10_G_D_1_P_0" fill="#bb181b" fill-opacity="1" fill-rule="nonzero" d=" M-2.03 -1.94 C-2.03,-2.15 -1.86,-2.32 -1.65,-2.32 C-1.65,-2.32 24.5,-2.32 24.5,-2.32 C24.71,-2.32 24.88,-2.15 24.88,-1.94 C24.88,-1.94 24.88,20.94 24.88,20.94 C24.88,21.15 24.71,21.32 24.5,21.32 C24.5,21.32 -1.65,21.32 -1.65,21.32 C-1.86,21.32 -2.03,21.15 -2.03,20.94 C-2.03,20.94 -2.03,-1.94 -2.03,-1.94z "/><path id="_R_G_L_0_G_L_10_G_D_2_P_0" fill="#ffffff" fill-opacity="1" fill-rule="nonzero" d=" M8.03 9.4 C8.03,9.4 8.03,17.77 8.03,17.77 C8.03,17.96 7.98,18.07 7.82,18.07 C7.66,18.07 7.59,17.96 7.59,17.77 C7.59,17.77 7.59,16.67 7.59,16.67 C7.59,16.67 7.18,16.67 7.18,16.67 C6.88,16.67 5.92,17.41 5.31,17.88 C5.11,18.03 4.95,18.15 4.86,18.21 C4.19,17.82 3.36,17.43 2.73,17.22 C2.62,17.33 2.52,17.42 2.42,17.51 C2.23,17.69 2.08,17.83 1.97,17.94 C1.93,17.98 1.89,18.01 1.87,18.05 C1.78,18.14 1.72,18.19 1.67,18.19 C1.55,18.19 1.41,18.06 1.41,17.94 C1.41,17.82 1.67,17.55 2.85,16.34 C3.66,15.52 3.99,14.52 3.99,13 C3.99,10.49 2.9,8.34 1.65,8.34 C1.24,8.34 1.03,8.5 0.96,8.92 C0.94,9.12 0.84,9.19 0.75,9.19 C0.56,9.19 0.47,8.89 0.47,8.38 C0.47,7.23 1.28,6.31 2.28,6.31 C2.74,6.31 3.05,6.51 3.32,6.69 C3.55,6.84 3.75,6.97 3.99,6.94 C3.99,6.94 3.99,5.25 3.99,5.25 C3.99,4.81 3.82,4.44 3.5,4.16 C3.22,3.93 1.79,2.97 1.25,2.97 C1.15,2.97 1.07,2.99 1.01,3.01 C0.96,3.02 0.91,3.04 0.86,3.04 C0.79,3.04 0.76,3.02 0.76,2.97 C0.76,2.91 0.8,2.86 0.9,2.74 C0.92,2.72 0.93,2.71 0.95,2.69 C0.95,2.69 2.77,0.89 2.77,0.89 C2.79,0.87 2.8,0.87 2.82,0.86 C2.88,0.81 2.92,0.77 3,0.77 C3.37,0.77 4.4,1.47 5.23,2.04 C5.82,2.43 6.3,2.76 6.43,2.76 C6.65,2.76 7.31,2.35 8.01,1.91 C8.85,1.39 9.77,0.82 10.13,0.82 C10.3,0.82 10.48,0.96 11.67,1.92 C11.67,1.92 11.67,1.92 11.67,1.92 C11.75,1.98 11.83,2.05 11.91,2.11 C11.97,2.16 12.04,2.22 12.12,2.28 C12.37,2.49 12.71,2.77 13.02,2.97 C13.4,3.2 13.42,3.24 13.42,3.68 C13.65,3.64 13.9,3.45 15.36,2.27 C15.78,1.93 17,0.93 17.1,0.93 C17.21,0.93 18.23,1.35 19.74,1.97 C20.18,2.15 20.25,2.2 20.25,2.48 C20.25,2.48 20.25,14.41 20.25,14.41 C20.25,14.8 20.3,14.94 20.46,15.08 C21.15,15.68 21.57,15.91 21.8,15.91 C21.87,15.91 21.97,15.88 22.03,15.81 C22.15,15.65 22.18,15.63 22.24,15.63 C22.31,15.63 22.39,15.73 22.39,15.81 C22.39,15.95 21.35,17.24 20.28,18.08 C19.64,17.85 18.53,17.09 17.9,16.44 C17.69,16.21 17.65,16.16 17.65,15.77 C17.65,15.77 17.65,7.23 17.65,7.23 C17.65,6.24 17.97,5.56 19.13,4.02 C19.73,3.24 19.77,3 19.66,3 C19.6,3 19.07,3.36 18.6,3.69 C18.28,3.91 17.98,4.12 17.87,4.18 C17.82,4.16 17.77,4.13 17.73,4.1 C16.59,3.45 16.22,3.24 15.58,3.24 C15.21,3.24 14.96,3.42 14.96,3.65 C14.96,3.65 14.96,17.85 14.96,17.85 C14.96,18.03 14.86,18.17 14.73,18.17 C14.61,18.17 14.54,18.06 14.54,17.87 C14.54,17.87 14.54,16.81 14.54,16.81 C13.89,16.92 13.32,17.44 12.94,17.8 C12.74,17.98 12.59,18.12 12.51,18.12 C12.25,18.12 10.75,16.32 10.75,16.18 C10.75,16.18 10.75,9.39 10.75,9.39 C10.75,9.39 8.04,9.39 8.04,9.39 C8.04,9.39 8.03,9.4 8.03,9.4z  M7.61 3.51 C7.61,3.05 7.57,2.89 7.48,2.89 C7.27,2.89 6.53,3.36 6.53,3.51 C6.53,3.51 6.53,9.9 6.53,9.9 C6.53,13.01 6.17,13.38 5.37,14.21 C5.35,14.23 5.34,14.25 5.32,14.26 C4.95,14.65 4.86,14.75 4.58,15.07 C5.07,15.74 6.69,16.04 7.61,15.99 C7.61,15.99 7.61,3.51 7.61,3.51z  M10.74 7.21 C10.74,7.21 10.74,4.67 10.74,4.67 C10.74,4.18 9,2.87 8.43,2.87 C8.17,2.87 8.03,3.03 8.03,3.33 C8.03,3.33 8.03,7.21 8.03,7.21 C8.03,7.21 10.74,7.21 10.74,7.21z  M14.54 3.93 C14.54,3.88 14.52,3.86 14.44,3.86 C14.38,3.86 14.26,3.9 14.19,3.95 C14.19,3.95 13.66,4.28 13.66,4.28 C13.36,4.46 13.26,4.55 13.26,4.69 C13.26,4.69 13.26,7 13.26,7 C13.26,7.16 13.48,7.28 13.64,7.28 C13.64,7.28 14.54,7.28 14.54,7.28 C14.54,7.28 14.54,3.93 14.54,3.93 C14.54,3.93 14.54,3.93 14.54,3.93z  M13.65 9.35 C13.4,9.35 13.28,9.54 13.28,9.88 C13.28,9.88 13.28,14.62 13.28,14.62 C13.28,15.54 13.67,15.98 14.53,16.04 C14.53,16.04 14.53,9.35 14.53,9.35 C14.53,9.35 13.65,9.35 13.65,9.35z "/></g><g id="_R_G_L_0_G_L_9_G" transform=" translate(511.318, 92.742)"><path id="_R_G_L_0_G_L_9_G_D_0_P_0" fill="#ffffff" fill-opacity="1" fill-rule="nonzero" d=" M0.84 1.17 C0.84,1.17 3.9,8.74 3.9,8.74 C3.9,8.74 3.66,8.83 3.66,8.83 C3.66,8.83 0.6,1.26 0.6,1.26 C0.6,1.26 0.84,1.17 0.84,1.17z "/><path id="_R_G_L_0_G_L_9_G_D_1_P_0" fill="#ff0000" fill-opacity="1" fill-rule="nonzero" d=" M6.11 1.92 C5.64,1.72 5.22,1.72 4.83,1.81 C4.44,1.91 4.09,2.08 3.74,2.3 C3.05,2.69 2.4,3.21 1.36,2.57 C1.24,2.25 1.13,1.93 1.06,1.62 C1.54,1.88 1.96,1.96 2.35,1.89 C2.75,1.83 3.11,1.63 3.49,1.49 C3.86,1.32 4.24,1.21 4.64,1.15 C5.04,1.1 5.46,1.11 5.9,1.28 C5.95,1.49 6.03,1.7 6.11,1.92z "/><path id="_R_G_L_0_G_L_9_G_D_2_P_0" fill="#ffc900" fill-opacity="1" fill-rule="nonzero" d=" M6.64 3.2 C5.68,2.74 5,3.18 4.35,3.67 C3.68,4.15 3.04,4.69 2.07,4.29 C1.86,3.76 1.58,3.16 1.36,2.57 C2.4,3.21 3.05,2.69 3.75,2.3 C4.09,2.08 4.44,1.91 4.83,1.81 C5.22,1.73 5.64,1.72 6.11,1.92 C6.27,2.33 6.48,2.76 6.64,3.2z "/><path id="_R_G_L_0_G_L_9_G_D_3_P_0" fill="#ff0000" fill-opacity="1" fill-rule="nonzero" d=" M6.87 3.91 C6.42,3.72 6.03,3.73 5.66,3.85 C5.29,3.98 4.95,4.23 4.6,4.48 C3.92,4.98 3.2,5.39 2.36,5.13 C2.29,4.86 2.19,4.58 2.07,4.29 C3.04,4.69 3.68,4.15 4.35,3.67 C5,3.18 5.68,2.73 6.64,3.2 C6.73,3.44 6.81,3.67 6.87,3.91z "/></g><g id="_R_G_L_0_G_L_8_G" transform=" translate(559.118, 188.133) scale(9.96, 9.96) translate(-24.534, -14.411)"><path id="_R_G_L_0_G_L_8_G_D_0_P_0" fill="#ffffff" fill-opacity="1" fill-rule="nonzero" d=" M45.97 1.87 C45.87,1.87 45.67,2.19 45.64,2.29 C45.54,2.42 45.32,2.74 45.32,2.74 C45.32,2.74 44.02,2.74 44.02,2.74 C42.99,2.22 42.47,2.19 42.34,2.19 C42.24,2.19 42.24,2.58 42.24,2.58 C42.24,2.58 42.28,6.91 42.28,7.59 C42.28,8.28 42.15,9.32 41.92,10.26 C41.66,11.3 41.24,11.79 40.56,12.47 C39.85,13.16 38.46,13.81 38.27,13.91 C38.07,14 38.04,14.1 38.04,14.1 C38.04,14.1 37.88,14.23 38.85,13.94 C40.08,13.58 41.08,13.03 41.63,12.67 C43.73,11.2 43.7,9.03 43.7,9.03 C43.7,9.03 45.67,9.03 45.67,9.03 C45.67,9.03 45.67,11.82 45.67,11.82 C45.67,11.92 45.6,12.02 45.47,12.15 C45.28,12.31 44.6,12.38 44.37,12.38 C44.15,12.38 43.83,12.34 43.86,12.47 C43.86,12.6 44.31,12.83 44.6,13.03 C44.89,13.22 44.96,13.64 45.05,13.84 C45.15,14.03 45.96,14.26 46.67,13.68 C47.38,13.09 47.29,12.08 47.29,12.08 C47.29,12.08 47.29,3.43 47.29,3.43 C47.29,3.43 47.45,3.27 47.45,3.27 C47.54,3.17 47.8,2.91 47.48,2.59 C46.87,2 46.02,1.87 45.96,1.87 C45.96,1.87 45.97,1.87 45.97,1.87z  M45.64 8.8 C45.64,8.8 43.74,8.8 43.74,8.8 C43.78,7.69 43.8,6.74 43.8,5.93 C43.8,5.93 45.64,5.93 45.64,5.93 C45.64,5.93 45.64,8.8 45.64,8.8z  M45.64 5.67 C45.64,5.67 43.8,5.67 43.8,5.67 C43.8,5.67 43.8,3.43 43.8,3.43 C43.8,3.43 43.83,2.94 44.16,2.94 C44.16,2.94 45.61,2.94 45.61,2.94 C45.61,2.94 45.61,5.68 45.61,5.68 C45.61,5.68 45.64,5.68 45.64,5.68 C45.64,5.68 45.64,5.67 45.64,5.67z "/><path id="_R_G_L_0_G_L_8_G_D_1_P_0" fill="#ffffff" fill-opacity="1" fill-rule="nonzero" d=" M37.82 10.62 C37.82,10.62 39.47,10.62 39.47,10.62 C39.47,10.62 39.47,11.4 39.47,11.4 C39.47,11.43 39.47,11.59 39.57,11.66 C39.63,11.76 39.86,11.79 40.28,11.76 C40.7,11.72 40.76,11.56 40.86,11.43 C40.96,11.3 40.96,11.01 40.96,11.01 C40.96,11.01 40.96,3.59 40.96,3.59 C40.96,3.59 40.99,3.53 41.06,3.46 C41.12,3.4 41.44,3.3 41.35,3.14 C41.02,2.42 40.32,2.19 40.15,2.16 C39.92,2.06 39.7,2.03 39.64,2.13 C39.57,2.22 39.44,2.45 39.38,2.58 C39.31,2.71 39.18,2.81 39.18,2.81 C39.18,2.81 37.63,2.81 37.63,2.81 C37.63,2.81 36.72,2.32 36.5,2.35 C36.3,2.35 36.3,2.61 36.3,2.61 C36.3,2.61 36.3,12.02 36.3,12.02 C36.3,12.02 36.3,12.18 36.4,12.24 C36.5,12.31 36.69,12.27 36.89,12.27 C37.08,12.27 37.4,12.24 37.63,12.11 C37.82,11.95 37.79,11.69 37.79,11.69 C37.79,11.69 37.79,10.62 37.79,10.62 C37.79,10.62 37.82,10.62 37.82,10.62 C37.82,10.62 37.82,10.62 37.82,10.62z  M38.15 3.04 C38.15,3.04 39.47,3.04 39.47,3.04 C39.47,3.04 39.47,6.59 39.47,6.59 C39.47,6.59 37.82,6.59 37.82,6.59 C37.82,6.59 37.82,3.46 37.82,3.46 C37.82,3.49 37.79,3.07 38.15,3.04z    M39.47 10.36 C39.47,10.36 37.82,10.36 37.82,10.36 C37.82,10.36 37.82,6.84 37.82,6.84 C37.82,6.84 39.47,6.84 39.47,6.84 C39.47,6.84 39.47,10.36 39.47,10.36z "/><path id="_R_G_L_0_G_L_8_G_D_2_P_0" fill="#ffffff" fill-opacity="1" fill-rule="nonzero" d=" M47.56 18.38 C47.43,18.38 47.34,18.51 47.22,18.69 C47.09,18.85 46.69,19.38 46.69,19.38 C46.69,19.38 46.35,19.38 46.35,19.38 C46.35,19.38 46.35,16.57 46.35,16.57 C46.38,16.45 46.57,16.38 46.53,16.23 C46.53,16.16 46.22,16.04 45.88,15.98 C45.63,15.94 45.11,15.88 44.92,15.91 C44.76,15.95 44.76,16.16 44.76,16.16 C44.76,16.16 44.76,19.38 44.76,19.38 C44.76,19.38 43.25,19.38 43.25,19.38 C43.25,19.38 43.25,17.54 43.25,17.54 C43.25,17.54 44.39,17.16 44.55,17.1 C44.7,17.04 44.73,16.94 44.67,16.88 C44.64,16.82 44.55,16.76 44.36,16.66 C44.18,16.57 43.84,16.35 43.52,16.16 C43.21,15.98 43.18,15.98 43.06,15.98 C42.97,15.98 42.84,16.07 42.66,16.25 C41.85,17.07 40.36,18.13 40.15,18.31 C40.15,18.31 40.11,18.35 40.11,18.35 C40.17,18.41 41.69,17.94 41.69,17.94 C41.69,17.94 41.69,19.38 41.69,19.38 C41.69,19.38 39.46,19.38 39.46,19.38 C39.31,19.38 39.43,19.5 39.56,19.56 C39.65,19.63 39.68,19.63 39.68,19.63 C39.68,19.63 41.69,19.63 41.69,19.63 C41.69,19.63 41.69,20.38 41.63,20.94 C41.51,21.84 41.01,22.62 41.01,22.62 C40.98,22.66 40.98,22.68 40.98,22.68 C40.98,22.68 40.98,22.78 40.98,22.78 C41.08,22.87 41.32,22.66 41.63,22.43 C42.13,22.09 42.5,21.78 42.75,21.34 C43.09,20.78 43.21,19.63 43.21,19.63 C43.21,19.63 44.76,19.63 44.76,19.63 C44.76,19.63 44.73,22.66 44.76,22.75 C44.8,22.87 44.83,23 45.38,23 C45.94,22.97 46.16,22.84 46.25,22.75 C46.35,22.66 46.31,22.47 46.31,22.47 C46.31,22.47 46.31,19.6 46.31,19.6 C46.31,19.6 48.33,19.6 48.33,19.6 C48.42,19.6 48.51,19.54 48.49,19.41 C48.45,19.29 48.27,19.01 48.05,18.79 C47.87,18.57 47.71,18.38 47.55,18.38 C47.55,18.38 47.56,18.38 47.56,18.38z "/><path id="_R_G_L_0_G_L_8_G_D_3_P_0" fill="#ffffff" fill-opacity="1" fill-rule="nonzero" d=" M46.94 25.59 C46.63,25.4 46.5,25.56 46.35,25.74 C46.23,25.87 45.64,26.65 45.64,26.65 C45.64,26.65 44.24,26.65 44.24,26.65 C44.24,26.65 44.24,24.4 44.24,24.4 C44.24,24.4 46.26,24.4 46.26,24.4 C46.5,24.4 46.69,24.37 46.81,24.28 C46.94,24.19 46.81,24.03 46.53,23.75 C46.19,23.41 45.73,23.19 45.64,23.19 C45.54,23.19 45.39,23.41 45.32,23.53 C45.26,23.66 44.89,24.16 44.89,24.16 C44.89,24.16 44.27,24.16 44.27,24.16 C44.27,24.16 44.27,22.75 44.27,22.75 C44.27,22.69 44.51,22.54 44.51,22.38 C44.51,22.29 44.42,22.1 44.21,21.97 C43.93,21.82 43.37,21.79 43.06,21.79 C42.72,21.79 42.75,22.19 42.75,22.19 C42.75,22.19 42.75,24.16 42.75,24.16 C42.75,24.16 41.08,24.16 41.08,24.16 C40.95,24.16 40.83,24.16 40.98,24.28 C41.14,24.4 41.33,24.4 41.33,24.4 C41.33,24.4 42.75,24.4 42.75,24.4 C42.75,24.4 42.75,26.65 42.75,26.65 C42.75,26.65 39.4,26.65 39.4,26.65 C39.25,26.65 39.31,26.74 39.37,26.81 C39.43,26.84 39.62,26.84 39.62,26.84 C39.62,26.84 47.52,26.84 47.52,26.84 C47.62,26.84 48.17,26.87 47.77,26.4 C47.24,25.78 46.99,25.62 46.93,25.59 C46.93,25.59 46.94,25.59 46.94,25.59z "/><path id="_R_G_L_0_G_L_8_G_D_4_P_0" fill="#ffffff" fill-opacity="1" fill-rule="nonzero" d=" M40.12 23.93 C40.18,23.81 40.21,23.69 40.24,23.53 C40.27,23.41 40.3,23.25 40.33,23.06 C40.33,22.97 40.37,22.87 40.33,22.78 C40.33,22.78 40.33,22.53 40.33,22.53 C40.24,21.91 39.84,21.35 39.41,20.94 C38.91,20.47 38.32,20.13 38.32,20.13 C38.79,19.38 39.19,18.76 39.5,18.26 C39.5,18.26 39.53,18.22 39.53,18.22 C40,17.54 40.31,17.13 40.31,17.13 C40.34,17.1 40.43,17.04 40.31,16.95 C40.09,16.73 39.57,16.38 39.32,16.26 C39.07,16.14 38.97,16.07 38.88,16.07 C38.79,16.07 38.72,16.17 38.69,16.23 C38.63,16.29 38.35,16.63 38.35,16.63 C38.35,16.63 37.76,16.63 37.76,16.63 C37.76,16.63 36.86,16.1 36.52,16.1 C36.3,16.1 36.3,16.29 36.3,16.29 C36.3,16.29 36.3,27.24 36.3,27.24 C36.3,27.31 36.27,27.52 36.49,27.59 C36.8,27.68 37.27,27.53 37.42,27.43 C37.64,27.34 37.6,27.03 37.6,27.03 C37.6,27.03 37.6,23.63 37.6,23.63 C38.28,23.84 38.38,24.25 38.44,24.44 C38.5,24.65 38.41,25.03 39,24.84 C39.25,24.75 39.46,24.63 39.65,24.5 C39.84,24.38 39.99,24.22 40.12,23.94 C40.12,23.94 40.12,23.93 40.12,23.93z  M38.94 22.94 C38.66,23.5 37.64,23.44 37.64,23.44 C37.64,23.44 37.64,17.32 37.64,17.32 C37.64,16.95 37.98,16.95 37.98,16.95 C37.98,16.95 38.63,16.95 38.63,16.95 C38.41,18.76 37.94,20.35 37.94,20.35 C37.94,20.35 38.44,20.94 38.72,21.35 C39,21.72 39.18,22.44 38.94,22.94z "/><path id="_R_G_L_0_G_L_8_G_D_5_P_0" fill="#ffffff" fill-opacity="1" fill-rule="nonzero" d=" M11.88 13.97 C15.09,13.49 15.8,11.82 15.8,8.97 C15.8,8.97 15.8,5.96 15.8,5.96 C15.8,2.8 13.27,1.2 8.19,1.2 C3.11,1.2 0.58,2.8 0.58,5.96 C0.58,5.96 0.58,9.51 0.58,9.51 C0.58,12 1.13,13.3 4.06,13.8 C1.13,14.45 0.58,16.27 0.58,18.93 C0.58,18.93 0.58,22.82 0.58,22.82 C0.58,26.02 3.11,27.61 8.19,27.61 C13.27,27.61 15.8,26.02 15.8,22.82 C15.8,22.82 15.8,18.97 15.8,18.97 C15.8,16.04 15.09,14.37 11.88,13.97 C11.88,13.97 11.88,13.97 11.88,13.97z  M8.15 12.3 C7.02,12.3 6.48,11.77 6.48,10.71 C6.48,10.71 6.48,5.65 6.48,5.65 C6.48,4.61 7.03,4.12 8.15,4.12 C9.27,4.12 9.86,4.63 9.86,5.65 C9.86,5.65 9.86,10.71 9.86,10.71 C9.86,11.77 9.29,12.3 8.15,12.3z  M8.15 24.55 C7.02,24.55 6.48,24.01 6.48,22.96 C6.48,22.96 6.48,17.23 6.48,17.23 C6.48,16.14 7.03,15.6 8.15,15.6 C9.27,15.6 9.86,16.13 9.86,17.23 C9.86,17.23 9.86,22.96 9.86,22.96 C9.86,24.01 9.29,24.55 8.15,24.55z "/><path id="_R_G_L_0_G_L_8_G_D_6_P_0" fill="#ffffff" fill-opacity="1" fill-rule="nonzero" d=" M29.32 13.97 C32.54,13.49 33.24,11.82 33.24,8.97 C33.24,8.97 33.24,5.96 33.24,5.96 C33.24,2.8 30.71,1.2 25.63,1.2 C20.54,1.2 18.01,2.8 18.01,5.96 C18.01,5.96 18.01,9.51 18.01,9.51 C18.01,12 18.56,13.3 21.5,13.8 C18.56,14.45 18.01,16.27 18.01,18.93 C18.01,18.93 18.01,22.82 18.01,22.82 C18.01,26.02 20.55,27.61 25.63,27.61 C30.71,27.61 33.24,26.02 33.24,22.82 C33.24,22.82 33.24,18.97 33.24,18.97 C33.24,16.04 32.54,14.37 29.32,13.97 C29.32,13.97 29.32,13.97 29.32,13.97z  M25.59 12.3 C24.47,12.3 23.91,11.77 23.91,10.71 C23.91,10.71 23.91,5.65 23.91,5.65 C23.91,4.61 24.47,4.12 25.59,4.12 C26.71,4.12 27.3,4.63 27.3,5.65 C27.3,5.65 27.3,10.71 27.3,10.71 C27.32,11.77 26.75,12.3 25.59,12.3z  M25.59 24.55 C24.47,24.55 23.91,24.01 23.91,22.96 C23.91,22.96 23.91,17.23 23.91,17.23 C23.91,16.14 24.47,15.6 25.59,15.6 C26.71,15.6 27.3,16.13 27.3,17.23 C27.3,17.23 27.3,22.96 27.3,22.96 C27.32,24.01 26.75,24.55 25.59,24.55z "/></g><g id="_R_G_L_0_G_L_7_G" transform=" translate(619.074, 232.79)"><path id="_R_G_L_0_G_L_7_G_D_0_P_0" fill="#ffffff" fill-opacity="1" fill-rule="nonzero" d=" M3.24 0.49 C3.24,0.49 -0.21,7.89 -0.21,7.89 C-0.21,7.89 -0.45,7.79 -0.45,7.79 C-0.45,7.79 3,0.39 3,0.39 C3,0.39 3.24,0.49 3.24,0.49z "/><path id="_R_G_L_0_G_L_7_G_D_1_P_0" fill="#ff0000" fill-opacity="1" fill-rule="nonzero" d=" M4.84 4.67 C4.71,4.36 4.52,4.17 4.28,4.05 C4.03,3.93 3.74,3.89 3.45,3.84 C2.87,3.74 2.32,3.59 2.04,3.05 C2.22,2.74 2.38,2.34 2.55,1.92 C2.72,1.49 2.91,1.05 3.13,0.7 C3.23,1.06 3.4,1.31 3.63,1.47 C3.85,1.63 4.12,1.71 4.38,1.83 C4.64,1.93 4.89,2.06 5.11,2.23 C5.33,2.41 5.53,2.61 5.66,2.92 C5.51,3.15 5.4,3.45 5.27,3.77 C5.14,4.08 5.01,4.41 4.84,4.67z "/><path id="_R_G_L_0_G_L_7_G_D_2_P_0" fill="#ffffff" fill-opacity="1" fill-rule="nonzero" d=" M3.35 3.82 C3.54,3.53 3.66,3.22 3.78,2.91 C3.52,2.86 3.26,2.82 3.03,2.7 C2.81,2.58 2.61,2.39 2.5,2.03 C2.53,1.96 2.56,1.88 2.6,1.8 C2.81,2.55 3.34,2.61 3.85,2.72 C3.97,2.41 4.1,2.09 4.28,1.79 C4.35,1.81 4.41,1.84 4.47,1.87 C4.29,2.15 4.17,2.46 4.05,2.76 C4.31,2.81 4.56,2.88 4.78,3.02 C4.99,3.15 5.18,3.35 5.3,3.68 C5.28,3.74 5.26,3.8 5.23,3.85 C4.99,3.19 4.5,3.04 3.98,2.94 C3.87,3.25 3.74,3.56 3.56,3.86 C3.49,3.84 3.42,3.83 3.35,3.82z "/></g><g id="_R_G_L_0_G_L_6_G" transform=" translate(1.02, 361.652)"><path id="_R_G_L_0_G_L_6_G_D_0_P_0" fill="#00b754" fill-opacity="1" fill-rule="nonzero" d=" M93.59 1.12 C93.59,1.12 0.5,1.12 0.5,1.12 C0.5,1.12 0.5,2.55 0.5,2.55 C0.5,2.55 93.59,2.55 93.59,2.55 C93.59,2.55 93.59,1.12 93.59,1.12z "/></g><g id="_R_G_L_0_G_L_5_G" transform=" translate(1.015, 343.125)"><path id="_R_G_L_0_G_L_5_G_D_0_P_0" fill="#009644" fill-opacity="1" fill-rule="nonzero" d=" M88.33 0.82 C88.33,0.82 5.75,0.82 5.75,0.82 C5.75,0.82 0.5,3.12 0.5,3.12 C0.5,3.12 93.59,3.12 93.59,3.12 C93.59,3.12 88.33,0.82 88.33,0.82z "/></g><g id="_R_G_L_0_G_L_4_G"><path id="_R_G_L_0_G_L_4_G_D_0_P_0" fill="#92c3df" fill-opacity="1" fill-rule="nonzero" d=" M7.59 0.98 C7.59,1.02 7.58,1.05 7.57,1.1 C7.5,1.41 7.37,2.11 7.31,2.28 C7.3,2.29 7.28,2.31 7.26,2.34 C6.99,2.65 5.5,3.54 5.5,3.54 C5.5,3.54 3.95,2.62 3.72,2.32 C3.71,2.3 3.7,2.29 3.7,2.28 C3.63,2.11 3.51,1.41 3.43,1.1 C3.42,1.04 3.41,0.99 3.41,0.96 C3.41,0.92 3.41,0.89 3.41,0.87 C3.41,0.87 3.42,0.86 3.42,0.86 C4.12,0.51 4.9,0.44 5.5,0.44 C6.09,0.44 6.88,0.51 7.58,0.86 C7.58,0.87 7.59,0.87 7.6,0.87 C7.6,0.9 7.6,0.93 7.59,0.98z "/><path id="_R_G_L_0_G_L_4_G_D_1_P_0" fill="#92c3df" fill-opacity="1" fill-rule="nonzero" d=" M8.75 2.46 C8.75,2.75 8.67,3.12 8.59,3.42 C8.59,3.44 8.58,3.46 8.58,3.48 C8.54,3.62 8.5,3.74 8.48,3.81 C8.47,3.82 8.47,3.83 8.47,3.84 C8.4,4.01 5.5,3.91 5.5,3.91 C5.5,3.91 2.59,4.01 2.53,3.84 C2.51,3.79 2.48,3.7 2.45,3.58 C2.35,3.26 2.22,2.74 2.22,2.36 C2.22,2.25 2.24,2.16 2.26,2.07 C2.26,2.06 2.26,2.06 2.26,2.06 C2.31,1.89 2.4,1.74 2.5,1.62 C2.51,1.64 2.51,1.66 2.52,1.69 C2.59,2 2.77,2.66 2.82,2.83 C2.83,2.83 2.83,2.84 2.84,2.85 C2.98,3.07 4.15,3.59 4.76,3.73 C5.46,3.89 5.5,3.54 5.5,3.54 C5.5,3.54 5.54,3.89 6.24,3.73 C6.82,3.6 7.92,3.12 8.14,2.88 C8.14,2.88 8.15,2.88 8.15,2.88 C8.16,2.86 8.18,2.84 8.18,2.83 C8.24,2.66 8.42,2 8.49,1.69 C8.49,1.69 8.49,1.68 8.49,1.68 C8.64,1.89 8.75,2.14 8.75,2.46z "/><path id="_R_G_L_0_G_L_4_G_D_2_P_0" fill="#ffffff" fill-opacity="1" fill-rule="nonzero" d=" M5.5 3.54 C5.5,3.54 5.46,3.89 4.76,3.73 C4.16,3.59 2.98,3.07 2.83,2.85 C2.83,2.84 2.83,2.83 2.82,2.83 C2.76,2.66 2.59,2 2.52,1.69 C2.51,1.66 2.51,1.64 2.5,1.62 C2.5,1.6 2.49,1.58 2.49,1.56 C2.78,1.18 3.22,0.96 3.41,0.87 C3.41,0.89 3.41,0.92 3.41,0.96 C3.42,0.99 3.42,1.04 3.44,1.1 C3.51,1.41 3.63,2.11 3.7,2.28 C3.7,2.29 3.71,2.3 3.73,2.32 C3.96,2.62 5.5,3.54 5.5,3.54z "/><path id="_R_G_L_0_G_L_4_G_D_3_P_0" fill="#ffffff" fill-opacity="1" fill-rule="nonzero" d=" M8.51 1.57 C8.51,1.57 8.51,1.57 8.51,1.57 C8.51,1.6 8.5,1.63 8.49,1.68 C8.49,1.68 8.49,1.69 8.49,1.69 C8.42,2 8.24,2.66 8.18,2.83 C8.18,2.84 8.16,2.86 8.15,2.88 C8.15,2.88 8.14,2.88 8.14,2.88 C7.92,3.12 6.82,3.6 6.24,3.73 C5.54,3.89 5.5,3.54 5.5,3.54 C5.5,3.54 6.99,2.65 7.27,2.34 C7.29,2.31 7.3,2.29 7.31,2.28 C7.37,2.11 7.5,1.41 7.57,1.1 C7.58,1.05 7.59,1.02 7.59,0.98 C7.6,0.93 7.6,0.9 7.6,0.87 C7.79,0.97 8.23,1.18 8.51,1.57z "/><path id="_R_G_L_0_G_L_4_G_D_4_P_0" fill="#80abc3" fill-opacity="1" fill-rule="nonzero" d=" M5.5 1.9 C7.26,1.9 8.87,2.8 8.46,3.85 C8.26,4.38 7.17,5.1 5.5,5.1 C3.83,5.1 2.74,4.38 2.54,3.85 C2.13,2.8 3.74,1.9 5.5,1.9z "/><path id="_R_G_L_0_G_L_4_G_D_5_P_0" fill="#92c3df" fill-opacity="1" fill-rule="nonzero" d=" M2.24 6.38 C2.18,6.11 2.24,5.57 2.41,5.29 C2.81,4.59 3.64,4.73 4.16,5.08 C4.16,5.08 4.16,4.34 4.16,4.34 C3.86,4.02 2.72,3.88 2.06,4.49 C1.19,5.28 1.5,7.33 1.5,7.33 C1.5,7.33 2.24,6.38 2.24,6.38z "/><path id="_R_G_L_0_G_L_4_G_D_6_P_0" fill="#92c3df" fill-opacity="1" fill-rule="nonzero" d=" M8.75 6.38 C8.82,6.11 8.76,5.57 8.59,5.29 C8.19,4.59 7.35,4.73 6.84,5.08 C6.84,5.08 6.84,4.34 6.84,4.34 C7.14,4.02 8.28,3.88 8.94,4.49 C9.81,5.28 9.5,7.33 9.5,7.33 C9.5,7.33 8.75,6.38 8.75,6.38z "/><path id="_R_G_L_0_G_L_4_G_D_7_P_0" fill="#92c3df" fill-opacity="1" fill-rule="nonzero" d=" M5.5 3.03 C4.72,3.03 4.08,3.37 4.08,3.79 C4.08,3.79 4.08,7.21 4.08,7.21 C4.08,7.21 6.92,7.21 6.92,7.21 C6.92,7.21 6.92,3.79 6.92,3.79 C6.92,3.37 6.28,3.03 5.5,3.03z "/><path id="_R_G_L_0_G_L_4_G_D_8_P_0" fill="#ffffff" fill-opacity="1" fill-rule="nonzero" d=" M4.4 3.46 C4.4,3.39 4.41,3.33 4.44,3.29 C4.56,3.22 4.7,3.16 4.86,3.12 C4.81,3.15 4.77,3.2 4.77,3.32 C4.76,3.57 4.76,4.61 4.77,4.73 C4.79,5 4.91,5.21 5.01,5.2 C5.1,5.2 4.4,5.31 4.4,5.31 C4.4,5.31 4.4,3.46 4.4,3.46z "/><path id="_R_G_L_0_G_L_4_G_D_9_P_0" fill="#ffffff" fill-opacity="1" fill-rule="nonzero" d=" M6 5.2 C6.09,5.21 6.21,5 6.23,4.73 C6.24,4.61 6.24,3.57 6.23,3.32 C6.23,3.2 6.19,3.15 6.14,3.12 C6.3,3.16 6.44,3.22 6.56,3.29 C6.59,3.33 6.6,3.39 6.6,3.46 C6.6,3.46 6.6,5.31 6.6,5.31 C6.6,5.31 5.9,5.2 6,5.2z "/><path id="_R_G_L_0_G_L_4_G_D_10_P_0" fill="#92c3df" fill-opacity="1" fill-rule="nonzero" d=" M8.42 20.54 C8.55,20.8 8.56,21.02 8.38,21.08 C8.32,21.09 8.24,21.12 8.11,21.16 C8.11,21.16 8.11,21.16 8.11,21.16 C8.04,21.18 7.96,21.12 7.87,21.15 C7.78,21.17 7.68,21.27 7.57,21.3 C7.09,21.4 6.42,21.49 5.5,21.49 C5.5,21.49 5.5,21.49 5.5,21.49 C4.58,21.49 3.9,21.4 3.43,21.3 C3.33,21.28 3.26,21.18 3.18,21.16 C3.07,21.14 2.96,21.18 2.89,21.16 C2.76,21.12 2.68,21.09 2.62,21.08 C2.44,21.02 2.45,20.8 2.58,20.54 C2.7,20.31 3.58,18.83 3.72,17.95 C3.91,16.82 3.34,16.14 2.71,14.73 C1.99,13.1 0.74,9.97 1.23,8 C1.77,5.82 3.84,5.14 5.5,5.14 C7.16,5.14 9.23,5.82 9.77,8 C10.26,9.97 9.01,13.1 8.29,14.73 C7.66,16.14 7.09,16.82 7.28,17.95 C7.42,18.83 8.3,20.31 8.42,20.54z "/><path id="_R_G_L_0_G_L_4_G_D_11_P_0" fill="#f4f5f5" fill-opacity="1" fill-rule="nonzero" d=" M7.12 9.32 C7.09,8.44 6.37,7.74 5.5,7.74 C4.63,7.74 3.91,8.44 3.88,9.32 C4.4,9.27 4.94,9.25 5.5,9.25 C6.06,9.25 6.6,9.27 7.12,9.32z  M3.89 9.58 C3.99,10.39 4.67,11.02 5.5,11.02 C6.33,11.02 7.01,10.39 7.11,9.58 C6.59,9.54 6.05,9.51 5.5,9.51 C4.95,9.51 4.41,9.54 3.89,9.58z  M3.63 9.61 C2.74,9.71 1.91,9.87 1.21,10.08 C1.19,9.99 1.18,9.9 1.17,9.81 C1.88,9.59 2.71,9.43 3.62,9.34 C3.63,8.31 4.47,7.47 5.5,7.47 C6.53,7.47 7.37,8.31 7.39,9.34 C8.29,9.43 9.12,9.59 9.83,9.81 C9.82,9.9 9.8,9.99 9.79,10.08 C9.09,9.87 8.26,9.71 7.37,9.61 C7.26,10.55 6.46,11.29 5.5,11.29 C4.54,11.29 3.74,10.55 3.63,9.61z "/><path id="_R_G_L_0_G_L_4_G_D_12_P_0" fill="#a6deff" fill-opacity="1" fill-rule="nonzero" d=" M6.62 21.07 C6.62,21.07 6.15,21.15 5.5,21.15 C4.85,21.15 4.38,21.07 4.38,21.07 C4.38,21.07 4.72,18.31 5.5,18.31 C6.28,18.31 6.62,21.07 6.62,21.07z "/><path id="_R_G_L_0_G_L_4_G_D_13_P_0" fill="#ffffff" fill-opacity="1" fill-rule="nonzero" d=" M3.33 13.02 C4.09,15.76 4.59,16.91 4.45,18.29 C4.41,18.72 4.13,19.76 3.71,20.55 C3.56,20.83 3.48,20.94 3.43,21.3 C3.33,21.28 3.26,21.18 3.18,21.16 C3.07,21.14 2.96,21.18 2.89,21.16 C2.92,20.97 2.99,20.76 3.13,20.55 C3.63,19.79 3.91,18.85 4.03,18.31 C4.43,16.55 2.56,15.13 1.81,10.1 C1.24,6.25 3.77,5.55 4.59,5.45 C4.59,5.45 4.91,5.41 4.91,5.41 C1.95,6.44 2.72,10.85 3.33,13.02z "/><path id="_R_G_L_0_G_L_4_G_D_14_P_0" fill="#ffffff" fill-opacity="1" fill-rule="nonzero" d=" M9.18 10.1 C8.44,15.13 6.57,16.55 6.97,18.31 C7.09,18.85 7.37,19.79 7.87,20.55 C8,20.76 8.08,20.97 8.11,21.16 C8.04,21.18 7.96,21.12 7.87,21.15 C7.78,21.17 7.68,21.27 7.57,21.3 C7.52,20.94 7.44,20.83 7.29,20.55 C6.87,19.76 6.59,18.72 6.55,18.29 C6.41,16.91 6.91,15.76 7.68,13.02 C8.28,10.85 9.05,6.44 6.09,5.41 C6.09,5.41 6.41,5.45 6.41,5.45 C7.23,5.55 9.75,6.25 9.18,10.1z "/></g><g id="_R_G_L_0_G_L_3_G" transform=" translate(316.157, 318.669)"><path id="_R_G_L_0_G_L_3_G_D_0_P_0" fill="#2632ad" fill-opacity="1" fill-rule="nonzero" d=" M2.83 3.81 C2.46,4.04 2.08,4.19 1.61,4.09 C1.47,3.7 1.23,3.27 0.97,2.8 C0.72,2.34 0.46,1.84 0.3,1.39 C0.57,1.5 0.81,1.56 1.04,1.55 C1.26,1.55 1.46,1.48 1.66,1.4 C2.01,2.34 2.6,3 2.83,3.81z "/><path id="_R_G_L_0_G_L_3_G_D_1_P_0" fill="#ffffff" fill-opacity="1" fill-rule="nonzero" d=" M3.87 2.98 C3.52,3.22 3.19,3.58 2.83,3.81 C2.6,3 2.01,2.34 1.66,1.4 C2.04,1.22 2.41,0.97 2.82,0.83 C3.02,1.55 3.56,2.15 3.87,2.98z "/><path id="_R_G_L_0_G_L_3_G_D_2_P_0" fill="#e70013" fill-opacity="1" fill-rule="nonzero" d=" M5.12 2.77 C4.63,2.62 4.22,2.73 3.87,2.98 C3.56,2.15 3.02,1.55 2.82,0.83 C3.23,0.69 3.65,0.62 4.14,0.75 C4.25,1.06 4.43,1.38 4.62,1.72 C4.81,2.07 5,2.43 5.12,2.77z "/><path id="_R_G_L_0_G_L_3_G_D_3_P_0" fill="#ffffff" fill-opacity="1" fill-rule="nonzero" d=" M0.16 1.19 C0.16,1.19 3.86,8.47 3.86,8.47 C3.86,8.47 3.63,8.59 3.63,8.59 C3.63,8.59 -0.07,1.31 -0.07,1.31 C-0.07,1.31 0.16,1.19 0.16,1.19z "/></g><g id="_R_G_L_0_G_L_2_G"><path id="_R_G_L_0_G_L_2_G_D_0_P_0" fill="#ffffff" fill-opacity="1" fill-rule="nonzero" d=" M8.51 3.38 C7.61,3.27 6.54,2.94 5.77,2.53 C5.77,2.53 3.52,4.43 2.47,7.39 C2.98,7.77 3.63,8.14 4.49,8.48 C5.37,8.83 6.24,9.02 7.07,9.1 C7.87,7.68 8.55,5.82 8.57,3.42 C8.57,3.42 8.57,3.39 8.57,3.39 C8.57,3.39 8.51,3.38 8.51,3.38z "/><path id="_R_G_L_0_G_L_2_G_D_1_P_0" fill="#e73323" fill-opacity="1" fill-rule="nonzero" d=" M5.01 1.11 C5.01,1.11 5.01,1.11 5.01,1.11 C5.01,1.11 5.01,1.11 5.01,1.11 C3.05,1.42 1.44,2.83 0.86,4.69 C0.86,4.69 0.67,6.05 2.47,7.39 C3.52,4.43 5.77,2.53 5.77,2.53 C5.61,2.45 5.47,2.36 5.34,2.27 C4.12,1.44 5.01,1.11 5.01,1.11z "/><path id="_R_G_L_0_G_L_2_G_D_2_P_0" stroke="#143cd6" stroke-linecap="round" stroke-linejoin="round" fill="none" stroke-width="0.079" stroke-opacity="1" d="  C10.08,3.22 10.05,3.18 10.06,3.2z "/><path id="_R_G_L_0_G_L_2_G_D_3_P_0" fill="#143cd7" fill-opacity="1" fill-rule="nonzero" d=" M5.34 2.27 C4.12,1.44 5.01,1.11 5.01,1.11 C5.28,1.07 5.56,1.05 5.84,1.05 C7.58,1.05 9.12,1.9 10.07,3.2 C9.24,3.78 6.56,3.1 5.34,2.27z "/><path id="_R_G_L_0_G_L_2_G_D_4_P_0" fill="#f7c849" fill-opacity="1" fill-rule="nonzero" d=" M0.86 4.69 C0.7,5.19 0.61,5.72 0.61,6.27 C0.61,6.5 0.63,6.73 0.66,6.95 C0.66,6.96 1.12,7.96 2.08,8.92 C2.14,8.08 2.47,7.39 2.47,7.39 C0.67,6.05 0.86,4.69 0.86,4.69z "/><path id="_R_G_L_0_G_L_2_G_D_5_P_0" fill="#143cd7" fill-opacity="1" fill-rule="nonzero" d=" M7 9.24 C6.61,9.92 6.23,10.38 5.9,10.7 C7.37,10.88 8.3,10.64 9.22,10.25 C9.68,9.86 10.07,9.39 10.38,8.85 C9.45,9.08 8.31,9.21 7.07,9.1 C7.05,9.15 7.02,9.19 7,9.24z "/><path id="_R_G_L_0_G_L_2_G_D_6_P_0" fill="#a39035" fill-opacity="1" fill-rule="nonzero" d=" M2.08 8.92 C1.12,7.96 0.66,6.96 0.66,6.95 C0.81,8.16 1.38,9.23 2.21,10.03 C2.08,9.66 2.06,9.27 2.08,8.92z "/><path id="_R_G_L_0_G_L_2_G_D_7_P_0" fill="#0e2a95" fill-opacity="1" fill-rule="nonzero" d=" M5.9 10.7 C5.21,11.34 4.71,11.37 4.69,11.37 C5.06,11.45 5.44,11.49 5.84,11.49 C7.13,11.49 8.31,11.03 9.22,10.25 C8.3,10.64 7.37,10.88 5.9,10.7z "/><path id="_R_G_L_0_G_L_2_G_D_8_P_0" fill="#000000" fill-opacity="1" fill-rule="nonzero" d=" M7.34 6.29 C7.34,6.85 6.91,7.3 6.37,7.3 C5.85,7.3 5.46,6.89 5.46,6.37 C5.47,5.8 5.91,5.35 6.45,5.35 C6.97,5.35 7.34,5.74 7.34,6.29z "/><path id="_R_G_L_0_G_L_2_G_D_9_P_0" fill="#000000" fill-opacity="1" fill-rule="nonzero" d=" M6.39 4.15 C6.39,4.67 5.99,5.09 5.49,5.09 C5.01,5.09 4.64,4.71 4.65,4.23 C4.65,3.7 5.06,3.28 5.57,3.28 C6.05,3.28 6.4,3.65 6.39,4.15z "/><path id="_R_G_L_0_G_L_2_G_D_10_P_0" fill="#000000" fill-opacity="1" fill-rule="nonzero" d=" M6.73 2.95 C6.72,2.97 6.67,3.12 6.71,3.41 C6.77,3.78 7.13,4.02 7.52,4.01 C7.88,4 8.14,3.75 8.23,3.34 C7.74,3.26 7.22,3.12 6.73,2.95z "/><path id="_R_G_L_0_G_L_2_G_D_11_P_0" fill="#010000" fill-opacity="1" fill-rule="nonzero" d=" M3.05 6.07 C3.49,6.14 3.85,5.97 4.08,5.59 C4.29,5.22 4.27,4.78 4.04,4.47 C3.7,4.94 3.36,5.47 3.05,6.07z "/><path id="_R_G_L_0_G_L_2_G_D_12_P_0" fill="#000000" fill-opacity="1" fill-rule="nonzero" d=" M8.23 6.19 C8.37,5.6 8.48,4.97 8.53,4.3 C8.03,4.34 7.63,4.77 7.63,5.31 C7.62,5.73 7.87,6.07 8.23,6.19z "/><path id="_R_G_L_0_G_L_2_G_D_13_P_0" fill="#000000" fill-opacity="1" fill-rule="nonzero" d=" M6.53 8.66 C6.52,8.8 6.55,8.93 6.6,9.04 C6.76,9.07 6.92,9.08 7.07,9.1 C7.32,8.66 7.55,8.19 7.76,7.67 C7.68,7.65 7.6,7.64 7.52,7.64 C6.97,7.64 6.53,8.09 6.53,8.66z  M6.89 9.41 C6.89,9.41 6.89,9.41 6.89,9.41 C6.89,9.41 6.89,9.41 6.89,9.41z "/><path id="_R_G_L_0_G_L_2_G_D_14_P_0" fill="#ffffff" fill-opacity="1" fill-rule="nonzero" d=" M2.1 8.71 C4.11,10.34 6.21,10.36 6.22,10.36 C6.36,10.2 6.5,10.02 6.64,9.81 C3.99,9.67 2.22,8.1 2.22,8.1 C2.17,8.28 2.13,8.49 2.1,8.71z "/><path id="_R_G_L_0_G_L_2_G_D_15_P_0" fill="#00b559" fill-opacity="1" fill-rule="nonzero" d=" M7.07 9.1 C6.24,9.02 5.36,8.83 4.49,8.48 C3.63,8.14 2.97,7.77 2.47,7.39 C2.47,7.39 2.34,7.68 2.22,8.1 C2.22,8.1 3.99,9.67 6.64,9.81 C6.78,9.6 6.93,9.37 7.07,9.1z "/><path id="_R_G_L_0_G_L_2_G_D_16_P_0" fill="#000000" fill-opacity="1" fill-rule="nonzero" d=" M3.23 7.89 C3.59,8.09 4,8.28 4.46,8.47 C4.83,8.28 5.05,7.99 5.08,7.57 C5.11,7.13 4.82,6.7 4.42,6.58 C3.98,6.45 3.52,6.65 3.3,7.06 C3.17,7.32 3.15,7.6 3.23,7.88 C3.23,7.88 3.23,7.88 3.23,7.89z "/><path id="_R_G_L_0_G_L_2_G_D_17_P_0" fill="#00b559" fill-opacity="1" fill-rule="nonzero" d=" M2.08 8.91 C2.78,9.61 3.73,10.28 4.96,10.54 C5.3,10.61 5.61,10.66 5.9,10.7 C6,10.6 6.11,10.49 6.22,10.36 C6.21,10.36 4.11,10.34 2.1,8.71 C2.09,8.78 2.09,8.85 2.08,8.91z "/><path id="_R_G_L_0_G_L_2_G_D_18_P_0" fill="#a8b3ad" fill-opacity="1" fill-rule="nonzero" d=" M5.77 10.81 C3.66,10.54 2.08,9.23 2.08,9.23 C2.08,9.38 2.09,9.52 2.12,9.67 C2.32,9.83 2.64,10.06 3.18,10.36 C4.39,11.03 5.42,11.07 5.42,11.07 C5.53,11 5.65,10.92 5.77,10.81z "/><path id="_R_G_L_0_G_L_2_G_D_19_P_0" fill="#027e42" fill-opacity="1" fill-rule="nonzero" d=" M4.96 10.54 C3.73,10.28 2.78,9.61 2.08,8.92 C2.08,9.02 2.07,9.12 2.08,9.23 C2.08,9.23 3.66,10.54 5.77,10.81 C5.81,10.78 5.85,10.74 5.9,10.7 C5.61,10.66 5.3,10.61 4.96,10.54z "/><path id="_R_G_L_0_G_L_2_G_D_20_P_0" fill="#027e42" fill-opacity="1" fill-rule="nonzero" d=" M2.12 9.67 C2.14,9.79 2.17,9.91 2.21,10.03 C2.89,10.68 3.74,11.16 4.7,11.37 C4.7,11.37 4.99,11.35 5.42,11.07 C5.42,11.07 4.39,11.03 3.18,10.36 C2.64,10.06 2.32,9.83 2.12,9.67z "/><path id="_R_G_L_0_G_L_2_G_D_21_P_0" fill="#000000" fill-opacity="1" fill-rule="nonzero" d=" M10.07 3.2 C9.76,3.41 9.21,3.46 8.57,3.39 C8.57,3.39 8.57,3.42 8.57,3.42 C8.55,5.82 7.87,7.68 7.07,9.1 C8.31,9.21 9.45,9.08 10.38,8.85 C10.81,8.09 11.06,7.21 11.06,6.27 C11.06,5.1 10.72,4.08 10.07,3.2z "/></g><g id="_R_G_L_0_G_L_1_G" transform=" translate(960.222, 183.558) scale(9.53846, 9.53846) translate(-0.862, -19.244)"><path id="_R_G_L_0_G_L_1_G_D_0_P_0" fill="#ffcb2a" fill-opacity="1" fill-rule="nonzero" d=" M0.25 30.64 C0.25,30.64 1.47,30.64 1.47,30.64 C1.47,30.64 1.47,23.04 1.47,23.04 C1.47,23.04 0.25,23.04 0.25,23.04 C0.25,23.04 0.25,30.64 0.25,30.64z "/><path id="_R_G_L_0_G_L_1_G_D_1_P_0" fill="#ffffff" fill-opacity="1" fill-rule="nonzero" d=" M0.25 23.04 C0.25,23.04 1.47,23.04 1.47,23.04 C1.47,23.04 1.47,15.45 1.47,15.45 C1.47,15.45 0.25,15.45 0.25,15.45 C0.25,15.45 0.25,23.04 0.25,23.04z "/><path id="_R_G_L_0_G_L_1_G_D_2_P_0" fill="#35b55d" fill-opacity="1" fill-rule="nonzero" d=" M0.25 15.45 C0.25,15.45 1.47,15.45 1.47,15.45 C1.47,15.45 1.47,7.85 1.47,7.85 C1.47,7.85 0.25,7.85 0.25,7.85 C0.25,7.85 0.25,15.45 0.25,15.45z "/><path id="_R_G_L_0_G_L_1_G_D_3_P_0" fill="#455da8" fill-opacity="1" fill-rule="nonzero" d=" M0.25 7.85 C0.25,7.85 1.47,7.85 1.47,7.85 C1.47,7.85 1.47,0.25 1.47,0.25 C1.47,0.25 0.25,0.25 0.25,0.25 C0.25,0.25 0.25,7.85 0.25,7.85z "/><path id="_R_G_L_0_G_L_1_G_D_4_P_0" fill="#ee3738" fill-opacity="1" fill-rule="nonzero" d=" M0.25 38.24 C0.25,38.24 1.47,38.24 1.47,38.24 C1.47,38.24 1.47,30.64 1.47,30.64 C1.47,30.64 0.25,30.64 0.25,30.64 C0.25,30.64 0.25,38.24 0.25,38.24z "/></g><g id="_R_G_L_0_G_L_0_G" transform=" translate(960.222, 2.384)"><path id="_R_G_L_0_G_L_0_G_D_0_P_0" fill="#ffffff" fill-opacity="1" fill-rule="nonzero" d=" M0.25 0.25 C0.25,0.25 0.25,7.85 0.25,7.85 C0.25,7.85 0.25,15.45 0.25,15.45 C0.25,15.45 0.25,23.04 0.25,23.04 C0.25,23.04 0.25,30.64 0.25,30.64 C0.25,30.64 0.25,38.24 0.25,38.24 C0.25,38.24 1.47,38.24 1.47,38.24 C1.47,38.24 1.47,30.64 1.47,30.64 C1.47,30.64 1.47,23.04 1.47,23.04 C1.47,23.04 1.47,15.45 1.47,15.45 C1.47,15.45 1.47,7.85 1.47,7.85 C1.47,7.85 1.47,0.25 1.47,0.25 C1.47,0.25 0.25,0.25 0.25,0.25z "/></g></g></g><g id="time_group"/></svg>