<svg xmlns="http://www.w3.org/2000/svg" xmlns:xlink="http://www.w3.org/1999/xlink" preserveAspectRatio="xMidYMid meet" width="200" height="48" viewBox="0 0 200 48" style="width:100%;height:100%"><defs><animate repeatCount="indefinite" dur="16s" begin="0s" xlink:href="#_R_G_L_0_G_L_3_G" fill="freeze" attributeName="opacity" from="0" to="0" keyTimes="0;0.0625;0.25;0.3125;1" values="0;1;1;0;0" keySplines="0.167 0.167 0.833 0.833;0.167 0.167 0.833 0.833;0.167 0.167 0.833 0.833;0 0 0 0" calcMode="spline"/><animate repeatCount="indefinite" dur="16s" begin="0s" xlink:href="#_R_G_L_0_G_L_3_G_M" fill="freeze" attributeName="opacity" from="1" to="0" keyTimes="0;0.3125;0.3125;1" values="1;1;0;0" keySplines="0 0 0 0;0 0 0 0;0 0 0 0" calcMode="spline"/><animate repeatCount="indefinite" dur="16s" begin="0s" xlink:href="#_R_G_L_0_G_L_2_G" fill="freeze" attributeName="opacity" from="0" to="0" keyTimes="0;0.3125;0.375;0.5625;0.625;1" values="0;0;1;1;0;0" keySplines="0.167 0.167 0.833 0.833;0.167 0.167 0.833 0.833;0.167 0.167 0.833 0.833;0.167 0.167 0.833 0.833;0 0 0 0" calcMode="spline"/><animate repeatCount="indefinite" dur="16s" begin="0s" xlink:href="#_R_G_L_0_G_L_2_G_M" fill="freeze" attributeName="opacity" from="0" to="0" keyTimes="0;0.3125;0.3125003;0.625;0.625;1" values="0;0;1;1;0;0" keySplines="0 0 0 0;0 0 0 0;0 0 0 0;0 0 0 0;0 0 0 0" calcMode="spline"/><animate repeatCount="indefinite" dur="16s" begin="0s" xlink:href="#_R_G_L_0_G_L_1_G" fill="freeze" attributeName="opacity" from="0" to="0" keyTimes="0;0.625;0.6875;0.75;0.8125;1" values="0;0;1;1;0;0" keySplines="0.167 0.167 0.833 0.833;0.167 0.167 0.833 0.833;0.167 0.167 0.833 0.833;0.167 0.167 0.833 0.833;0 0 0 0" calcMode="spline"/><animate repeatCount="indefinite" dur="16s" begin="0s" xlink:href="#_R_G_L_0_G_L_1_G_M" fill="freeze" attributeName="opacity" from="0" to="0" keyTimes="0;0.625;0.6250003;0.8125;0.8125;1" values="0;0;1;1;0;0" keySplines="0 0 0 0;0 0 0 0;0 0 0 0;0 0 0 0;0 0 0 0" calcMode="spline"/><animate repeatCount="indefinite" dur="16s" begin="0s" xlink:href="#_R_G_L_0_G_L_0_G" fill="freeze" attributeName="opacity" from="0" to="0" keyTimes="0;0.8125;0.875;0.9375;1" values="0;0;1;1;0" keySplines="0.167 0.167 0.833 0.833;0.167 0.167 0.833 0.833;0.167 0.167 0.833 0.833;0.167 0.167 0.833 0.833" calcMode="spline"/><animate repeatCount="indefinite" dur="16s" begin="0s" xlink:href="#_R_G_L_0_G_L_0_G_M" fill="freeze" attributeName="opacity" from="0" to="1" keyTimes="0;0.8125;0.8125002;1" values="0;0;1;1" keySplines="0 0 0 0;0 0 0 0;0 0 0 0" calcMode="spline"/><animate attributeType="XML" attributeName="opacity" dur="16s" from="0" to="1" xlink:href="#time_group"/></defs><g id="_R_G"><g id="_R_G_L_0_G" transform=" translate(96.143, 24) scale(0.1, 0.1) translate(-1050, -240)"><g id="_R_G_L_0_G_L_5_G" transform=" translate(460.851, 240.715) scale(3.62, 3.62) translate(-140.814, -57.151)"><path id="_R_G_L_0_G_L_5_G_D_0_P_0" fill="#ffffff" fill-opacity="1" fill-rule="nonzero" d=" M173.86 38.21 C183.33,36.8 185.41,31.88 185.41,23.46 C185.41,23.46 185.41,14.59 185.41,14.59 C185.41,5.27 177.95,0.58 162.98,0.58 C148,0.58 140.54,5.27 140.54,14.59 C140.54,14.59 140.54,25.05 140.54,25.05 C140.54,32.39 142.17,36.24 150.81,37.7 C142.17,39.63 140.54,44.99 140.54,52.85 C140.54,52.85 140.54,64.32 140.54,64.32 C140.54,73.76 148,78.45 162.98,78.45 C177.95,78.45 185.41,73.76 185.41,64.32 C185.41,64.32 185.41,52.96 185.41,52.96 C185.41,44.32 183.33,39.4 173.86,38.21z  M162.86 33.3 C159.56,33.3 157.93,31.71 157.93,28.61 C157.93,28.61 157.93,13.69 157.93,13.69 C157.93,10.63 159.56,9.16 162.86,9.16 C166.23,9.16 167.91,10.69 167.91,13.69 C167.91,13.69 167.91,28.61 167.91,28.61 C167.91,31.71 166.23,33.3 162.86,33.3z  M162.86 69.41 C159.56,69.41 157.93,67.83 157.93,64.72 C157.93,64.72 157.93,47.82 157.93,47.82 C157.93,44.6 159.56,43.02 162.86,43.02 C166.23,43.02 167.91,44.6 167.91,47.82 C167.91,47.82 167.91,64.72 167.91,64.72 C167.91,67.83 166.23,69.41 162.86,69.41z "/><path id="_R_G_L_0_G_L_5_G_D_1_P_0" fill="#ffffff" fill-opacity="1" fill-rule="nonzero" d=" M225.31 38.21 C234.79,36.8 236.87,31.88 236.87,23.46 C236.87,23.46 236.87,14.59 236.87,14.59 C236.87,5.27 229.4,0.58 214.42,0.58 C199.43,0.58 191.96,5.27 191.96,14.59 C191.96,14.59 191.96,25.05 191.96,25.05 C191.96,32.39 193.59,36.24 202.24,37.7 C193.59,39.63 191.96,44.99 191.96,52.85 C191.96,52.85 191.96,64.32 191.96,64.32 C191.96,73.76 199.43,78.45 214.42,78.45 C229.4,78.45 236.87,73.76 236.87,64.32 C236.87,64.32 236.87,52.96 236.87,52.96 C236.87,44.32 234.79,39.4 225.31,38.21z  M214.31 33.3 C210.99,33.3 209.37,31.71 209.37,28.61 C209.37,28.61 209.37,13.69 209.37,13.69 C209.37,10.63 210.99,9.16 214.31,9.16 C217.67,9.16 219.36,10.69 219.36,13.69 C219.36,13.69 219.36,28.61 219.36,28.61 C219.41,31.71 217.73,33.3 214.31,33.3z  M214.31 69.41 C210.99,69.41 209.37,67.83 209.37,64.72 C209.37,64.72 209.37,47.82 209.37,47.82 C209.37,44.6 210.99,43.02 214.31,43.02 C217.67,43.02 219.36,44.6 219.36,47.82 C219.36,47.82 219.36,64.72 219.36,64.72 C219.41,67.83 217.73,69.41 214.31,69.41z "/><path id="_R_G_L_0_G_L_5_G_D_2_P_0" fill="#ffffff" fill-opacity="1" fill-rule="nonzero" d=" M79.52 113.11 C79.52,113.11 79.52,111.66 79.52,111.66 C76.3,111.32 76.09,111.03 76.01,107.22 C76.01,107.22 75.64,91.72 75.64,91.72 C75.55,88.28 75.72,87.95 79.02,87.62 C79.02,87.62 79.02,86.17 79.02,86.17 C79.02,86.17 70.72,86.17 70.72,86.17 C70.72,86.17 62.63,104.32 62.63,104.32 C62.63,104.32 54.66,86.17 54.66,86.17 C54.66,86.17 46.12,86.17 46.12,86.17 C46.12,86.17 46.12,87.62 46.12,87.62 C49.67,87.95 49.96,88.53 49.63,93.26 C49.63,93.26 48.97,101.42 48.97,101.42 C48.68,105.77 48.35,107.93 48.1,109.25 C47.85,110.7 47.07,111.45 44.75,111.66 C44.75,111.66 44.75,113.11 44.75,113.11 C44.75,113.11 54.66,113.11 54.66,113.11 C54.66,113.11 54.66,111.66 54.66,111.66 C51.94,111.41 51.11,111.03 50.95,109.17 C50.78,107.88 50.78,105.94 50.95,102.5 C50.95,102.5 51.44,91.68 51.44,91.68 C51.44,91.68 51.61,91.68 51.61,91.68 C51.61,91.68 60.03,112.82 60.03,112.82 C60.03,112.82 61.19,112.82 61.19,112.82 C61.19,112.82 70.31,91.27 70.31,91.27 C70.31,91.27 70.52,91.27 70.52,91.27 C70.52,91.27 70.6,107.22 70.6,107.22 C70.64,111.03 70.39,111.32 67.3,111.66 C67.3,111.66 67.3,113.11 67.3,113.11 C67.3,113.11 79.52,113.11 79.52,113.11z "/><path id="_R_G_L_0_G_L_5_G_D_3_P_0" fill="#ffffff" fill-opacity="1" fill-rule="nonzero" d=" M109.03 113.11 C109.03,113.11 109.03,111.66 109.03,111.66 C106.42,111.32 105.89,110.79 104.48,107.14 C101.8,100.01 99.24,92.8 96.6,85.55 C96.6,85.55 94.49,86.09 94.49,86.09 C94.49,86.09 86.03,107.39 86.03,107.39 C84.67,110.87 84.17,111.32 81.45,111.66 C81.45,111.66 81.4,113.11 81.4,113.11 C81.4,113.11 90.65,113.11 90.65,113.11 C90.65,113.11 90.65,111.66 90.65,111.66 C87.64,111.28 87.56,110.7 88.13,108.71 C88.63,107.06 89.17,105.56 89.62,104.28 C89.62,104.28 97.55,104.28 97.55,104.28 C98.17,105.98 98.79,107.72 99.2,108.96 C99.86,110.79 99.65,111.28 97.22,111.66 C97.22,111.66 97.22,113.11 97.22,113.11 C97.22,113.11 109.03,113.11 109.03,113.11z  M96.76 102.08 C96.76,102.08 90.32,102.08 90.32,102.08 C91.4,99.14 92.43,96.16 93.58,93.13 C93.58,93.13 93.71,93.13 93.71,93.13 C93.71,93.13 96.76,102.08 96.76,102.08z "/><path id="_R_G_L_0_G_L_5_G_D_4_P_0" fill="#ffffff" fill-opacity="1" fill-rule="nonzero" d=" M139.7 86.17 C139.7,86.17 129.63,86.17 129.63,86.17 C129.63,86.17 129.63,87.62 129.63,87.62 C132.65,87.79 133.51,88.49 133.72,90.27 C133.8,91.48 134.05,93.42 134.05,97.07 C134.05,97.07 134.05,104.36 134.05,104.36 C134.05,104.36 133.88,104.36 133.88,104.36 C133.88,104.36 118.11,86.17 118.11,86.17 C118.11,86.17 110.47,86.17 110.47,86.17 C110.47,86.17 110.47,87.62 110.47,87.62 C112.21,87.79 113.16,88.12 113.9,89.11 C114.68,90.07 114.77,90.85 114.77,93.55 C114.77,93.55 114.77,102.21 114.77,102.21 C114.77,105.85 114.52,107.68 114.35,109.05 C114.19,110.83 113.24,111.49 110.93,111.66 C110.93,111.66 110.93,113.11 110.93,113.11 C110.93,113.11 121.04,113.11 121.04,113.11 C121.04,113.11 121.04,111.66 121.04,111.66 C117.99,111.53 117.29,110.74 117.08,108.92 C116.96,107.68 116.75,105.85 116.75,102.21 C116.75,102.21 116.75,92.88 116.75,92.88 C116.75,92.88 116.87,92.88 116.87,92.88 C116.87,92.88 134.05,113.52 134.05,113.52 C134.05,113.52 136.03,113.52 136.03,113.52 C136.03,113.52 136.03,97.07 136.03,97.07 C136.03,93.42 136.28,91.48 136.4,90.19 C136.61,88.28 137.47,87.74 139.7,87.62 C139.7,87.62 139.7,86.17 139.7,86.17z "/><path id="_R_G_L_0_G_L_5_G_D_5_P_0" fill="#ffffff" fill-opacity="1" fill-rule="nonzero" d=" M158.62 92.59 C158.29,90.03 158,88.2 157.84,86.67 C157.1,86.38 154.74,85.55 152.1,85.55 C146.24,85.55 142.64,89.11 142.64,93.67 C142.64,97.65 145.58,99.89 149.83,102.04 C152.92,103.7 154.74,105.23 154.74,107.68 C154.74,110.29 153.13,112.03 150.61,112.03 C146.65,112.03 144.21,107.39 143.39,104.74 C143.39,104.74 141.94,105.19 141.94,105.19 C142.23,107.72 142.77,111.2 143.14,112.24 C143.72,112.48 144.5,112.82 145.66,113.15 C146.9,113.52 148.34,113.73 149.83,113.73 C155.86,113.73 159.86,110.04 159.86,105.32 C159.86,101.21 156.89,98.89 152.55,96.78 C148.92,94.96 147.43,93.63 147.43,91.35 C147.43,88.99 149.13,87.25 151.44,87.25 C154.82,87.25 156.35,90.31 157.22,92.93 C157.22,92.93 158.62,92.59 158.62,92.59z "/><path id="_R_G_L_0_G_L_5_G_D_6_P_0" fill="#ffffff" fill-opacity="1" fill-rule="nonzero" d=" M174.65 113.11 C174.65,113.11 174.65,111.66 174.65,111.66 C171.59,111.37 171.22,111.08 171.22,107.59 C171.22,107.59 171.22,91.72 171.22,91.72 C171.22,88.2 171.59,87.91 174.65,87.62 C174.65,87.62 174.65,86.17 174.65,86.17 C174.65,86.17 162.26,86.17 162.26,86.17 C162.26,86.17 162.26,87.62 162.26,87.62 C165.32,87.91 165.69,88.2 165.69,91.72 C165.69,91.72 165.69,107.59 165.69,107.59 C165.69,111.08 165.32,111.37 162.26,111.66 C162.26,111.66 162.26,113.11 162.26,113.11 C162.26,113.11 174.65,113.11 174.65,113.11z "/><path id="_R_G_L_0_G_L_5_G_D_7_P_0" fill="#ffffff" fill-opacity="1" fill-rule="nonzero" d=" M192.12 85.55 C182.67,85.55 177.63,92.55 177.63,99.68 C177.63,107.64 183.37,113.73 191.63,113.73 C199.39,113.73 205.79,108.3 205.79,99.35 C205.79,91.14 199.64,85.55 192.12,85.55z  M191.38 87.29 C196.13,87.29 199.47,92.26 199.47,100.51 C199.47,108.13 196.29,111.99 192.37,111.99 C187.08,111.99 183.95,105.98 183.95,98.89 C183.95,91.72 187.21,87.29 191.38,87.29z "/><path id="_R_G_L_0_G_L_5_G_D_8_P_0" fill="#ffffff" fill-opacity="1" fill-rule="nonzero" d=" M236.87 86.17 C236.87,86.17 226.8,86.17 226.8,86.17 C226.8,86.17 226.8,87.62 226.8,87.62 C229.81,87.79 230.68,88.49 230.89,90.27 C230.97,91.48 231.22,93.42 231.22,97.07 C231.22,97.07 231.22,104.36 231.22,104.36 C231.22,104.36 231.05,104.36 231.05,104.36 C231.05,104.36 215.28,86.17 215.28,86.17 C215.28,86.17 207.64,86.17 207.64,86.17 C207.64,86.17 207.64,87.62 207.64,87.62 C209.38,87.79 210.33,88.12 211.07,89.11 C211.85,90.07 211.94,90.85 211.94,93.55 C211.94,93.55 211.94,102.21 211.94,102.21 C211.94,105.85 211.69,107.68 211.52,109.05 C211.36,110.83 210.41,111.49 208.1,111.66 C208.1,111.66 208.1,113.11 208.1,113.11 C208.1,113.11 218.21,113.11 218.21,113.11 C218.21,113.11 218.21,111.66 218.21,111.66 C215.16,111.53 214.45,110.74 214.25,108.92 C214.12,107.68 213.92,105.85 213.92,102.21 C213.92,102.21 213.92,92.88 213.92,92.88 C213.92,92.88 214.04,92.88 214.04,92.88 C214.04,92.88 231.22,113.52 231.22,113.52 C231.22,113.52 233.2,113.52 233.2,113.52 C233.2,113.52 233.2,97.07 233.2,97.07 C233.2,93.42 233.45,91.48 233.57,90.19 C233.78,88.28 234.65,87.74 236.87,87.62 C236.87,87.62 236.87,86.17 236.87,86.17z "/><path id="_R_G_L_0_G_L_5_G_D_9_P_0" fill="#d4b965" fill-opacity="1" fill-rule="nonzero" d=" M45.96 1.7 C45.96,1.08 46.46,0.57 47.08,0.57 C47.08,0.57 132.87,0.57 132.87,0.57 C133.48,0.57 133.99,1.08 133.99,1.7 C133.99,1.7 133.99,77.87 133.99,77.87 C133.99,78.49 133.48,79 132.87,79 C132.87,79 47.08,79 47.08,79 C46.46,79 45.96,78.49 45.96,77.87 C45.96,77.87 45.96,1.7 45.96,1.7z "/><path id="_R_G_L_0_G_L_5_G_D_10_P_0" fill="#bc2126" fill-opacity="1" fill-rule="nonzero" d=" M50.3 6.06 C50.3,5.44 50.81,4.93 51.43,4.93 C51.43,4.93 128.52,4.93 128.52,4.93 C129.14,4.93 129.64,5.44 129.64,6.06 C129.64,6.06 129.64,73.52 129.64,73.52 C129.64,74.14 129.14,74.64 128.52,74.64 C128.52,74.64 51.43,74.64 51.43,74.64 C50.81,74.64 50.3,74.14 50.3,73.52 C50.3,73.52 50.3,6.06 50.3,6.06z "/><path id="_R_G_L_0_G_L_5_G_D_11_P_0" fill="#ffffff" fill-opacity="1" fill-rule="nonzero" d=" M79.97 39.48 C79.97,39.48 79.97,64.18 79.97,64.18 C79.97,64.72 79.83,65.06 79.35,65.06 C78.87,65.06 78.67,64.72 78.67,64.18 C78.67,64.18 78.67,60.92 78.67,60.92 C78.67,60.92 77.44,60.92 77.44,60.92 C76.57,60.92 73.73,63.1 71.93,64.49 C71.93,64.49 71.93,64.49 71.93,64.49 C71.36,64.93 70.88,65.29 70.62,65.47 C68.64,64.32 66.18,63.17 64.33,62.55 C64,62.86 63.7,63.14 63.43,63.39 C63.43,63.39 63.43,63.39 63.43,63.39 C63.43,63.39 63.43,63.39 63.43,63.39 C63.43,63.39 63.43,63.39 63.43,63.39 C62.85,63.92 62.4,64.34 62.09,64.66 C61.97,64.78 61.87,64.88 61.78,64.97 C61.51,65.26 61.36,65.41 61.21,65.41 C60.87,65.41 60.45,65.01 60.45,64.66 C60.45,64.32 61.21,63.51 64.69,59.95 C67.07,57.51 68.03,54.59 68.03,50.1 C68.03,42.68 64.83,36.34 61.14,36.34 C59.92,36.34 59.3,36.82 59.1,38.05 C59.04,38.67 58.76,38.87 58.48,38.87 C57.94,38.87 57.66,37.98 57.66,36.48 C57.66,33.08 60.05,30.36 62.99,30.36 C64.35,30.36 65.28,30.96 66.08,31.48 C66.76,31.92 67.34,32.3 68.03,32.21 C68.03,32.21 68.03,27.24 68.03,27.24 C68.03,25.95 67.55,24.86 66.59,24.04 C65.77,23.36 61.55,20.5 59.97,20.5 C59.67,20.5 59.45,20.57 59.25,20.62 C59.1,20.66 58.96,20.7 58.81,20.7 C58.61,20.7 58.53,20.64 58.53,20.5 C58.53,20.33 58.64,20.2 58.94,19.84 C58.94,19.84 58.94,19.84 58.94,19.84 C58.98,19.79 59.02,19.74 59.07,19.69 C59.07,19.69 64.46,14.38 64.46,14.38 C64.51,14.35 64.55,14.31 64.59,14.28 C64.78,14.14 64.91,14.04 65.14,14.04 C66.23,14.04 69.25,16.09 71.71,17.76 C73.42,18.92 74.87,19.9 75.23,19.9 C75.88,19.9 77.82,18.7 79.92,17.4 C82.39,15.86 85.09,14.18 86.16,14.18 C86.67,14.18 87.19,14.6 90.69,17.42 C90.69,17.42 90.71,17.43 90.71,17.43 C90.93,17.61 91.16,17.8 91.41,18 C91.58,18.13 91.79,18.31 92.03,18.51 C92.03,18.51 92.03,18.51 92.03,18.51 C92.76,19.12 93.76,19.95 94.69,20.52 C95.79,21.2 95.85,21.33 95.85,22.63 C96.53,22.49 97.29,21.95 101.58,18.47 C102.8,17.46 106.42,14.52 106.7,14.52 C107.04,14.52 110.04,15.75 114.49,17.58 C115.79,18.12 115.99,18.26 115.99,19.07 C115.99,19.07 115.99,54.26 115.99,54.26 C115.99,55.42 116.13,55.83 116.61,56.23 C118.65,58 119.89,58.68 120.57,58.68 C120.77,58.68 121.05,58.6 121.25,58.4 C121.59,57.92 121.67,57.86 121.87,57.86 C122.07,57.86 122.29,58.14 122.29,58.4 C122.29,58.82 119.22,62.61 116.08,65.08 C114.18,64.4 110.9,62.15 109.05,60.25 C108.43,59.57 108.31,59.43 108.31,58.28 C108.31,58.28 108.31,33.08 108.31,33.08 C108.31,30.16 109.25,28.18 112.68,23.63 C114.46,21.32 114.58,20.63 114.24,20.63 C114.07,20.63 112.53,21.69 111.13,22.65 C110.19,23.3 109.31,23.91 108.98,24.1 C108.83,24.02 108.68,23.93 108.54,23.85 C105.2,21.94 104.11,21.32 102.21,21.32 C101.13,21.32 100.37,21.86 100.37,22.55 C100.37,22.55 100.37,64.4 100.37,64.4 C100.37,64.94 100.09,65.35 99.69,65.35 C99.35,65.35 99.15,65.01 99.15,64.48 C99.15,64.48 99.15,61.34 99.15,61.34 C97.22,61.65 95.54,63.21 94.41,64.25 C93.82,64.81 93.38,65.21 93.14,65.21 C92.4,65.21 87.95,59.91 87.95,59.49 C87.95,59.49 87.95,39.48 87.95,39.48 C87.95,39.48 79.97,39.48 79.97,39.48z  M78.73 22.13 C78.73,20.76 78.59,20.3 78.33,20.3 C77.72,20.3 75.52,21.67 75.52,22.13 C75.52,22.13 75.52,40.97 75.52,40.97 C75.52,50.12 74.48,51.21 72.12,53.69 C72.07,53.73 72.03,53.78 71.98,53.83 C70.88,54.99 70.62,55.26 69.8,56.22 C71.24,58.19 76,59.08 78.74,58.94 C78.74,58.94 78.74,22.13 78.74,22.13 C78.74,22.13 78.73,22.13 78.73,22.13z  M87.95 33.02 C87.95,33.02 87.95,25.53 87.95,25.53 C87.95,24.1 82.83,20.23 81.13,20.23 C80.37,20.23 79.97,20.7 79.97,21.6 C79.97,21.6 79.97,33.02 79.97,33.02 C79.97,33.02 87.95,33.02 87.95,33.02z  M99.15 23.35 C99.15,23.21 99.08,23.15 98.87,23.15 C98.67,23.15 98.33,23.29 98.11,23.43 C98.11,23.43 96.55,24.38 96.55,24.38 C95.66,24.92 95.38,25.19 95.38,25.61 C95.38,25.61 95.38,32.41 95.38,32.41 C95.38,32.88 96,33.22 96.48,33.22 C96.48,33.22 99.15,33.22 99.15,33.22 C99.15,33.22 99.15,23.35 99.15,23.35z  M96.55 39.34 C95.8,39.34 95.45,39.9 95.45,40.91 C95.45,40.91 95.45,54.86 95.45,54.86 C95.45,57.59 96.61,58.88 99.13,59.08 C99.13,59.08 99.13,39.34 99.13,39.34 C99.13,39.34 96.55,39.34 96.55,39.34z "/></g><g id="_R_G_L_0_G_L_4_G" transform=" translate(555.124, 239.368) scale(2.74725, 2.74725) translate(-183.865, -74.861)"><path id="_R_G_L_0_G_L_4_G_D_0_P_0" fill="#ffffff" fill-opacity="1" fill-rule="nonzero" d=" M322.98 149.15 C322.98,149.15 319.98,149.15 319.98,149.15 C319.98,149.15 319.98,0.71 319.98,0.71 C319.98,0.71 322.98,0.71 322.98,0.71 C322.98,0.71 322.98,149.15 322.98,149.15z "/></g><g id="_R_G_L_0_G_L_3_G_M"><g id="_R_G_L_0_G_L_3_G" transform=" translate(1560.855, 240) scale(2.74725, 2.74725) translate(-544.127, -75)"><path id="_R_G_L_0_G_L_3_G_D_0_P_0" fill="#ffffff" fill-opacity="1" fill-rule="nonzero" d=" M417.78 56.32 C407.06,56.32 398.34,65.04 398.34,75.76 C398.34,86.48 407.06,95.2 417.78,95.2 C428.5,95.2 437.22,86.48 437.22,75.76 C437.22,65.04 428.5,56.32 417.78,56.32z "/><path id="_R_G_L_0_G_L_3_G_D_1_P_0" fill="#ffffff" fill-opacity="1" fill-rule="nonzero" d=" M525.92 98.36 C525.92,98.36 495.87,98.36 495.87,98.36 C495.87,98.36 495.87,46.02 495.87,46.02 C495.87,46.02 509.47,46.02 509.47,46.02 C509.47,46.02 509.47,86.47 509.47,86.47 C509.47,86.47 525.92,86.47 525.92,86.47 C525.92,86.47 525.92,98.36 525.92,98.36z "/><path id="_R_G_L_0_G_L_3_G_D_2_P_0" fill="#ffffff" fill-opacity="1" fill-rule="nonzero" d=" M550.93 67.34 C544.88,67.34 541.01,71.85 541.01,77.38 C541.01,83.19 544.68,87.98 550.53,87.98 C556.17,87.98 560.86,83.81 560.86,77.73 C560.86,71.58 556.51,67.34 550.93,67.34z  M528.16 77.59 C528.16,65.91 536.79,55.59 548.42,55.59 C553.51,55.59 556.71,57.3 560.45,60.71 C560.45,60.71 560.45,56.41 560.45,56.41 C560.45,56.41 572.96,56.41 572.96,56.41 C572.96,56.41 572.96,98.36 572.96,98.36 C572.96,98.36 560.25,98.36 560.25,98.36 C560.25,98.36 560.25,94.26 560.25,94.26 C560.25,94.26 555.69,99.39 547.74,99.39 C536.11,99.39 528.16,91.05 528.16,77.59z "/><path id="_R_G_L_0_G_L_3_G_D_3_P_0" fill="#ffffff" fill-opacity="1" fill-rule="nonzero" d=" M610.49 98.36 C610.49,98.36 580.44,98.36 580.44,98.36 C580.44,98.36 580.44,46.02 580.44,46.02 C580.44,46.02 594.04,46.02 594.04,46.02 C594.04,46.02 594.04,86.47 594.04,86.47 C594.04,86.47 610.49,86.47 610.49,86.47 C610.49,86.47 610.49,98.36 610.49,98.36z "/><path id="_R_G_L_0_G_L_3_G_D_4_P_0" fill="#ffffff" fill-opacity="1" fill-rule="nonzero" d=" M628.77 98.36 C628.77,98.36 616.13,98.36 616.13,98.36 C616.13,98.36 616.13,56.41 616.13,56.41 C616.13,56.41 628.77,56.41 628.77,56.41 C628.77,56.41 628.77,98.36 628.77,98.36z  M614.91 45.75 C614.91,41.51 618.3,38.03 622.52,38.03 C626.74,38.03 630.2,41.38 630.2,45.61 C630.2,49.92 626.74,53.4 622.38,53.4 C618.23,53.4 614.91,50.05 614.91,45.75z "/><path id="_R_G_L_0_G_L_3_G_D_5_P_0" fill="#ffffff" fill-opacity="1" fill-rule="nonzero" d=" M655.35 66.45 C649.44,66.45 646.52,71.3 646.52,76.5 C646.52,81.89 649.71,86.34 655.29,86.34 C661.61,86.34 665,81.28 665,76.57 C665,70.96 661.88,66.45 655.35,66.45z  M634.21 76.57 C634.21,65.22 641.42,55.59 652.43,55.59 C657.74,55.59 661.34,57.3 664.93,61.12 C664.93,61.12 664.93,56.41 664.93,56.41 C664.93,56.41 677.04,56.41 677.04,56.41 C677.04,56.41 677.04,93.38 677.04,93.38 C677.04,106.36 667.32,113.12 655.62,113.12 C645.36,113.12 636.38,107.93 635.03,98.5 C635.03,98.5 649.24,98.5 649.24,98.5 C651,101.37 652.76,101.91 655.9,101.91 C660.32,101.91 664.39,99.87 664.39,95.29 C664.39,94.19 664.46,93.24 664.33,92.15 C661.88,94.33 657.32,97 652.36,97 C641.56,97 634.21,87.98 634.21,76.57z "/><path id="_R_G_L_0_G_L_3_G_D_6_P_0" fill="#ffffff" fill-opacity="1" fill-rule="nonzero" d=" M705.26 67.34 C699.2,67.34 695.33,71.85 695.33,77.38 C695.33,83.19 699,87.98 704.84,87.98 C710.49,87.98 715.18,83.81 715.18,77.73 C715.18,71.58 710.83,67.34 705.26,67.34z  M682.47 77.59 C682.47,65.91 691.11,55.59 702.73,55.59 C707.84,55.59 711.03,57.3 714.77,60.71 C714.77,60.71 714.77,56.41 714.77,56.41 C714.77,56.41 727.28,56.41 727.28,56.41 C727.28,56.41 727.28,98.36 727.28,98.36 C727.28,98.36 714.57,98.36 714.57,98.36 C714.57,98.36 714.57,94.26 714.57,94.26 C714.57,94.26 710.01,99.39 702.06,99.39 C690.44,99.39 682.47,91.05 682.47,77.59z "/><path id="_R_G_L_0_G_L_3_G_D_7_P_0" fill="#922194" fill-opacity="1" fill-rule="nonzero" d=" M377.24 41.91 C377.13,42.12 377.14,42.38 377.28,42.58 C377.34,42.68 377.42,42.75 377.52,42.8 C377.52,42.8 397.84,54.61 397.84,54.61 C397.84,54.61 397.89,54.64 397.89,54.64 C398.1,54.75 398.37,54.74 398.58,54.59 C398.64,54.55 398.7,54.49 398.74,54.42 C398.76,54.39 398.78,54.36 398.8,54.33 C400.67,51.01 403.28,48.04 406.6,45.69 C409.93,43.33 413.61,41.85 417.38,41.19 C417.41,41.19 417.44,41.19 417.46,41.18 C417.54,41.16 417.62,41.13 417.69,41.08 C417.9,40.93 418,40.67 417.96,40.43 C417.96,40.43 417.95,40.39 417.95,40.39 C417.95,40.39 413.65,17.29 413.65,17.29 C413.65,17.29 413.65,17.25 413.65,17.25 C413.63,17.15 413.59,17.06 413.53,16.98 C413.38,16.79 413.15,16.7 412.92,16.72 C412.9,16.73 412.89,16.73 412.87,16.73 C405.69,18.03 398.59,20.9 392.24,25.39 C385.88,29.89 380.86,35.56 377.24,41.9 "/><path id="_R_G_L_0_G_L_3_G_D_8_P_0" fill="#4350a8" fill-opacity="1" fill-rule="nonzero" d=" M365.64 86.54 C365.73,86.76 365.94,86.91 366.19,86.94 C366.3,86.95 366.41,86.92 366.51,86.88 C366.51,86.88 388.44,78.43 388.44,78.43 C388.44,78.43 388.49,78.41 388.49,78.41 C388.71,78.32 388.87,78.1 388.89,77.84 C388.89,77.76 388.88,77.68 388.86,77.61 C388.85,77.57 388.83,77.54 388.81,77.51 C387.4,73.97 386.72,70.07 386.96,66.01 C387.21,61.94 388.37,58.14 390.21,54.79 C390.23,54.77 390.24,54.75 390.25,54.72 C390.29,54.65 390.31,54.57 390.31,54.48 C390.33,54.22 390.19,53.99 389.98,53.87 C389.98,53.87 389.94,53.84 389.94,53.84 C389.94,53.84 369.23,42.73 369.23,42.73 C369.23,42.73 369.2,42.71 369.2,42.71 C369.11,42.67 369.02,42.64 368.92,42.64 C368.67,42.63 368.46,42.76 368.34,42.95 C368.33,42.97 368.32,42.98 368.31,43 C368.31,43 368.31,43 368.31,43 C364.83,49.41 362.62,56.75 362.15,64.51 C361.68,72.28 362.95,79.75 365.64,86.54 "/><path id="_R_G_L_0_G_L_3_G_D_9_P_0" fill="#5b9bc9" fill-opacity="1" fill-rule="nonzero" d=" M393.51 123.22 C393.73,123.28 393.99,123.22 394.16,123.04 C394.23,122.95 394.29,122.85 394.32,122.75 C394.32,122.75 401.31,100.31 401.31,100.31 C401.31,100.31 401.32,100.26 401.32,100.26 C401.39,100.03 401.32,99.77 401.13,99.6 C401.06,99.54 401,99.5 400.92,99.47 C400.89,99.46 400.85,99.45 400.82,99.44 C397.17,98.36 393.69,96.47 390.66,93.76 C387.62,91.04 385.36,87.78 383.88,84.25 C383.87,84.22 383.86,84.2 383.85,84.17 C383.81,84.1 383.76,84.03 383.7,83.97 C383.5,83.79 383.24,83.76 383.01,83.85 C383.01,83.85 382.97,83.87 382.97,83.87 C382.97,83.87 361.4,93.2 361.4,93.2 C361.4,93.2 361.36,93.22 361.36,93.22 C361.28,93.26 361.2,93.31 361.14,93.39 C360.98,93.58 360.94,93.82 361.01,94.04 C361.02,94.06 361.03,94.07 361.04,94.09 C361.04,94.09 361.04,94.09 361.04,94.09 C363.9,100.8 368.28,107.09 374.07,112.28 C379.87,117.47 386.52,121.11 393.5,123.22 "/><path id="_R_G_L_0_G_L_3_G_D_10_P_0" fill="#19ae56" fill-opacity="1" fill-rule="nonzero" d=" M439.33 124.32 C439.52,124.18 439.63,123.94 439.59,123.69 C439.58,123.58 439.53,123.48 439.47,123.39 C439.47,123.39 426.37,103.88 426.37,103.88 C426.37,103.88 426.34,103.84 426.34,103.84 C426.2,103.64 425.96,103.53 425.7,103.57 C425.62,103.58 425.55,103.61 425.48,103.65 C425.45,103.67 425.42,103.69 425.39,103.71 C422.25,105.88 418.6,107.4 414.59,108.06 C410.57,108.73 406.61,108.44 402.93,107.38 C402.9,107.37 402.88,107.37 402.85,107.36 C402.77,107.35 402.68,107.34 402.6,107.35 C402.34,107.4 402.15,107.58 402.08,107.81 C402.08,107.81 402.06,107.86 402.06,107.86 C402.06,107.86 395.81,130.51 395.81,130.51 C395.81,130.51 395.81,130.55 395.81,130.55 C395.78,130.64 395.78,130.74 395.8,130.84 C395.84,131.08 396.01,131.26 396.23,131.34 C396.24,131.35 396.26,131.35 396.28,131.35 C396.28,131.35 396.28,131.35 396.28,131.35 C403.3,133.33 410.94,133.86 418.62,132.6 C426.3,131.34 433.3,128.44 439.33,124.32 "/><path id="_R_G_L_0_G_L_3_G_D_11_P_0" fill="#f0e832" fill-opacity="1" fill-rule="nonzero" d=" M469.17 89.31 C469.18,89.08 469.06,88.85 468.85,88.72 C468.74,88.67 468.64,88.64 468.53,88.63 C468.53,88.63 445.1,86.81 445.1,86.81 C445.1,86.81 445.05,86.8 445.05,86.8 C444.8,86.79 444.57,86.92 444.44,87.14 C444.4,87.21 444.38,87.29 444.37,87.37 C444.36,87.4 444.36,87.44 444.36,87.48 C444.11,91.28 443.05,95.09 441.08,98.65 C439.1,102.21 436.42,105.14 433.31,107.37 C433.29,107.38 433.26,107.4 433.25,107.42 C433.18,107.47 433.12,107.53 433.08,107.61 C432.95,107.84 432.98,108.11 433.12,108.3 C433.12,108.3 433.14,108.34 433.14,108.34 C433.14,108.34 447.04,127.3 447.04,127.3 C447.04,127.3 447.06,127.33 447.06,127.33 C447.12,127.41 447.19,127.47 447.28,127.51 C447.5,127.63 447.75,127.61 447.94,127.49 C447.96,127.48 447.97,127.47 447.99,127.45 C447.99,127.45 447.99,127.45 447.99,127.45 C453.89,123.17 459.05,117.5 462.82,110.7 C466.6,103.89 468.66,96.6 469.17,89.32 "/><path id="_R_G_L_0_G_L_3_G_D_12_P_0" fill="#fe8a22" fill-opacity="1" fill-rule="nonzero" d=" M460.31 44.1 C460.13,43.95 459.88,43.89 459.65,43.98 C459.54,44.02 459.45,44.09 459.38,44.17 C459.38,44.17 443.21,61.22 443.21,61.22 C443.21,61.22 443.17,61.26 443.17,61.26 C443.01,61.44 442.95,61.7 443.05,61.94 C443.09,62.02 443.13,62.09 443.18,62.14 C443.2,62.17 443.23,62.2 443.26,62.22 C446.06,64.81 448.35,68.03 449.87,71.8 C451.4,75.58 451.99,79.51 451.76,83.33 C451.76,83.35 451.76,83.38 451.76,83.41 C451.76,83.49 451.77,83.58 451.8,83.66 C451.9,83.9 452.13,84.05 452.37,84.07 C452.37,84.07 452.41,84.07 452.41,84.07 C452.41,84.07 475.89,85.2 475.89,85.2 C475.89,85.2 475.93,85.2 475.93,85.2 C476.02,85.21 476.12,85.19 476.21,85.15 C476.43,85.06 476.58,84.85 476.6,84.62 C476.61,84.6 476.61,84.58 476.61,84.57 C476.99,77.28 475.84,69.71 472.93,62.5 C470.02,55.28 465.65,49.08 460.31,44.1 "/><path id="_R_G_L_0_G_L_3_G_D_13_P_0" fill="#ff3220" fill-opacity="1" fill-rule="nonzero" d=" M419.22 23.08 C419,23.13 418.8,23.29 418.72,23.53 C418.69,23.64 418.68,23.75 418.7,23.86 C418.7,23.86 422.14,47.11 422.14,47.11 C422.14,47.11 422.15,47.16 422.15,47.16 C422.19,47.4 422.36,47.6 422.61,47.67 C422.69,47.7 422.77,47.7 422.85,47.7 C422.88,47.69 422.92,47.69 422.96,47.68 C426.72,47.07 430.67,47.26 434.58,48.39 C438.49,49.53 441.95,51.49 444.81,54.02 C444.83,54.04 444.85,54.06 444.87,54.07 C444.94,54.13 445.01,54.17 445.1,54.19 C445.35,54.27 445.6,54.18 445.77,54 C445.77,54 445.8,53.97 445.8,53.97 C445.8,53.97 461.18,36.2 461.18,36.2 C461.18,36.2 461.21,36.17 461.21,36.17 C461.27,36.1 461.31,36.01 461.34,35.91 C461.4,35.68 461.32,35.44 461.16,35.28 C461.15,35.26 461.13,35.25 461.12,35.24 C461.12,35.24 461.12,35.24 461.12,35.24 C455.63,30.44 448.96,26.67 441.49,24.51 C434.01,22.35 426.44,21.95 419.23,23.08 "/><path id="_R_G_L_0_G_L_3_G_D_14_P_0" fill="#050304" fill-opacity="1" fill-rule="nonzero" d=" M431.91 86.72 C432.2,85.93 432.29,85.01 432.39,84.29 C432.01,84.66 431.58,85.02 431.13,85.35 C429.79,86.32 428.35,86.95 426.96,87.25 C426.96,87.25 423.2,83.15 423.2,83.15 C423.2,83.15 423.15,83.18 423.15,83.18 C423.15,83.18 425.87,88.01 425.87,88.01 C425.16,89.26 424.11,90.45 422.75,91.44 C422.29,91.76 421.83,92.06 421.35,92.31 C422.06,92.44 422.96,92.63 423.8,92.6 C421.92,93.27 419.9,93.64 417.78,93.64 C415.67,93.64 413.64,93.27 411.76,92.6 C412.6,92.63 413.51,92.44 414.21,92.31 C413.74,92.06 413.27,91.76 412.82,91.44 C411.46,90.45 410.41,89.26 409.7,88.01 C409.7,88.01 412.42,83.18 412.42,83.18 C412.42,83.18 412.37,83.14 412.37,83.14 C412.37,83.14 408.61,87.25 408.61,87.25 C407.22,86.95 405.78,86.32 404.44,85.35 C403.98,85.02 403.56,84.66 403.18,84.29 C403.28,85.01 403.37,85.93 403.67,86.73 C401.31,83.7 399.9,79.9 399.9,75.76 C399.9,75.56 399.91,75.37 399.92,75.17 C400.13,76.01 400.62,76.84 400.97,77.5 C401.06,76.97 401.2,76.44 401.37,75.9 C401.89,74.3 402.71,72.92 403.68,71.86 C403.68,71.86 409.06,72.95 409.06,72.95 C409.06,72.95 409.08,72.89 409.08,72.89 C409.08,72.89 404.05,70.59 404.05,70.59 C403.91,69.18 404.06,67.62 404.57,66.05 C404.74,65.52 404.95,65.01 405.19,64.53 C404.5,64.86 403.58,65.25 402.91,65.83 C405.25,62.33 408.8,59.7 412.96,58.54 C412.18,59 411.5,59.76 410.96,60.33 C411.5,60.26 412.04,60.22 412.61,60.22 C414.28,60.22 415.83,60.56 417.13,61.15 C417.13,61.15 417.76,66.59 417.76,66.59 C417.76,66.59 417.82,66.59 417.82,66.59 C417.82,66.59 418.45,61.15 418.45,61.15 C419.75,60.56 421.3,60.22 422.96,60.22 C423.52,60.22 424.08,60.26 424.61,60.33 C424.07,59.77 423.4,59 422.62,58.55 C426.77,59.71 430.31,62.33 432.65,65.83 C431.98,65.25 431.07,64.86 430.38,64.53 C430.62,65.01 430.82,65.52 431,66.05 C431.51,67.62 431.66,69.19 431.51,70.6 C431.51,70.6 426.5,72.89 426.5,72.89 C426.5,72.89 426.52,72.95 426.52,72.95 C426.52,72.95 431.89,71.86 431.89,71.86 C432.86,72.92 433.68,74.3 434.2,75.9 C434.37,76.44 434.5,76.97 434.6,77.5 C434.95,76.85 435.43,76.03 435.65,75.19 C435.66,75.38 435.66,75.57 435.66,75.76 C435.66,79.89 434.26,83.69 431.91,86.72z  M417.78 56.31 C407.06,56.31 398.34,65.04 398.34,75.76 C398.34,86.48 407.06,95.2 417.78,95.2 C428.5,95.2 437.22,86.48 437.22,75.76 C437.22,65.04 428.5,56.31 417.78,56.31z "/><path id="_R_G_L_0_G_L_3_G_D_15_P_0" fill="#050304" fill-opacity="1" fill-rule="nonzero" d=" M409.93 73.2 C409.93,73.2 412.93,82.44 412.93,82.44 C412.93,82.44 422.65,82.44 422.65,82.44 C422.65,82.44 425.65,73.2 425.65,73.2 C425.65,73.2 417.79,67.49 417.79,67.49 C417.79,67.49 409.93,73.2 409.93,73.2z "/></g></g><g id="_R_G_L_0_G_L_2_G_M"><g id="_R_G_L_0_G_L_2_G" transform=" translate(1189.208, 240) scale(0.73, 0.73) translate(-181, -283)"><path id="_R_G_L_0_G_L_2_G_D_0_P_0" fill="#191513" fill-opacity="1" fill-rule="nonzero" d=" M308.82 83.46 C276.31,32.18 231.19,0.35 180.65,0 C79.56,0.52 0,127.58 0,283.08 C0,360.74 19.93,431.43 52.46,482.69 C84.99,533.96 130.1,565.81 180.65,566 C231.19,565.81 276.31,533.96 308.82,482.69 C341.36,431.43 361.29,360.74 361.29,283.08 C361.29,205.4 341.36,134.72 308.82,83.46z "/><path id="_R_G_L_0_G_L_2_G_D_1_P_0" fill="#f62711" fill-opacity="1" fill-rule="nonzero" d=" M341.63 174.85 C332.7,141.46 319.76,111.48 303.84,86.46 C287.76,61.4 268.87,41.14 248.06,27.17 C227.25,13.39 204.61,5.72 180.65,5.72 C156.69,5.72 134.04,13.39 113.23,27.17 C92.42,41.14 73.54,61.4 57.45,86.46 C41.53,111.48 28.59,141.46 19.67,174.85 C10.75,208.06 5.85,244.68 5.85,283.17 C5.85,359.82 25.63,429.48 57.45,479.55 C73.54,504.6 92.42,524.85 113.23,538.82 C134.04,552.63 156.69,560.28 180.65,560.28 C204.61,560.28 227.25,552.63 248.06,538.82 C268.87,524.85 287.76,504.6 303.84,479.55 C335.67,429.48 355.44,359.82 355.44,283.17 C355.44,244.68 350.54,208.06 341.63,174.85z "/><path id="_R_G_L_0_G_L_2_G_D_2_P_0" fill="#191513" fill-opacity="1" fill-rule="nonzero" d=" M180.65 544.45 C91.28,543.92 21.42,426.42 21.42,283.17 C21.42,139.76 91.28,22.23 180.65,21.73 C270.01,22.23 339.87,139.76 339.87,283.17 C339.87,426.42 270.01,543.92 180.65,544.45z "/><path id="_R_G_L_0_G_L_2_G_D_3_P_0" fill="#ffffff" fill-opacity="1" fill-rule="nonzero" d=" M180.65 129.37 C240.63,129.37 292.64,161.91 319.41,209.76 C312.23,170.78 299.82,135.84 283.2,107.57 C256.8,62.77 220.52,35.55 180.65,35.37 C140.77,35.55 104.49,62.77 78.1,107.57 C61.47,135.84 49.06,170.78 41.89,209.76 C68.65,161.91 120.66,129.37 180.65,129.37z "/><path id="_R_G_L_0_G_L_2_G_D_4_P_0" fill="#ffffff" fill-opacity="1" fill-rule="nonzero" d=" M180.65 436.8 C120.66,436.8 68.82,404.28 42.07,356.42 C49.06,395.41 61.47,430.32 78.1,458.45 C91.38,480.74 106.94,498.98 124.43,511.4 C141.74,524 160.72,530.82 180.65,530.82 C200.58,530.82 219.55,524 236.86,511.4 C254.35,498.98 269.91,480.74 283.2,458.45 C299.82,430.32 312.23,395.41 319.23,356.42 C292.47,404.28 240.63,436.8 180.65,436.8z "/><path id="_R_G_L_0_G_L_2_G_D_5_P_0" fill="#191513" fill-opacity="1" fill-rule="nonzero" d=" M233.04 438.11 C223.27,441.38 217.8,448.82 221.64,459.69 C224.23,467.09 232.01,471.62 241.58,468.45 C244.92,467.29 248.56,465.28 249.73,461.51 C249.73,461.51 249.92,461.61 249.92,461.61 C253.13,470.94 249.92,474.76 246.06,476.69 C242.24,478.49 238.73,477.57 236.45,474.89 C236.45,474.89 236.42,474.85 236.42,474.85 C236.42,474.85 229.99,479.18 229.99,479.18 C233.72,484.62 240.7,486.28 248.41,483.69 C257.43,480.68 264.59,472.08 258.57,455.01 C256.4,448.76 250.32,432.34 233.04,438.11z  M241.23 460.8 C237.5,462.02 232.49,462.04 230.16,455.43 C227.95,449.12 232.95,446.13 235.46,445.36 C240.55,443.68 244.06,445.93 245.86,450.92 C247.7,456.2 244.65,459.63 241.23,460.8z "/><path id="_R_G_L_0_G_L_2_G_D_6_P_0" fill="#191513" fill-opacity="1" fill-rule="nonzero" d=" M183.44 117.94 C193.65,117.94 202.87,113.68 209.24,106.87 C209.24,106.87 201.68,100.13 201.68,100.13 C197.16,104.93 190.67,107.96 183.44,107.96 C169.74,107.96 158.63,97.16 158.63,83.82 C158.63,70.39 169.74,59.57 183.44,59.57 C190.67,59.57 197.16,62.62 201.68,67.41 C201.68,67.41 209.22,60.64 209.22,60.64 C202.81,53.86 193.65,49.59 183.44,49.59 C164.09,49.59 148.4,64.9 148.4,83.82 C148.4,102.64 164.09,117.94 183.44,117.94z "/><path id="_R_G_L_0_G_L_2_G_D_7_P_0" fill="#191513" fill-opacity="1" fill-rule="nonzero" d=" M231.66 90.3 C231.66,90.3 239.14,128.42 239.14,128.42 C240.92,129.16 242.66,129.85 244.43,130.66 C244.43,130.66 255.04,105.27 255.04,105.27 C255.04,105.27 266.15,142.01 266.15,142.01 C270.49,144.74 274.76,147.75 278.82,150.91 C278.82,150.91 259.54,87.44 259.54,87.44 C259.54,87.44 253.53,82.81 253.53,82.81 C253.53,82.81 244.83,103.74 244.83,103.74 C244.83,103.74 237.6,70.24 237.6,70.24 C237.6,70.24 229.24,64.81 229.24,64.81 C229.24,64.81 211.78,120.59 211.78,120.59 C215.05,121.22 218.29,121.93 221.51,122.76 C221.51,122.76 231.66,90.3 231.66,90.3z "/><path id="_R_G_L_0_G_L_2_G_D_8_P_0" fill="#191513" fill-opacity="1" fill-rule="nonzero" d=" M105.66 122.02 C105.66,122.02 136.1,110.23 136.1,110.23 C136.1,110.23 139.97,122.75 139.97,122.75 C143.12,121.92 146.36,121.22 149.6,120.59 C149.6,120.59 132.38,64.81 132.38,64.81 C132.38,64.81 119.78,72.7 119.78,72.7 C119.78,72.7 80.08,152.85 80.08,152.85 C85.07,148.83 90.38,145.09 95.85,141.64 C95.85,141.64 105.66,122.02 105.66,122.02z  M126.65 79.79 C126.65,79.79 133.2,100.91 133.2,100.91 C133.2,100.91 112.09,109.08 112.09,109.08 C112.09,109.08 126.65,79.79 126.65,79.79z "/><path id="_R_G_L_0_G_L_2_G_D_9_P_0" fill="#191513" fill-opacity="1" fill-rule="nonzero" d=" M193.71 445.64 C183.44,446.51 176.28,452.39 177.25,463.85 C177.94,471.55 184.34,477.88 194.42,477.02 C197.97,476.76 201.95,475.66 204.06,472.35 C204.06,472.35 204.21,472.45 204.21,472.45 C204.96,482.27 200.85,485.23 196.66,486.07 C192.51,486.99 189.35,485.29 187.82,482.13 C187.82,482.13 187.82,482.06 187.82,482.06 C187.82,482.06 180.5,484.77 180.5,484.77 C182.71,490.8 189.12,494.08 197.21,493.45 C206.67,492.68 215.78,486.07 214.25,468.09 C213.74,461.49 211.94,444.19 193.71,445.64z  M196.02 469.51 C192.07,469.86 187.19,468.74 186.58,461.74 C186.05,455.02 191.63,453.39 194.31,453.22 C199.6,452.78 202.5,455.76 202.96,461.08 C203.44,466.65 199.6,469.27 196.02,469.51z "/><path id="_R_G_L_0_G_L_2_G_D_10_P_0" fill="#191513" fill-opacity="1" fill-rule="nonzero" d=" M154.41 443.96 C145.33,442.36 137.38,445.93 135.99,453.88 C135.2,458.15 136.85,461.45 140.63,464.02 C132.15,465.87 131.06,472.04 130.64,474.36 C129.48,480.72 132.71,489.29 146.09,491.66 C159.83,493.99 165.69,485.56 166.78,479.71 C167.83,473.71 165.59,470.31 161,467.19 C165.53,466.03 167.96,462.88 168.68,458.89 C169.81,452.47 165.13,445.82 154.41,443.96z  M156.63 478.38 C156.05,481.59 152.81,485.29 147.48,484.32 C142.81,483.53 139.69,479.98 140.51,475.45 C141.4,470.47 146.13,469.05 149.87,469.76 C155.57,470.65 157.25,475.1 156.63,478.38z  M159.09 458.24 C158.48,461.53 155.36,463.54 151.32,462.85 C146.91,462.04 144.8,458.6 145.27,455.91 C145.89,452.45 149.14,450.58 153.75,451.35 C157.02,451.94 159.72,454.69 159.09,458.24z "/><path id="_R_G_L_0_G_L_2_G_D_11_P_0" fill="#191513" fill-opacity="1" fill-rule="nonzero" d=" M105.02 439.42 C105.02,439.42 103.63,438.95 103.63,438.95 C103.63,438.95 101.64,444.48 101.64,444.48 C101.64,444.48 101.71,444.5 101.71,444.5 C101.71,444.5 100.73,447.18 100.73,447.18 C100.73,447.18 102.64,447.87 102.64,447.87 C107.68,449.63 111.12,449.63 113.42,448.7 C113.42,448.7 103.04,478.38 103.04,478.38 C103.04,478.38 112.94,481.65 112.94,481.65 C112.94,481.65 128.22,438.05 128.22,438.05 C128.22,438.05 119.23,435 119.23,435 C118.53,437.02 112.52,441.87 105.02,439.42z "/><path id="_R_G_L_0_G_L_2_G_D_12_P_0" fill="#ffffff" fill-opacity="1" fill-rule="nonzero" d=" M279.19 304.98 C279.19,304.98 279.19,390.31 279.19,390.31 C304.02,368.67 321.34,338.7 326.59,304.98 C326.59,304.98 279.19,304.98 279.19,304.98z "/><path id="_R_G_L_0_G_L_2_G_D_13_P_0" fill="#ffffff" fill-opacity="1" fill-rule="nonzero" d=" M188.79 426.59 C201.03,425.9 212.91,423.69 224.1,420.45 C224.1,420.45 224.1,304.98 224.1,304.98 C224.1,304.98 188.79,304.98 188.79,304.98 C188.79,304.98 188.79,426.59 188.79,426.59z "/><path id="_R_G_L_0_G_L_2_G_D_14_P_0" fill="#ffffff" fill-opacity="1" fill-rule="nonzero" d=" M325.89 256.43 C319.78,224.65 303.07,196.61 279.19,176.02 C279.19,176.02 279.19,256.43 279.19,256.43 C279.19,256.43 325.89,256.43 325.89,256.43z "/><path id="_R_G_L_0_G_L_2_G_D_15_P_0" fill="#ffffff" fill-opacity="1" fill-rule="nonzero" d=" M188.79 256.43 C188.79,256.43 224.1,256.43 224.1,256.43 C224.1,256.43 224.1,145.72 224.1,145.72 C212.73,142.5 201.03,140.28 188.79,139.6 C188.79,139.6 188.79,256.43 188.79,256.43z "/><path id="_R_G_L_0_G_L_2_G_D_16_P_0" fill="#ffffff" fill-opacity="1" fill-rule="nonzero" d=" M279.19 175.87 C279.19,175.87 279.02,175.87 279.02,175.87 C279.08,175.92 279.13,175.97 279.19,176.02 C279.19,176.02 279.19,175.87 279.19,175.87z "/><path id="_R_G_L_0_G_L_2_G_D_17_P_0" fill="#f62711" fill-opacity="1" fill-rule="nonzero" d=" M50.97 352.14 C50.97,352.14 50.97,214.01 50.97,214.01 C39.61,234.64 32.97,258.14 32.97,283.17 C32.97,308.04 39.61,331.54 50.97,352.14z "/><path id="_R_G_L_0_G_L_2_G_D_18_P_0" fill="#f62711" fill-opacity="1" fill-rule="nonzero" d=" M231.81 148.28 C231.81,148.28 231.81,264.09 231.81,264.09 C231.81,264.09 188.77,264.09 188.77,264.09 C188.77,264.09 188.77,297.31 188.77,297.31 C188.77,297.31 231.81,297.49 231.81,297.49 C231.81,297.49 231.81,417.9 231.81,417.9 C246.12,412.8 259.43,405.45 271.33,396.44 C271.33,396.44 271.33,297.49 271.33,297.49 C271.33,297.49 327.8,297.49 327.8,297.49 C328.33,292.7 328.5,287.95 328.5,283.17 C328.5,276.71 327.97,270.23 327.1,264.09 C327.1,264.09 271.33,264.09 271.33,264.09 C271.33,264.09 271.33,169.73 271.33,169.73 C259.43,160.71 246.12,153.39 231.81,148.28z "/><path id="_R_G_L_0_G_L_2_G_D_19_P_0" fill="#f62711" fill-opacity="1" fill-rule="nonzero" d=" M133.69 419.43 C142.61,422.33 151.71,424.37 161.32,425.73 C161.32,425.73 161.32,140.44 161.32,140.44 C151.71,141.63 142.61,143.86 133.69,146.76 C133.69,146.76 133.69,419.43 133.69,419.43z "/><path id="_R_G_L_0_G_L_2_G_D_20_P_0" fill="#f62711" fill-opacity="1" fill-rule="nonzero" d=" M78.61 386.89 C87.01,394.73 96.1,401.36 106.06,407.18 C106.06,407.18 106.06,159.01 106.06,159.01 C96.1,164.63 87.01,171.43 78.61,179.28 C78.61,179.28 78.61,386.89 78.61,386.89z "/></g></g><g id="_R_G_L_0_G_L_1_G_M"><g id="_R_G_L_0_G_L_1_G" transform=" translate(1309.001, 240) scale(4, 4) translate(-353.162, -104.453)"><path id="_R_G_L_0_G_L_1_G_D_0_P_0" fill="#ec250a" fill-opacity="1" fill-rule="nonzero" d=" M415.91 53.4 C415.91,53.4 307.07,85.98 307.07,85.98 C297.46,88.77 290.37,95.11 290.39,104.81 C290.41,113.93 296.84,120.8 305.46,123.31 C305.46,123.31 305.46,123.31 305.47,123.32 C307.03,123.77 415.94,155.5 415.94,155.5 C415.94,155.5 415.91,53.4 415.91,53.4z "/><path id="_R_G_L_0_G_L_1_G_D_1_P_0" fill="#ffffff" fill-opacity="1" fill-rule="nonzero" d=" M327.72 98.16 C327.37,99.83 326.15,100.91 323.09,100.91 C323.09,100.91 319.96,100.91 319.96,100.91 C319.96,100.91 321.15,95.41 321.15,95.41 C321.15,95.41 324.24,95.41 324.24,95.41 C327.55,95.41 328.1,96.38 327.72,98.16z  M326.5 108.39 C326.05,110.48 324.52,111.42 320.87,111.42 C320.87,111.42 317.73,111.42 317.73,111.42 C317.73,111.42 319.02,105.37 319.02,105.37 C319.02,105.37 322.16,105.37 322.16,105.37 C325.81,105.37 326.92,106.3 326.5,108.39z  M380.51 90.75 C375.7,90.75 374.51,94.18 374.51,94.18 C374.51,94.18 369.34,106.44 369.34,106.44 C369.34,106.44 369.23,106.44 369.23,106.44 C369.23,106.44 367.91,90.75 367.91,90.75 C367.91,90.75 359.78,90.75 359.78,90.75 C355.88,90.75 354.3,94.3 354.3,94.3 C354.3,94.3 348.11,106.44 348.11,106.44 C348.11,106.44 348.01,106.44 348.01,106.44 C348.01,106.44 347.98,90.75 347.98,90.75 C347.98,90.75 342.46,90.75 342.46,90.75 C338.81,90.75 338.01,92.72 337.85,93.84 C336.8,91.82 333.89,90.75 328.69,90.75 C328.69,90.75 315.61,90.75 315.61,90.75 C311.37,90.75 310.99,93.91 310.99,93.91 C310.99,93.91 306.22,115.87 306.22,115.87 C306.22,115.87 324.73,115.87 324.73,115.87 C330.16,115.87 331.89,115.32 333.85,113.92 C335.17,112.98 336.24,111.35 336.66,109.4 C337.57,105.09 334.5,103.38 331.02,103.17 C331.02,103.17 331.02,103.1 331.02,103.1 C334.2,102.37 336.9,100.98 337.91,98.15 C337.91,98.15 338.3,115.87 338.3,115.87 C338.3,115.87 347.14,115.87 347.14,115.87 C352.21,115.87 354.08,111.26 354.08,111.26 C354.08,111.26 359.49,100.6 359.49,100.6 C359.49,100.6 359.6,100.6 359.6,100.6 C359.6,100.6 360.85,115.87 360.85,115.87 C360.85,115.87 368.74,115.87 368.74,115.87 C374.45,115.87 376.4,110.91 376.4,110.91 C376.4,110.91 383.35,95.42 383.35,95.42 C383.35,95.42 379.01,115.87 379.01,115.87 C379.01,115.87 383.73,115.87 383.73,115.87 C389.82,115.87 390.63,111.01 390.63,111.01 C390.63,111.01 391.58,106.55 391.58,106.55 C391.58,106.55 398.35,106.55 398.35,106.55 C403.56,106.55 404.31,102.58 404.31,102.58 C404.31,102.58 404.59,101.26 404.59,101.26 C404.59,101.26 392.69,101.26 392.69,101.26 C392.69,101.26 393.8,96.04 393.8,96.04 C393.8,96.04 401.28,96.04 401.28,96.04 C406.39,96.04 407.12,92.26 407.12,92.26 C407.12,92.26 407.44,90.75 407.44,90.75 C407.44,90.75 380.51,90.75 380.51,90.75z "/></g></g><g id="_R_G_L_0_G_L_0_G_M"><g id="_R_G_L_0_G_L_0_G" transform=" translate(1417.407, 239.999) scale(4.07, 4.07) translate(-88.474, -50)"><path id="_R_G_L_0_G_L_0_G_D_0_P_0" fill="#fb2833" fill-opacity="1" fill-rule="nonzero" d=" M27.41 99.68 C27.75,97.46 28.09,95.23 28.42,93 C28.71,91.1 29,89.21 29.27,87.31 C29.32,86.92 29.43,86.56 29.57,86.2 C31.86,80.45 34.2,74.72 36.36,68.92 C37.68,65.39 38.52,61.73 39.12,58.02 C39.58,55.23 39.83,52.42 39.81,49.59 C39.78,45.6 39.27,41.68 37.74,37.95 C36.44,34.74 34.48,32.01 31.74,29.88 C31.4,29.62 31.24,29.32 31.16,28.92 C30.84,27.21 30.9,25.51 31.39,23.84 C31.97,21.86 33.3,20.57 35.21,19.84 C35.55,19.71 35.83,19.72 36.17,19.85 C40.62,21.57 45.15,23.04 49.9,23.72 C51.72,23.98 53.55,24.15 55.39,24.23 C55.6,24.24 55.8,24.25 56.01,24.26 C56.65,24.32 56.65,24.32 56.69,24.94 C56.96,29.75 57.23,34.56 57.5,39.37 C57.76,43.88 58.02,48.38 58.28,52.88 C58.46,55.86 58.63,58.83 58.83,61.8 C58.86,62.22 58.69,62.48 58.45,62.77 C56.01,65.59 53.58,68.42 51.14,71.25 C43.06,80.65 35.14,90.17 27.58,100 C27.29,100.03 27.37,99.84 27.41,99.68z "/><path id="_R_G_L_0_G_L_0_G_D_1_P_0" fill="#fb2833" fill-opacity="1" fill-rule="nonzero" d=" M154.39 0 C154.18,0.44 153.89,0.68 153.65,0.94 C148.3,6.82 142.4,12.12 136.2,17.08 C134.87,18.14 134.87,18.11 133.18,17.92 C130.92,17.66 128.65,17.45 126.38,17.22 C123.55,16.93 120.71,16.64 117.87,16.35 C115.66,16.12 113.44,15.9 111.22,15.67 C108.34,15.38 105.45,15.08 102.56,14.79 C100.35,14.56 98.13,14.34 95.91,14.11 C93.05,13.82 90.19,13.53 87.33,13.24 C85.06,13 82.79,12.78 80.52,12.55 C78.98,12.4 77.44,12.23 75.77,12.06 C76.55,11.26 77.25,10.54 77.96,9.84 C78.13,9.67 78.4,9.69 78.62,9.66 C81.22,9.32 83.81,9 86.41,8.67 C89.47,8.28 92.52,7.89 95.58,7.5 C98.64,7.11 101.7,6.72 104.76,6.33 C107.81,5.94 110.87,5.54 113.93,5.15 C116.55,4.81 119.17,4.49 121.79,4.15 C124.82,3.77 127.86,3.38 130.89,3 C133.51,2.66 136.13,2.32 138.75,1.98 C141.89,1.58 145.02,1.18 148.16,0.78 C150.21,0.52 152.26,0.27 154.39,0z "/><path id="_R_G_L_0_G_L_0_G_D_2_P_0" fill="#fb2833" fill-opacity="1" fill-rule="nonzero" d=" M71.91 15.37 C72.69,14.71 73.48,14.04 74.26,13.37 C74.48,13.18 74.7,13.28 74.92,13.32 C76.78,13.66 78.65,13.99 80.5,14.34 C85.47,15.25 90.44,16.16 95.4,17.07 C100.6,18.03 105.79,18.98 110.99,19.93 C116.23,20.9 121.48,21.86 126.73,22.83 C127.15,22.91 127.57,23 128,23.09 C127.88,23.4 127.65,23.49 127.47,23.62 C121.45,27.91 115.19,31.81 108.76,35.47 C108.35,35.7 108.05,35.7 107.64,35.47 C95.91,28.9 84.17,22.34 72.44,15.77 C72.26,15.67 72.05,15.61 71.91,15.37z "/><path id="_R_G_L_0_G_L_0_G_D_3_P_0" fill="#fb2833" fill-opacity="1" fill-rule="nonzero" d=" M99.9 40.18 C96.99,41.63 94.05,42.92 91.08,44.14 C90.05,44.56 89.01,44.97 87.98,45.38 C87.32,45.64 87.32,45.64 86.91,45.09 C85.29,42.87 83.67,40.66 82.05,38.44 C77.38,32.06 72.71,25.68 68.05,19.3 C67.88,19.07 67.68,18.87 67.57,18.55 C68.28,18.04 68.99,17.54 69.69,17.01 C69.99,16.79 70.16,16.99 70.36,17.15 C71.74,18.21 73.11,19.28 74.48,20.34 C82.75,26.76 91.03,33.17 99.3,39.59 C99.5,39.75 99.74,39.86 99.9,40.18z "/><path id="_R_G_L_0_G_L_0_G_D_4_P_0" fill="#ffffff" fill-opacity="1" fill-rule="nonzero" d=" M158.64 67.15 C158.52,67.5 158.57,67.78 158.57,68.06 C158.57,73.97 158.57,79.88 158.57,85.79 C158.57,85.95 158.57,86.1 158.57,86.26 C158.56,86.84 158.56,86.85 157.95,86.86 C157.02,86.86 156.09,86.86 155.15,86.86 C154.58,86.85 154.58,86.84 154.57,86.24 C154.57,85.36 154.57,84.48 154.57,83.6 C154.57,75.58 154.57,67.58 154.57,59.57 C154.57,58.66 154.44,58.73 155.39,58.73 C155.96,58.73 156.59,58.61 157.08,58.81 C157.59,59 157.84,59.63 158.19,60.07 C164.28,67.74 170.37,75.42 176.47,83.09 C176.79,83.49 176.97,83.89 176.94,84.42 C176.9,85.07 176.92,85.72 176.94,86.36 C176.95,86.73 176.81,86.9 176.44,86.86 C176.39,86.85 176.34,86.86 176.29,86.86 C175.67,86.85 174.99,86.98 174.44,86.78 C173.88,86.58 173.61,85.9 173.22,85.41 C168.56,79.55 163.91,73.68 159.25,67.82 C159.08,67.6 158.94,67.35 158.64,67.15z "/><path id="_R_G_L_0_G_L_0_G_D_5_P_0" fill="#ffffff" fill-opacity="1" fill-rule="nonzero" d=" M77.39 69.84 C77.39,66.42 77.39,62.99 77.39,59.57 C77.39,59.39 77.4,59.21 77.39,59.03 C77.38,58.78 77.46,58.64 77.74,58.64 C78.83,58.65 79.91,58.65 81,58.64 C81.25,58.64 81.4,58.72 81.39,59 C81.38,59.2 81.39,59.41 81.39,59.62 C81.39,66.02 81.39,72.42 81.38,78.82 C81.38,79.35 81.5,79.76 81.84,80.16 C82.43,80.85 83,81.56 83.53,82.3 C83.82,82.7 84.14,82.83 84.63,82.83 C89.27,82.81 93.91,82.82 98.55,82.82 C99.72,82.82 99.72,82.82 99.72,83.95 C99.72,84.65 99.72,85.34 99.72,86.04 C99.72,86.9 99.71,86.78 98.94,86.78 C94.46,86.78 89.98,86.78 85.49,86.78 C84.53,86.78 83.57,86.76 82.62,86.79 C82.19,86.8 81.91,86.69 81.64,86.34 C80.35,84.67 79.05,83.03 77.73,81.4 C77.47,81.07 77.38,80.74 77.38,80.33 C77.39,76.83 77.39,73.34 77.39,69.84z "/><path id="_R_G_L_0_G_L_0_G_D_6_P_0" fill="#fb2833" fill-opacity="1" fill-rule="nonzero" d=" M74.14 51.51 C73.56,49.9 73,48.39 72.46,46.89 C69.46,38.64 66.48,30.39 63.48,22.13 C63.45,22.04 63.43,21.93 63.38,21.84 C63.17,21.48 63.26,21.23 63.63,21.04 C64.05,20.82 64.43,20.55 64.83,20.31 C65.63,19.82 65.51,19.79 65.94,20.59 C66.92,22.42 67.9,24.24 68.87,26.07 C72.7,33.25 76.54,40.42 80.37,47.6 C80.79,48.39 80.93,48.29 79.97,48.72 C78.03,49.58 76.09,50.44 74.14,51.51z "/><path id="_R_G_L_0_G_L_0_G_D_7_P_0" fill="#fb2833" fill-opacity="1" fill-rule="nonzero" d=" M61.02 22.4 C61.45,23.91 61.87,25.35 62.27,26.79 C64.74,35.51 67.19,44.23 69.66,52.96 C69.69,53.08 69.71,53.21 69.77,53.33 C69.94,53.69 69.79,53.88 69.47,54.07 C68.01,54.96 66.58,55.91 65.18,56.88 C64.65,57.25 64.12,57.61 63.55,58 C63.32,57.46 63.34,56.93 63.27,56.43 C62.61,51.61 61.98,46.78 61.33,41.95 C60.53,35.99 59.72,30.04 58.91,24.08 C58.81,23.37 58.81,23.37 59.5,23.08 C59.97,22.87 60.44,22.65 61.02,22.4z "/><path id="_R_G_L_0_G_L_0_G_D_8_P_0" fill="#fb2833" fill-opacity="1" fill-rule="nonzero" d=" M22.31 37.14 C21.7,36.39 21.11,35.63 20.48,34.91 C20.14,34.53 20.05,34.14 20.13,33.64 C20.47,31.36 20.8,29.08 21.13,26.8 C21.29,25.72 21.46,24.65 21.59,23.57 C21.64,23.08 21.87,22.79 22.27,22.53 C26.69,19.68 31.1,16.81 35.52,13.95 C36.69,13.19 37.86,12.42 39.04,11.67 C39.18,11.57 39.31,11.41 39.55,11.47 C39.71,12.28 39.5,13.04 39.17,13.78 C38.67,14.92 37.85,15.82 36.92,16.62 C35.61,17.76 34.22,18.81 32.8,19.81 C31.09,21.02 29.35,22.19 27.62,23.39 C27.43,23.52 27.2,23.6 27.04,23.86 C27.28,23.94 27.51,24.02 27.73,24.11 C28.8,24.56 29.51,25.3 29.79,26.47 C30.28,28.47 29.74,30.09 28.11,31.35 C27.27,32.01 26.32,32.49 25.37,32.97 C24.71,33.32 24.05,33.67 23.51,34.23 C22.82,34.96 22.3,35.81 22.48,36.82 C22.51,36.99 22.6,37.16 22.31,37.14z "/><path id="_R_G_L_0_G_L_0_G_D_9_P_0" fill="#ffffff" fill-opacity="1" fill-rule="nonzero" d=" M13.28 75.58 C13.28,78.95 13.28,82.32 13.28,85.69 C13.28,85.87 13.27,86.05 13.28,86.23 C13.29,86.48 13.2,86.62 12.93,86.62 C11.84,86.61 10.75,86.61 9.66,86.62 C9.4,86.62 9.27,86.53 9.28,86.26 C9.29,86.05 9.28,85.84 9.28,85.63 C9.28,79.38 9.27,73.14 9.29,66.89 C9.29,66.39 9.17,66 8.85,65.62 C8.12,64.74 7.41,63.85 6.72,62.94 C6.48,62.62 6.22,62.49 5.81,62.5 C4.08,62.52 2.34,62.51 0.6,62.51 C0.02,62.5 0.01,62.5 0.01,61.91 C0,60.92 0.01,59.94 0,58.95 C0,58.62 0.12,58.5 0.45,58.5 C2.94,58.51 5.43,58.51 7.92,58.5 C8.18,58.5 8.36,58.59 8.51,58.79 C10.04,60.72 11.57,62.65 13.11,64.58 C13.31,64.83 13.27,65.11 13.27,65.39 C13.28,68.78 13.28,72.18 13.28,75.58z "/><path id="_R_G_L_0_G_L_0_G_D_10_P_0" fill="#ffffff" fill-opacity="1" fill-rule="nonzero" d=" M176.86 80.33 C176.62,80.24 176.52,80.04 176.4,79.88 C175.36,78.58 174.34,77.28 173.3,75.98 C173.07,75.69 172.93,75.4 172.93,75.01 C172.94,69.79 172.93,64.58 172.94,59.37 C172.94,58.74 172.94,58.73 173.56,58.73 C174.52,58.72 175.48,58.74 176.44,58.72 C176.8,58.72 176.98,58.82 176.94,59.21 C176.92,59.34 176.93,59.47 176.93,59.6 C176.93,66.26 176.93,72.92 176.93,79.59 C176.93,79.83 177,80.09 176.86,80.33z "/><path id="_R_G_L_0_G_L_0_G_D_11_P_0" fill="#ffffff" fill-opacity="1" fill-rule="nonzero" d=" M10.71 58.51 C11.12,58.51 11.35,58.51 11.58,58.51 C14.89,58.51 18.2,58.51 21.52,58.51 C21.67,58.51 21.83,58.51 21.98,58.51 C22.2,58.5 22.33,58.58 22.33,58.82 C22.32,59.96 22.33,61.1 22.33,62.23 C22.33,62.43 22.23,62.51 22.03,62.51 C21.88,62.5 21.72,62.51 21.57,62.51 C19.24,62.51 16.91,62.5 14.58,62.52 C14.1,62.52 13.77,62.41 13.46,62.01 C12.61,60.87 11.71,59.77 10.71,58.51z "/><path id="_R_G_L_0_G_L_0_G_D_12_P_0" fill="#ffffff" fill-opacity="1" fill-rule="nonzero" d=" M125.67 57.92 C117.47,57.88 110.9,64.45 110.79,72.72 C110.7,79.33 115.58,87.38 125.4,87.55 C133.68,87.68 140.33,81.38 140.48,72.94 C140.61,65.27 134.41,57.93 125.67,57.92z  M125.65 83.59 C119.6,83.6 114.72,78.8 114.79,72.81 C114.88,65.85 120.33,61.89 125.62,61.91 C131.7,61.93 136.49,66.72 136.48,72.78 C136.47,78.83 131.7,83.58 125.65,83.59z "/><path id="_R_G_L_0_G_L_0_G_D_13_P_0" fill="#ffffff" fill-opacity="1" fill-rule="nonzero" d=" M125.66 74.72 C123.97,74.72 122.29,74.73 120.61,74.72 C120.05,74.72 120.05,74.71 120.04,74.17 C120.04,73.18 120.06,72.2 120.03,71.21 C120.02,70.83 120.17,70.73 120.53,70.74 C123.95,70.74 127.37,70.74 130.78,70.74 C131.11,70.74 131.24,70.83 131.24,71.18 C131.22,72.18 131.21,73.2 131.24,74.21 C131.25,74.63 131.1,74.74 130.71,74.73 C129.02,74.72 127.34,74.72 125.66,74.72z "/></g></g></g></g><g id="time_group"/></svg>