<svg xmlns="http://www.w3.org/2000/svg" xmlns:xlink="http://www.w3.org/1999/xlink" preserveAspectRatio="xMidYMid meet" width="225" height="48" viewBox="0 0 225 48" style="width:100%;height:100%"><defs><animate repeatCount="indefinite" dur="13s" begin="0s" xlink:href="#_R_G_L_0_G_L_2_G" fill="freeze" attributeName="opacity" from="0" to="0" keyTimes="0;0.3846154;0.4615385;0.6923077;0.7692308;1" values="0;0;1;1;0;0" keySplines="0.167 0.167 0.833 0.833;0.167 0.167 0.833 0.833;0.167 0 0.833 1;0.167 0.167 0.833 0.833;0 0 0 0" calcMode="spline"/><animate repeatCount="indefinite" dur="13s" begin="0s" xlink:href="#_R_G_L_0_G_L_2_G_M" fill="freeze" attributeName="opacity" from="0" to="0" keyTimes="0;0.3846154;0.3846157;0.7692308;0.7692308;1" values="0;0;1;1;0;0" keySplines="0 0 0 0;0 0 0 0;0 0 0 0;0 0 0 0;0 0 0 0" calcMode="spline"/><animate repeatCount="indefinite" dur="13s" begin="0s" xlink:href="#_R_G_L_0_G_L_1_G" fill="freeze" attributeName="opacity" from="0" to="0" keyTimes="0;0.7692308;0.8461538;0.9230769;1" values="0;0;1;1;0" keySplines="0.167 0.167 0.833 0.833;0.167 0.167 0.833 0.833;0.167 0 0.833 1;0.167 0.167 0.833 0.833" calcMode="spline"/><animate repeatCount="indefinite" dur="13s" begin="0s" xlink:href="#_R_G_L_0_G_L_1_G_M" fill="freeze" attributeName="opacity" from="0" to="1" keyTimes="0;0.7692308;0.7692311;1" values="0;0;1;1" keySplines="0 0 0 0;0 0 0 0;0 0 0 0" calcMode="spline"/><animate repeatCount="indefinite" dur="13s" begin="0s" xlink:href="#_R_G_L_0_G_L_0_G" fill="freeze" attributeName="opacity" from="0" to="0" keyTimes="0;0.0769231;0.3076923;0.3846154;1" values="0;1;1;0;0" keySplines="0.167 0.167 0.833 0.833;0.167 0 0.833 1;0.167 0.167 0.833 0.833;0 0 0 0" calcMode="spline"/><animate repeatCount="indefinite" dur="13s" begin="0s" xlink:href="#_R_G_L_0_G_L_0_G_M" fill="freeze" attributeName="opacity" from="1" to="0" keyTimes="0;0.3846154;0.3846154;1" values="1;1;0;0" keySplines="0 0 0 0;0 0 0 0;0 0 0 0" calcMode="spline"/><animate attributeType="XML" attributeName="opacity" dur="13s" from="0" to="1" xlink:href="#time_group"/></defs><g id="_R_G"><g id="_R_G_L_0_G" transform=" translate(112.37, 24.14) scale(0.1, 0.1) translate(-1122.5, -240)"><g id="_R_G_L_0_G_L_4_G" transform=" translate(513.983, 236) scale(3.07, 3.07) translate(-156.197, -75)"><path id="_R_G_L_0_G_L_4_G_D_0_P_0" fill="#ffffff" fill-opacity="1" fill-rule="nonzero" d=" M169.39 72.92 C181.94,71.05 184.69,64.54 184.69,53.38 C184.69,53.38 184.69,41.63 184.69,41.63 C184.69,29.28 174.81,23.07 154.98,23.07 C135.15,23.07 125.27,29.28 125.27,41.63 C125.27,41.63 125.27,55.48 125.27,55.48 C125.27,65.21 127.42,70.3 138.86,72.25 C127.42,74.79 125.27,81.9 125.27,92.3 C125.27,92.3 125.27,107.5 125.27,107.5 C125.27,120 135.15,126.21 154.98,126.21 C174.81,126.21 184.69,120 184.69,107.5 C184.69,107.5 184.69,92.45 184.69,92.45 C184.69,81 181.94,74.49 169.39,72.92z  M154.83 66.41 C150.45,66.41 148.29,64.31 148.29,60.19 C148.29,60.19 148.29,40.44 148.29,40.44 C148.29,36.39 150.45,34.45 154.83,34.45 C159.21,34.45 161.52,36.47 161.52,40.44 C161.52,40.44 161.52,60.19 161.52,60.19 C161.52,64.31 159.29,66.41 154.83,66.41z  M154.83 114.23 C150.45,114.23 148.29,112.14 148.29,108.02 C148.29,108.02 148.29,85.64 148.29,85.64 C148.29,81.37 150.45,79.28 154.83,79.28 C159.21,79.28 161.52,81.37 161.52,85.64 C161.52,85.64 161.52,108.02 161.52,108.02 C161.52,112.14 159.29,114.23 154.83,114.23z "/><path id="_R_G_L_0_G_L_4_G_D_1_P_0" fill="#ffffff" fill-opacity="1" fill-rule="nonzero" d=" M237.53 72.92 C250.09,71.05 252.84,64.54 252.84,53.38 C252.84,53.38 252.84,41.63 252.84,41.63 C252.84,29.28 242.95,23.07 223.1,23.07 C203.26,23.07 193.37,29.28 193.37,41.63 C193.37,41.63 193.37,55.48 193.37,55.48 C193.37,65.21 195.52,70.3 206.97,72.25 C195.52,74.79 193.37,81.9 193.37,92.3 C193.37,92.3 193.37,107.5 193.37,107.5 C193.37,120 203.26,126.21 223.1,126.21 C242.95,126.21 252.84,120 252.84,107.5 C252.84,107.5 252.84,92.45 252.84,92.45 C252.84,81 250.09,74.49 237.53,72.92z  M222.96 66.41 C218.57,66.41 216.41,64.31 216.41,60.19 C216.41,60.19 216.41,40.44 216.41,40.44 C216.41,36.39 218.57,34.45 222.96,34.45 C227.34,34.45 229.65,36.47 229.65,40.44 C229.65,40.44 229.65,60.19 229.65,60.19 C229.72,64.31 227.49,66.41 222.96,66.41z  M222.96 114.23 C218.57,114.23 216.41,112.14 216.41,108.02 C216.41,108.02 216.41,85.64 216.41,85.64 C216.41,81.37 218.57,79.28 222.96,79.28 C227.34,79.28 229.65,81.37 229.65,85.64 C229.65,85.64 229.65,108.02 229.65,108.02 C229.72,112.14 227.49,114.23 222.96,114.23z "/><path id="_R_G_L_0_G_L_4_G_D_2_P_0" fill="#d3b271" fill-opacity="1" fill-rule="nonzero" d=" M0 24.56 C0,23.74 0.66,23.07 1.49,23.07 C1.49,23.07 115.1,23.07 115.1,23.07 C115.92,23.07 116.59,23.74 116.59,24.56 C116.59,24.56 116.59,125.44 116.59,125.44 C116.59,126.26 115.92,126.93 115.1,126.93 C115.1,126.93 1.49,126.93 1.49,126.93 C0.67,126.93 0,126.26 0,125.44 C0,125.44 0,24.56 0,24.56z "/><path id="_R_G_L_0_G_L_4_G_D_3_P_0" fill="#be181b" fill-opacity="1" fill-rule="nonzero" d=" M5.76 30.33 C5.76,29.51 6.42,28.84 7.24,28.84 C7.24,28.84 109.34,28.84 109.34,28.84 C110.16,28.84 110.83,29.51 110.83,30.33 C110.83,30.33 110.83,119.67 110.83,119.67 C110.83,120.49 110.16,121.16 109.34,121.16 C109.34,121.16 7.24,121.16 7.24,121.16 C6.42,121.16 5.76,120.49 5.76,119.67 C5.76,119.67 5.76,30.33 5.76,30.33 C5.76,30.33 5.76,30.33 5.76,30.33z "/><path id="_R_G_L_0_G_L_4_G_D_4_P_0" fill="#ffffff" fill-opacity="1" fill-rule="nonzero" d=" M45.04 74.6 C45.04,74.6 45.04,107.31 45.04,107.31 C45.04,108.02 44.86,108.47 44.22,108.47 C43.59,108.47 43.32,108.02 43.32,107.31 C43.32,107.31 43.32,102.99 43.32,102.99 C43.32,102.99 41.7,102.99 41.7,102.99 C40.54,102.99 36.79,105.88 34.4,107.71 C33.64,108.3 33.01,108.78 32.66,109.02 C30.04,107.5 26.78,105.97 24.34,105.15 C23.9,105.56 23.5,105.93 23.14,106.26 C22.38,106.97 21.78,107.51 21.37,107.94 C21.21,108.1 21.08,108.24 20.96,108.36 C20.6,108.73 20.4,108.94 20.2,108.94 C19.75,108.94 19.19,108.41 19.19,107.94 C19.19,107.47 20.2,106.42 24.81,101.71 C27.97,98.47 29.24,94.6 29.24,88.65 C29.24,78.83 24.99,70.44 20.12,70.44 C18.5,70.44 17.68,71.08 17.41,72.7 C17.33,73.52 16.96,73.78 16.59,73.78 C15.87,73.78 15.5,72.6 15.5,70.63 C15.5,66.12 18.66,62.52 22.56,62.52 C24.37,62.52 25.59,63.31 26.65,64 C27.55,64.58 28.33,65.08 29.24,64.96 C29.24,64.96 29.24,58.38 29.24,58.38 C29.24,56.67 28.6,55.23 27.33,54.15 C26.25,53.25 20.65,49.46 18.56,49.46 C18.16,49.46 17.87,49.54 17.61,49.62 C17.4,49.68 17.22,49.73 17.02,49.73 C16.75,49.73 16.65,49.65 16.65,49.46 C16.65,49.23 16.8,49.06 17.2,48.58 C17.25,48.52 17.31,48.46 17.37,48.38 C17.37,48.38 24.5,41.36 24.5,41.36 C24.57,41.31 24.63,41.26 24.68,41.22 C24.94,41.03 25.1,40.91 25.4,40.91 C26.84,40.91 30.84,43.62 34.11,45.84 C36.38,47.37 38.29,48.67 38.77,48.67 C39.64,48.67 42.2,47.07 44.98,45.35 C48.25,43.31 51.82,41.09 53.24,41.09 C53.92,41.09 54.61,41.65 59.24,45.38 C59.24,45.38 59.26,45.4 59.26,45.4 C59.56,45.63 59.87,45.88 60.19,46.14 C60.42,46.32 60.69,46.55 61.01,46.82 C61.98,47.63 63.31,48.73 64.54,49.48 C65.99,50.38 66.07,50.56 66.07,52.28 C66.98,52.09 67.98,51.38 73.66,46.78 C75.28,45.43 80.08,41.54 80.45,41.54 C80.9,41.54 84.88,43.17 90.76,45.59 C92.48,46.31 92.75,46.49 92.75,47.57 C92.75,47.57 92.75,94.17 92.75,94.17 C92.75,95.7 92.93,96.25 93.57,96.78 C96.27,99.12 97.91,100.02 98.81,100.02 C99.08,100.02 99.45,99.92 99.72,99.65 C100.17,99.02 100.27,98.94 100.54,98.94 C100.8,98.94 101.09,99.31 101.09,99.65 C101.09,100.2 97.03,105.23 92.87,108.49 C90.35,107.59 86,104.62 83.56,102.1 C82.74,101.2 82.58,101.02 82.58,99.49 C82.58,99.49 82.58,66.12 82.58,66.12 C82.58,62.25 83.83,59.63 88.36,53.6 C90.72,50.54 90.88,49.63 90.43,49.63 C90.21,49.63 88.16,51.04 86.32,52.31 C85.06,53.17 83.9,53.97 83.46,54.23 C83.26,54.12 83.07,54.01 82.89,53.9 C78.46,51.37 77.02,50.54 74.5,50.54 C73.07,50.54 72.06,51.26 72.06,52.17 C72.06,52.17 72.06,107.6 72.06,107.6 C72.06,108.31 71.69,108.86 71.16,108.86 C70.71,108.86 70.44,108.41 70.44,107.7 C70.44,107.7 70.44,103.54 70.44,103.54 C67.89,103.96 65.67,106.02 64.17,107.4 C63.38,108.14 62.8,108.68 62.49,108.68 C61.5,108.68 55.62,101.65 55.62,101.1 C55.62,101.1 55.62,74.6 55.62,74.6 C55.62,74.6 45.04,74.6 45.04,74.6 C45.04,74.6 45.04,74.6 45.04,74.6z  M43.4 51.62 C43.4,49.81 43.22,49.2 42.87,49.2 C42.07,49.2 39.16,51.01 39.16,51.62 C39.16,51.62 39.16,76.57 39.16,76.57 C39.16,88.68 37.78,90.13 34.65,93.41 C34.59,93.47 34.53,93.54 34.46,93.6 C33.01,95.13 32.66,95.5 31.57,96.76 C33.48,99.37 39.79,100.55 43.42,100.37 C43.42,100.37 43.42,51.62 43.42,51.62 C43.42,51.62 43.4,51.62 43.4,51.62z  M55.62 66.04 C55.62,66.04 55.62,56.12 55.62,56.12 C55.62,54.23 48.84,49.1 46.58,49.1 C45.58,49.1 45.04,49.73 45.04,50.91 C45.04,50.91 45.04,66.04 45.04,66.04 C45.04,66.04 55.62,66.04 55.62,66.04z  M70.44 53.23 C70.44,53.05 70.36,52.97 70.08,52.97 C69.81,52.97 69.36,53.15 69.07,53.33 C69.07,53.33 67,54.6 67,54.6 C65.83,55.31 65.46,55.67 65.46,56.22 C65.46,56.22 65.46,65.23 65.46,65.23 C65.46,65.86 66.28,66.31 66.92,66.31 C66.92,66.31 70.44,66.31 70.44,66.31 C70.44,66.31 70.44,53.23 70.44,53.23z  M67 74.42 C67,74.42 67,74.42 67,74.42 C66.01,74.42 65.54,75.15 65.54,76.49 C65.54,76.49 65.54,94.97 65.54,94.97 C65.54,98.58 67.08,100.28 70.42,100.55 C70.42,100.55 70.42,74.42 70.42,74.42 C70.42,74.42 67,74.42 67,74.42z "/><path id="_R_G_L_0_G_L_4_G_D_5_P_0" fill="#ffffff" fill-opacity="1" fill-rule="nonzero" d=" M302.53 25.65 C302.15,25.65 301.39,26.93 301.27,27.31 C300.89,27.81 300.01,29.09 300.01,29.09 C300.01,29.09 294.96,29.09 294.96,29.09 C290.91,27.05 288.89,26.93 288.39,26.93 C288.01,26.93 288.01,28.45 288.01,28.45 C288.01,28.45 288.14,45.35 288.14,48.02 C288.14,50.56 287.63,54.75 286.75,58.44 C285.74,62.5 284.1,64.41 281.45,67.08 C278.67,69.75 273.24,72.29 272.48,72.67 C271.72,73.05 271.6,73.43 271.6,73.43 C271.6,73.43 270.97,73.94 274.75,72.8 C279.55,71.4 283.46,69.24 285.61,67.84 C293.82,62.12 293.69,53.61 293.69,53.61 C293.69,53.61 301.39,53.61 301.39,53.61 C301.39,53.61 301.39,64.54 301.39,64.54 C301.39,64.92 301.14,65.3 300.64,65.81 C299.88,66.44 297.23,66.7 296.34,66.7 C295.46,66.7 294.2,66.57 294.33,67.08 C294.33,67.59 296.09,68.48 297.23,69.24 C298.36,70 298.62,71.65 299,72.41 C299.38,73.18 302.53,74.07 305.31,71.78 C308.09,69.49 307.71,65.55 307.71,65.55 C307.71,65.55 307.71,31.75 307.71,31.75 C307.71,31.75 307.96,31.5 308.34,31.12 C308.72,30.74 309.73,29.72 308.46,28.45 C306.07,26.16 302.78,25.65 302.53,25.65z  M301.27 52.72 C301.27,52.72 293.82,52.72 293.82,52.72 C293.99,48.4 294.07,44.67 294.07,41.54 C294.07,41.54 301.27,41.54 301.27,41.54 C301.27,41.54 301.27,52.72 301.27,52.72z  M301.27 40.52 C301.27,40.52 294.07,40.52 294.07,40.52 C294.07,40.52 294.07,31.75 294.07,31.75 C294.07,31.75 294.2,29.85 295.46,29.85 C295.46,29.85 301.14,29.85 301.14,29.85 C301.14,29.85 301.14,40.52 301.14,40.52 C301.14,40.52 301.27,40.52 301.27,40.52z "/><path id="_R_G_L_0_G_L_4_G_D_6_P_0" fill="#ffffff" fill-opacity="1" fill-rule="nonzero" d=" M270.71 59.84 C270.71,59.84 277.15,59.84 277.15,59.84 C277.15,59.84 277.15,62.88 277.15,62.88 C277.15,63.01 277.15,63.65 277.53,63.9 C277.79,64.28 278.67,64.41 280.31,64.28 C281.95,64.16 282.2,63.52 282.58,63.01 C282.96,62.5 282.96,61.36 282.96,61.36 C282.96,61.36 282.96,32.39 282.96,32.39 C282.96,32.39 283.09,32.14 283.34,31.88 C283.59,31.63 284.86,31.24 284.48,30.61 C283.21,27.81 280.44,26.92 279.81,26.8 C278.92,26.42 278.04,26.29 277.78,26.67 C277.53,27.05 277.03,27.94 276.77,28.45 C276.52,28.96 276.02,29.34 276.02,29.34 C276.02,29.34 269.96,29.34 269.96,29.34 C269.96,29.34 266.42,27.43 265.54,27.56 C264.78,27.56 264.78,28.58 264.78,28.58 C264.78,28.58 264.78,65.3 264.78,65.3 C264.78,65.3 264.78,65.93 265.16,66.19 C265.54,66.44 266.3,66.32 267.05,66.32 C267.81,66.32 269.07,66.19 269.96,65.68 C270.71,65.04 270.59,64.03 270.59,64.03 C270.59,64.03 270.59,59.84 270.59,59.84 C270.59,59.84 270.71,59.84 270.71,59.84z  M271.98 30.23 C271.98,30.23 277.15,30.23 277.15,30.23 C277.15,30.23 277.15,44.08 277.15,44.08 C277.15,44.08 270.71,44.08 270.71,44.08 C270.71,44.08 270.71,31.88 270.71,31.88 C270.71,32.01 270.59,30.36 271.98,30.23z    M277.15 58.82 C277.15,58.82 270.71,58.82 270.71,58.82 C270.71,58.82 270.71,45.1 270.71,45.1 C270.71,45.1 277.15,45.1 277.15,45.1 C277.15,45.1 277.15,58.82 277.15,58.82z "/><path id="_R_G_L_0_G_L_4_G_D_7_P_0" fill="#ffffff" fill-opacity="1" fill-rule="nonzero" d=" M308.74 90.15 C308.25,90.15 307.89,90.64 307.41,91.37 C306.92,91.98 305.35,94.05 305.35,94.05 C305.35,94.05 304.02,94.05 304.02,94.05 C304.02,94.05 304.02,83.09 304.02,83.09 C304.14,82.6 304.86,82.35 304.74,81.74 C304.74,81.5 303.53,81.01 302.2,80.77 C301.23,80.65 299.17,80.4 298.45,80.52 C297.84,80.65 297.84,81.5 297.84,81.5 C297.84,81.5 297.84,94.05 297.84,94.05 C297.84,94.05 291.91,94.05 291.91,94.05 C291.91,94.05 291.91,86.86 291.91,86.86 C291.91,86.86 296.39,85.4 296.99,85.16 C297.6,84.91 297.72,84.55 297.48,84.3 C297.36,84.06 296.99,83.82 296.27,83.45 C295.54,83.09 294.21,82.23 293,81.5 C291.79,80.77 291.67,80.77 291.18,80.77 C290.82,80.77 290.33,81.13 289.61,81.87 C286.46,85.03 280.65,89.18 279.8,89.91 C279.8,89.91 279.68,90.03 279.68,90.03 C279.92,90.27 285.85,88.45 285.85,88.45 C285.85,88.45 285.85,94.05 285.85,94.05 C285.85,94.05 277.14,94.05 277.14,94.05 C276.53,94.05 277.02,94.54 277.5,94.78 C277.86,95.03 277.99,95.03 277.99,95.03 C277.99,95.03 285.85,95.03 285.85,95.03 C285.85,95.03 285.85,97.95 285.61,100.14 C285.13,103.68 283.19,106.72 283.19,106.72 C283.07,106.85 283.07,106.97 283.07,106.97 C283.07,106.97 283.07,107.33 283.07,107.33 C283.43,107.7 284.4,106.85 285.61,105.99 C287.55,104.65 289,103.43 289.97,101.73 C291.3,99.53 291.79,95.03 291.79,95.03 C291.79,95.03 297.84,95.03 297.84,95.03 C297.84,95.03 297.72,106.85 297.84,107.21 C297.96,107.7 298.08,108.19 300.26,108.19 C302.44,108.06 303.29,107.58 303.65,107.21 C304.02,106.85 303.9,106.11 303.9,106.11 C303.9,106.11 303.9,94.9 303.9,94.9 C303.9,94.9 311.77,94.9 311.77,94.9 C312.13,94.9 312.49,94.66 312.37,94.17 C312.25,93.69 311.52,92.59 310.68,91.74 C309.95,90.88 309.34,90.15 308.74,90.15z "/><path id="_R_G_L_0_G_L_4_G_D_8_P_0" fill="#ffffff" fill-opacity="1" fill-rule="nonzero" d=" M306.32 118.3 C305.11,117.57 304.62,118.18 304.02,118.91 C303.53,119.4 301.23,122.44 301.23,122.44 C301.23,122.44 295.78,122.44 295.78,122.44 C295.78,122.44 295.78,113.67 295.78,113.67 C295.78,113.67 303.65,113.67 303.65,113.67 C304.62,113.67 305.35,113.55 305.83,113.18 C306.32,112.82 305.83,112.21 304.74,111.11 C303.41,109.77 301.59,108.92 301.23,108.92 C300.87,108.92 300.26,109.77 300.02,110.26 C299.78,110.74 298.32,112.69 298.32,112.69 C298.32,112.69 295.9,112.69 295.9,112.69 C295.9,112.69 295.9,107.21 295.9,107.21 C295.9,106.97 296.87,106.36 296.87,105.75 C296.87,105.38 296.51,104.65 295.66,104.16 C294.57,103.56 292.39,103.43 291.18,103.43 C289.85,103.43 289.97,105.02 289.97,105.02 C289.97,105.02 289.97,112.69 289.97,112.69 C289.97,112.69 283.43,112.69 283.43,112.69 C282.95,112.69 282.46,112.69 283.07,113.18 C283.67,113.67 284.4,113.67 284.4,113.67 C284.4,113.67 289.97,113.67 289.97,113.67 C289.97,113.67 289.97,122.44 289.97,122.44 C289.97,122.44 276.89,122.44 276.89,122.44 C276.29,122.44 276.53,122.81 276.77,123.05 C277.02,123.17 277.74,123.17 277.74,123.17 C277.74,123.17 308.62,123.17 308.62,123.17 C308.98,123.17 311.16,123.3 309.59,121.47 C307.53,119.03 306.56,118.42 306.32,118.3 C306.32,118.3 306.32,118.3 306.32,118.3z "/><path id="_R_G_L_0_G_L_4_G_D_9_P_0" fill="#ffffff" fill-opacity="1" fill-rule="nonzero" d=" M279.68 111.84 C279.92,111.35 280.04,110.87 280.16,110.26 C280.28,109.77 280.41,109.16 280.53,108.43 C280.53,108.06 280.65,107.7 280.53,107.33 C280.53,107.33 280.53,106.36 280.53,106.36 C280.16,103.92 278.59,101.73 276.89,100.14 C274.96,98.32 272.65,96.98 272.65,96.98 C274.47,94.05 276.05,91.61 277.26,89.66 C277.26,89.66 277.38,89.54 277.38,89.54 C279.19,86.86 280.41,85.28 280.41,85.28 C280.53,85.16 280.89,84.91 280.41,84.55 C279.56,83.69 277.5,82.35 276.53,81.87 C275.56,81.38 275.2,81.13 274.83,81.13 C274.47,81.13 274.23,81.5 274.11,81.74 C273.87,81.99 272.78,83.33 272.78,83.33 C272.78,83.33 270.47,83.33 270.47,83.33 C270.47,83.33 266.96,81.26 265.63,81.26 C264.78,81.26 264.78,81.99 264.78,81.99 C264.78,81.99 264.78,124.76 264.78,124.76 C264.78,125 264.66,125.86 265.51,126.1 C266.72,126.46 268.54,125.85 269.14,125.49 C269.99,125.12 269.87,123.9 269.87,123.9 C269.87,123.9 269.87,110.62 269.87,110.62 C272.53,111.48 272.9,113.06 273.14,113.79 C273.38,114.64 273.02,116.11 275.32,115.38 C276.29,115.01 277.14,114.52 277.86,114.04 C278.59,113.55 279.19,112.94 279.68,111.84z  M275.08 107.94 C273.99,110.14 269.99,109.89 269.99,109.89 C269.99,109.89 269.99,86.01 269.99,86.01 C269.99,84.55 271.33,84.55 271.33,84.55 C271.33,84.55 273.87,84.55 273.87,84.55 C273.02,91.61 271.2,97.83 271.2,97.83 C271.2,97.83 273.14,100.14 274.23,101.73 C275.32,103.19 276.05,105.99 275.08,107.94z "/></g><g id="_R_G_L_0_G_L_3_G" transform=" translate(1080.849, 235.25) scale(0.537, 0.415) translate(-1657.17, -381.392)"><path id="_R_G_L_0_G_L_3_G_D_0_P_0" fill="#ffffff" fill-opacity="1" fill-rule="nonzero" d=" M1651.89 762.53 C1651.89,762.53 1662.45,762.53 1662.45,762.53 C1662.45,762.53 1662.45,0.25 1662.45,0.25 C1662.45,0.25 1651.89,0.25 1651.89,0.25 C1651.89,0.25 1651.89,762.53 1651.89,762.53z "/></g><g id="_R_G_L_0_G_L_2_G_M"><g id="_R_G_L_0_G_L_2_G" transform=" translate(1296.45, 236) scale(0.555, 0.555) translate(-180.647, -283)"><path id="_R_G_L_0_G_L_2_G_D_0_P_0" fill="#191513" fill-opacity="1" fill-rule="nonzero" d=" M308.82 83.46 C276.31,32.18 231.19,0.35 180.65,0 C79.56,0.52 0,127.58 0,283.08 C0,360.74 19.93,431.43 52.46,482.69 C84.99,533.96 130.1,565.81 180.65,566 C231.19,565.81 276.31,533.96 308.82,482.69 C341.36,431.43 361.29,360.74 361.29,283.08 C361.29,205.4 341.36,134.72 308.82,83.46z "/><path id="_R_G_L_0_G_L_2_G_D_1_P_0" fill="#f62711" fill-opacity="1" fill-rule="nonzero" d=" M341.63 174.85 C332.7,141.46 319.76,111.48 303.84,86.46 C287.76,61.4 268.87,41.14 248.06,27.17 C227.25,13.39 204.61,5.72 180.65,5.72 C156.69,5.72 134.04,13.39 113.23,27.17 C92.42,41.14 73.54,61.4 57.45,86.46 C41.53,111.48 28.59,141.46 19.67,174.85 C10.75,208.06 5.85,244.68 5.85,283.17 C5.85,359.82 25.63,429.48 57.45,479.55 C73.54,504.6 92.42,524.85 113.23,538.82 C134.04,552.63 156.69,560.28 180.65,560.28 C204.61,560.28 227.25,552.63 248.06,538.82 C268.87,524.85 287.76,504.6 303.84,479.55 C335.67,429.48 355.44,359.82 355.44,283.17 C355.44,244.68 350.54,208.06 341.63,174.85z "/><path id="_R_G_L_0_G_L_2_G_D_2_P_0" fill="#191513" fill-opacity="1" fill-rule="nonzero" d=" M180.65 544.45 C91.28,543.92 21.42,426.42 21.42,283.17 C21.42,139.76 91.28,22.23 180.65,21.73 C270.01,22.23 339.87,139.76 339.87,283.17 C339.87,426.42 270.01,543.92 180.65,544.45z "/><path id="_R_G_L_0_G_L_2_G_D_3_P_0" fill="#ffffff" fill-opacity="1" fill-rule="nonzero" d=" M180.65 129.37 C240.63,129.37 292.64,161.91 319.41,209.76 C312.23,170.78 299.82,135.84 283.2,107.57 C256.8,62.77 220.52,35.55 180.65,35.37 C140.77,35.55 104.49,62.77 78.1,107.57 C61.47,135.84 49.06,170.78 41.89,209.76 C68.65,161.91 120.66,129.37 180.65,129.37z "/><path id="_R_G_L_0_G_L_2_G_D_4_P_0" fill="#ffffff" fill-opacity="1" fill-rule="nonzero" d=" M180.65 436.8 C120.66,436.8 68.82,404.28 42.07,356.42 C49.06,395.41 61.47,430.32 78.1,458.45 C91.38,480.74 106.94,498.98 124.43,511.4 C141.74,524 160.72,530.82 180.65,530.82 C200.58,530.82 219.55,524 236.86,511.4 C254.35,498.98 269.91,480.74 283.2,458.45 C299.82,430.32 312.23,395.41 319.23,356.42 C292.47,404.28 240.63,436.8 180.65,436.8z "/><path id="_R_G_L_0_G_L_2_G_D_5_P_0" fill="#191513" fill-opacity="1" fill-rule="nonzero" d=" M233.04 438.11 C223.27,441.38 217.8,448.82 221.64,459.69 C224.23,467.09 232.01,471.62 241.58,468.45 C244.92,467.29 248.56,465.28 249.73,461.51 C249.73,461.51 249.92,461.61 249.92,461.61 C253.13,470.94 249.92,474.76 246.06,476.69 C242.24,478.49 238.73,477.57 236.45,474.89 C236.45,474.89 236.42,474.85 236.42,474.85 C236.42,474.85 229.99,479.18 229.99,479.18 C233.72,484.62 240.7,486.28 248.41,483.69 C257.43,480.68 264.59,472.08 258.57,455.01 C256.4,448.76 250.32,432.34 233.04,438.11z  M241.23 460.8 C237.5,462.02 232.49,462.04 230.16,455.43 C227.95,449.12 232.95,446.13 235.46,445.36 C240.55,443.68 244.06,445.93 245.86,450.92 C247.7,456.2 244.65,459.63 241.23,460.8z "/><path id="_R_G_L_0_G_L_2_G_D_6_P_0" fill="#191513" fill-opacity="1" fill-rule="nonzero" d=" M183.44 117.94 C193.65,117.94 202.87,113.68 209.24,106.87 C209.24,106.87 201.68,100.13 201.68,100.13 C197.16,104.93 190.67,107.96 183.44,107.96 C169.74,107.96 158.63,97.16 158.63,83.82 C158.63,70.39 169.74,59.57 183.44,59.57 C190.67,59.57 197.16,62.62 201.68,67.41 C201.68,67.41 209.22,60.64 209.22,60.64 C202.81,53.86 193.65,49.59 183.44,49.59 C164.09,49.59 148.4,64.9 148.4,83.82 C148.4,102.64 164.09,117.94 183.44,117.94z "/><path id="_R_G_L_0_G_L_2_G_D_7_P_0" fill="#191513" fill-opacity="1" fill-rule="nonzero" d=" M231.66 90.3 C231.66,90.3 239.14,128.42 239.14,128.42 C240.92,129.16 242.66,129.85 244.43,130.66 C244.43,130.66 255.04,105.27 255.04,105.27 C255.04,105.27 266.15,142.01 266.15,142.01 C270.49,144.74 274.76,147.75 278.82,150.91 C278.82,150.91 259.54,87.44 259.54,87.44 C259.54,87.44 253.53,82.81 253.53,82.81 C253.53,82.81 244.83,103.74 244.83,103.74 C244.83,103.74 237.6,70.24 237.6,70.24 C237.6,70.24 229.24,64.81 229.24,64.81 C229.24,64.81 211.78,120.59 211.78,120.59 C215.05,121.22 218.29,121.93 221.51,122.76 C221.51,122.76 231.66,90.3 231.66,90.3z "/><path id="_R_G_L_0_G_L_2_G_D_8_P_0" fill="#191513" fill-opacity="1" fill-rule="nonzero" d=" M105.66 122.02 C105.66,122.02 136.1,110.23 136.1,110.23 C136.1,110.23 139.97,122.75 139.97,122.75 C143.12,121.92 146.36,121.22 149.6,120.59 C149.6,120.59 132.38,64.81 132.38,64.81 C132.38,64.81 119.78,72.7 119.78,72.7 C119.78,72.7 80.08,152.85 80.08,152.85 C85.07,148.83 90.38,145.09 95.85,141.64 C95.85,141.64 105.66,122.02 105.66,122.02z  M126.65 79.79 C126.65,79.79 133.2,100.91 133.2,100.91 C133.2,100.91 112.09,109.08 112.09,109.08 C112.09,109.08 126.65,79.79 126.65,79.79z "/><path id="_R_G_L_0_G_L_2_G_D_9_P_0" fill="#191513" fill-opacity="1" fill-rule="nonzero" d=" M193.71 445.64 C183.44,446.51 176.28,452.39 177.25,463.85 C177.94,471.55 184.34,477.88 194.42,477.02 C197.97,476.76 201.95,475.66 204.06,472.35 C204.06,472.35 204.21,472.45 204.21,472.45 C204.96,482.27 200.85,485.23 196.66,486.07 C192.51,486.99 189.35,485.29 187.82,482.13 C187.82,482.13 187.82,482.06 187.82,482.06 C187.82,482.06 180.5,484.77 180.5,484.77 C182.71,490.8 189.12,494.08 197.21,493.45 C206.67,492.68 215.78,486.07 214.25,468.09 C213.74,461.49 211.94,444.19 193.71,445.64z  M196.02 469.51 C192.07,469.86 187.19,468.74 186.58,461.74 C186.05,455.02 191.63,453.39 194.31,453.22 C199.6,452.78 202.5,455.76 202.96,461.08 C203.44,466.65 199.6,469.27 196.02,469.51z "/><path id="_R_G_L_0_G_L_2_G_D_10_P_0" fill="#191513" fill-opacity="1" fill-rule="nonzero" d=" M154.41 443.96 C145.33,442.36 137.38,445.93 135.99,453.88 C135.2,458.15 136.85,461.45 140.63,464.02 C132.15,465.87 131.06,472.04 130.64,474.36 C129.48,480.72 132.71,489.29 146.09,491.66 C159.83,493.99 165.69,485.56 166.78,479.71 C167.83,473.71 165.59,470.31 161,467.19 C165.53,466.03 167.96,462.88 168.68,458.89 C169.81,452.47 165.13,445.82 154.41,443.96z  M156.63 478.38 C156.05,481.59 152.81,485.29 147.48,484.32 C142.81,483.53 139.69,479.98 140.51,475.45 C141.4,470.47 146.13,469.05 149.87,469.76 C155.57,470.65 157.25,475.1 156.63,478.38z  M159.09 458.24 C158.48,461.53 155.36,463.54 151.32,462.85 C146.91,462.04 144.8,458.6 145.27,455.91 C145.89,452.45 149.14,450.58 153.75,451.35 C157.02,451.94 159.72,454.69 159.09,458.24z "/><path id="_R_G_L_0_G_L_2_G_D_11_P_0" fill="#191513" fill-opacity="1" fill-rule="nonzero" d=" M105.02 439.42 C105.02,439.42 103.63,438.95 103.63,438.95 C103.63,438.95 101.64,444.48 101.64,444.48 C101.64,444.48 101.71,444.5 101.71,444.5 C101.71,444.5 100.73,447.18 100.73,447.18 C100.73,447.18 102.64,447.87 102.64,447.87 C107.68,449.63 111.12,449.63 113.42,448.7 C113.42,448.7 103.04,478.38 103.04,478.38 C103.04,478.38 112.94,481.65 112.94,481.65 C112.94,481.65 128.22,438.05 128.22,438.05 C128.22,438.05 119.23,435 119.23,435 C118.53,437.02 112.52,441.87 105.02,439.42z "/><path id="_R_G_L_0_G_L_2_G_D_12_P_0" fill="#ffffff" fill-opacity="1" fill-rule="nonzero" d=" M279.19 304.98 C279.19,304.98 279.19,390.31 279.19,390.31 C304.02,368.67 321.34,338.7 326.59,304.98 C326.59,304.98 279.19,304.98 279.19,304.98z "/><path id="_R_G_L_0_G_L_2_G_D_13_P_0" fill="#ffffff" fill-opacity="1" fill-rule="nonzero" d=" M188.79 426.59 C201.03,425.9 212.91,423.69 224.1,420.45 C224.1,420.45 224.1,304.98 224.1,304.98 C224.1,304.98 188.79,304.98 188.79,304.98 C188.79,304.98 188.79,426.59 188.79,426.59z "/><path id="_R_G_L_0_G_L_2_G_D_14_P_0" fill="#ffffff" fill-opacity="1" fill-rule="nonzero" d=" M325.89 256.43 C319.78,224.65 303.07,196.61 279.19,176.02 C279.19,176.02 279.19,256.43 279.19,256.43 C279.19,256.43 325.89,256.43 325.89,256.43z "/><path id="_R_G_L_0_G_L_2_G_D_15_P_0" fill="#ffffff" fill-opacity="1" fill-rule="nonzero" d=" M188.79 256.43 C188.79,256.43 224.1,256.43 224.1,256.43 C224.1,256.43 224.1,145.72 224.1,145.72 C212.73,142.5 201.03,140.28 188.79,139.6 C188.79,139.6 188.79,256.43 188.79,256.43z "/><path id="_R_G_L_0_G_L_2_G_D_16_P_0" fill="#ffffff" fill-opacity="1" fill-rule="nonzero" d=" M279.19 175.87 C279.19,175.87 279.02,175.87 279.02,175.87 C279.08,175.92 279.13,175.97 279.19,176.02 C279.19,176.02 279.19,175.87 279.19,175.87z "/><path id="_R_G_L_0_G_L_2_G_D_17_P_0" fill="#f62711" fill-opacity="1" fill-rule="nonzero" d=" M50.97 352.14 C50.97,352.14 50.97,214.01 50.97,214.01 C39.61,234.64 32.97,258.14 32.97,283.17 C32.97,308.04 39.61,331.54 50.97,352.14z "/><path id="_R_G_L_0_G_L_2_G_D_18_P_0" fill="#f62711" fill-opacity="1" fill-rule="nonzero" d=" M231.81 148.28 C231.81,148.28 231.81,264.09 231.81,264.09 C231.81,264.09 188.77,264.09 188.77,264.09 C188.77,264.09 188.77,297.31 188.77,297.31 C188.77,297.31 231.81,297.49 231.81,297.49 C231.81,297.49 231.81,417.9 231.81,417.9 C246.12,412.8 259.43,405.45 271.33,396.44 C271.33,396.44 271.33,297.49 271.33,297.49 C271.33,297.49 327.8,297.49 327.8,297.49 C328.33,292.7 328.5,287.95 328.5,283.17 C328.5,276.71 327.97,270.23 327.1,264.09 C327.1,264.09 271.33,264.09 271.33,264.09 C271.33,264.09 271.33,169.73 271.33,169.73 C259.43,160.71 246.12,153.39 231.81,148.28z "/><path id="_R_G_L_0_G_L_2_G_D_19_P_0" fill="#f62711" fill-opacity="1" fill-rule="nonzero" d=" M133.69 419.43 C142.61,422.33 151.71,424.37 161.32,425.73 C161.32,425.73 161.32,140.44 161.32,140.44 C151.71,141.63 142.61,143.86 133.69,146.76 C133.69,146.76 133.69,419.43 133.69,419.43z "/><path id="_R_G_L_0_G_L_2_G_D_20_P_0" fill="#f62711" fill-opacity="1" fill-rule="nonzero" d=" M78.61 386.89 C87.01,394.73 96.1,401.36 106.06,407.18 C106.06,407.18 106.06,159.01 106.06,159.01 C96.1,164.63 87.01,171.43 78.61,179.28 C78.61,179.28 78.61,386.89 78.61,386.89z "/></g></g><g id="_R_G_L_0_G_L_1_G_M"><g id="_R_G_L_0_G_L_1_G" transform=" translate(1391.001, 237) scale(3.1, 3.1) translate(-353.162, -104.453)"><path id="_R_G_L_0_G_L_1_G_D_0_P_0" fill="#ec250a" fill-opacity="1" fill-rule="nonzero" d=" M415.91 53.4 C415.91,53.4 307.07,85.98 307.07,85.98 C297.46,88.77 290.37,95.11 290.39,104.81 C290.41,113.93 296.84,120.8 305.46,123.31 C305.46,123.31 305.46,123.31 305.47,123.32 C307.03,123.77 415.94,155.5 415.94,155.5 C415.94,155.5 415.91,53.4 415.91,53.4z "/><path id="_R_G_L_0_G_L_1_G_D_1_P_0" fill="#ffffff" fill-opacity="1" fill-rule="nonzero" d=" M327.72 98.16 C327.37,99.83 326.15,100.91 323.09,100.91 C323.09,100.91 319.96,100.91 319.96,100.91 C319.96,100.91 321.15,95.41 321.15,95.41 C321.15,95.41 324.24,95.41 324.24,95.41 C327.55,95.41 328.1,96.38 327.72,98.16z  M326.5 108.39 C326.05,110.48 324.52,111.42 320.87,111.42 C320.87,111.42 317.73,111.42 317.73,111.42 C317.73,111.42 319.02,105.37 319.02,105.37 C319.02,105.37 322.16,105.37 322.16,105.37 C325.81,105.37 326.92,106.3 326.5,108.39z  M380.51 90.75 C375.7,90.75 374.51,94.18 374.51,94.18 C374.51,94.18 369.34,106.44 369.34,106.44 C369.34,106.44 369.23,106.44 369.23,106.44 C369.23,106.44 367.91,90.75 367.91,90.75 C367.91,90.75 359.78,90.75 359.78,90.75 C355.88,90.75 354.3,94.3 354.3,94.3 C354.3,94.3 348.11,106.44 348.11,106.44 C348.11,106.44 348.01,106.44 348.01,106.44 C348.01,106.44 347.98,90.75 347.98,90.75 C347.98,90.75 342.46,90.75 342.46,90.75 C338.81,90.75 338.01,92.72 337.85,93.84 C336.8,91.82 333.89,90.75 328.69,90.75 C328.69,90.75 315.61,90.75 315.61,90.75 C311.37,90.75 310.99,93.91 310.99,93.91 C310.99,93.91 306.22,115.87 306.22,115.87 C306.22,115.87 324.73,115.87 324.73,115.87 C330.16,115.87 331.89,115.32 333.85,113.92 C335.17,112.98 336.24,111.35 336.66,109.4 C337.57,105.09 334.5,103.38 331.02,103.17 C331.02,103.17 331.02,103.1 331.02,103.1 C334.2,102.37 336.9,100.98 337.91,98.15 C337.91,98.15 338.3,115.87 338.3,115.87 C338.3,115.87 347.14,115.87 347.14,115.87 C352.21,115.87 354.08,111.26 354.08,111.26 C354.08,111.26 359.49,100.6 359.49,100.6 C359.49,100.6 359.6,100.6 359.6,100.6 C359.6,100.6 360.85,115.87 360.85,115.87 C360.85,115.87 368.74,115.87 368.74,115.87 C374.45,115.87 376.4,110.91 376.4,110.91 C376.4,110.91 383.35,95.42 383.35,95.42 C383.35,95.42 379.01,115.87 379.01,115.87 C379.01,115.87 383.73,115.87 383.73,115.87 C389.82,115.87 390.63,111.01 390.63,111.01 C390.63,111.01 391.58,106.55 391.58,106.55 C391.58,106.55 398.35,106.55 398.35,106.55 C403.56,106.55 404.31,102.58 404.31,102.58 C404.31,102.58 404.59,101.26 404.59,101.26 C404.59,101.26 392.69,101.26 392.69,101.26 C392.69,101.26 393.8,96.04 393.8,96.04 C393.8,96.04 401.28,96.04 401.28,96.04 C406.39,96.04 407.12,92.26 407.12,92.26 C407.12,92.26 407.44,90.75 407.44,90.75 C407.44,90.75 380.51,90.75 380.51,90.75z "/></g></g><g id="_R_G_L_0_G_L_0_G_M"><g id="_R_G_L_0_G_L_0_G" transform=" translate(1186.5, 240) scale(4.01, 4.01) translate(-1050, -240)"><path id="_R_G_L_0_G_L_0_G_D_0_P_0" fill="#ffffff" fill-opacity="1" fill-rule="nonzero" d=" M1290.39 249.22 C1290.39,249.22 1283.76,222.39 1283.76,222.39 C1283.76,222.39 1282.42,222.39 1282.42,222.39 C1282.42,222.39 1275.8,249.22 1275.8,249.22 C1275.8,249.22 1290.39,249.22 1290.39,249.22z  M1260.29 259.79 C1260.29,259.79 1273.87,210.65 1273.87,210.65 C1273.87,210.65 1288.29,210.65 1288.29,210.65 C1290.97,210.65 1292.65,211.91 1293.41,214.59 C1293.41,214.59 1305.9,259.79 1305.9,259.79 C1306.49,261.8 1306.57,263.14 1306.57,265.74 C1306.57,265.74 1306.57,269.35 1306.57,269.35 C1306.57,269.35 1295.42,269.35 1295.42,269.35 C1295.42,269.35 1290.97,251.49 1290.97,251.49 C1290.97,251.49 1272.95,260.71 1272.95,260.71 C1272.95,260.71 1270.77,269.35 1270.77,269.35 C1270.77,269.35 1259.61,269.35 1259.61,269.35 C1259.61,269.35 1259.61,265.74 1259.61,265.74 C1259.61,263.14 1259.7,261.8 1260.29,259.79 C1260.29,259.79 1260.29,259.79 1260.29,259.79z  M1211.75 250.72 C1211.75,250.72 1211.75,229.29 1211.75,229.29 C1211.75,216.79 1218.54,210 1231.03,210 C1231.03,210 1236.54,210 1236.54,210 C1248.86,210 1255.82,216.29 1255.82,227.44 C1255.82,227.44 1243.25,227.44 1243.25,227.44 C1243.25,227.44 1243.25,225.09 1243.25,225.09 C1243.25,222.91 1242.07,221.74 1239.89,221.74 C1239.89,221.74 1227.68,221.74 1227.68,221.74 C1225.5,221.74 1224.32,222.91 1224.32,225.09 C1224.32,225.09 1224.32,254.91 1224.32,254.91 C1224.32,257.09 1225.5,258.26 1227.68,258.26 C1227.68,258.26 1239.89,258.26 1239.89,258.26 C1242.07,258.26 1243.25,257.09 1243.25,254.91 C1243.25,254.91 1243.25,247.53 1243.25,247.53 C1243.25,247.53 1234.53,247.53 1234.53,247.53 C1234.53,247.53 1234.53,235.79 1234.53,235.79 C1234.53,235.79 1248.53,235.79 1248.53,235.79 C1248.53,235.79 1253.48,241.91 1253.48,241.91 C1255.15,244.01 1255.82,245.94 1255.82,248.62 C1255.82,248.62 1255.82,250.72 1255.82,250.72 C1255.82,263.21 1249.03,270 1236.54,270 C1236.54,270 1231.03,270 1231.03,270 C1218.54,270 1211.75,263.21 1211.75,250.72 C1211.75,250.72 1211.75,250.72 1211.75,250.72z  M1190.62 210.65 C1190.62,210.65 1203.19,210.65 1203.19,210.65 C1203.19,210.65 1203.19,269.35 1203.19,269.35 C1203.19,269.35 1190.62,269.35 1190.62,269.35 C1190.62,269.35 1190.62,210.65 1190.62,210.65z  M1148.69 256.52 C1148.69,256.52 1148.69,210.65 1148.69,210.65 C1148.69,210.65 1161.27,210.65 1161.27,210.65 C1161.27,210.65 1161.27,257.61 1161.27,257.61 C1161.27,257.61 1183.49,257.61 1183.49,257.61 C1183.49,257.61 1183.49,269.35 1183.49,269.35 C1183.49,269.35 1155.99,269.35 1155.99,269.35 C1155.99,269.35 1151.04,263.23 1151.04,263.23 C1149.36,261.05 1148.69,259.03 1148.69,256.52 C1148.69,256.52 1148.69,256.52 1148.69,256.52z  M1126.81 249.22 C1126.81,249.22 1120.18,222.39 1120.18,222.39 C1120.18,222.39 1118.84,222.39 1118.84,222.39 C1118.84,222.39 1112.22,249.22 1112.22,249.22 C1112.22,249.22 1126.81,249.22 1126.81,249.22 C1126.81,249.22 1126.81,249.22 1126.81,249.22z  M1096.71 259.79 C1096.71,259.79 1110.29,210.65 1110.29,210.65 C1110.29,210.65 1124.71,210.65 1124.71,210.65 C1127.4,210.65 1129.07,211.91 1129.83,214.59 C1129.83,214.59 1142.32,259.79 1142.32,259.79 C1142.91,261.8 1142.99,263.14 1142.99,265.74 C1142.99,265.74 1142.99,269.35 1142.99,269.35 C1142.99,269.35 1131.84,269.35 1131.84,269.35 C1131.84,269.35 1127.4,251.49 1127.4,251.49 C1127.4,251.49 1109.37,260.71 1109.37,260.71 C1109.37,260.71 1107.19,269.35 1107.19,269.35 C1107.19,269.35 1096.04,269.35 1096.04,269.35 C1096.04,269.35 1096.04,265.74 1096.04,265.74 C1096.04,263.14 1096.12,261.8 1096.71,259.79 C1096.71,259.79 1096.71,259.79 1096.71,259.79z  M1055.12 256.52 C1055.12,256.52 1055.12,210.65 1055.12,210.65 C1055.12,210.65 1067.69,210.65 1067.69,210.65 C1067.69,210.65 1067.69,257.61 1067.69,257.61 C1067.69,257.61 1089.92,257.61 1089.92,257.61 C1089.92,257.61 1089.92,269.35 1089.92,269.35 C1089.92,269.35 1062.41,269.35 1062.41,269.35 C1062.41,269.35 1057.46,263.23 1057.46,263.23 C1055.79,261.05 1055.12,259.03 1055.12,256.52z "/></g></g></g></g><g id="time_group"/></svg>