<svg xmlns="http://www.w3.org/2000/svg" width="24" height="24" fill="none" viewBox="0 0 24 24">
    <path fill="#FFCD00" d="M9.72 16.98v.66h-.66v3.24H8.4v.72h7.26v-.72H15v-3.24h-.6v-.66H9.72zm3.24 3.72l-1.02-.48-1.02.48.24-1.02-.78-.72 1.08-.12.48-.96.48.96 1.08.12-.78.72.24 1.02zM17.58 3.84V3v-.6H6.48v1.38H3.72v.42c.24 2.52 2.1 4.68 4.62 5.7.84 1.2 1.92 2.04 3.18 2.16v2.28l-.78 1.44h-.42v.72h3.48v-.72h-.42l-.84-1.38v-2.28c1.2-.12 2.28-.96 3.18-2.16 2.58-1.08 4.38-3.18 4.62-5.7V3.9H17.7v-.06h-.12zm-12.9.78h1.86c.12 1.56.6 3 1.14 4.2-1.56-.96-2.7-2.46-3-4.2zm8.88 5.52H11.7v-4.5c-.3.24-.36.3-.66.42-.12.06-.3.12-.78.3V4.8c.66-.24.78-.36 1.14-.66.36-.3.42-.48.66-.96h1.56v6.9h-.06v.06zm2.82-1.32c.6-1.14 1.02-2.58 1.14-4.2h1.86c-.3 1.74-1.44 3.24-3 4.2z"/>
</svg>
