<svg xmlns="http://www.w3.org/2000/svg" width="24" height="24" fill="none" viewBox="0 0 24 24">
    <path fill="#fff" d="M19.02 8.34c-.54-.3-.72-1.02-.54-1.56.24-.54-.06-1.08-.66-1.14-.6-.06-1.08-.66-1.14-1.26 0-.6-.48-.96-1.08-.78-.6.18-1.26-.12-1.5-.66s-.84-.66-1.32-.3c-.48.42-1.2.42-1.68 0s-1.02-.24-1.32.3c-.18.48-.84.84-1.44.66-.6-.18-1.08.18-1.08.78 0 .6-.54 1.14-1.14 1.26-.6.06-.9.6-.66 1.14.24.54 0 1.26-.54 1.56-.54.3-.6.9-.12 1.32.42.42.54 1.14.18 1.68-.3.48-.12 1.02.42 1.26.54.18.96.84.84 1.44s.3 1.02.9.96c.6-.06 1.2.42 1.32.96.12.6.66.84 1.2.54.54-.3 1.26-.12 1.62.36.36.48.96.48 1.32 0 .36-.48 1.08-.66 1.62-.36.54.3 1.08.06 1.2-.54.12-.6.72-1.02 1.32-.96.6.06 1.02-.42.9-.96-.12-.6.24-1.26.84-1.44.54-.18.78-.78.42-1.26-.36-.48-.24-1.26.18-1.68.54-.42.48-1.02-.06-1.32zM12 15.66c-3.24 0-5.82-2.64-5.82-5.82S8.82 4.02 12 4.02c3.24 0 5.82 2.64 5.82 5.82s-2.58 5.82-5.82 5.82z"/>
    <path fill="#fff" d="M12 4.5c-2.94 0-5.28 2.34-5.28 5.28 0 2.94 2.34 5.28 5.28 5.28 2.94 0 5.28-2.34 5.28-5.28 0-2.94-2.34-5.28-5.28-5.28zm2.52 8.4H9.54c.06-.48.24-.96.54-1.38.3-.42.84-.96 1.62-1.56.48-.36.78-.66.96-.84.12-.18.18-.36.18-.54 0-.18-.06-.36-.18-.48s-.3-.18-.48-.18c-.24 0-.36.06-.54.18-.12.12-.24.36-.3.72L9.6 8.7c.06-.48.18-.84.36-1.08.18-.24.42-.48.72-.6s.78-.24 1.32-.24c.6 0 1.02.06 1.38.18.3.12.6.36.78.6.18.3.3.6.3.96s-.12.72-.3 1.02c-.24.36-.6.72-1.14 1.08-.36.24-.54.42-.66.48-.12.12-.24.24-.42.36h2.58v1.44zM15.78 16.86c-.06.3-.3.48-.54.6v4.14h.9v-4.8h-.3l-.06.06zM12.72 17.7c-.42.48-1.02.48-1.44 0-.42-.48-1.2-.6-1.74-.3-.06 0-.06.06-.12.06v4.14l2.64-1.56 2.58 1.56v-4.14c-.06 0-.06-.06-.12-.06-.6-.3-1.38-.12-1.8.3zM8.22 16.86c0-.06 0-.06-.06-.12h-.3v4.8h.9V17.4c-.24 0-.48-.24-.54-.54z"/>
</svg>
