<svg xmlns="http://www.w3.org/2000/svg" width="24" height="24" fill="none" viewBox="0 0 24 24">
    <path fill="#D09F2B" d="M12 2.28c-3.96 0-7.2 3.24-7.2 7.2 0 4.02 3.24 7.2 7.2 7.2s7.2-3.18 7.2-7.2c0-3.96-3.24-7.2-7.2-7.2zm0 13.26c-3.3 0-6-2.7-6-6s2.7-6 6-6 6 2.7 6 6-2.7 6-6 6z"/>
    <path fill="#D09F2B" d="M12 4.62c-2.7 0-4.86 2.22-4.86 4.86 0 2.7 2.22 4.86 4.86 4.86 2.7 0 4.86-2.22 4.86-4.86 0-2.7-2.16-4.86-4.86-4.86zm1.98 7.02c-.12.3-.42.54-.78.72-.36.12-.78.18-1.26.18s-.9-.06-1.2-.18c-.3-.12-.54-.3-.72-.54-.18-.18-.36-.48-.42-.84l1.5-.18c.06.3.12.54.3.6.12.12.3.18.48.18s.36-.06.48-.18.18-.36.18-.6-.06-.48-.18-.6-.36-.18-.54-.18c-.12 0-.3 0-.48.06L11.4 9h.18c.18 0 .36-.06.48-.18s.18-.3.18-.48c0-.12-.06-.3-.12-.42-.06-.06-.18-.12-.42-.12-.18 0-.36.06-.42.12-.12.12-.18.3-.18.54l-1.44-.3c.12-.48.36-.84.72-1.02.36-.3.84-.36 1.44-.36.72 0 1.26.12 1.62.42.36.3.48.6.48 1.02 0 .18-.06.48-.18.6-.12.18-.36.36-.6.48.18.06.36.12.48.18.18.12.36.3.42.42.06.18.12.42.12.72.12.48.06.72-.18 1.02zM15.36 16.98v4.74h.96V16.2s-.66.72-.96.78zM7.68 16.2v5.46h.96v-4.74c-.3 0-.96-.72-.96-.72zM9.24 17.1v4.56L12 19.98l2.7 1.68V17.1c-.06 0-1.26.42-2.64.42-1.26 0-2.76-.42-2.82-.42z"/>
</svg>
