<svg xmlns="http://www.w3.org/2000/svg" width="33" height="33" fill="none" viewBox="0 0 33 33">
    <path fill="#fff" d="M16.134 20.845l-6.582-6.664c-.555-.562-.55-1.52.092-1.994.642-.555 1.679-.469 2.234.093l4.282 4.416 4.576-4.36c.642-.556 1.6-.55 2.234.013.635.562.63 1.44.068 1.995l-6.904 6.501z"/>
    <path fill="#fff" d="M16.134 20.845l-6.582-6.664c-.555-.562-.55-1.52.092-1.994.642-.555 1.679-.469 2.234.093l4.282 4.416 4.576-4.36c.642-.556 1.6-.55 2.234.013.635.562.63 1.44.068 1.995l-6.904 6.501z"/>
</svg>
