<svg xmlns="http://www.w3.org/2000/svg" width="20" height="20" fill="none" viewBox="0 0 20 20">
    <path fill="#FFCD00" d="M9.923 18.682c-4.806 0-8.682-3.876-8.682-8.682 0-4.806 3.876-8.682 8.682-8.682 4.806 0 8.682 3.876 8.682 8.682 0 4.806-3.876 8.682-8.682 8.682zm0-15.659C6.047 3.023 3.1 6.124 3.1 10c0 3.876 3.1 6.822 6.822 6.822 3.72 0 6.821-3.101 6.821-6.822 0-3.72-3.1-6.977-6.821-6.977z"/>
    <path fill="#FFCD00" d="M14.729 12.093H8.837V6.512c0-.465.466-.93.93-.93.466 0 .93.465.93.93v3.72h4.032c.465 0 .93.466.93.931s-.465.93-.93.93z"/>
</svg>
