<svg width="32" height="32" viewBox="0 0 32 32" fill="none" xmlns="http://www.w3.org/2000/svg">
    <path d="M2.388 14.06c.494 0 .895-.134.895-.298 0-.165-.4-.298-.895-.298s-.896.133-.896.298c0 .164.401.297.896.297zM1.095 15.52c.494 0 .895-.137.895-.305 0-.167-.4-.303-.895-.303s-.896.136-.896.303c0 .168.401.304.896.304zM1.095 17.256c.604 0 1.094-.165 1.094-.368 0-.203-.49-.368-1.094-.368-.605 0-1.095.165-1.095.368 0 .203.49.368 1.095.368zM2.557 19.183c.698 0 1.265-.187 1.265-.418 0-.23-.567-.418-1.265-.418s-1.264.187-1.264.418c0 .231.566.418 1.264.418zM24.063 20.746c.687 0 1.244-.131 1.244-.293 0-.161-.557-.292-1.244-.292-.687 0-1.244.13-1.244.292 0 .162.557.293 1.244.293zM5.65 20.578c.758 0 1.373-.188 1.373-.418 0-.231-.615-.418-1.373-.418s-1.373.187-1.373.418c0 .23.615.418 1.373.418zM19.517 21.582c.758 0 1.373-.187 1.373-.418 0-.23-.615-.418-1.373-.418s-1.373.187-1.373.418c0 .23.615.418 1.373.418zM31.655 18.687c-.2.055-.408.081-.615.078-.494 0-.895-.125-.895-.28 0-.157.4-.282.895-.282.175-.001.35.016.522.053a7.506 7.506 0 0 1-.05-.93v-4.75a4.886 4.886 0 0 0-.288-1.596 3.059 3.059 0 0 0-.79-1.291 3.559 3.559 0 0 0-1.783-.866 15.498 15.498 0 0 0-2.833-.209 11.456 11.456 0 0 0-2.042.172 4.667 4.667 0 0 0-1.485.487 3.419 3.419 0 0 0-1.15 1.028 4.566 4.566 0 0 0-.613 1.632l3.749.416c.096-.38.31-.714.607-.952.444-.247.944-.359 1.445-.325.375-.04.75.069 1.05.305.23.3.338.681.3 1.063-.454.19-.917.354-1.388.491-.439.126-1.393.344-2.865.654A4.52 4.52 0 0 0 20.9 14.76a2.97 2.97 0 0 0-.684 2.017c-.005.417.077.83.24 1.21.165.38.407.718.709.988.79.648 1.78.965 2.78.891a6.113 6.113 0 0 0 2.418-.446c.12-.05.227-.11.34-.174a.407.407 0 0 1 .085-.049 5.718 5.718 0 0 0 1.107-.891c.029.231.073.46.134.684 0 .014.016.036.02.051.61.02 1.083.14 1.083.289 0 .126-.345.234-.822.274l.009.019H32c-.14-.301-.256-.614-.345-.936zm-3.977-3.514c.017.432-.065.862-.239 1.255a1.978 1.978 0 0 1-.8.816 2.353 2.353 0 0 1-1.218.334 1.32 1.32 0 0 1-.95-.309 1.055 1.055 0 0 1-.24-.353 1.102 1.102 0 0 1 0-.85c.056-.133.138-.253.24-.352.455-.33.97-.554 1.513-.66a17.88 17.88 0 0 0 1.687-.536l.007.655zM18.215 18.608v-9.8h-3.538v1.535a4.234 4.234 0 0 0-1.4-1.358 3.923 3.923 0 0 0-1.9-.41 3.62 3.62 0 0 0-1.59.3 3.79 3.79 0 0 0-1.327.97 5.44 5.44 0 0 0-1.116 3.692 6.033 6.033 0 0 0 .866 3.41 3.82 3.82 0 0 0 1.374 1.344c.559.318 1.186.48 1.822.473a3.53 3.53 0 0 0 1.67-.372c.521-.26.977-.644 1.33-1.123v1.573a2.448 2.448 0 0 1-.404 1.603 1.574 1.574 0 0 1-.563.367c-.21.079-.435.11-.658.092a1.744 1.744 0 0 1-1.05-.304 1.267 1.267 0 0 1-.428-.742l-3.67-.439a9.1 9.1 0 0 0-.018.527c-.016.48.076.959.269 1.395.193.436.48.819.84 1.116a6.522 6.522 0 0 0 4.085.937c.775.01 1.55-.072 2.309-.243.603-.13 1.172-.4 1.663-.792a3.895 3.895 0 0 0 1.05-1.431 4.52 4.52 0 0 0 .394-1.86l-.01-.46zm-8.488 2.808c-.894 0-1.619-.188-1.619-.42 0-.23.725-.417 1.62-.417.893 0 1.618.187 1.618.418 0 .23-.722.42-1.619.42zm4.23-5.93c-.15.176-.333.318-.538.415a1.549 1.549 0 0 1-1.305.01 1.619 1.619 0 0 1-.545-.406 2.553 2.553 0 0 1-.454-1.664 3.023 3.023 0 0 1 .43-1.833c.14-.18.317-.322.518-.418.2-.096.42-.142.64-.134.235-.002.466.051.678.155.212.104.4.257.549.446a2.64 2.64 0 0 1 .5 1.734 2.564 2.564 0 0 1-.473 1.695zm.497 6.431c-.895 0-1.62-.206-1.62-.46 0-.253.725-.46 1.62-.46.894 0 1.618.206 1.618.46 0 .255-.724.46-1.618.46z" fill="#90949C"/>
</svg>
