<svg xmlns="http://www.w3.org/2000/svg" width="99" height="25" fill="none" viewBox="0 0 99 25">
    <path fill="#B5B5B5" d="M9.485 3.741c.21-.129.447-.209.693-.234.246-.024.495.007.727.092l-.135.72c-.256-.092-.536-.092-.792 0-.118.052-.219.135-.291.241-.073.106-.115.23-.121.359-.014.13.011.263.071.38.06.117.154.214.268.28.115.065.246.095.378.088.131-.008.257-.054.363-.133-.053-.226-.104-.452-.155-.679l.71-.16.302 1.301c-.365.247-.79.392-1.23.419-.192.015-.385-.012-.566-.08-.18-.067-.344-.174-.48-.311-.261-.299-.405-.683-.402-1.08-.004-.242.054-.48.17-.692.114-.213.281-.393.485-.523l.005.012zm3.423.108c.211-.173.465-.287.735-.329.27-.042.546-.011.8.09l-.075.827c-.154-.096-.332-.148-.514-.15-.116-.003-.231.023-.335.077-.103.054-.191.133-.256.23-.076.126-.108.275-.09.422.018.146.085.283.19.387.117.105.262.174.417.202.155.027.314.01.46-.048-.059.277-.12.557-.174.84-.413.038-.824-.077-1.158-.323-.14-.11-.257-.25-.342-.407-.085-.158-.138-.331-.154-.51-.027-.241.003-.485.09-.713.086-.227.225-.43.406-.592v-.003zm3.642 1.03c.354-.064.72.012 1.019.211.3.2.51.507.588.858.082.382.01.782-.2 1.111-.134.217-.321.396-.543.522-.222.126-.472.194-.727.198-.204-.002-.405-.05-.589-.139-.184-.089-.346-.217-.475-.375-.128-.159-.22-.344-.27-.542-.05-.198-.055-.404-.016-.604.052-.306.196-.588.413-.81.217-.22.496-.37.8-.429zm.08.77c-.175.041-.33.148-.43.298-.101.15-.142.332-.114.511.028.165.119.312.253.412.134.1.3.145.467.126.164-.022.315-.1.428-.22.114-.12.182-.275.195-.44.007-.096-.007-.192-.04-.282-.034-.09-.087-.172-.156-.239-.078-.076-.174-.13-.279-.16-.105-.03-.215-.031-.321-.007h-.002zm-11.07.257c.207-.182.416-.36.623-.542.84.507 1.687 1.005 2.53 1.508-.192.17-.386.337-.58.507l-.283-.172c-.247.215-.49.433-.74.646.038.103.08.205.12.308-.193.164-.38.336-.575.497L5.56 5.906h.002zm.84.396c.13.297.26.594.395.89l.431-.375c-.274-.173-.548-.35-.826-.515zm11.074 2.685c.818-.45 1.631-.904 2.448-1.354.136.24.266.48.4.72.15.244.22.528.2.814-.037.181-.132.345-.27.469-.138.123-.312.199-.496.216-.088.009-.176 0-.26-.027-.084-.027-.162-.07-.228-.128-.256.376-.514.749-.769 1.126-.137-.228-.26-.465-.392-.696l.765-1.08-1.045.578c-.12-.214-.24-.426-.353-.64v.002zm1.652-.087c.044.104.117.193.21.257.052.025.11.036.168.034.057-.003.114-.02.164-.049s.093-.07.124-.119c.03-.049.05-.104.054-.162-.01-.107-.047-.209-.109-.297-.201.12-.406.227-.611.336zm-15.07-.894c.106-.059.224-.093.346-.1.12-.007.242.013.355.06.154.047.298.125.422.23.124.104.225.233.298.378.052.14.073.291.06.441-.013.15-.058.295-.133.425-.033.053-.058.11-.076.17.212.127.43.24.648.36-.12.21-.24.42-.36.634-.815-.45-1.628-.907-2.446-1.352.11-.207.225-.412.337-.617.124-.255.314-.473.55-.63l-.001.001zm.053.933c.198.105.392.22.589.328.063-.093.098-.203.102-.315-.014-.088-.06-.166-.13-.222-.068-.056-.155-.084-.243-.08-.074.017-.142.052-.198.102-.055.05-.097.115-.12.187zm-1.214 2.303c.093-.024.19-.02.281.01.09.032.17.088.23.163.025.046.04.096.046.148.006.052.002.105-.013.155-.304 2.156.214 4.348 1.452 6.139 1.59.005 3.18.007 4.769.007.223-.674.451-1.347.674-2.02.037-.149.098-.29.181-.418.056-.082.132-.148.221-.191.09-.043.188-.062.287-.055.076.01.147.036.21.08.063.042.114.1.15.167.072.149.096.317.066.48-.275 2.127-.55 4.254-.823 6.382-2.065-.307-3.972-1.288-5.422-2.79-1.374-1.416-2.278-3.222-2.59-5.17-.147-.942-.147-1.9 0-2.843.018-.064.055-.12.105-.164.05-.042.113-.069.179-.076l-.003-.005zm17.763.088c.09-.061.196-.094.305-.094.109 0 .215.033.305.094.105.073.107.21.12.324.171 1.258.083 2.538-.26 3.76-.506 1.796-1.523 3.407-2.928 4.637-1.364 1.199-3.047 1.978-4.844 2.242l-.828-6.379c-.033-.176 0-.358.09-.512.044-.07.107-.127.182-.165.074-.038.157-.055.24-.049.147.027.283.1.387.207.105.108.173.245.195.393.23.694.464 1.386.694 2.08 1.588.006 3.177 0 4.767 0 1.247-1.799 1.765-4.004 1.45-6.17-.018-.065-.016-.133.005-.197.022-.065.062-.121.115-.162l.005-.009zm-16.871.328c.02-.05.048-.094.085-.131.037-.038.08-.068.128-.089.049-.02.1-.031.153-.032.053 0 .105.01.154.03.088.026.162.083.21.161.049.078.066.171.05.261-.28 1.948.21 3.929 1.368 5.52h-.972c-.547-.905-.933-1.898-1.143-2.935-.176-.92-.187-1.864-.033-2.789v.004zm15.652-.033c.037-.068.093-.124.16-.162.067-.039.144-.058.221-.055.078.003.154.027.218.07.065.042.116.102.15.173.198 1.19.123 2.412-.22 3.57-.229.757-.55 1.483-.96 2.16h-.971c1.153-1.58 1.645-3.547 1.373-5.484-.022-.09-.013-.186.025-.27l.004-.002zm-14.473.256c.015-.052.04-.101.074-.143.034-.043.077-.077.124-.103.048-.025.101-.04.155-.046.054-.004.109.002.16.02.092.019.173.074.226.152.052.079.071.175.054.268-.174 1.182-.007 2.389.48 3.48.31.694.741 1.327 1.273 1.87H6.445c-.613-.765-1.06-1.649-1.316-2.595-.255-.947-.31-1.936-.165-2.905l.002.002zm13.238.118c-.009-.094.018-.187.075-.26.058-.074.142-.123.234-.138.1-.027.207-.013.297.038.09.052.156.137.183.237.148.969.095 1.958-.158 2.904-.253.947-.699 1.831-1.31 2.597h-1.08c.692-.697 1.212-1.547 1.517-2.481.306-.934.387-1.927.24-2.899l.002.002zm-12.054.088c.01-.075.043-.145.095-.2.052-.055.12-.093.195-.107.09-.023.185-.018.272.017.086.035.159.096.208.175.04.093.049.197.023.296-.16 1.211.121 2.44.79 3.463.443.675 1.034 1.24 1.73 1.65H8.159c-.02.002-.039 0-.057-.007-.018-.007-.034-.018-.047-.032-.755-.68-1.323-1.544-1.65-2.508-.3-.881-.385-1.822-.25-2.743l-.005-.004zm10.91-.128c.039-.054.089-.099.147-.131.058-.032.123-.05.19-.054.066-.003.132.008.193.034.062.026.116.065.16.115.062.106.093.226.092.348.104.939-.017 1.889-.353 2.771-.336.883-.876 1.673-1.577 2.306-.035.041-.091.031-.138.034-.424 0-.847.006-1.27 0 .778-.455 1.425-1.104 1.878-1.884.569-.983.793-2.127.64-3.252-.025-.098-.011-.202.038-.29v.003z"/>
    <path fill="#B5B5B5" d="M11.867 7.759c.038-.252.06-.506.11-.756.15 1.08.29 2.15.44 3.224.371-.464.739-.932 1.112-1.397-.052.615-.112 1.228-.164 1.841.683-.439 1.364-.883 2.049-1.32-.442.683-.882 1.365-1.32 2.049l1.931-.228c-.516.384-1.038.76-1.553 1.146.742.16 1.487.308 2.229.473-.764.194-1.534.36-2.3.549.52.376 1.04.75 1.56 1.13-.67-.073-1.34-.152-2.01-.226.443.662.9 1.314 1.34 1.977-.65-.398-1.294-.804-1.94-1.21-.146-.073-.314-.092-.473-.053-.16.04-.3.134-.394.267-.06.09-.098.191-.11.298l-.393 2.867c-.144-.974-.26-1.952-.402-2.926-.024-.1-.07-.194-.135-.274-.065-.08-.147-.143-.24-.187-.093-.044-.195-.066-.298-.065-.103.001-.205.026-.297.071-.648.406-1.293.816-1.947 1.213.448-.66.902-1.32 1.352-1.978-.675.073-1.348.155-2.023.224.522-.375 1.042-.752 1.56-1.13l-2.298-.544c.74-.172 1.487-.31 2.227-.48-.51-.382-1.027-.754-1.535-1.138.64.069 1.28.15 1.92.224-.437-.68-.88-1.356-1.312-2.04.681.43 1.353.877 2.032 1.311-.051-.612-.111-1.224-.162-1.836.376.46.738.93 1.111 1.392.112-.823.223-1.646.336-2.468h-.003zM31.983 6.39s-3.442.017-3.442-.033v13.02h3.36v-3.493h1.48s4.024-.182 4.024-4.938c0-4.755-5.422-4.556-5.422-4.556zm-.067 6.252V9.467s2.178-.184 2.178 1.662c0 1.845-2.178 1.51-2.178 1.51v.003zM45.252 6.337H41.51l-4.54 13.068h3.492l.532-1.463h4.573l.466 1.414h3.657l-4.438-13.02zM41.925 14.7l1.298-4.223 1.38 4.223h-2.678zM59.517 10.494l1.414-3.11c-1.267-.848-2.766-1.284-4.29-1.247-.909-.042-1.816.107-2.663.439-.847.331-1.615.838-2.253 1.485-.638.648-1.133 1.423-1.453 2.275-.319.851-.454 1.76-.4 2.668 0 5.737 4.607 6.65 7.118 6.65 1.43.023 2.851-.249 4.173-.797V12.72h-3.375v3.126c-.389.239-.843.35-1.297.317-.427.032-.855-.029-1.256-.178-.401-.15-.765-.385-1.067-.688-.301-.303-.534-.668-.681-1.07-.147-.402-.206-.83-.172-1.257-.02-.427.047-.853.196-1.253.149-.4.376-.766.67-1.077.292-.31.645-.558 1.036-.73.391-.17.813-.26 1.24-.265 1.087-.076 2.167.224 3.06.848zM71.273 10.177l-.15-3.823c-.654-.154-1.324-.227-1.995-.217-.882 0-6.651.4-6.651 6.734 0 6.335 5.603 6.8 6.933 6.8.576.058 1.157-.022 1.696-.232l.283-3.96c-.616.325-1.3.501-1.996.514-.424.04-.852-.007-1.256-.14-.405-.134-.777-.35-1.094-.633-.317-.285-.573-.632-.75-1.02-.175-.387-.27-.807-.276-1.233-.024-.422.044-.845.197-1.24.153-.394.388-.75.69-1.046.303-.296.666-.523 1.063-.667.398-.144.822-.2 1.244-.167.701-.012 1.4.1 2.062.33zM79.22 6.01c-1.372-.06-2.73.294-3.899 1.013-1.17.72-2.096 1.773-2.662 3.024-.566 1.25-.744 2.642-.513 3.995.232 1.354.864 2.606 1.813 3.598.95.991 2.175 1.676 3.517 1.965 1.342.29 2.74.17 4.014-.341 1.275-.512 2.366-1.393 3.135-2.53.769-1.138 1.18-2.48 1.18-3.853.037-1.784-.635-3.51-1.87-4.798-1.235-1.29-2.93-2.035-4.715-2.074zm0 10.086c-.642.028-1.276-.138-1.823-.474-.547-.337-.98-.83-1.245-1.415-.264-.585-.348-1.236-.24-1.868.109-.633.404-1.22.848-1.683.444-.463 1.017-.784 1.645-.919.628-.135 1.281-.08 1.877.16.596.239 1.107.651 1.467 1.183.36.532.552 1.16.552 1.802.017.834-.297 1.642-.875 2.245-.578.603-1.371.951-2.206.97zM94.385 13.703c.636-.276 1.173-.739 1.541-1.327.368-.588.55-1.273.52-1.966 0-2.543-1.945-4.04-5.238-4.04l-3.757-.016v13.019h3.36v-5.287l2.726 5.287h3.692l-2.844-5.67zm-2.695-1.247h-.831V9.247h.882c.381.058.727.258.967.56.24.302.358.684.329 1.069.025.386-.1.768-.352 1.063-.252.295-.609.48-.995.517z"/>
</svg>
