<svg width="40" height="40" viewBox="0 0 40 40" fill="none" xmlns="http://www.w3.org/2000/svg">
    <path d="M16.074 12.043a4.434 4.434 0 0 1 2.458-1.775 3.088 3.088 0 0 0-.473.43 2.89 2.89 0 0 1 1.522.202c.06.45.094.905.166 1.354.059-.451.104-.903.16-1.354.464-.2.984-.271 1.485-.2l.034.026c0-.008.003-.023.004-.03-.155-.148-.298-.308-.477-.428.996.278 1.88.921 2.456 1.774-.17-.13-.363-.22-.554-.312.22.462.332.98.278 1.492-.417.193-.842.372-1.254.575.45-.08.898-.179 1.347-.267.352.385.571.874.671 1.38.1-.179.197-.36.258-.556a4.352 4.352 0 0 1-.917 2.81c.057-.19.087-.386.113-.582a2.888 2.888 0 0 1-1.341.725c-.319-.338-.624-.688-.95-1.019.22.406.455.804.68 1.206-.261.449-.66.81-1.116 1.056.196.035.393.067.593.073a4.458 4.458 0 0 1-2.952 0c.2-.005.4-.038.597-.073a2.853 2.853 0 0 1-1.117-1.056c.225-.402.462-.799.68-1.205-.327.331-.63.684-.953 1.019a2.896 2.896 0 0 1-1.337-.727c.026.198.055.396.113.587a4.365 4.365 0 0 1-.92-2.814c.065.197.163.38.262.561.094-.51.32-1 .67-1.386.45.088.897.187 1.348.268-.413-.205-.838-.383-1.256-.577a2.807 2.807 0 0 1 .279-1.49c-.193.091-.387.184-.557.313zm3.669.415-1.94 1.4.742 2.27c.8-.002 1.6.002 2.4-.003.243-.757.496-1.511.738-2.269-.648-.464-1.293-.933-1.94-1.398z" fill="#fff"/>
    <path d="M18.528 0h.095c.053.046.103.1.108.173.35 1.87.701 3.741 1.05 5.612.03.094-.024.206-.127.219-.71.126-1.401.361-2.033.708a6.535 6.535 0 0 0-2.54 2.475c-.037.065-.087.141-.174.138-.115-.022-.209-.097-.31-.152C13.01 8.254 11.42 7.337 9.83 6.42c-.067-.037-.135-.103-.115-.186.04-.12.118-.22.179-.328a12.702 12.702 0 0 1 5.219-4.774A13.02 13.02 0 0 1 18.528 0z" fill="#951B80"/>
    <path d="M21.727 1.414a12.81 12.81 0 0 1 8.584 3.015c.057.05.12.096.169.155.044.072.018.164-.04.22l-3.756 4.31c-.04.042-.083.09-.145.089-.08.005-.134-.06-.19-.104a6.598 6.598 0 0 0-5.25-1.511c-.071.006-.153.033-.214-.016-.051-.029-.066-.09-.073-.144l-.804-5.404c-.014-.104-.037-.207-.041-.312-.003-.078.065-.143.141-.152a12.627 12.627 0 0 1 1.619-.146z" fill="#E40613"/>
    <path d="M7.587 6.382c.065-.039.14-.017.2.017 1.694.906 3.39 1.807 5.084 2.713.108.049.107.188.042.272a6.494 6.494 0 0 0-.354 5.448c.023.074.075.154.032.23-.04.08-.137.094-.21.128-1.76.671-3.52 1.347-5.279 2.02-.074.033-.173.027-.22-.047-.058-.112-.094-.233-.14-.35a12.595 12.595 0 0 1 .755-10.316c.025-.041.047-.089.09-.115z" fill="#01509F"/>
    <path d="M30.065 6.696c.066-.04.147-.01.198.04a12.609 12.609 0 0 1 3.295 5.018c.449 1.256.687 2.583.727 3.915v.68c-.008.119-.006.24-.03.357-.03.086-.129.107-.21.099-1.918-.095-3.836-.183-5.753-.28-.118.005-.181-.118-.16-.222a6.504 6.504 0 0 0-2.017-5.058c-.055-.055-.123-.105-.146-.182-.013-.072.038-.13.083-.18 1.27-1.328 2.537-2.658 3.806-3.987.067-.068.127-.146.207-.2z" fill="#F28800"/>
    <path d="M19.128 9.755a4.822 4.822 0 0 1 3.837 1.197 4.746 4.746 0 0 1 .506 6.539 4.82 4.82 0 0 1-6.915.563 4.744 4.744 0 0 1-.818-6.199 4.817 4.817 0 0 1 3.39-2.1zm-3.054 2.288c.17-.13.364-.222.557-.312-.22.46-.331.98-.279 1.489.418.194.843.372 1.256.576-.451-.08-.899-.18-1.348-.267-.35.386-.576.876-.67 1.386a3.341 3.341 0 0 1-.261-.56 4.364 4.364 0 0 0 .919 2.813 3.659 3.659 0 0 1-.113-.587c.372.353.835.612 1.337.727.322-.335.626-.688.952-1.019-.217.406-.454.803-.679 1.205.262.449.66.81 1.117 1.056a3.849 3.849 0 0 1-.597.072 4.459 4.459 0 0 0 2.952.001 4.004 4.004 0 0 1-.593-.073 2.853 2.853 0 0 0 1.117-1.056c-.226-.402-.462-.8-.681-1.206.326.331.631.681.95 1.02a2.888 2.888 0 0 0 1.341-.726 3.869 3.869 0 0 1-.113.582 4.352 4.352 0 0 0 .917-2.81c-.061.196-.159.377-.258.557-.1-.507-.32-.996-.67-1.38-.45.087-.897.186-1.348.266.412-.203.837-.382 1.254-.575a2.811 2.811 0 0 0-.278-1.492c.191.091.385.182.554.312a4.434 4.434 0 0 0-2.456-1.774c.179.12.322.28.477.427l-.004.031-.034-.026c-.5-.071-1.021 0-1.485.2-.057.45-.101.903-.16 1.354-.072-.449-.105-.903-.166-1.354a2.89 2.89 0 0 0-1.522-.201c.148-.154.296-.31.473-.43a4.434 4.434 0 0 0-2.458 1.774z" fill="#1D1D1B"/>
    <path d="M19.743 12.458c.647.465 1.292.934 1.94 1.399-.242.757-.495 1.51-.738 2.268-.8.005-1.6 0-2.4.003-.247-.757-.495-1.513-.741-2.27l1.939-1.4z" fill="#1D1D1B"/>
    <path d="M11.13 16.483c.11-.064.231.016.26.128.743 1.752 2.3 3.136 4.131 3.677.11.016.197.123.15.233-.57 1.827-1.144 3.653-1.717 5.479-.02.113-.145.17-.247.122a12.685 12.685 0 0 1-4.017-2.06 12.672 12.672 0 0 1-3.976-5.113v-.079a.292.292 0 0 1 .15-.125c1.757-.752 3.51-1.51 5.267-2.262z" fill="#0090D7"/>
    <path d="M26.413 17.205a.446.446 0 0 1 .13-.004c1.905.15 3.81.295 5.716.444a.166.166 0 0 1 .17.197 12.59 12.59 0 0 1-2.648 6.85 12.67 12.67 0 0 1-2.572 2.475c-.076.067-.199.042-.25-.042-1.095-1.482-2.188-2.964-3.282-4.447-.061-.092-.15-.172-.178-.281-.015-.1.08-.156.148-.207a6.523 6.523 0 0 0 2.648-4.72c.006-.097.003-.232.118-.265z" fill="#FEED01"/>
    <path d="M21.668 21.32c.086-.041.176.02.217.096 1.069 1.585 2.142 3.168 3.21 4.754.091.113-.008.246-.12.293a12.822 12.822 0 0 1-10.539 1.668c-.097-.019-.152-.129-.116-.219.51-1.845 1.024-3.69 1.535-5.535.019-.116.15-.17.253-.121a6.61 6.61 0 0 0 4.344-.273 7.392 7.392 0 0 0 1.216-.662z" fill="#00963F"/>
    <path d="M5.81 31.794h1.673v4.946h2.024c0 .486.002.972 0 1.458H5.81c-.002-2.135 0-4.27 0-6.404zM16.216 31.793h1.674v4.947c.675.002 1.35-.004 2.025.003v1.453h-3.699v-6.403zM10.878 33.425c.413-.307.93-.472 1.445-.46.309.003.62.072.89.223.198.107.373.251.542.4v-.523h1.542v5.13h-1.566v-.494a2.218 2.218 0 0 1-1.58.621c-.54-.004-1.089-.174-1.502-.526-.407-.34-.665-.829-.78-1.339a3.393 3.393 0 0 1-.04-1.317 2.74 2.74 0 0 1 1.049-1.715zm1.396 1.014c-.255.058-.49.202-.65.409-.31.398-.329.968-.122 1.417.141.313.43.56.77.631.518.114 1.108-.118 1.369-.587.303-.531.184-1.284-.311-1.66-.295-.228-.697-.293-1.056-.21zM24.017 33.242c.48-.281 1.07-.341 1.609-.216.387.089.718.328.988.612v-.573h1.49v3.92c-.005.352.021.708-.035 1.058a2.182 2.182 0 0 1-.753 1.355c-.468.392-1.083.572-1.687.602h-.314c-.515-.026-1.035-.15-1.475-.427a1.919 1.919 0 0 1-.909-1.362h1.749c.075.107.153.218.264.292.185.125.419.13.634.124.314-.015.659-.118.845-.387.163-.234.122-.533.118-.8a2.552 2.552 0 0 1-1.086.548 2.125 2.125 0 0 1-1.335-.17c-.554-.264-.957-.782-1.143-1.358a3.076 3.076 0 0 1 .037-1.979c.184-.507.53-.966 1.003-1.239zm1.094 1.097c-.34.093-.592.385-.691.714-.139.448-.084.984.236 1.346.31.351.855.405 1.271.225.254-.109.46-.317.574-.566.163-.342.151-.75.013-1.098a1.024 1.024 0 0 0-.588-.581 1.357 1.357 0 0 0-.815-.04zM29.895 33.404a2.352 2.352 0 0 1 1.893-.38c.368.089.681.315.957.564v-.523h1.54v5.13H32.72c0-.164-.001-.329 0-.493a2.214 2.214 0 0 1-.63.426c-.606.274-1.325.248-1.93-.009-.557-.237-.983-.724-1.188-1.285a3.318 3.318 0 0 1-.146-1.733c.13-.67.508-1.298 1.069-1.697zm1.346 1.04c-.22.054-.424.173-.575.342-.348.384-.39.972-.193 1.437.122.295.368.542.676.642.514.167 1.132-.029 1.433-.48.356-.524.26-1.317-.239-1.718-.303-.247-.727-.317-1.102-.223zM21.184 30.841a.969.969 0 0 1 .753.143c.28.188.44.534.397.868a.955.955 0 0 1-.715.817.928.928 0 0 1-.927-.276.96.96 0 0 1-.099-1.12.94.94 0 0 1 .591-.432zM20.607 33.065h1.558v5.13h-1.558v-5.13z" fill="#fff"/>
</svg>
