<svg width="32" height="32" viewBox="0 0 32 32" fill="none" xmlns="http://www.w3.org/2000/svg">
<path fill-rule="evenodd" clip-rule="evenodd" d="M8 0H23.9746C28.3937 0 32 3.60635 32 8.0254V23.9746C32 28.3937 28.3937 32 23.9746 32H8C3.60635 32 0 28.3937 0 24V8.0254C0 3.60635 3.60635 0 8 0ZM25.7524 20.1651C25.7524 20.1651 25.9048 18.4635 25.9048 16.7873V15.2127C25.9048 13.5365 25.7524 11.8349 25.7524 11.8349C25.7524 11.8349 25.6 10.3873 24.9905 9.75238C24.2983 9.01401 23.5222 8.92552 23.1003 8.87741C23.0578 8.87257 23.019 8.86814 22.9841 8.86349C20.1905 8.66032 16 8.63492 16 8.63492C16 8.63492 11.8095 8.66032 8.99048 8.86349C8.95737 8.86791 8.9208 8.87213 8.88114 8.87671C8.46442 8.92484 7.70521 9.01252 7.00952 9.77778C6.4254 10.4127 6.24762 11.8349 6.24762 11.8349C6.24762 11.8349 6.09524 13.5365 6.09524 15.2127V16.7873C6.09524 18.4635 6.24762 20.1651 6.24762 20.1651C6.24762 20.1651 6.4 21.5873 7.00952 22.2222C7.65045 22.9272 8.4711 23.0212 8.97256 23.0786C9.06721 23.0895 9.15049 23.099 9.21905 23.1111C10.819 23.2635 16.0254 23.3397 16.0254 23.3397C16.0254 23.3397 20.2159 23.3143 23.0095 23.1111C23.0495 23.1058 23.0945 23.101 23.144 23.0958C23.5656 23.0511 24.3086 22.9723 24.9905 22.2222C25.5746 21.5873 25.7524 20.1651 25.7524 20.1651ZM13.9429 18.6921V12.8508L19.327 15.7968L13.9429 18.6921Z" fill="#E62703"/>
</svg>
