<svg xmlns="http://www.w3.org/2000/svg" width="100" height="25" fill="none" viewBox="0 0 100 25">
    <path fill="#fff" d="M32 6.418h-3.44v13.04h3.36v-3.52h1.44s4-.16 4-4.96c.08-4.8-5.36-4.56-5.36-4.56zm-.08 6.24v-3.2s2.16-.16 2.16 1.68c0 1.84-2.16 1.52-2.16 1.52zM45.28 6.337h-3.76l-4.56 13.04h3.52l.56-1.44h4.56l.48 1.44h3.68l-4.48-13.04zm-3.36 8.4l1.28-4.24 1.36 4.24h-2.64zM59.52 10.498l1.44-3.12s-1.6-1.28-4.32-1.28c-2.16 0-6.8 1.12-6.8 6.88s4.64 6.64 7.12 6.64c2.48 0 4.16-.8 4.16-.8v-6.16h-3.36v3.12s-.4.32-1.28.32-3.2-.32-3.2-3.2c0-2.88 2.48-3.36 3.12-3.36.64 0 2.08.08 3.12.96zM71.28 10.178l-.16-3.84s-.8-.24-2-.24c-.88 0-6.64.4-6.64 6.72 0 6.32 5.6 6.8 6.96 6.8 1.36 0 1.68-.24 1.68-.24l.32-3.92s-.88.48-2 .48-3.36-.48-3.36-3.04 1.92-3.12 3.2-3.12c1.2.08 2 .4 2 .4zM79.2 6.018c-3.6 0-6.56 3.04-6.56 6.88s2.96 6.88 6.56 6.88c3.6 0 6.56-3.04 6.56-6.88s-2.88-6.88-6.56-6.88zm0 10.08c-1.68 0-3.12-1.44-3.12-3.2 0-1.76 1.36-3.2 3.12-3.2s3.12 1.44 3.12 3.2c0 1.76-1.36 3.2-3.12 3.2zM94.4 13.697s2.08-.72 2.08-3.28c0-2.56-1.92-4.08-5.2-4.08h-3.76v13.04h3.36v-5.28l2.72 5.28h3.68l-2.88-5.68zm-2.72-1.28h-.8v-3.2h.88s1.28.16 1.28 1.6c0 1.52-1.36 1.6-1.36 1.6z"/>
    <path fill="#FCD116" fill-rule="evenodd" d="M11.948 18.326c-.449-2.62.337-4.96-3.253-2.118l1.122-1.894-1.907.278 1.514-1.17-2.243-.501 2.243-.502-1.458-1.114 1.963.278L8.751 9.69l1.851 1.17-.28-1.839L11.5 10.47l.448-3.065.449 3.065 1.122-1.449-.168 1.783L15.2 9.69l-1.121 1.839 1.85-.223-1.458 1.114 2.076.502-2.132.501 1.458 1.115-1.794-.223 1.178 1.894c-3.646-2.786-2.805-.445-3.31 2.118z" clip-rule="evenodd"/>
    <path fill="#006C35" fill-rule="evenodd" d="M12.51 15.762c-.057-.223.224-.446.448-.501.168 0 .393.167.449.334.28.891.785 2.285.785 2.285h4.767c1.347-1.95 1.795-3.845 1.515-6.018 0-.168.056-.446.336-.446.337-.056.393.39.45.557.672 5.126-3.142 9.751-7.966 10.253.056.056-.504-4.57-.785-6.464z" clip-rule="evenodd"/>
    <path fill="#006C35" fill-rule="evenodd" d="M20.137 12.085c-.056-.167-.056-.502-.392-.446-.337 0-.337.39-.337.557.168 2.23-.224 3.455-1.402 5.238h.953c1.066-1.839 1.403-3.51 1.178-5.35z" clip-rule="evenodd"/>
    <path fill="#006C35" fill-rule="evenodd" d="M18.96 12.252c-.057-.167-.057-.502-.393-.446-.337 0-.337.39-.337.557.056 2.34-.28 3.344-1.739 5.015h1.01c1.178-1.671 1.682-3.287 1.458-5.126z" clip-rule="evenodd"/>
    <path fill="#006C35" fill-rule="evenodd" d="M17.725 12.475c-.056-.167-.056-.502-.392-.446-.337 0-.337.39-.337.557.169 2.23-.897 3.957-2.524 4.848h1.402c1.459-1.56 2.132-3.12 1.851-4.96zM11.387 15.762c.056-.223-.224-.446-.449-.501-.168 0-.392.167-.448.334-.28.891-.785 2.285-.785 2.285H4.937c-1.346-1.95-1.795-3.845-1.514-6.018 0-.168-.057-.446-.337-.446-.337-.056-.393.39-.449.557-.673 5.126 3.141 9.751 7.965 10.253 0 .056.56-4.514.785-6.464z" clip-rule="evenodd"/>
    <path fill="#006C35" fill-rule="evenodd" d="M3.759 12.085c.056-.167.056-.502.393-.446.336 0 .336.39.336.557-.168 2.23.224 3.455 1.402 5.238h-.953c-1.01-1.783-1.402-3.51-1.178-5.35z" clip-rule="evenodd"/>
    <path fill="#006C35" fill-rule="evenodd" d="M4.937 12.307c.056-.167.056-.501.392-.445.337 0 .337.39.337.557-.056 2.34.28 3.343 1.739 5.015h-1.01c-1.178-1.728-1.683-3.288-1.458-5.127z" clip-rule="evenodd"/>
    <path fill="#006C35" fill-rule="evenodd" d="M6.17 12.475c.057-.167.057-.502.393-.446.337 0 .337.39.337.557-.168 2.23.897 3.957 2.524 4.848H8.022c-1.459-1.56-2.076-3.12-1.851-4.96zM4.881 6.958c-.112 0-.28.056-.393.112-.28.167-.729.891-.729.891l1.907 1.393.337-.445-.561-.39s.168-.223.224-.39c.225-.725-.336-1.17-.785-1.17zm0 .613c.056 0 .112 0 .168.056.225.167.056.502.056.502l-.504-.335s.112-.223.28-.223zM7.068 4.73l-.505.334.561 2.563.505-.334-.056-.335.73-.445.224.167.504-.39-1.963-1.56zm.112.78l.617.557-.448.278-.169-.835zM11.107 3.504l-.112.557c-.337-.112-.561-.056-.785.056-.225.111-.281.39-.281.612 0 .39.393.725 1.01.502l-.113-.613.561-.111.225 1.114c-1.122.613-2.02.056-2.188-.724-.168-1.115.786-1.505 1.683-1.393zM14.136 5.343l-.169.668c-.841-.111-1.458-.445-1.346-1.448.112-.725.897-1.17 1.795-.948l-.168.725c-.505-.335-1.066-.112-1.066.39 0 .501.449.668.954.613z" clip-rule="evenodd"/>
    <path fill="#006C35" d="M16.323 4.618c-.673 0-1.178.557-1.178 1.226 0 .669.56 1.226 1.178 1.226.673 0 1.178-.557 1.178-1.226.056-.669-.505-1.226-1.178-1.226zm0 .613c.336 0 .617.279.617.613 0 .334-.28.613-.617.613-.337 0-.617-.279-.617-.613 0-.334.28-.613.617-.613z"/>
    <path fill="#006C35" fill-rule="evenodd" d="M19.184 6.68L17.22 8.073l.392.501.786-.557-.505.947.392.557.505-1.058c.505.167 1.234-.223 1.066-.836-.056-.279-.673-.947-.673-.947zm-.056.78s.28.278.056.446c-.225.167-.505-.112-.505-.112l.449-.334z" clip-rule="evenodd"/>
</svg>
