<svg width="32" height="32" viewBox="0 0 32 32" fill="none" xmlns="http://www.w3.org/2000/svg">
<path d="M23.9556 0H8.01903C3.60349 0 0 3.60635 0 8.0254V24C0 28.3937 3.60349 32 8.01903 32H23.981C28.3965 32 32 28.3937 32 23.9746V8.0254C31.9746 3.60635 28.3711 0 23.9556 0ZM23.9302 11.9873C23.9302 12.1651 23.9302 12.3429 23.9302 12.5206C23.9302 17.854 19.8192 24 12.2823 24C9.97304 24 7.81602 23.3397 6.01427 22.1968C6.34417 22.2222 6.64869 22.2476 6.97859 22.2476C8.90722 22.2476 10.6582 21.6127 12.0539 20.5206C10.2522 20.4952 8.75496 19.327 8.22205 17.727C8.47581 17.7778 8.72958 17.8032 8.98335 17.8032C9.364 17.8032 9.74465 17.7524 10.0745 17.6508C8.24742 17.2698 6.85171 15.6444 6.85171 13.6889V13.6381C7.35924 13.9429 8.01903 14.1206 8.67883 14.146C7.58763 13.4349 6.85171 12.1905 6.85171 10.7937C6.85171 10.0571 7.05472 9.37143 7.40999 8.76191C9.44013 11.2 12.4346 12.8 15.8351 12.9778C15.7589 12.673 15.7335 12.3683 15.7335 12.0635C15.7335 9.82857 17.5607 8.0254 19.8192 8.0254C20.9865 8.0254 22.0523 8.50794 22.8136 9.29524C23.7526 9.11746 24.6154 8.7873 25.4021 8.30476C25.0975 9.24445 24.4377 10.0317 23.6003 10.5397C24.4377 10.4381 25.2244 10.2349 25.9604 9.90476C25.4021 10.7175 24.7169 11.4286 23.9302 11.9873Z" fill="#4EA6EA"/>
</svg>
