<svg width="32" height="32" viewBox="0 0 32 32" fill="none" xmlns="http://www.w3.org/2000/svg">
    <path d="M15.99.572c-4.24 0-8.307 1.666-11.305 4.633A15.736 15.736 0 0 0 .003 16.392v.019a14.804 14.804 0 0 0 1.28 6.335 16.84 16.84 0 0 0 4.001 5.411l-.352.265.417.174-.01.446.398-.212.352.287.08-.442.443-.09-.299-.337.206-.398-.452.019-.188-.407-.265.363-.057-.014a16.554 16.554 0 0 1-3.866-5.24 15.031 15.031 0 0 1-1.25-5.804h1.135a7.982 7.982 0 0 0 .278 2.26l-.133.024.195.232-.144.264h.304l.12.274.176-.238.293.079-.076-.29.246-.175-.275-.123.012-.3-.27.136-.045-.038a7.65 7.65 0 0 1-.25-2.098h2.409A10.24 10.24 0 0 0 6.7 23.279l-.176.115.267.143-.033.299.278-.119.214.212.082-.288.3-.033-.175-.244.162-.253-.304-.014-.1-.284-.176.188a9.958 9.958 0 0 1-2.19-6.227h16.117a5.26 5.26 0 0 0-.886-2.375 5.332 5.332 0 0 0-1.9-1.697l.047.187-.496-.138-.314.402-.199-.47h-.515l.247-.446-.327-.393.508-.087.107-.5.384.338.46-.226-.026.508.468.213-.247.174a5.862 5.862 0 0 1 2.13 1.867c.544.785.885 1.69.994 2.636h2.913a7.962 7.962 0 0 0-1.038-3.657 8.06 8.06 0 0 0-2.622-2.775l.097.337-.759-.174-.454.63-.329-.696-.78.04.351-.695-.518-.577.764-.162.133-.762.605.489.683-.37v.771l.72.3-.51.39a8.537 8.537 0 0 1 2.933 2.953 8.428 8.428 0 0 1 1.173 3.974h2.08a11.576 11.576 0 0 0-2.526-6.563 10.203 10.203 0 0 0-3.566-2.629 10.304 10.304 0 0 0-4.357-.88l.25.672-.88-.141-.46.756-.44-.77-.878.115.335-.82-.643-.614.858-.253.082-.88.734.505.75-.483.057.881.848.278-.369.332c1.528-.001 3.04.326 4.427.959a10.54 10.54 0 0 1 3.613 2.708 11.9 11.9 0 0 1 2.635 6.827h.866a11.617 11.617 0 0 0-2.249-6.68 12.399 12.399 0 0 0-5.973-4.321v.328l-.376-.205-.332.27-.072-.42-.42-.088.285-.318-.192-.381.428.023.176-.385.25.348.418-.1-.118.408.19.146a12.641 12.641 0 0 1 6.095 4.452 12.181 12.181 0 0 1 2.322 6.924H32v-.377c.002-2.08-.41-4.141-1.215-6.064a15.807 15.807 0 0 0-3.47-5.14A16 16 0 0 0 22.12 1.77 16.132 16.132 0 0 0 15.99.57z" fill="#90949C"/>
    <path d="M9.914 21.273v2.923c0 .203-.049.356-.146.46a.486.486 0 0 1-.37.155.47.47 0 0 1-.368-.16c-.092-.105-.138-.257-.138-.455v-2.894c0-.2.046-.35.138-.452a.48.48 0 0 1 .367-.152c.15 0 .273.051.37.152.098.102.147.242.147.423zm-.506-1.045a.55.55 0 0 1-.367-.13.46.46 0 0 1-.15-.367.45.45 0 0 1 .154-.352.528.528 0 0 1 .363-.14c.133 0 .25.041.352.125.103.084.154.207.154.367 0 .156-.05.278-.15.367a.526.526 0 0 1-.356.13zM14.61 20.195h-1.214v3.946c0 .227-.051.396-.153.507a.52.52 0 0 1-.397.163.53.53 0 0 1-.405-.166c-.102-.112-.153-.28-.153-.504v-3.946h-1.213c-.19 0-.331-.041-.423-.123a.425.425 0 0 1-.14-.33c0-.14.048-.252.143-.333.098-.081.237-.122.42-.122h3.534c.193 0 .335.042.427.126a.42.42 0 0 1 .142.33.42.42 0 0 1-.142.33c-.095.08-.237.122-.427.122zM18.133 23.003h-2c.003.23.049.432.139.608a.974.974 0 0 0 .363.396c.152.09.32.134.502.134.122 0 .233-.014.333-.041.102-.03.2-.074.296-.134.095-.061.182-.127.262-.196.08-.07.183-.163.31-.282a.338.338 0 0 1 .225-.066c.105 0 .19.028.255.085a.303.303 0 0 1 .097.24.663.663 0 0 1-.108.323 1.302 1.302 0 0 1-.33.352 1.87 1.87 0 0 1-.55.278c-.22.074-.473.111-.76.111-.657 0-1.167-.185-1.532-.555-.364-.371-.546-.874-.546-1.509 0-.299.044-.575.134-.83a1.83 1.83 0 0 1 .393-.66c.173-.182.385-.321.637-.418.252-.099.532-.148.839-.148.4 0 .741.084 1.026.252a1.686 1.686 0 0 1 .858 1.452c0 .255-.074.42-.222.497-.147.074-.354.111-.621.111zm-2-.574h1.854c-.025-.346-.12-.604-.285-.775-.162-.172-.377-.259-.644-.259a.826.826 0 0 0-.629.263c-.162.173-.26.43-.296.77zM23.506 23.559c0 .126-.039.26-.116.404-.075.143-.191.28-.348.411-.155.129-.351.232-.588.311a2.527 2.527 0 0 1-.802.119c-.631 0-1.124-.182-1.479-.545-.354-.365-.531-.855-.531-1.467 0-.415.08-.782.243-1.1.162-.32.397-.565.704-.738.307-.175.674-.263 1.1-.263.265 0 .508.038.727.115.222.076.41.175.562.296.155.121.272.251.352.39a.744.744 0 0 1 .123.381.4.4 0 0 1-.138.307.465.465 0 0 1-.33.127.352.352 0 0 1-.213-.063 1.133 1.133 0 0 1-.187-.212 1.524 1.524 0 0 0-.393-.422.884.884 0 0 0-.517-.14.884.884 0 0 0-.73.351c-.185.232-.277.551-.277.956 0 .19.023.366.07.526.048.158.117.294.207.408a.908.908 0 0 0 .745.34c.205 0 .38-.046.524-.14.147-.094.277-.237.39-.43a.988.988 0 0 1 .202-.267.386.386 0 0 1 .265-.096c.125 0 .229.047.311.14a.449.449 0 0 1 .124.3zM25.206 19.81v1.5c.13-.148.256-.266.378-.352.125-.087.262-.15.412-.193.15-.044.31-.067.483-.067.26 0 .49.055.689.163.202.11.36.267.475.475.073.12.122.257.146.407.025.149.038.32.038.515v1.938c0 .203-.048.356-.142.46a.471.471 0 0 1-.371.155c-.337 0-.506-.205-.506-.615v-1.708c0-.323-.048-.572-.146-.745-.097-.175-.282-.263-.554-.263a.838.838 0 0 0-.494.156.92.92 0 0 0-.326.419c-.055.15-.082.418-.082.804v1.337c0 .2-.046.353-.139.46a.473.473 0 0 1-.378.155c-.337 0-.505-.205-.505-.615V19.81c0-.205.043-.358.13-.46a.47.47 0 0 1 .375-.155c.162 0 .288.052.378.156.093.103.139.257.139.46zM9.796 27.524v3.119h1.779c.141 0 .25.034.324.102a.33.33 0 0 1 .116.257.328.328 0 0 1-.113.257c-.074.065-.184.097-.327.097H9.457c-.191 0-.33-.042-.414-.126-.083-.084-.124-.22-.124-.406v-3.3c0-.176.04-.307.118-.395a.41.41 0 0 1 .316-.131c.132 0 .238.043.32.131.082.086.123.217.123.395zM14.576 30.979c-.195.15-.384.263-.568.339a1.602 1.602 0 0 1-.61.11c-.208 0-.39-.04-.547-.119a.905.905 0 0 1-.36-.33.846.846 0 0 1-.128-.45.8.8 0 0 1 .21-.559c.14-.154.332-.257.576-.31.051-.011.178-.038.381-.079.203-.04.376-.077.52-.11.146-.036.303-.078.473-.126-.01-.21-.054-.365-.13-.462-.075-.1-.232-.15-.47-.15-.205 0-.36.03-.464.086a.764.764 0 0 0-.266.254 2.5 2.5 0 0 1-.156.225c-.03.035-.095.053-.195.053a.355.355 0 0 1-.237-.085.286.286 0 0 1-.097-.222c0-.14.05-.277.15-.41.101-.132.258-.241.47-.327.213-.086.478-.128.795-.128.354 0 .633.041.836.125a.762.762 0 0 1 .428.392c.085.18.127.417.127.713 0 .187 0 .346-.003.477 0 .13 0 .275-.003.435 0 .15.025.307.074.47.051.162.077.267.077.313 0 .082-.04.157-.118.226a.39.39 0 0 1-.263.099c-.083 0-.165-.038-.245-.114a1.761 1.761 0 0 1-.257-.336zm-.053-1.155c-.119.043-.291.089-.517.137-.225.047-.38.082-.467.106a.615.615 0 0 0-.248.131.331.331 0 0 0-.118.272c0 .12.046.224.138.31a.52.52 0 0 0 .364.126c.16 0 .306-.034.44-.103a.704.704 0 0 0 .298-.269c.073-.12.11-.32.11-.596v-.114zM16.797 27.454v1.218c.152-.155.306-.274.464-.356.157-.084.352-.126.585-.126.267 0 .502.063.703.19.203.125.36.307.47.547.112.238.168.52.168.847 0 .242-.032.464-.095.667-.06.2-.15.375-.269.523a1.23 1.23 0 0 1-.986.465c-.124 0-.241-.015-.352-.044a1.065 1.065 0 0 1-.475-.263 3.675 3.675 0 0 1-.213-.228v.079c0 .15-.036.264-.11.342a.368.368 0 0 1-.277.114.353.353 0 0 1-.275-.114c-.067-.078-.1-.192-.1-.342v-3.484c0-.162.032-.284.097-.366a.336.336 0 0 1 .278-.125c.124 0 .22.04.287.12.067.077.1.19.1.336zm.038 2.37c0 .318.073.562.219.734.148.17.34.254.579.254a.662.662 0 0 0 .523-.26c.148-.175.221-.426.221-.751 0-.21-.03-.392-.091-.544a.78.78 0 0 0-.26-.35.639.639 0 0 0-.393-.126.7.7 0 0 0-.41.125.815.815 0 0 0-.284.36 1.374 1.374 0 0 0-.104.558zM22.43 30.385c0 .22-.054.41-.162.567a1.004 1.004 0 0 1-.482.357c-.21.08-.468.12-.77.12-.29 0-.538-.044-.745-.132a1.09 1.09 0 0 1-.458-.327.665.665 0 0 1-.148-.398c0-.087.032-.162.095-.225a.326.326 0 0 1 .239-.093c.085 0 .15.02.195.061.045.041.089.099.13.173a.883.883 0 0 0 .295.318c.116.07.274.105.473.105a.686.686 0 0 0 .396-.105c.104-.072.156-.154.156-.245 0-.14-.054-.243-.162-.307-.106-.065-.283-.126-.529-.184a4.63 4.63 0 0 1-.68-.214 1.133 1.133 0 0 1-.416-.298.676.676 0 0 1-.156-.453c0-.16.048-.31.144-.453a.982.982 0 0 1 .426-.34c.189-.085.416-.128.682-.128.209 0 .396.022.561.065.168.043.307.1.417.172a.833.833 0 0 1 .254.24.46.46 0 0 1 .088.257.293.293 0 0 1-.094.225c-.061.058-.149.088-.263.088a.332.332 0 0 1-.213-.07 1.44 1.44 0 0 1-.197-.21.726.726 0 0 0-.216-.188.685.685 0 0 0-.337-.07.656.656 0 0 0-.363.093c-.097.06-.145.137-.145.229 0 .083.035.152.106.207.071.053.167.096.287.131.12.036.285.078.496.13.25.06.454.132.612.215.16.084.28.184.36.299a.641.641 0 0 1 .124.388z" fill="#90949C"/>
</svg>
