<svg width="32" height="32" viewBox="0 0 32 32" fill="none" xmlns="http://www.w3.org/2000/svg">
<g clip-path="url(#clip0_2123_6092)">
<path d="M16 32C24.8366 32 32 24.8366 32 16C32 7.16344 24.8366 0 16 0C7.16344 0 0 7.16344 0 16C0 24.8366 7.16344 32 16 32Z" fill="#6CD646"/>
<path d="M21.5374 20.499C21.2281 21.0521 20.8028 21.5144 20.2645 21.8916C19.7246 22.2688 19.0777 22.5496 18.3268 22.7339C17.9982 22.8134 17.6546 22.8686 17.3052 22.914V25H14.6938V22.9551C13.9502 22.8956 13.2394 22.785 12.5701 22.6091C11.5485 22.3424 10.21 21.2647 10.21 21.2647C10.0955 21.2009 10.0197 21.0888 10.0033 20.964C9.98695 20.8392 10.0316 20.7129 10.1252 20.6236L11.4339 19.3757C11.5751 19.2424 11.7938 19.2169 11.9634 19.3162C11.9634 19.3162 12.9419 20.1274 13.6839 20.3202C14.426 20.5131 15.1621 20.6096 15.8968 20.6096C16.8232 20.6096 17.5891 20.4536 18.1958 20.1416C18.8041 19.8268 19.1074 19.3418 19.1074 18.6781C19.1074 18.2002 18.9587 17.823 18.6583 17.5465C18.3593 17.2714 17.8538 17.0983 17.14 17.0232L14.7963 16.8303C13.4088 16.7012 12.3381 16.3326 11.587 15.727C10.8331 15.1201 10.4584 14.1998 10.4584 12.9688C10.4584 12.2881 10.6026 11.6811 10.8926 11.1494C11.1826 10.6162 11.5768 10.1652 12.0779 9.79654C12.5791 9.43069 13.1634 9.1527 13.8282 8.97118C14.1063 8.89458 14.3978 8.84357 14.6938 8.79819V7H17.3052V8.76126C17.9149 8.81798 18.4949 8.91155 19.0347 9.05341C19.9508 9.29165 20.9129 10.0092 20.9129 10.0092C21.0334 10.0687 21.1152 10.1794 21.136 10.307C21.1568 10.4375 21.1122 10.5651 21.017 10.6586L19.7901 11.8456C19.6593 11.9718 19.457 12.0044 19.2904 11.9222C19.2904 11.9222 18.5632 11.4286 17.9357 11.2727C17.3081 11.1182 16.6493 11.0387 15.9548 11.0387C15.0477 11.0387 14.377 11.2033 13.9443 11.5337C13.51 11.8655 13.2944 12.298 13.2944 12.8298C13.2944 13.3091 13.4461 13.6764 13.7569 13.933C14.0647 14.1911 14.5852 14.3585 15.3183 14.4294L17.372 14.5967C18.8948 14.7243 20.0473 15.1101 20.8281 15.7539C21.6103 16.3977 22 17.3366 22 18.5674C21.9999 19.305 21.8452 19.9474 21.5374 20.499Z" fill="white"/>
</g>
<defs>
<clipPath id="clip0_2123_6092">
<rect width="32" height="32" fill="white"/>
</clipPath>
</defs>
</svg>
