<svg width="32" height="32" viewBox="0 0 32 32" fill="none" xmlns="http://www.w3.org/2000/svg">
<g clip-path="url(#clip0_2123_6087)">
<path d="M16 0C24.8358 0 32 7.16416 32 16C32 24.8358 24.8358 32 16 32C7.16416 32 0 24.8358 0 16C0 7.16416 7.16416 0 16 0Z" fill="#F0B90B"/>
<path d="M5.12012 16.0052L7.83756 13.2878L10.555 16.0052L7.83756 18.7227L5.12012 16.0052ZM24.1627 13.2699L13.2699 24.1627L15.9873 26.8801L26.8801 15.9873L24.1627 13.2699ZM9.19564 20.0808L20.0884 9.18796L22.8059 11.9054L11.9131 22.7982L9.19564 20.0808ZM9.19052 11.9361L16.0065 5.12012L18.724 7.83756L11.908 14.6536L9.19052 11.9361Z" fill="white"/>
</g>
<defs>
<clipPath id="clip0_2123_6087">
<rect width="32" height="32" fill="white"/>
</clipPath>
</defs>
</svg>
