<svg width="32" height="32" viewBox="0 0 32 32" fill="none" xmlns="http://www.w3.org/2000/svg">
<g clip-path="url(#clip0_2123_6089)">
<path d="M16 32C24.8366 32 32 24.8366 32 16C32 7.16344 24.8366 0 16 0C7.16344 0 0 7.16344 0 16C0 24.8366 7.16344 32 16 32Z" fill="#353244"/>
<path d="M15.7547 6.59863C16.1906 6.37133 16.7227 6.89863 16.4911 7.33413C16.3566 7.68913 15.8465 7.78354 15.586 7.51293C15.31 7.25323 15.4 6.73993 15.7547 6.59863ZM11.0661 7.10403C11.3309 6.99503 11.6661 7.23763 11.6391 7.52623C11.6672 7.83954 11.2841 8.07014 11.0142 7.92124C10.6566 7.78273 10.6975 7.20223 11.0661 7.10403ZM20.6688 7.93004C20.255 7.88004 20.1895 7.22943 20.5879 7.09843C20.8969 6.94773 21.1804 7.23033 21.2256 7.52323C21.1608 7.77333 20.9514 8.00234 20.6688 7.93004ZM12.1329 9.09954C12.5756 8.81954 13.2073 9.23654 13.1392 9.75074C13.1162 10.2699 12.4266 10.5707 12.0375 10.2197C11.6613 9.94404 11.7183 9.31154 12.1329 9.09954ZM18.8911 9.39664C19.0886 8.88764 19.8889 8.87224 20.1137 9.36774C20.3359 9.75334 20.0626 10.2308 19.6667 10.3619C19.1423 10.4598 18.6442 9.89294 18.8911 9.39664ZM15.19 10.333C15.1857 9.89554 15.5842 9.56954 16.0001 9.53974C16.2759 9.59504 16.5765 9.71254 16.6948 9.99084C16.9153 10.3747 16.7195 10.9033 16.3211 11.0795C16.1389 11.1816 15.9235 11.1433 15.725 11.1314C15.4217 10.9825 15.1663 10.6905 15.19 10.333ZM8.21753 10.9705C8.62193 10.7219 9.16753 11.1756 9.01443 11.6149C8.93013 11.9949 8.41933 12.1495 8.12733 11.9069C7.81563 11.6796 7.86503 11.1331 8.21753 10.9705ZM23.1901 10.9697C23.5332 10.7033 24.0994 11.0089 24.0585 11.4421C24.0815 11.8371 23.592 12.135 23.2514 11.9316C22.8763 11.763 22.838 11.1859 23.1901 10.9697ZM17.1509 11.7562C17.7171 11.5528 18.3896 11.7962 18.7123 12.301C19.138 12.9182 18.9115 13.858 18.2509 14.2121C17.5664 14.6309 16.5669 14.2759 16.3141 13.5115C16.0271 12.8272 16.4452 11.9707 17.1509 11.7562ZM13.8288 11.8235C14.4563 11.5273 15.3008 11.7758 15.6039 12.4177C15.9607 13.0426 15.6848 13.9126 15.0471 14.2352C14.4086 14.5978 13.5078 14.3229 13.1988 13.6521C12.8523 13.0034 13.16 12.1222 13.8288 11.8235ZM10.5025 12.9608C10.5502 12.5564 10.9316 12.2933 11.3164 12.2661C11.731 12.3161 12.0622 12.6382 12.1073 13.0578C12.0801 13.4732 11.7591 13.8792 11.3189 13.8767C10.8346 13.9184 10.41 13.4366 10.5025 12.9608ZM20.3274 12.354C20.8246 12.0646 21.515 12.4859 21.4929 13.0572C21.527 13.6624 20.7629 14.0889 20.2678 13.7339C19.7535 13.4383 19.7936 12.6058 20.3274 12.354ZM12.4769 14.4871C13.0584 14.3271 13.7233 14.6012 14.0085 15.1357C14.3209 15.6737 14.1932 16.4211 13.708 16.8157C13.0857 17.3945 11.938 17.1621 11.6068 16.3722C11.2262 15.6481 11.6885 14.6777 12.4769 14.4871ZM18.7779 14.4841C19.3432 14.3224 20.0073 14.5403 20.3112 15.0553C20.713 15.6443 20.5212 16.5228 19.923 16.9025C19.2964 17.3434 18.3258 17.1119 17.981 16.4225C17.563 15.7094 17.9836 14.7016 18.7779 14.4841ZM8.73683 15.1561C9.23913 14.9661 9.79593 15.5204 9.59243 16.0184C9.46813 16.4721 8.82873 16.6398 8.49843 16.3053C8.11193 15.9912 8.25503 15.2923 8.73683 15.1561ZM22.3519 15.8788C22.3374 15.4626 22.6419 15.094 23.0687 15.071C23.4127 15.1255 23.7472 15.403 23.72 15.7775C23.7515 16.2721 23.1555 16.6083 22.7341 16.3759C22.5366 16.2755 22.4353 16.0729 22.3519 15.8788ZM6.26702 15.4004C6.56922 15.2685 6.94302 15.5304 6.87402 15.866C6.85782 16.246 6.29682 16.3921 6.09072 16.0746C5.90862 15.8541 6.01762 15.5141 6.26702 15.4004ZM25.3214 15.3928C25.5342 15.2413 25.8756 15.3502 25.9599 15.5988C26.1029 15.8703 25.8407 16.2423 25.5351 16.1964C25.1061 16.2355 24.9673 15.5817 25.3214 15.3928ZM14.1183 17.2169C14.9135 17.0101 15.7684 17.6732 15.7734 18.492C15.8253 19.3194 14.9833 20.0531 14.1693 19.862C13.5401 19.7607 13.0464 19.1546 13.0668 18.5188C13.0651 17.9107 13.524 17.3455 14.1183 17.2169ZM17.2676 17.2152C18.0747 16.9896 18.955 17.6646 18.9422 18.5023C18.9848 19.3144 18.1692 20.0234 17.3722 19.8623C16.6222 19.7653 16.0688 18.9413 16.2782 18.2135C16.3839 17.7285 16.7891 17.3341 17.2676 17.2152ZM11.1956 17.7192C11.7541 17.6239 12.2777 18.247 12.0512 18.7773C11.886 19.3424 11.0636 19.4957 10.7 19.0341C10.2735 18.5908 10.5919 17.7804 11.1956 17.7192ZM20.4312 17.7441C20.9292 17.5355 21.5405 17.9663 21.5022 18.5068C21.5222 19.1018 20.7675 19.5121 20.2805 19.1648C19.7289 18.853 19.8293 17.9354 20.4312 17.7441ZM23.0126 20.3333C22.8176 19.9698 23.1718 19.488 23.5754 19.5553C23.7763 19.5519 23.9168 19.7102 24.0454 19.843C24.0718 20.0584 24.1161 20.3154 23.9373 20.4814C23.6945 20.7887 23.1445 20.701 23.0126 20.3333ZM8.21583 19.6565C8.59303 19.4054 9.13583 19.7799 9.05103 20.2209C9.00593 20.6109 8.51463 20.8338 8.19103 20.6125C7.84373 20.4116 7.85653 19.8396 8.21583 19.6565ZM15.6679 20.4729C16.1617 20.255 16.7908 20.6849 16.744 21.2288C16.7806 21.8298 16.0025 22.246 15.5196 21.8851C14.9833 21.5752 15.0727 20.6635 15.6679 20.4729ZM12.2163 21.2781C12.6369 21.0568 13.2013 21.439 13.163 21.9097C13.1758 22.2962 12.7986 22.6256 12.4172 22.5685C12.1013 22.5617 11.8953 22.2785 11.794 22.0092C11.7992 21.7157 11.92 21.3888 12.2163 21.2781ZM19.2078 21.2849C19.6403 21.0176 20.255 21.4015 20.2141 21.9049C20.2252 22.431 19.5305 22.768 19.1278 22.4224C18.7379 22.1515 18.7855 21.5003 19.2078 21.2849ZM20.4236 24.2906C20.2312 23.9995 20.4577 23.6488 20.7701 23.5824C21.0213 23.6335 21.2869 23.8224 21.2341 24.1136C21.1975 24.5077 20.6211 24.6286 20.4236 24.2906ZM10.7724 24.0378C10.849 23.8071 11.0346 23.5778 11.3062 23.6378C11.7021 23.6659 11.8196 24.2626 11.4731 24.4465C11.1615 24.6566 10.8 24.3689 10.7724 24.0378ZM15.4285 24.3025C15.5043 23.9612 15.9462 23.7952 16.2374 23.9765C16.4298 24.0591 16.486 24.2744 16.5354 24.4574C16.509 24.5527 16.4854 24.6481 16.4622 24.7434C16.343 24.8847 16.1898 25.026 15.9914 25.0209C15.6227 25.0641 15.29 24.6473 15.4285 24.3025Z" fill="#3CC8C8"/>
</g>
<defs>
<clipPath id="clip0_2123_6089">
<rect width="32" height="32" fill="white"/>
</clipPath>
</defs>
</svg>
