<svg width="32" height="32" viewBox="0 0 32 32" fill="none" xmlns="http://www.w3.org/2000/svg">
<g id="arrow / right">
<path id="Union" d="M16.5858 20.7992C15.8047 21.5314 15.8047 22.7186 16.5858 23.4508C17.3669 24.1831 18.6332 24.1831 19.4142 23.4508L25.2401 17.9889C25.2702 17.9608 25.2992 17.932 25.3272 17.9027C25.7399 17.5592 26 17.0581 26 16.5C26 15.9419 25.7399 15.4408 25.3272 15.0973C25.2992 15.068 25.2702 15.0392 25.2401 15.0111L19.4142 9.54918C18.6332 8.81695 17.3669 8.81694 16.5858 9.54917C15.8047 10.2814 15.8047 11.4686 16.5858 12.2008L19.1715 14.625L8 14.625C6.89543 14.625 6 15.4645 6 16.5C6 17.5355 6.89543 18.375 8 18.375L19.1715 18.375L16.5858 20.7992Z" fill="#949494"/>
</g>
</svg>
