<svg width="33" height="32" viewBox="0 0 33 32" fill="none" xmlns="http://www.w3.org/2000/svg">
<g id="social / youtube" clip-path="url(#clip0_2123_6076)">
<g id="Vector">
<path d="M17.2087 27.0868L10.6494 26.9668C8.52561 26.925 6.39657 27.0085 4.31446 26.5754C1.14709 25.9283 0.9227 22.7557 0.687901 20.0944C0.364373 16.353 0.489621 12.5437 1.10016 8.83357C1.44483 6.75178 2.80124 5.50956 4.89889 5.37438C11.98 4.88381 19.1082 4.94194 26.1736 5.17082C26.9198 5.1918 27.6711 5.30647 28.4069 5.43701C32.0389 6.07365 32.1275 9.66898 32.3629 12.6956C32.5977 15.7534 32.4986 18.8269 32.0498 21.8639C31.6897 24.3785 31.0009 26.4872 28.0938 26.6907C24.4514 26.9569 20.8925 27.1712 17.2399 27.103C17.24 27.0868 17.2191 27.0868 17.2087 27.0868Z" fill="#FF0000"/>
<path d="M17.2087 27.0868L10.6494 26.9668C8.52561 26.925 6.39657 27.0085 4.31446 26.5754C1.14709 25.9283 0.9227 22.7557 0.687901 20.0944C0.364373 16.353 0.489621 12.5437 1.10016 8.83357C1.44483 6.75178 2.80124 5.50956 4.89889 5.37438C11.98 4.88381 19.1082 4.94194 26.1736 5.17082C26.9198 5.1918 27.6711 5.30647 28.4069 5.43701C32.0389 6.07365 32.1275 9.66898 32.3629 12.6956C32.5977 15.7534 32.4986 18.8269 32.0498 21.8639C31.6897 24.3785 31.0009 26.4872 28.0938 26.6907C24.4514 26.9569 20.8925 27.1712 17.2399 27.103C17.24 27.0868 17.2191 27.0868 17.2087 27.0868Z" fill="#FF0000"/>
</g>
<path id="Vector_2" d="M21.5191 16.0295C18.7899 17.595 16.0974 19.1447 13.3525 20.7207V11.3384C16.0817 12.9038 18.7691 14.4535 21.5191 16.0295Z" fill="white"/>
</g>
<defs>
<clipPath id="clip0_2123_6076">
<rect width="32" height="32" fill="white" transform="translate(0.5)"/>
</clipPath>
</defs>
</svg>
