<svg width="102" height="24" viewBox="0 0 102 24" fill="none" xmlns="http://www.w3.org/2000/svg">
<g id="Group">
<g id="Group_2">
<path id="Vector" d="M0.712891 18.6067V0.261963H5.74359V19.0431H14.6303V23.7379H3.6296L1.65034 21.29C0.980462 20.417 0.712891 19.6124 0.712891 18.6067Z" fill="#FF4B44"/>
<path id="Vector_2" d="M17.3475 19.9139L22.7805 0.259766H28.5494C29.6235 0.259766 30.2933 0.762646 30.5951 1.83672L35.5916 19.9139C35.8269 20.7185 35.8592 21.2555 35.8592 22.2954V23.7376H31.3978L29.6197 16.5948L22.4085 20.2839L21.5356 23.7376H17.0742V22.2954C17.0799 21.2555 17.1122 20.7185 17.3475 19.9139ZM29.3882 15.6878L26.739 4.95648H26.202L23.5528 15.6878H29.3882Z" fill="#FF4B44"/>
<path id="Vector_3" d="M38.1406 18.6067V0.261963H43.1713V19.0431H52.0581V23.7379H41.0573L39.0781 21.29C38.4101 20.417 38.1406 19.6124 38.1406 18.6067Z" fill="#FF4B44"/>
<path id="Vector_4" d="M54.9102 0.259766H59.9409V23.7358H54.9102V0.259766Z" fill="#FF4B44"/>
<path id="Vector_5" d="M63.3623 16.2841V7.71424C63.3623 2.7177 66.0798 0.000244141 71.0763 0.000244141H73.2776C78.2077 0.000244141 80.9916 2.51465 80.9916 6.97605H75.9609V6.03671C75.9609 5.16378 75.4922 4.69506 74.6192 4.69506H69.7347C68.8617 4.69506 68.393 5.16378 68.393 6.03671V17.9616C68.393 18.8326 68.8617 19.3033 69.7347 19.3033H74.6192C75.4903 19.3033 75.9609 18.8345 75.9609 17.9616V15.0108H72.473V10.3159H78.073L80.0522 12.7639C80.7221 13.6027 80.9916 14.3731 80.9916 15.4472V16.286C80.9916 21.2825 78.2741 24 73.2776 24H71.0763C66.0779 23.9981 63.3623 21.2825 63.3623 16.2841Z" fill="#FF4B44"/>
<path id="Vector_6" d="M82.7758 19.9139L88.2088 0.259766H93.9777C95.0517 0.259766 95.7216 0.762646 96.0233 1.83672L101.02 19.9139C101.255 20.7185 101.287 21.2555 101.287 22.2954V23.7376H96.826L95.0479 16.5948L87.8368 20.2839L86.9658 23.7376H82.5044V22.2954C82.5082 21.2555 82.5423 20.7185 82.7758 19.9139ZM94.8164 15.6878L92.1673 4.95648H91.6302L88.9811 15.6878H94.8164Z" fill="#FF4B44"/>
</g>
</g>
</svg>
