<svg width="103" height="46" viewBox="0 0 103 46" fill="none" xmlns="http://www.w3.org/2000/svg">
<g id="partnership-mp 1" clip-path="url(#clip0_2156_7222)">
<g id="Clip path group">
<mask id="mask0_2156_7222" style="mask-type:luminance" maskUnits="userSpaceOnUse" x="0" y="0" width="34" height="46">
<g id="clip0_413_21045">
<path id="Vector" d="M33.5842 0H0.700684V46H33.5842V0Z" fill="white"/>
</g>
</mask>
<g mask="url(#mask0_2156_7222)">
<g id="Group">
<path id="Vector_2" d="M6.55156 15.8553V16.1774C6.55156 16.1774 6.53213 16.1787 6.49873 16.1848C6.46533 16.1904 6.41737 16.2009 6.36029 16.2181C6.30261 16.2354 6.23582 16.26 6.16417 16.2946C6.09253 16.3291 6.01602 16.3734 5.93951 16.4313C5.863 16.4886 5.7865 16.5595 5.71485 16.6457C5.6432 16.732 5.57641 16.8343 5.51873 16.955C5.46105 17.0758 5.41368 17.2156 5.38029 17.3765C5.3469 17.5372 5.32746 17.7203 5.32746 17.9273L4.83989 18.2784L4.35232 18.6297L3.86475 18.9808L3.37717 19.332L2.8896 19.6832L2.40203 20.0344L1.91445 20.3855L1.42688 20.7368H4.82836L4.75488 21.0189L4.68141 21.3011L4.60795 21.5833L4.53447 21.8655L4.461 22.1477L4.38754 22.4298L4.31407 22.712L4.24059 22.9942L3.83256 23.3855L3.42454 23.7766L3.0165 24.1679L2.60847 24.5591L2.20044 24.9504L1.79241 25.3416L1.38437 25.7329L0.976347 26.1241H9.31853L9.15396 25.9515L8.98938 25.779L8.82489 25.6065L8.66031 25.434L8.49581 25.2615L8.33123 25.089L8.16668 24.9165L8.00213 24.744L8.16061 23.8408L8.31909 22.9376L8.4776 22.0343L8.63602 21.1311L8.79453 20.2278L8.95295 19.3246L9.11146 18.4213L9.26996 17.5182L10.1995 18.5594L11.1291 19.6007L12.0588 20.6419L12.9883 21.6831L13.918 22.7243L14.8476 23.7656L15.7772 24.8068L16.7068 25.848L17.665 24.7895L18.6231 23.7311L19.5812 22.6726L20.5393 21.6141L21.4975 20.5556L22.4556 19.4971L23.4138 18.4386L24.372 17.3802L24.5645 18.2717L24.7569 19.1632L24.9494 20.0547L25.1419 20.9462L25.3343 21.8377L25.5268 22.7292L25.7193 23.6208L25.9117 24.5123L25.7703 24.6966L25.6288 24.8807L25.4873 25.065L25.3459 25.2492L25.2044 25.4334L25.063 25.6176L24.9215 25.8019L24.78 25.986H32.6267L32.2071 25.6294L31.7875 25.2726L31.3679 24.9159L30.9484 24.5591L30.5289 24.2024L30.1093 23.8457L29.6897 23.489L29.2701 23.1322L29.2136 22.8272L29.1572 22.5222L29.1007 22.2173L29.0443 21.9123L28.9878 21.6073L28.9314 21.3023L28.8748 20.9973L28.8184 20.6924L29.2495 20.6696L29.6806 20.6468L30.1117 20.624L30.5428 20.6012L30.9739 20.5784L31.405 20.5556L31.8361 20.5328L32.2672 20.51L31.8021 20.2051L31.337 19.9001L30.8719 19.5951L30.4068 19.2901L29.9417 18.9852L29.4766 18.6802L29.0115 18.3752L28.5463 18.0702C28.5463 18.0702 28.5458 18.0418 28.5421 17.9932C28.5385 17.9439 28.5318 17.8743 28.5196 17.7898C28.5075 17.7055 28.4905 17.6075 28.465 17.5022C28.4401 17.3968 28.4073 17.2846 28.3648 17.1725C28.3223 17.0604 28.2701 16.9483 28.2051 16.8429C28.1408 16.7375 28.0636 16.6396 27.972 16.5551C27.8809 16.4708 27.7746 16.4011 27.652 16.3518C27.5293 16.3025 27.3897 16.2748 27.2306 16.2748V15.8608H30.088L30.5246 15.4178L30.9612 14.9748L31.3977 14.5318L31.8343 14.0888L32.2709 13.6459L32.7075 13.2029L33.144 12.7599L33.5806 12.3169H25.0987L24.0611 13.4561L23.0234 14.5953L21.9857 15.7345L20.948 16.8737L19.9103 18.0129L18.8726 19.1521L17.835 20.2913L16.7972 21.4305L15.8276 20.2913L14.8579 19.1521L13.8882 18.0129L12.9186 16.8737L11.9488 15.7345L10.9792 14.5953L10.0095 13.4561L9.03981 12.3169H0.700684L1.03525 12.7599L1.3698 13.2029L1.70436 13.6459L2.03893 14.0888L2.37349 14.5318L2.70805 14.9748L3.04261 15.4178L3.37717 15.8608H6.55216L6.55156 15.8553Z" fill="#CD242B"/>
<path id="Vector_3" d="M4.21567 30.6057H6.85511H9.49392H12.1334H14.7723H17.4117H20.0512H22.69H25.3294L25.0514 30.9482L24.7738 31.2902L24.4958 31.6327L24.2183 31.9747L23.9402 32.3172L23.6621 32.6592L23.3846 33.0018L23.1066 33.3437H22.2565H21.4058H20.5557H19.705H18.8544H18.0043H17.1536H16.3036V33.0332V32.7227V32.4122V32.1016V31.7904V31.4799V31.1694V30.8589L15.9065 31.2156L15.5094 31.5723L15.1129 31.9285L14.7158 32.2852L14.3187 32.6419L13.9222 32.9987L13.5251 33.3554L13.1286 33.7122V35.2482V36.7841V38.3201V39.856V41.392V42.928V44.464V46L13.7716 45.3475L14.4153 44.6944L15.0588 44.0414L15.7025 43.3883L16.3455 42.7358L16.9891 42.0828L17.6327 41.4297L18.2764 40.7765H18.0237H17.7718H17.5191H17.2672H17.0146H16.7626H16.5101H16.2581V40.2793V39.7815V39.2837V38.7859V38.2887V37.7909V37.293V36.7958H17.3066H18.3559H19.4045H20.4537H21.5023H22.551H23.6002H24.6488L25.6695 35.6048L26.6902 34.4139L27.7102 33.2229L28.7309 32.0326L29.7516 30.8417L30.7717 29.6507L31.7923 28.4597L32.8131 27.2688H28.8275H24.8418H20.8557H16.8701H12.8845H8.89892H4.91332H0.927734L1.3388 27.6859L1.74986 28.103L2.16033 28.5201L2.57139 28.9372L2.98246 29.3543L3.39353 29.7714L3.8046 30.1886L4.21567 30.6057Z" fill="#CD242B"/>
<path id="Vector_4" d="M6.82373 33.4362L7.47889 34.1121L8.13343 34.7879L8.78859 35.4638L9.44317 36.1397L10.0983 36.8155L10.7528 37.4921L11.408 38.1679L12.0625 38.8438V37.8284V36.8131V35.7977V34.7823V33.767V32.7516V31.7362V30.7209L11.6855 31.0598L11.3084 31.3993L10.9314 31.7387L10.5543 32.0782L10.1778 32.4177L9.80074 32.7572L9.42374 33.0967L9.04667 33.4362H8.7686H8.49109H8.21298H7.93549H7.6574H7.37991H7.10182H6.82373Z" fill="#CD242B"/>
<path id="Vector_5" d="M11.3563 10.0903C11.3459 10.1063 11.3356 10.1223 11.3253 10.1383C11.315 10.1543 11.3053 10.1703 11.2949 10.1864C11.2852 10.2024 11.2749 10.2184 11.2652 10.235C11.2555 10.251 11.2458 10.2677 11.2361 10.2837C11.2263 10.3003 11.2172 10.3163 11.2075 10.333C11.1984 10.3496 11.1893 10.3656 11.1802 10.3823C11.1711 10.3989 11.1619 10.4155 11.1534 10.4322C11.1443 10.4488 11.1358 10.4655 11.1273 10.4821L10.6148 10.0157L10.1024 9.54926L9.58997 9.08285L9.07746 8.61644L8.56503 8.15007L8.05253 7.68367L7.54006 7.21727L7.02759 6.75086V7.54381L7.51335 7.97017L7.99909 8.39655L8.48481 8.82287L8.9706 9.24919L9.45632 9.67559L9.94211 10.1019L10.4278 10.5283L10.9136 10.9546C10.8923 11.0113 10.8723 11.0687 10.8529 11.1259C10.834 11.1832 10.8165 11.2417 10.8 11.2996C10.7837 11.3582 10.7685 11.4167 10.7551 11.4758C10.7412 11.5351 10.7291 11.5942 10.7181 11.6546C10.7072 11.7143 10.6975 11.7747 10.689 11.835C10.6805 11.8954 10.6738 11.9565 10.6677 12.0175C10.6623 12.0784 10.658 12.14 10.655 12.2017C10.6519 12.2633 10.6507 12.3255 10.6507 12.3877C10.6507 12.397 10.6507 12.4056 10.6507 12.4148C10.6507 12.4241 10.6507 12.4327 10.6507 12.4419C10.6507 12.4512 10.6507 12.4598 10.6507 12.469C10.6507 12.4783 10.6507 12.4869 10.6513 12.4961C10.6519 12.5054 10.6513 12.514 10.6519 12.5227C10.6519 12.5319 10.6526 12.5405 10.6531 12.5491C10.6531 12.5577 10.6538 12.567 10.6543 12.5756C10.6543 12.5843 10.655 12.5936 10.6555 12.6022L11.1655 13.1616L11.6756 13.721L12.1856 14.2804L12.6957 14.8399L13.2057 15.3993L13.7158 15.9588L14.2258 16.5182L14.7359 17.0777L15.0024 17.3702L15.2689 17.6629L15.5355 17.9556L15.8021 18.2483L16.0687 18.5409L16.3352 18.8335L16.6017 19.1262L16.8683 19.4189L17.1282 19.1392L17.388 18.8594L17.648 18.5797L17.9078 18.3L18.1677 18.0203L18.4275 17.7405L18.6875 17.4608L18.9473 17.1812L19.5035 16.5822L20.0597 15.9834L20.6165 15.3845L21.1726 14.7857L21.7289 14.1868L22.285 13.5879L22.8418 12.9891L23.398 12.3902C23.398 12.3231 23.3962 12.2565 23.3932 12.1906C23.3901 12.124 23.3852 12.0581 23.3786 11.9928C23.3719 11.9275 23.364 11.8622 23.3543 11.7969C23.3446 11.7322 23.333 11.6675 23.3203 11.6034C23.3075 11.5393 23.2929 11.4758 23.2772 11.4124C23.2614 11.3489 23.2438 11.2861 23.2249 11.2239C23.2062 11.1616 23.1861 11.0995 23.1642 11.0378C23.1424 10.9762 23.1193 10.9152 23.0944 10.8548L23.576 10.4328L24.0575 10.0107L24.539 9.58869L25.0204 9.16664L25.5019 8.74459L25.9834 8.32262L26.4649 7.90054L26.9464 7.4785V6.68556L26.4376 7.14888L25.9287 7.6122L25.42 8.07552L24.9111 8.53882L24.4023 9.00219L23.8934 9.46547L23.3847 9.92884L22.8758 10.3921C22.8667 10.3755 22.8576 10.3594 22.8485 10.3428C22.8394 10.3268 22.8296 10.3101 22.8206 10.2941C22.8109 10.2781 22.8017 10.2615 22.792 10.2455C22.7823 10.2295 22.7726 10.2135 22.7629 10.1974C22.7532 10.1814 22.7429 10.1654 22.7332 10.1494C22.7228 10.1334 22.7131 10.1174 22.7028 10.1019C22.6924 10.0859 22.6822 10.0705 22.6718 10.0545C22.6615 10.0385 22.6506 10.0231 22.6402 10.0077L23.1764 9.51665L23.712 9.0256L24.2481 8.53455L24.7842 8.04348L25.3204 7.55244L25.8565 7.06139L26.392 6.57035L26.9282 6.0793L26.9398 5.85688L26.9513 5.63446L26.9628 5.41204L26.9743 5.18962L26.9859 4.96721L26.9974 4.74479L27.009 4.52237L27.0205 4.29995H25.3161L24.8146 4.84583L24.313 5.39171L23.8115 5.93759L23.3099 6.48347L22.8084 7.02935L22.3069 7.57523L21.8054 8.12111L21.3038 8.66696C21.2856 8.65406 21.2674 8.64109 21.2486 8.62819C21.2304 8.61521 21.2115 8.60231 21.1927 8.58999C21.1739 8.57701 21.1551 8.56469 21.1362 8.5518C21.1174 8.53948 21.0986 8.5265 21.0791 8.51417C21.0597 8.50185 21.0409 8.48953 21.0215 8.47721C21.0021 8.46489 20.9832 8.45257 20.9638 8.4409C20.9444 8.42858 20.9249 8.41684 20.9055 8.40517C20.8861 8.39342 20.8661 8.38176 20.8466 8.37001L21.2965 7.86111L21.7464 7.3522L22.1964 6.84328L22.6463 6.33437L23.0962 5.82546L23.5462 5.31654L23.9961 4.80763L24.446 4.29872H23.667L23.2589 4.77744L22.8509 5.25616L22.4429 5.73489L22.0349 6.21361L21.6269 6.69234L21.2188 7.17106L20.8108 7.64979L20.4028 8.12851C20.3402 8.0977 20.2765 8.06751 20.2121 8.03794C20.1477 8.00836 20.0828 7.98002 20.0172 7.95229C19.9516 7.92457 19.8854 7.89808 19.8181 7.8722C19.7513 7.84632 19.6832 7.82168 19.6152 7.79765C19.5472 7.77362 19.478 7.75083 19.4082 7.72864C19.3383 7.70646 19.2686 7.68552 19.1975 7.66519C19.1264 7.64486 19.0554 7.62575 18.9838 7.60727C18.9121 7.58879 18.8393 7.57154 18.7664 7.55552L18.8155 6.86793L18.8648 6.18034L18.9139 5.49276L18.9631 4.80516L19.0123 4.11758L19.0615 3.42999L19.1106 2.7424L19.1598 2.05481L19.0888 2.00614L19.0178 1.95747L18.9467 1.9088L18.8757 1.86012L18.8046 1.81145L18.7336 1.76277L18.6625 1.7141L18.5915 1.66542L18.5533 2.3906L18.5144 3.11577L18.4755 3.84094L18.4373 4.56611L18.399 5.29128L18.3602 6.01646L18.3219 6.74162L18.283 7.4668C18.2667 7.46433 18.2503 7.46187 18.2345 7.4594C18.2181 7.45694 18.2017 7.45447 18.1853 7.45201C18.1689 7.44955 18.1525 7.44708 18.1361 7.44523C18.1197 7.44277 18.1033 7.44092 18.0869 7.43846C18.0705 7.43661 18.0541 7.43414 18.0378 7.4323C18.0213 7.43045 18.005 7.42798 17.9885 7.42614C17.9722 7.42429 17.9558 7.42243 17.9388 7.42059C17.9224 7.41874 17.906 7.41689 17.889 7.41504L17.9212 6.6529L17.9533 5.89076L17.9855 5.12862L18.0177 4.36649L18.0499 3.60435L18.082 2.84221L18.1143 2.08007L18.1465 1.31793L17.9764 1.15405L17.8064 0.99016L17.6364 0.826277L17.4664 0.662385L17.2964 0.498498L17.1264 0.334611L16.9563 0.170723L16.7863 0.00683594L16.6364 0.176268L16.4864 0.345701L16.3364 0.515134L16.1865 0.684566L16.0365 0.854L15.8864 1.02343L15.7365 1.19286L15.5865 1.3623L15.6248 2.12259L15.663 2.88288L15.7013 3.64317L15.7395 4.40346L15.7778 5.16375L15.816 5.92404L15.8543 6.68433L15.8925 7.44462C15.8743 7.44708 15.8555 7.45016 15.8373 7.45263C15.8191 7.45509 15.8009 7.45817 15.7827 7.46125C15.7645 7.46433 15.7462 7.4668 15.728 7.46988C15.7098 7.47296 15.6916 7.47604 15.6734 7.47912C15.6552 7.4822 15.637 7.48528 15.6187 7.48836C15.6005 7.49144 15.5823 7.49513 15.5647 7.49822C15.5464 7.5013 15.5289 7.50499 15.5107 7.50869C15.4924 7.51239 15.4748 7.51547 15.4566 7.51916L15.4177 6.78722L15.3789 6.05465L15.34 5.32209L15.3012 4.59014L15.2623 3.85819L15.2234 3.12624L15.1846 2.39429L15.1457 1.66173L15.0747 1.72766L15.0037 1.79357L14.9326 1.8595L14.8615 1.92543L14.7905 1.99135L14.7194 2.05728L14.6484 2.12321L14.5774 2.18913L14.6272 2.86932L14.6769 3.54952L14.7267 4.22971L14.7765 4.9099L14.8263 5.5901L14.8761 6.27029L14.9259 6.95049L14.9757 7.63068C14.9126 7.64732 14.85 7.66519 14.7874 7.68367C14.7249 7.70215 14.6636 7.72125 14.6023 7.74096C14.5409 7.76069 14.4802 7.78163 14.4202 7.80258C14.36 7.82414 14.2999 7.8457 14.2404 7.86851C14.1809 7.8913 14.122 7.91471 14.0643 7.93874C14.006 7.96277 13.9484 7.98803 13.8913 8.01329C13.8341 8.03855 13.7777 8.06504 13.7212 8.09216C13.6654 8.11927 13.6095 8.14637 13.5549 8.17471L13.1493 7.69846L12.7436 7.2222L12.3381 6.74594L11.9325 6.26968L11.5268 5.79341L11.1213 5.31716L10.7157 4.8409L10.31 4.36464H9.53104L9.97975 4.87171L10.4285 5.37877L10.8772 5.88583L11.3259 6.3929L11.7746 6.89997L12.2233 7.40703L12.672 7.9141L13.1207 8.42119C13.1013 8.43285 13.0819 8.44517 13.0624 8.4575C13.043 8.46982 13.0236 8.48214 13.0048 8.49446C12.9854 8.50678 12.9665 8.5191 12.9477 8.53142C12.9289 8.54375 12.9101 8.55672 12.8912 8.56905C12.8724 8.58194 12.8536 8.59426 12.8354 8.60724C12.8166 8.62014 12.7984 8.63312 12.7801 8.64601C12.7618 8.65899 12.7436 8.67189 12.7254 8.68544C12.7072 8.69842 12.689 8.71198 12.6708 8.72553L12.1698 8.18026L11.6689 7.63561L11.168 7.09096L10.6671 6.54631L10.1662 6.00166L9.66526 5.4564L9.16432 4.91113L8.66339 4.36649H6.95898L6.97052 4.5889L6.98206 4.81132L6.99359 5.03374L7.00513 5.25616L7.01666 5.47859L7.0282 5.701L7.03973 5.92342L7.05127 6.14584L7.58985 6.63935L8.12842 7.13286L8.66703 7.62637L9.20561 8.11988L9.74418 8.6134L10.2828 9.10692L10.8213 9.60043L11.3593 10.0939L11.3563 10.0903Z" fill="#CD242B"/>
</g>
</g>
</g>
<path id="Vector_6" d="M48.1285 9.81348V18.9878H46.9574V12.4585C46.9574 12.3605 46.9595 12.2562 46.9637 12.1453C46.9721 12.0346 46.9805 11.9218 46.9889 11.8068L43.9793 17.4098C43.8743 17.6185 43.7128 17.7228 43.4944 17.7228H43.3056C43.0873 17.7228 42.9278 17.6185 42.8271 17.4098L39.7607 11.7876C39.7859 12.0262 39.7985 12.2498 39.7985 12.4585V18.9878H38.6211V9.81348H39.6159C39.7335 9.81348 39.8237 9.82621 39.8867 9.85176C39.9538 9.87303 40.0168 9.93694 40.0756 10.0435L43.0978 15.5378C43.1565 15.6487 43.2111 15.7658 43.2615 15.8893C43.3119 16.0128 43.3601 16.1363 43.4063 16.2598C43.4944 16.0085 43.5973 15.7658 43.7149 15.5315L46.6804 10.0435C46.735 9.93694 46.7937 9.87303 46.8567 9.85176C46.9238 9.82621 47.0162 9.81348 47.1337 9.81348H48.1285Z" fill="white"/>
<path id="Vector_7" d="M55.1691 15.5698L53.828 12.0112C53.7314 11.7685 53.6349 11.4618 53.5384 11.0912C53.4922 11.2744 53.4439 11.4448 53.3935 11.6023C53.3474 11.7599 53.3012 11.9005 53.255 12.024L51.9202 15.5698H55.1691ZM57.8198 18.9878H56.7872C56.6698 18.9878 56.5732 18.958 56.4977 18.8985C56.422 18.8388 56.3675 18.7621 56.334 18.6685L55.5343 16.541H51.5487L50.7491 18.6685C50.7198 18.7494 50.6652 18.8239 50.5854 18.8921C50.5056 18.956 50.4091 18.9878 50.2958 18.9878H49.2632L52.8647 9.81348H54.2184L57.8198 18.9878Z" fill="white"/>
<path id="Vector_8" d="M66.3532 9.81348V18.9878H65.6732C65.5683 18.9878 65.4801 18.9687 65.4087 18.9303C65.3416 18.8921 65.2723 18.8303 65.2009 18.7451L60.0947 12.0432C60.103 12.1582 60.1093 12.271 60.1136 12.3818C60.122 12.4925 60.1262 12.5969 60.1262 12.6948V18.9878H58.9487V9.81348H59.6414C59.7589 9.81348 59.847 9.82834 59.9057 9.85816C59.9645 9.88371 60.0296 9.94548 60.1009 10.0435L65.2199 16.7518C65.2072 16.6283 65.1968 16.509 65.1884 16.394C65.1842 16.2748 65.1821 16.164 65.1821 16.0618V9.81348H66.3532Z" fill="white"/>
<path id="Vector_9" d="M75.9943 9.81348V18.9878H75.3143C75.2094 18.9878 75.1212 18.9687 75.0498 18.9303C74.9827 18.8921 74.9134 18.8303 74.8421 18.7451L69.7358 12.0432C69.7442 12.1582 69.7505 12.271 69.7547 12.3818C69.7631 12.4925 69.7673 12.5969 69.7673 12.6948V18.9878H68.5898V9.81348H69.2825C69.4 9.81348 69.4882 9.82834 69.5469 9.85816C69.6057 9.88371 69.6707 9.94548 69.7421 10.0435L74.861 16.7518C74.8484 16.6283 74.8379 16.509 74.8295 16.394C74.8253 16.2748 74.8232 16.164 74.8232 16.0618V9.81348H75.9943Z" fill="white"/>
<path id="Vector_10" d="M81.7511 15.359V18.9878H80.4159V15.359L77.104 9.81348H78.2815C78.399 9.81348 78.4934 9.84329 78.5648 9.90285C78.6361 9.95829 78.6949 10.0328 78.7411 10.1265L80.7055 13.5573C80.7852 13.7149 80.8566 13.864 80.9196 14.0046C80.9867 14.1451 81.0455 14.2835 81.0959 14.4198C81.1421 14.2835 81.1945 14.1451 81.2532 14.0046C81.3164 13.864 81.3876 13.7149 81.4677 13.5573L83.4252 10.1265C83.4673 10.0498 83.5239 9.97957 83.5952 9.91566C83.6713 9.84748 83.7652 9.81348 83.8785 9.81348H85.0628L81.7511 15.359Z" fill="white"/>
<path id="Vector_11" d="M41.36 29.8681C41.7 29.8681 41.998 29.8234 42.2541 29.734C42.5143 29.6445 42.7305 29.5189 42.9026 29.357C43.0789 29.1909 43.2111 28.995 43.2993 28.7692C43.3874 28.5392 43.4315 28.2858 43.4315 28.009C43.4315 27.451 43.2594 27.0123 42.9152 26.6928C42.5752 26.3734 42.0568 26.2137 41.36 26.2137H39.9622V29.8681H41.36ZM41.36 25.1467C41.9393 25.1467 42.4429 25.2149 42.8711 25.3512C43.2993 25.4875 43.654 25.6813 43.9352 25.9326C44.2164 26.1796 44.4242 26.4799 44.5585 26.8334C44.6971 27.1869 44.7663 27.5788 44.7663 28.009C44.7663 28.4392 44.6928 28.8353 44.5459 29.1973C44.399 29.5551 44.1828 29.8639 43.8974 30.1237C43.612 30.3835 43.2552 30.5858 42.8271 30.7306C42.4031 30.8712 41.9141 30.9415 41.36 30.9415H39.9622V34.3212H38.6211V25.1467H41.36Z" fill="white"/>
<path id="Vector_12" d="M50.4225 30.9031L49.0814 27.3445C48.9848 27.1017 48.8884 26.7951 48.7918 26.4245C48.7456 26.6076 48.6973 26.778 48.647 26.9356C48.6008 27.0933 48.5546 27.2338 48.5084 27.3573L47.1736 30.9031H50.4225ZM53.0733 34.3212H52.0406C51.9231 34.3212 51.8266 34.2914 51.7511 34.2317C51.6755 34.1721 51.6209 34.0955 51.5873 34.0017L50.7877 31.8742H46.8021L46.0025 34.0017C45.9731 34.0826 45.9185 34.1572 45.8388 34.2253C45.7591 34.2892 45.6625 34.3212 45.5492 34.3212H44.5166L48.1181 25.1467H49.4718L53.0733 34.3212Z" fill="white"/>
<path id="Vector_13" d="M60.2712 32.3533C60.3467 32.3533 60.4118 32.3832 60.4664 32.4427L60.9952 33.0305C60.6258 33.4735 60.1746 33.8164 59.6415 34.0591C59.1127 34.3019 58.4746 34.4233 57.7275 34.4233C57.0727 34.4233 56.4787 34.3083 55.9457 34.0783C55.4167 33.8483 54.9634 33.5268 54.5857 33.1136C54.2121 32.7004 53.9224 32.2064 53.7167 31.6314C53.5111 31.0564 53.4082 30.4239 53.4082 29.7339C53.4082 29.0439 53.5152 28.4114 53.7293 27.8364C53.9476 27.2614 54.2519 26.7673 54.6423 26.3541C55.0327 25.941 55.4986 25.6194 56.04 25.3894C56.5857 25.1594 57.1881 25.0444 57.8471 25.0444C58.4893 25.0444 59.0602 25.1509 59.5597 25.3639C60.0592 25.5768 60.4936 25.86 60.863 26.2136L60.4223 26.8461C60.3929 26.8929 60.3551 26.9313 60.309 26.9611C60.267 26.9909 60.2103 27.0058 60.139 27.0058C60.0592 27.0058 59.9648 26.9653 59.8557 26.8844C59.7507 26.8035 59.61 26.7141 59.4337 26.6161C59.2617 26.5139 59.0476 26.4223 58.7915 26.3414C58.5355 26.2604 58.2164 26.22 57.8345 26.22C57.3854 26.22 56.974 26.3009 56.6004 26.4627C56.2269 26.6203 55.9036 26.8503 55.6308 27.1527C55.3621 27.4509 55.1523 27.8193 55.0012 28.258C54.8543 28.6925 54.7808 29.1844 54.7808 29.7339C54.7808 30.2918 54.8585 30.788 55.0137 31.2225C55.1691 31.6569 55.3831 32.0253 55.656 32.3277C55.9288 32.6302 56.25 32.8602 56.6193 33.0177C56.9887 33.1753 57.3875 33.2541 57.8157 33.2541C58.0758 33.2541 58.3088 33.2393 58.5145 33.2094C58.7244 33.1753 58.9154 33.1264 59.0875 33.0625C59.2637 32.9986 59.4296 32.9177 59.5849 32.8197C59.7402 32.7175 59.8934 32.5961 60.0445 32.4555C60.0781 32.4257 60.1137 32.4023 60.1515 32.3852C60.1893 32.3639 60.2292 32.3533 60.2712 32.3533Z" fill="white"/>
<path id="Vector_14" d="M62.9894 29.7339C62.9894 30.2833 63.0628 30.7752 63.2097 31.2097C63.3566 31.6398 63.5665 32.0062 63.8394 32.3086C64.1122 32.611 64.4395 32.8432 64.8216 33.005C65.2077 33.1625 65.638 33.2414 66.1123 33.2414C66.5866 33.2414 67.0148 33.1625 67.3967 33.005C67.7829 32.8432 68.1103 32.611 68.3789 32.3086C68.6518 32.0062 68.8616 31.6398 69.0086 31.2097C69.1555 30.7752 69.2289 30.2833 69.2289 29.7339C69.2289 29.1887 69.1555 28.6989 69.0086 28.2644C68.8616 27.83 68.6518 27.4616 68.3789 27.1591C68.1103 26.8568 67.7829 26.6246 67.3967 26.4627C67.0148 26.3009 66.5866 26.22 66.1123 26.22C65.638 26.22 65.2077 26.3009 64.8216 26.4627C64.4395 26.6246 64.1122 26.8568 63.8394 27.1591C63.5665 27.4616 63.3566 27.83 63.2097 28.2644C63.0628 28.6989 62.9894 29.1887 62.9894 29.7339ZM71.036 36.1866H69.9279C69.7642 36.1866 69.6194 36.1632 69.4934 36.1164C69.3675 36.0738 69.25 35.9928 69.1408 35.8736L67.6171 34.1869C67.1554 34.3402 66.6538 34.4169 66.1123 34.4169C65.4449 34.4169 64.8341 34.3019 64.2801 34.0719C63.7302 33.8419 63.258 33.5203 62.8634 33.1072C62.473 32.6898 62.1687 32.1957 61.9504 31.625C61.7322 31.05 61.623 30.4196 61.623 29.7339C61.623 29.0523 61.7322 28.4241 61.9504 27.8491C62.1687 27.2741 62.473 26.78 62.8634 26.3669C63.258 25.9495 63.7302 25.6258 64.2801 25.3958C64.8341 25.1616 65.4449 25.0444 66.1123 25.0444C66.7839 25.0444 67.3946 25.1616 67.9445 25.3958C68.4944 25.6258 68.9666 25.9495 69.3612 26.3669C69.7558 26.78 70.0601 27.2741 70.2741 27.8491C70.4924 28.4241 70.6016 29.0523 70.6016 29.7339C70.6016 30.1598 70.5575 30.5666 70.4694 30.9541C70.3854 31.3375 70.2637 31.6952 70.1042 32.0275C69.9446 32.3597 69.7473 32.6621 69.5123 32.9347C69.2815 33.2073 69.0191 33.4458 68.7252 33.6502L71.036 36.1866Z" fill="white"/>
<path id="Vector_15" d="M75.8053 33.2287C76.1663 33.2287 76.4895 33.1669 76.775 33.0434C77.0604 32.9199 77.3017 32.7474 77.499 32.5259C77.6963 32.3001 77.8474 32.034 77.9523 31.7273C78.0572 31.4164 78.1097 31.0735 78.1097 30.6987V25.1467H79.4445V30.6987C79.4445 31.2353 79.3606 31.7315 79.1927 32.1873C79.0248 32.643 78.7835 33.037 78.4686 33.3692C78.1538 33.7015 77.7718 33.9613 77.3227 34.1487C76.8736 34.3361 76.3678 34.4298 75.8053 34.4298C75.2429 34.4298 74.7371 34.3361 74.2879 34.1487C73.8387 33.9613 73.4568 33.7015 73.142 33.3692C72.8272 33.037 72.5858 32.643 72.4179 32.1873C72.25 31.7315 72.166 31.2353 72.166 30.6987V25.1467H73.5072V30.6923C73.5072 31.0671 73.5575 31.41 73.6583 31.7209C73.7632 32.0319 73.9143 32.3001 74.1116 32.5259C74.3089 32.7474 74.5502 32.9199 74.8357 33.0434C75.1211 33.1669 75.4443 33.2287 75.8053 33.2287Z" fill="white"/>
<path id="Vector_16" d="M82.911 34.3212H81.564V25.1467H82.911V34.3212Z" fill="white"/>
<path id="Vector_17" d="M89.9468 30.9031L88.6054 27.3445C88.5091 27.1017 88.412 26.7951 88.3156 26.4245C88.2695 26.6076 88.2209 26.778 88.1707 26.9356C88.1246 27.0933 88.0784 27.2338 88.0323 27.3573L86.6974 30.9031H89.9468ZM92.5972 34.3212H91.5642C91.4469 34.3212 91.3505 34.2914 91.2752 34.2317C91.1991 34.1721 91.1449 34.0955 91.1109 34.0017L90.3119 31.8742H86.3258L85.5268 34.0017C85.4969 34.0826 85.4426 34.1572 85.3625 34.2253C85.2831 34.2892 85.1868 34.3212 85.0735 34.3212H84.0405L87.6421 25.1467H88.9956L92.5972 34.3212Z" fill="white"/>
<path id="Vector_18" d="M101.904 29.7339C101.904 30.4196 101.795 31.05 101.577 31.625C101.363 32.1957 101.058 32.6898 100.664 33.1072C100.27 33.5203 99.797 33.8419 99.2474 34.0719C98.6977 34.3019 98.0865 34.4169 97.4154 34.4169C96.7475 34.4169 96.1372 34.3019 95.5826 34.0719C95.033 33.8419 94.561 33.5203 94.166 33.1072C93.7758 32.6898 93.4714 32.1957 93.2536 31.625C93.0351 31.05 92.9258 30.4196 92.9258 29.7339C92.9258 29.0523 93.0351 28.4241 93.2536 27.8491C93.4714 27.2741 93.7758 26.78 94.166 26.3669C94.561 25.9495 95.033 25.6258 95.5826 25.3958C96.1372 25.1616 96.7475 25.0444 97.4154 25.0444C98.0865 25.0444 98.6977 25.1616 99.2474 25.3958C99.797 25.6258 100.27 25.9495 100.664 26.3669C101.058 26.78 101.363 27.2741 101.577 27.8491C101.795 28.4241 101.904 29.0523 101.904 29.7339ZM100.532 29.7339C100.532 29.1887 100.458 28.6989 100.311 28.2644C100.165 27.83 99.9549 27.4616 99.6821 27.1591C99.4133 26.8568 99.0855 26.6246 98.6993 26.4627C98.3172 26.3009 97.8898 26.22 97.4154 26.22C96.941 26.22 96.5104 26.3009 96.1242 26.4627C95.7421 26.6246 95.4151 26.8568 95.1423 27.1591C94.8695 27.4616 94.6598 27.83 94.5125 28.2644C94.3659 28.6989 94.2923 29.1887 94.2923 29.7339C94.2923 30.2833 94.3659 30.7752 94.5125 31.2097C94.6598 31.6398 94.8695 32.0062 95.1423 32.3086C95.4151 32.611 95.7421 32.8432 96.1242 33.005C96.5104 33.1625 96.941 33.2414 97.4154 33.2414C97.8898 33.2414 98.3172 33.1625 98.6993 33.005C99.0855 32.8432 99.4133 32.611 99.6821 32.3086C99.9549 32.0062 100.165 31.6398 100.311 31.2097C100.458 30.7752 100.532 30.2833 100.532 29.7339Z" fill="white"/>
</g>
<defs>
<clipPath id="clip0_2156_7222">
<rect width="102" height="46" fill="white" transform="translate(0.287109)"/>
</clipPath>
</defs>
</svg>
