<svg width="35" height="54" viewBox="0 0 35 54" fill="none" xmlns="http://www.w3.org/2000/svg">
<g id="Logo">
<path id="Vector" d="M17.2873 52.6142C25.7857 52.6142 32.8768 41.146 32.8768 26.9999C32.8768 12.8538 25.7857 1.3855 17.2873 1.3855C8.78888 1.3855 1.69775 12.8536 1.69775 26.9999C1.69775 41.1462 8.78888 52.6142 17.2873 52.6142Z" fill="white"/>
<path id="Vector (Stroke)" fill-rule="evenodd" clip-rule="evenodd" d="M5.09643 8.17431C8.0628 3.32435 12.3424 0 17.2871 0C22.2319 0 26.5114 3.32441 29.4778 8.17439C32.4643 13.0572 34.2871 19.7157 34.2871 27C34.2871 34.2843 32.4643 40.9428 29.4778 45.8256C26.5114 50.6756 22.2319 54 17.2871 54C12.3424 54 8.0628 50.6757 5.09643 45.8257C2.10996 40.9429 0.287109 34.2844 0.287109 27C0.287109 19.7156 2.10996 13.0571 5.09643 8.17431ZM7.51449 9.6016C4.83079 13.9894 3.10808 20.1381 3.10808 27C3.10808 33.8619 4.83079 40.0106 7.51449 44.3984C10.2183 48.819 13.7335 51.2287 17.2871 51.2287C20.8407 51.2287 24.3559 48.819 27.0597 44.3983C29.7434 40.0105 31.4661 33.8618 31.4661 27C31.4661 20.1382 29.7434 13.9895 27.0597 9.60167C24.3559 5.18099 20.8407 2.77126 17.2871 2.77126C13.7335 2.77126 10.2183 5.18095 7.51449 9.6016Z" fill="black"/>
<path id="Vector (Stroke)_2" fill-rule="evenodd" clip-rule="evenodd" d="M5.82336 8.55897C8.70533 3.847 12.7392 0.81665 17.2368 0.81665C21.7344 0.81665 25.7683 3.84705 28.6503 8.55905C31.5394 13.2828 33.3301 19.7774 33.3301 26.9259C33.3301 34.0744 31.5394 40.569 28.6503 45.2927C25.7683 50.0047 21.7344 53.0351 17.2368 53.0351C12.7392 53.0351 8.70533 50.0048 5.82336 45.2928C2.93422 40.5691 1.14355 34.0745 1.14355 26.9259C1.14355 19.7773 2.93422 13.2827 5.82336 8.55897ZM6.68696 9.06871C3.90594 13.6156 2.15105 19.9282 2.15105 26.9259C2.15105 33.9236 3.90594 40.2362 6.68696 44.7831C9.47515 49.3417 13.236 52.0454 17.2368 52.0454C21.2376 52.0454 24.9985 49.3417 27.7867 44.783C30.5677 40.2361 32.3226 33.9235 32.3226 26.9259C32.3226 19.9283 30.5677 13.6157 27.7867 9.06879C24.9985 4.51012 21.2376 1.80639 17.2368 1.80639C13.236 1.80639 9.47515 4.51007 6.68696 9.06871Z" fill="#FB090B"/>
<path id="Vector_2" d="M12.001 13.2344V40.0893L14.6136 41.079V13.2344H12.001Z" fill="black"/>
<path id="Vector_3" d="M9.38184 14.818V39.0995L11.9945 40.0893V13.2344L9.38184 14.818Z" fill="#FB090B"/>
<path id="Vector_4" d="M6.76221 16.7973V37.12L9.37483 39.0995V14.8179L6.76221 16.7973Z" fill="black"/>
<path id="Vector_5" d="M4.14258 20.7563V33.1611L6.7552 37.12V16.7974L4.14258 20.7563Z" fill="#FB090B"/>
<path id="Vector_6" d="M2.93359 23.1318V31.1817L4.13573 33.5571V20.1626L2.93359 23.1318Z" fill="black"/>
<path id="Vector (Stroke)_3" fill-rule="evenodd" clip-rule="evenodd" d="M22.7779 29.1032V40.0893H21.7704V29.1032H17.7454V28.1135H21.7704V25.6441H17.2417V24.6543H21.7704V13.8118H22.7779V24.6543H25.3973V15.6923H26.4048V24.6543H31.9208V25.6441H26.4048V28.1135H31.4171V29.1032H26.4048V38.2088H25.3973V29.1032H22.7779ZM25.3973 28.1135V25.6441H22.7779V28.1135H25.3973Z" fill="black"/>
<path id="Vector_7" d="M25.3939 15.4118L22.7813 13.8283V25.6358H17.2332V12.4426L14.6206 12.8385V41.0791H17.2332V28.2024H22.7813V40.0893L25.3939 39.0996V28.2024H32.0131V25.6358H25.3939V15.4118Z" fill="#FB090B"/>
<path id="Vector (Stroke)_4" fill-rule="evenodd" clip-rule="evenodd" d="M18.2443 12.3271V41.6233H17.2368V12.3271H18.2443Z" fill="black"/>
<path id="Vector (Stroke)_5" fill-rule="evenodd" clip-rule="evenodd" d="M17.2365 13.1438C9.48834 13.1438 3.2072 19.3142 3.2072 26.9259C3.2072 34.5375 9.48834 40.7079 17.2365 40.7079C24.9847 40.7079 31.2658 34.5375 31.2658 26.9259C31.2658 19.3142 24.9847 13.1438 17.2365 13.1438ZM2.19971 26.9259C2.19971 18.7676 8.93191 12.1541 17.2365 12.1541C25.5411 12.1541 32.2733 18.7676 32.2733 26.9259C32.2733 35.0841 25.5411 41.6977 17.2365 41.6977C8.93191 41.6977 2.19971 35.0841 2.19971 26.9259Z" fill="black"/>
<path id="Vector_8" d="M9.92408 41.964L10.0575 42.0113C10.958 42.3312 11.3515 41.9996 11.4877 41.691L12.2548 41.9636L10.6978 46.1927L9.76409 45.861L10.8365 42.9482L9.70928 42.5477L9.92408 41.964ZM14.3431 44.2855C13.9224 44.2229 13.7493 43.9025 13.7898 43.6396C13.84 43.3138 14.106 43.1228 14.5479 43.1885C14.8634 43.2354 15.0901 43.4868 15.0381 43.8251C14.9889 44.1444 14.7288 44.3427 14.3431 44.2855ZM15.8578 45.8623C15.9465 45.2861 15.7234 44.9646 15.2793 44.6808C15.7079 44.5523 15.9336 44.2526 15.9924 43.8706C16.0869 43.2568 15.6239 42.6307 14.593 42.4774C13.7235 42.3482 12.9727 42.7043 12.8561 43.4622C12.7924 43.8755 12.9595 44.1887 13.3252 44.4225C12.5196 44.6232 12.4289 45.2119 12.3942 45.4374C12.3008 46.0448 12.6278 46.8558 13.9111 47.0465C15.2293 47.2424 15.771 46.4261 15.8578 45.8623ZM14.8422 45.7499C14.7949 46.0567 14.5378 46.4221 14.026 46.3461C13.577 46.2794 13.3469 45.957 13.4126 45.531C13.487 45.0488 13.8624 44.8932 14.22 44.9462C14.7669 45.0276 14.8904 45.4368 14.8422 45.7499ZM17.744 44.1499C17.6896 43.506 18.1396 43.3549 18.3941 43.3342C18.903 43.2928 19.1771 43.5881 19.2202 44.0994C19.2649 44.6297 18.9018 44.8817 18.5557 44.9098C18.1809 44.9405 17.801 44.8253 17.744 44.1499ZM17.0192 46.1856C17.1643 46.8919 17.8166 47.2838 18.6717 47.2141C19.5764 47.1403 20.4479 46.5037 20.3014 44.7679C20.248 44.1366 20.0786 42.4662 18.3399 42.6077C17.3574 42.6877 16.6725 43.2583 16.7653 44.3568C16.8286 45.108 17.442 45.7127 18.4033 45.6343C18.7426 45.6066 19.1251 45.4993 19.3256 45.1778L19.3407 45.1893C19.413 46.1304 19.0292 46.4732 18.6191 46.5065C18.3153 46.5312 18.085 46.4164 18.0021 46.1118L18.0017 46.1054L17.0192 46.1856ZM21.9751 43.4723C21.7627 42.8609 22.1615 42.6067 22.4033 42.5257C22.8867 42.3636 23.2258 42.5847 23.3942 43.0701C23.5691 43.5737 23.2796 43.905 22.9505 44.0153C22.5949 44.1347 22.1979 44.1137 21.9751 43.4723ZM21.777 45.6201C22.0928 46.2705 22.8226 46.4944 23.6348 46.2222C24.494 45.9342 25.1813 45.1082 24.6087 43.4595C24.4005 42.8601 23.8218 41.2803 22.1705 41.8339C21.2374 42.1467 20.7147 42.864 21.077 43.9072C21.3246 44.6206 22.0696 45.0603 22.9826 44.7542C23.3048 44.6464 23.6489 44.4506 23.7638 44.0907L23.7813 44.0982C24.085 44.9938 23.7976 45.4179 23.4083 45.5486C23.1196 45.6454 22.8677 45.5892 22.712 45.3134L22.7099 45.3075L21.777 45.6201ZM17.4807 5.49734C16.0807 5.5201 14.8493 6.60169 14.8715 7.91507C14.8934 9.21934 16.1502 10.2607 17.5603 10.2378C18.2552 10.2265 18.9061 9.98203 19.3625 9.5608L20.0683 10.1972C19.4332 10.7744 18.5426 11.1307 17.5655 11.1466C15.5511 11.1792 13.8747 9.73994 13.8442 7.93189C13.8138 6.12384 15.4107 4.62221 17.4654 4.58896C18.4424 4.57312 19.3242 4.88271 19.9686 5.45715L19.2845 6.11612C18.8142 5.70954 18.1857 5.48586 17.4807 5.49734ZM20.8638 11.4611L21.8713 8.29394L22.6773 12.0549H23.0551L24.0878 9.67957L25.322 13.2674L26.4806 14.0591L24.6671 7.92279L23.9367 7.50215L23.1559 9.58059L22.4506 6.14126L21.6698 5.74537L20.0578 11.2631L20.8638 11.4611ZM14.3403 11.2879L12.7787 5.74537L11.4186 6.51241L7.56494 14.2324L9.12655 13.2426L10.134 11.2384L12.9046 10.1992L13.3076 11.5353L14.3403 11.2879ZM10.6378 10.0507L12.149 7.05677L12.678 9.25893L10.6378 10.0507Z" fill="black"/>
</g>
</svg>
