<svg width="57" height="46" viewBox="0 0 57 46" fill="none" xmlns="http://www.w3.org/2000/svg">
<g id="Logo">
<path id="Vector" d="M56.2871 0L7.73168 14.6789C3.44053 15.9365 0.282635 18.7908 0.287114 23.1651C0.287114 27.2725 3.16281 30.3666 7.00604 31.4975L56.2782 46L56.2871 0Z" fill="#DE2027"/>
<path id="Vector_2" d="M16.9411 20.1661C16.7888 20.917 16.2424 21.4055 14.8807 21.4055H13.4787L14.0117 18.9266H15.3913C16.865 18.9266 17.1113 19.379 16.9411 20.1661ZM16.3991 24.7756C16.1976 25.7165 15.5033 26.1326 13.8863 26.1326H12.4887L13.0621 23.4185H14.4596C16.0901 23.4185 16.5873 23.8392 16.3991 24.7756ZM40.5022 16.8277C38.3521 16.8277 37.8146 18.3747 37.8146 18.3747L35.5122 23.898H35.463L34.8762 16.8277H31.2435C30.7302 16.8424 30.2308 16.9996 29.8002 17.2821C29.3695 17.5646 29.0243 17.9614 28.8023 18.429L26.043 23.898H25.9938V16.8277H23.5346C21.9042 16.8277 21.5503 17.7324 21.4786 18.2209C21.0083 17.3162 19.7093 16.8277 17.3891 16.8277H11.566C9.67573 16.8277 9.50552 18.2526 9.50552 18.2526L7.35547 28.1456H15.6153C18.0341 28.1456 18.809 27.8968 19.678 27.268C20.3306 26.7665 20.7785 26.0406 20.9367 25.2279C21.3398 23.2873 19.9736 22.5138 18.4193 22.4233V22.3917C19.8392 22.066 21.0442 21.4327 21.4921 20.1615L21.6713 28.1456H25.613C26.271 28.1324 26.9116 27.93 27.4598 27.5623C28.008 27.1946 28.441 26.6767 28.7082 26.0693L31.1225 21.2653H31.1673L31.7272 28.1456H35.248C35.9711 28.1492 36.6796 27.9397 37.2866 27.5428C37.8937 27.1459 38.3729 26.5788 38.6657 25.911L41.7608 18.9538L39.8258 28.1682H41.9311C44.65 28.1682 45.0083 25.9788 45.0083 25.9788L45.4294 23.9297H48.4484C50.7732 23.9297 51.1091 22.1202 51.1091 22.1202L51.2345 21.5277H45.931L46.4238 19.1754H49.7608C52.0408 19.1754 52.3678 17.47 52.3678 17.47L52.5111 16.7915L40.5022 16.8277Z" fill="white"/>
</g>
</svg>
