<svg width="33" height="32" viewBox="0 0 33 32" fill="none" xmlns="http://www.w3.org/2000/svg">
<g id="social / twitter" clip-path="url(#clip0_2123_6075)">
<g id="Union">
<path fill-rule="evenodd" clip-rule="evenodd" d="M14.3542 16.9287L6.92255 6.99207H12.6503L17.5224 13.5064L23.5521 6.99207H25.2354L18.2743 14.5122L26.1243 25.0077H20.3966L15.1065 17.9343L8.55895 25.0077H6.87571L14.3542 16.9287ZM12.0291 8.23181H9.39783L21.0174 23.768H23.6487L12.0291 8.23181Z" fill="white"/>
<path fill-rule="evenodd" clip-rule="evenodd" d="M10.2719 30.7425C12.2449 31.5768 14.3403 32 16.5 32C18.6597 32 20.7551 31.5768 22.7281 30.7425C24.6332 29.9366 26.3443 28.7827 27.8137 27.3137C29.2831 25.8446 30.4366 24.1336 31.2425 22.2281C32.0769 20.2551 32.5 18.1597 32.5 16C32.5 13.8403 32.0769 11.7449 31.2425 9.77191C30.4366 7.86676 29.2831 6.15574 27.8137 4.68633C26.3446 3.21693 24.6336 2.06343 22.7281 1.2575C20.7551 0.423152 18.6597 0 16.5 0C14.3403 0 12.2449 0.423152 10.2719 1.2575C8.36676 2.06343 6.65574 3.21693 5.18633 4.68633C3.71693 6.15541 2.56343 7.86643 1.7575 9.77191C0.923155 11.7449 0.5 13.8403 0.5 16C0.5 18.1597 0.923155 20.2551 1.7575 22.2281C2.56343 24.1332 3.71725 25.8443 5.18633 27.3137C6.65541 28.7831 8.36643 29.9366 10.2719 30.7425ZM1.40445 15.9997C1.40445 7.67585 8.17617 0.904124 16.5 0.904124C24.8238 0.904124 31.5956 7.67618 31.5956 15.9997C31.5956 24.3232 24.8238 31.0952 16.5 31.0952C8.17617 31.0952 1.40445 24.3235 1.40445 15.9997Z" fill="white"/>
</g>
</g>
<defs>
<clipPath id="clip0_2123_6075">
<rect width="32" height="32" fill="white" transform="translate(0.5)"/>
</clipPath>
</defs>
</svg>
