<svg width="139" height="40" viewBox="0 0 139 40" fill="none" xmlns="http://www.w3.org/2000/svg">
<g id="M88.io_logo">
<g id="Group 3231">
<g id="Group">
<g id="c">
<g id="Group_2">
<path id="Vector" d="M65.095 19.3322C69.9587 18.6068 71.0229 16.0807 71.0229 11.7564V7.19895C71.0229 2.40947 67.1952 0 59.5129 0C51.8306 0 48.0029 2.40947 48.0029 7.19895V12.569C48.0029 16.3422 48.8366 18.3171 53.2687 19.0708C48.8379 20.0576 48.0029 22.8157 48.0029 26.8503V32.7433C48.0029 37.5916 51.8306 39.9999 59.5129 39.9999C67.1952 39.9999 71.0229 37.5904 71.0229 32.7433V26.908C71.0229 22.4671 69.9587 19.9423 65.095 19.3322ZM59.4553 16.8061C57.7572 16.8061 56.9235 15.9936 56.9235 14.3967V6.73375C56.9235 5.1663 57.7585 4.41143 59.4553 4.41143C61.1521 4.41143 62.0447 5.19454 62.0447 6.73375V14.3967C62.0447 15.9936 61.1815 16.8061 59.4553 16.8061ZM59.4553 35.3552C57.7572 35.3552 56.9235 34.5427 56.9235 32.9458V24.2665C56.9235 22.6119 57.7585 21.7994 59.4553 21.7994C61.1521 21.7994 62.0447 22.6119 62.0447 24.2665V32.9458C62.0447 34.5427 61.1815 35.3552 59.4553 35.3552Z" fill="white"/>
<path id="Vector_2" d="M91.4916 19.3322C96.3577 18.6068 97.4243 16.0807 97.4243 11.7564V7.19895C97.4243 2.40947 93.5942 0 85.9046 0C78.2149 0 74.3848 2.40947 74.3848 7.19895V12.569C74.3848 16.3422 75.2197 18.3171 79.6555 19.0708C75.2197 20.0576 74.3848 22.8157 74.3848 26.8503V32.7433C74.3848 37.5916 78.2149 39.9999 85.9046 39.9999C93.5942 39.9999 97.4243 37.5904 97.4243 32.7433V26.908C97.4243 22.4671 96.3589 19.9423 91.4916 19.3322ZM85.8469 16.8061C84.1477 16.8061 83.3127 15.9936 83.3127 14.3967V6.73375C83.3127 5.1663 84.1477 4.41143 85.8469 4.41143C87.5462 4.41143 88.4388 5.19454 88.4388 6.73375V14.3967C88.467 15.9936 87.6038 16.8061 85.8469 16.8061ZM85.8469 35.3552C84.1477 35.3552 83.3127 34.5427 83.3127 32.9458V24.2665C83.3127 22.6119 84.1477 21.7994 85.8469 21.7994C87.5462 21.7994 88.4388 22.6119 88.4388 24.2665V32.9458C88.467 34.5427 87.6038 35.3552 85.8469 35.3552Z" fill="white"/>
</g>
</g>
</g>
<g id="Group 10">
<path id="Vector_3" d="M113.6 40H108.8V17.6001H113.6V40Z" fill="#ED334D"/>
<path id="Vector_4" d="M105.6 40.0002H100.8V35.2002H105.6V40.0002Z" fill="#ED334D"/>
<g id="Group_3">
<path id="Vector_5" d="M121.229 22.3283L132.363 22.2758C132.923 22.2758 133.413 22.4858 133.842 22.9147C134.271 23.3436 134.481 23.8512 134.481 24.4377V35.5011H138.901V24.3501C138.901 22.6434 138.253 21.1379 136.958 19.8425C135.663 18.5471 134.157 17.8994 132.45 17.8994H121.229V22.3283Z" fill="#ED334D"/>
<path id="Vector_6" d="M134.472 35.5014L123.383 35.5802C122.796 35.5802 122.289 35.3701 121.86 34.9413C121.431 34.5124 121.221 34.0047 121.221 33.4183V22.3374H116.801V33.5496C116.801 35.2564 117.448 36.7618 118.744 38.0572C120.039 39.3526 121.553 40.0003 123.295 40.0003H134.472V35.5014Z" fill="#ED334D"/>
</g>
</g>
</g>
<rect id="Rectangle 732" width="44.8484" height="39.9999" rx="1" fill="#FB3D54"/>
<path id="Vector_7" fill-rule="evenodd" clip-rule="evenodd" d="M17.6193 19.2553V31.6746C17.6193 31.9449 17.55 32.1155 17.3097 32.1155C17.0695 32.1155 16.9691 31.9449 16.9691 31.6746V30.0346H16.3572C15.9174 30.0346 14.5011 31.1303 13.6012 31.826C13.3131 32.0494 13.0777 32.2321 12.9438 32.3234C11.953 31.7431 10.722 31.164 9.80054 30.854C9.63561 31.009 9.48382 31.1496 9.34757 31.2757C9.06073 31.5424 8.83604 31.7503 8.67828 31.9125C8.61972 31.9713 8.56952 32.0242 8.5253 32.0699C8.38905 32.2116 8.31256 32.2921 8.23727 32.2921C8.06636 32.2921 7.8584 32.0915 7.8584 31.9137C7.8584 31.7359 8.23727 31.3334 9.97981 29.548C11.1726 28.319 11.6518 26.8496 11.6518 24.5909C11.6518 20.8641 10.0491 17.6779 8.20619 17.6779C7.59427 17.6779 7.28472 17.9169 7.18433 18.5369C7.15326 18.8468 7.01342 18.9466 6.87478 18.9466C6.60348 18.9466 6.46484 18.4984 6.46484 17.7475C6.46484 16.0391 7.65761 14.6695 9.12766 14.6695C9.8113 14.6695 10.2738 14.971 10.6742 15.2317C11.0136 15.4528 11.3064 15.6438 11.6518 15.597V13.0992C11.6518 12.4492 11.4116 11.9001 10.9324 11.4905C10.5224 11.1504 8.40818 9.71233 7.61937 9.71233C7.46878 9.71233 7.35763 9.74356 7.26082 9.7712C7.18433 9.79282 7.11382 9.81325 7.03852 9.81325C6.93813 9.81325 6.89988 9.78201 6.89988 9.71233C6.89988 9.62342 6.95486 9.55854 7.10784 9.37833C7.12696 9.3555 7.14848 9.33027 7.17118 9.30264L9.86508 6.63545C9.89018 6.61743 9.91169 6.60061 9.9332 6.58499C10.0288 6.5117 10.0922 6.46484 10.2057 6.46484C10.7507 6.46484 12.2602 7.49447 13.4948 8.33548C14.3493 8.91818 15.0724 9.41077 15.2529 9.41077C15.5791 9.41077 16.5484 8.80524 17.5978 8.14926C18.8348 7.37673 20.1829 6.53333 20.7195 6.53333C20.9741 6.53333 21.2346 6.74478 22.9856 8.16127L22.9939 8.16848C23.1051 8.25739 23.221 8.3523 23.3441 8.45202C23.429 8.5193 23.5341 8.60821 23.6537 8.70913C24.0182 9.01549 24.519 9.436 24.9851 9.72074C25.5348 10.0607 25.5659 10.1304 25.5659 10.7804C25.9065 10.7107 26.2854 10.4404 28.4307 8.69231C29.0426 8.1817 30.8545 6.70513 30.9931 6.70513C31.1641 6.70513 32.6652 7.32387 34.887 8.24417C35.5371 8.5145 35.6375 8.58418 35.6375 8.99387V26.6886C35.6375 27.2689 35.7069 27.4768 35.9471 27.6786C36.969 28.5677 37.588 28.9077 37.9287 28.9077C38.0291 28.9077 38.1689 28.8692 38.2693 28.7683C38.4402 28.5292 38.4784 28.498 38.5788 28.498C38.6792 28.498 38.788 28.6374 38.788 28.7683C38.788 28.9774 37.2546 30.8864 35.683 32.1239C34.7304 31.7839 33.0895 30.6546 32.168 29.6958C31.8584 29.3558 31.7963 29.2861 31.7963 28.7058V16.0391C31.7963 14.5697 32.2684 13.5725 33.9799 11.2826C34.8702 10.1232 34.9324 9.7748 34.7615 9.7748C34.6778 9.7748 33.9058 10.3106 33.2078 10.7936C32.7345 11.1216 32.2947 11.4256 32.1285 11.5229C32.0544 11.4796 31.9827 11.4388 31.9122 11.3979C30.2414 10.4356 29.6964 10.122 28.745 10.122C28.2024 10.122 27.8236 10.3923 27.8236 10.7408V31.7815C27.8236 32.0518 27.6849 32.2609 27.483 32.2609C27.312 32.2609 27.2117 32.0903 27.2117 31.82V30.2425C26.2507 30.3987 25.407 31.1832 24.844 31.7082C24.5452 31.987 24.3253 32.1912 24.207 32.1912C23.8353 32.1912 21.6135 29.524 21.6135 29.315V19.2541H17.6181L17.6193 19.2553ZM17.0002 10.5329C17.0002 9.84449 16.9309 9.61261 16.7982 9.61261C16.497 9.61261 15.3975 10.301 15.3975 10.5329V20.005C15.3975 24.6005 14.8764 25.1508 13.6944 26.3955C13.6717 26.4195 13.6478 26.4447 13.6239 26.47C13.0741 27.0503 12.9426 27.1896 12.5327 27.669C13.2522 28.659 15.6377 29.1071 17.0074 29.0374V10.5329H16.999H17.0002ZM21.6147 16.0079H17.6193V10.2626C17.6193 9.81445 17.8213 9.57416 18.2001 9.57416C19.0523 9.57416 21.6147 11.5229 21.6147 12.2414V16.0079ZM27.2117 11.1432C27.2117 11.0736 27.1806 11.0423 27.073 11.0423C26.9726 11.0423 26.8017 11.112 26.6941 11.1817L25.9125 11.6611C25.4715 11.9314 25.3317 12.0707 25.3317 12.2798V15.6979C25.3317 15.937 25.6412 16.1076 25.8814 16.1076H27.2128V11.1432H27.2117ZM25.9113 19.1857H27.2045V29.1071C25.9424 29.0062 25.3615 28.3574 25.3615 26.989V19.975C25.3615 19.4644 25.5396 19.1869 25.9113 19.1869V19.1857Z" fill="white"/>
</g>
</svg>
