<svg width="212" height="44" viewBox="0 0 212 44" fill="none" xmlns="http://www.w3.org/2000/svg">
<path d="M92.5797 0H91.9709V44H92.5797V0Z" fill="white"/>
<path d="M120.603 16.1404C117.462 16.1404 114.911 18.7014 114.911 21.8416C114.911 24.9879 117.468 27.5428 120.603 27.5428C123.744 27.5428 126.295 24.9818 126.295 21.8416C126.295 18.7014 123.744 16.1404 120.603 16.1404Z" fill="white"/>
<path d="M152.272 28.4755H143.475V13.1218H147.457V24.9877H152.272V28.4755Z" fill="white"/>
<path d="M159.603 19.3777C157.831 19.3777 156.693 20.7009 156.693 22.3229C156.693 24.0302 157.77 25.4326 159.481 25.4326C161.131 25.4326 162.507 24.2131 162.507 22.4265C162.507 20.6216 161.234 19.3777 159.603 19.3777ZM152.93 22.3838C152.93 18.957 155.457 15.9265 158.866 15.9265C160.358 15.9265 161.295 16.4265 162.391 17.4326V16.1704H166.056V28.4753H162.33V27.2741C162.33 27.2741 160.997 28.7802 158.665 28.7802C155.262 28.7802 152.93 26.3289 152.93 22.3838Z" fill="white"/>
<path d="M177.044 28.4755H168.241V13.1218H172.223V24.9877H177.044V28.4755Z" fill="white"/>
<path d="M182.396 28.4754H178.694V16.1705H182.396V28.4754ZM178.335 13.0425C178.335 11.7986 179.327 10.7742 180.563 10.7742C181.799 10.7742 182.816 11.7559 182.816 12.9998C182.816 14.262 181.799 15.2864 180.527 15.2864C179.309 15.2864 178.335 14.3047 178.335 13.0425Z" fill="white"/>
<path d="M190.182 19.1155C188.453 19.1155 187.595 20.5363 187.595 22.0607C187.595 23.646 188.532 24.9448 190.164 24.9448C192.014 24.9448 193.007 23.4631 193.007 22.079C193.007 20.4387 192.094 19.1155 190.182 19.1155ZM183.99 22.0851C183.99 18.7558 186.103 15.9326 189.33 15.9326C190.882 15.9326 191.935 16.4326 192.988 17.5546V16.1704H196.538V27.0119C196.538 30.8168 193.689 32.8046 190.261 32.8046C187.254 32.8046 184.624 31.2802 184.228 28.5119H188.386C188.903 29.3534 189.421 29.5119 190.34 29.5119C191.631 29.5119 192.83 28.9143 192.83 27.5729C192.83 27.2497 192.848 26.9692 192.812 26.6521C192.094 27.2924 190.76 28.0729 189.305 28.0729C186.14 28.079 183.99 25.4326 183.99 22.0851Z" fill="white"/>
<path d="M204.8 19.3777C203.028 19.3777 201.896 20.7009 201.896 22.3229C201.896 24.0302 202.967 25.4326 204.684 25.4326C206.34 25.4326 207.71 24.2131 207.71 22.4265C207.704 20.6216 206.431 19.3777 204.8 19.3777ZM198.127 22.3838C198.127 18.957 200.654 15.9265 204.063 15.9265C205.561 15.9265 206.492 16.4265 207.588 17.4326V16.1704H211.253V28.4753H207.527V27.2741C207.527 27.2741 206.194 28.7802 203.862 28.7802C200.459 28.7802 198.127 26.3289 198.127 22.3838Z" fill="white"/>
<path d="M108.731 11.9147C108.701 11.9757 108.701 12.0488 108.743 12.1098C108.761 12.1403 108.786 12.1586 108.816 12.1708L114.77 15.6342L114.782 15.6403C114.843 15.6769 114.922 15.6708 114.983 15.6281C115.002 15.6159 115.02 15.5976 115.032 15.5793C115.038 15.5732 115.044 15.561 115.05 15.5488C115.598 14.5732 116.365 13.7013 117.333 13.0122C118.307 12.3232 119.385 11.8903 120.493 11.6952C120.499 11.6952 120.511 11.6952 120.517 11.6891C120.542 11.683 120.566 11.6708 120.584 11.6586C120.645 11.6159 120.676 11.5427 120.663 11.4696V11.4574L119.391 4.69518V4.68299C119.385 4.6586 119.373 4.62811 119.355 4.60372C119.312 4.54884 119.245 4.51835 119.178 4.52445C119.172 4.52445 119.166 4.52445 119.16 4.52445C117.059 4.9086 114.977 5.74396 113.114 7.06713C111.257 8.3903 109.79 10.0549 108.731 11.9147Z" fill="#893A96"/>
<path d="M105.328 25.0123C105.358 25.0733 105.419 25.1221 105.486 25.1282C105.517 25.1282 105.553 25.1221 105.577 25.1099L112 22.6282L112.012 22.6221C112.079 22.5977 112.128 22.5306 112.128 22.4574C112.128 22.433 112.128 22.4087 112.122 22.3904C112.116 22.3782 112.116 22.3721 112.11 22.3599C111.696 21.3233 111.495 20.177 111.568 18.9879C111.641 17.7928 111.976 16.677 112.518 15.6952C112.524 15.6891 112.524 15.6831 112.53 15.677C112.542 15.6526 112.548 15.6282 112.548 15.6038C112.554 15.5245 112.512 15.4574 112.451 15.4209L112.439 15.4148L106.375 12.1526L106.363 12.1465C106.338 12.1343 106.308 12.1282 106.284 12.1282C106.211 12.1282 106.15 12.1648 106.113 12.2196C106.107 12.2257 106.107 12.2318 106.107 12.2318C105.084 14.1099 104.439 16.2623 104.299 18.5428C104.171 20.8233 104.542 23.0184 105.328 25.0123Z" fill="#0065B1"/>
<path d="M113.492 35.768C113.559 35.7863 113.632 35.768 113.681 35.7131C113.705 35.6887 113.717 35.6583 113.729 35.6278L115.775 29.0485L115.781 29.0363C115.799 28.9692 115.781 28.89 115.726 28.8412C115.708 28.8229 115.69 28.8107 115.665 28.8046C115.653 28.7985 115.647 28.7985 115.635 28.7985C114.564 28.4814 113.547 27.9265 112.658 27.1278C111.769 26.329 111.106 25.3717 110.673 24.3351C110.673 24.329 110.667 24.3229 110.667 24.3107C110.655 24.2863 110.643 24.268 110.625 24.2497C110.57 24.2009 110.491 24.1887 110.424 24.2131L110.412 24.2192L104.092 26.957L104.08 26.9631C104.056 26.9753 104.031 26.9936 104.013 27.0119C103.964 27.0668 103.952 27.14 103.977 27.2009C103.977 27.207 103.983 27.2131 103.983 27.2192C104.823 29.1887 106.101 31.0302 107.8 32.5546C109.498 34.0851 111.446 35.1522 113.492 35.768Z" fill="#0A9BD7"/>
<path d="M126.916 36.0914C126.971 36.0487 127.002 35.9816 126.996 35.9085C126.989 35.878 126.977 35.8475 126.959 35.8231L123.124 30.0975L123.111 30.0853C123.069 30.0304 122.996 29.9938 122.923 30.006C122.898 30.0121 122.88 30.0182 122.856 30.0304C122.843 30.0365 122.837 30.0426 122.831 30.0487C121.912 30.6828 120.841 31.1341 119.666 31.3231C118.484 31.5182 117.328 31.4328 116.25 31.1219C116.244 31.1219 116.238 31.1158 116.226 31.1158C116.202 31.1097 116.177 31.1097 116.153 31.1158C116.08 31.128 116.019 31.1828 116.001 31.2499L115.995 31.2621L114.162 37.9085V37.9207C114.156 37.9511 114.156 37.9755 114.162 38.006C114.174 38.0731 114.223 38.128 114.29 38.1524C114.296 38.1524 114.302 38.1585 114.308 38.1585C116.366 38.7377 118.606 38.8963 120.853 38.5243C123.099 38.1524 125.151 37.2987 126.916 36.0914Z" fill="#0FB05F"/>
<path d="M135.653 25.8229C135.653 25.7559 135.622 25.6888 135.555 25.6522C135.525 25.6339 135.494 25.6278 135.464 25.6278L128.603 25.0912H128.59C128.517 25.0851 128.45 25.1217 128.414 25.1888C128.402 25.2071 128.396 25.2315 128.39 25.2559C128.39 25.2681 128.39 25.2803 128.39 25.2864C128.317 26.4022 128.006 27.5181 127.428 28.5607C126.849 29.6095 126.064 30.4693 125.151 31.1217C125.145 31.1278 125.139 31.1278 125.132 31.1339C125.114 31.1522 125.096 31.1705 125.084 31.1888C125.047 31.2559 125.053 31.3351 125.096 31.39L125.102 31.4022L129.169 36.9632L129.175 36.9754C129.193 36.9997 129.211 37.018 129.242 37.0302C129.303 37.0607 129.376 37.0546 129.437 37.0241C129.443 37.0241 129.443 37.018 129.449 37.018C131.178 35.7619 132.688 34.0973 133.796 32.1034C134.898 30.0973 135.506 27.9632 135.653 25.8229Z" fill="#FDDC2D"/>
<path d="M133.058 12.5607C133.004 12.518 132.93 12.4997 132.864 12.5241C132.833 12.5363 132.809 12.5546 132.784 12.579L128.048 17.5851L128.036 17.5973C127.987 17.6522 127.975 17.7253 127.999 17.7985C128.011 17.8229 128.024 17.8412 128.036 17.8595C128.042 17.8656 128.048 17.8778 128.06 17.8839C128.882 18.6461 129.552 19.5912 129.996 20.6948C130.441 21.8046 130.617 22.957 130.55 24.079C130.55 24.0851 130.55 24.0973 130.55 24.1034C130.55 24.1278 130.556 24.1521 130.562 24.1765C130.593 24.2497 130.66 24.2924 130.727 24.2985H130.739L137.612 24.6339H137.624C137.655 24.6339 137.679 24.6278 137.71 24.6156C137.777 24.5851 137.819 24.5241 137.825 24.457C137.825 24.4509 137.825 24.4448 137.825 24.4387C137.941 22.2985 137.6 20.079 136.748 17.9631C135.901 15.8412 134.623 14.018 133.058 12.5607Z" fill="#F68D32"/>
<path d="M121.023 6.39624C120.956 6.40843 120.895 6.45721 120.877 6.53039C120.865 6.56087 120.865 6.59746 120.871 6.62795L121.875 13.4511V13.4633C121.887 13.5304 121.936 13.5914 122.009 13.6157C122.034 13.6218 122.058 13.6218 122.076 13.6218C122.088 13.6218 122.1 13.6218 122.107 13.6157C123.208 13.4389 124.365 13.4938 125.51 13.8231C126.66 14.1584 127.671 14.7316 128.505 15.4755C128.511 15.4816 128.517 15.4877 128.523 15.4938C128.542 15.506 128.566 15.5182 128.59 15.5304C128.663 15.5548 128.736 15.5304 128.785 15.4755L128.791 15.4633L133.296 10.2499L133.302 10.2377C133.321 10.2133 133.333 10.1889 133.339 10.1645C133.357 10.0975 133.333 10.0243 133.29 9.97551C133.284 9.96941 133.284 9.96941 133.278 9.96331C131.671 8.55478 129.717 7.45112 127.525 6.81697C125.358 6.17673 123.142 6.06087 121.023 6.39624Z" fill="#EE3435"/>
<path d="M124.737 25.0611C124.822 24.8294 124.852 24.5611 124.877 24.3477C124.761 24.4574 124.639 24.5611 124.505 24.6587C124.116 24.9453 123.69 25.1282 123.282 25.2135L122.18 24.0123L122.168 24.0245L122.965 25.4392C122.758 25.805 122.448 26.1587 122.052 26.4453C121.918 26.5428 121.784 26.6282 121.644 26.7014C121.851 26.7379 122.113 26.7928 122.362 26.7867C121.808 26.9818 121.218 27.0916 120.597 27.0916C119.976 27.0916 119.385 26.9818 118.831 26.7867C119.075 26.7989 119.343 26.7379 119.55 26.7014C119.41 26.6282 119.276 26.5428 119.142 26.4453C118.746 26.1587 118.436 25.805 118.229 25.4392L119.026 24.0245L119.014 24.0123L117.912 25.2135C117.504 25.1282 117.084 24.9392 116.688 24.6587C116.554 24.5611 116.433 24.4574 116.317 24.3477C116.347 24.5611 116.372 24.8294 116.457 25.0611C115.769 24.1709 115.355 23.055 115.355 21.8416C115.355 21.7867 115.355 21.7257 115.361 21.6709C115.422 21.9148 115.568 22.1587 115.672 22.3538C115.696 22.2014 115.739 22.0428 115.787 21.8843C115.94 21.4148 116.177 21.0123 116.463 20.6953L118.04 21.0123L118.046 20.994L116.573 20.3172C116.53 19.9026 116.573 19.4453 116.725 18.9879C116.774 18.8294 116.834 18.6831 116.908 18.5428C116.707 18.6404 116.439 18.7562 116.238 18.927C116.926 17.8965 117.961 17.1282 119.178 16.7867C118.953 16.9209 118.752 17.1465 118.594 17.3111C118.752 17.2867 118.91 17.2806 119.075 17.2806C119.562 17.2806 120.018 17.3843 120.402 17.555L120.585 19.1526H120.603L120.786 17.555C121.169 17.3843 121.62 17.2806 122.107 17.2806C122.271 17.2806 122.435 17.2928 122.588 17.3111C122.429 17.1465 122.234 16.9209 122.003 16.7867C123.221 17.1282 124.256 17.8965 124.938 18.9209C124.743 18.7501 124.475 18.6343 124.274 18.5367C124.341 18.677 124.402 18.8294 124.457 18.9818C124.603 19.4453 124.651 19.9026 124.609 20.3172L123.142 20.9879L123.148 21.0062L124.724 20.6892C125.011 21.0001 125.248 21.4026 125.4 21.8721C125.449 22.0306 125.492 22.1831 125.516 22.3416C125.619 22.1526 125.759 21.9087 125.82 21.6648C125.82 21.7196 125.826 21.7745 125.826 21.8294C125.839 23.0611 125.431 24.1709 124.737 25.0611ZM120.603 16.1404C117.462 16.1404 114.911 18.7014 114.911 21.8416C114.911 24.9879 117.468 27.5428 120.603 27.5428C123.744 27.5428 126.295 24.9818 126.295 21.8416C126.295 18.7014 123.744 16.1404 120.603 16.1404Z" fill="black"/>
<path d="M118.302 21.0972L119.185 23.8046H122.028L122.904 21.0972L120.603 19.4204L118.302 21.0972Z" fill="black"/>
<path d="M50.9202 11.2072C53.6963 10.7926 54.3051 9.35357 54.3051 6.87797V4.28041C54.3051 1.5426 52.1195 0.170654 47.7362 0.170654C43.3528 0.170654 41.1672 1.5487 41.1672 4.28041V7.34748C41.1672 9.49992 41.6421 10.628 44.1747 11.0609C41.6421 11.6219 41.1672 13.2011 41.1672 15.506V18.8719C41.1672 21.6401 43.3528 23.0182 47.7362 23.0182C52.1195 23.0182 54.3051 21.6401 54.3051 18.8719V15.5426C54.3051 12.9999 53.6963 11.5548 50.9202 11.2072ZM47.6996 9.76821C46.7316 9.76821 46.2568 9.30479 46.2568 8.39016V4.01211C46.2568 3.11577 46.7316 2.68894 47.6996 2.68894C48.6859 2.68894 49.179 3.13407 49.179 4.01211V8.39016C49.179 9.30479 48.6859 9.76821 47.6996 9.76821ZM47.6996 20.3597C46.7316 20.3597 46.2568 19.8962 46.2568 18.9816V14.0243C46.2568 13.0792 46.7316 12.6158 47.6996 12.6158C48.6859 12.6158 49.179 13.0792 49.179 14.0243V18.9816C49.179 19.8962 48.6859 20.3597 47.6996 20.3597Z" fill="white"/>
<path d="M65.9875 11.2072C68.7636 10.7926 69.3724 9.35357 69.3724 6.87797V4.28041C69.3724 1.5426 67.1869 0.170654 62.7974 0.170654C58.408 0.170654 56.2224 1.5487 56.2224 4.28041V7.34748C56.2224 9.49992 56.6973 10.628 59.2299 11.0609C56.6973 11.6219 56.2224 13.2011 56.2224 15.506V18.8719C56.2224 21.6401 58.408 23.0182 62.7974 23.0182C67.1869 23.0182 69.3724 21.6401 69.3724 18.8719V15.5426C69.3724 12.9999 68.7636 11.5548 65.9875 11.2072ZM62.767 9.76821C61.799 9.76821 61.3181 9.30479 61.3181 8.39016V4.01211C61.3181 3.11577 61.7929 2.68894 62.767 2.68894C63.7532 2.68894 64.2464 3.13407 64.2464 4.01211V8.39016C64.2585 9.30479 63.7715 9.76821 62.767 9.76821ZM62.767 20.3597C61.799 20.3597 61.3181 19.8962 61.3181 18.9816V14.0243C61.3181 13.0792 61.7929 12.6158 62.767 12.6158C63.7532 12.6158 64.2464 13.0792 64.2464 14.0243V18.9816C64.2585 19.8962 63.7715 20.3597 62.767 20.3597Z" fill="white"/>
<path d="M23.2865 33.1769V32.75C22.3429 32.6525 22.282 32.5671 22.2577 31.4512L22.1481 26.9025C22.1237 25.8964 22.1724 25.7988 23.1404 25.7012V25.2744H20.7113L18.3431 30.5976L16.0114 25.2744H13.5092V25.7012C14.5503 25.7988 14.6355 25.9695 14.5381 27.3537L14.3433 29.75C14.258 31.0244 14.1606 31.6586 14.0876 32.0488C14.0145 32.4756 13.7832 32.6951 13.1074 32.7561V33.183H16.0114V32.7561C15.2139 32.683 14.9703 32.5732 14.9216 32.0244C14.8729 31.6464 14.8729 31.0793 14.9216 30.0671L15.0678 26.8964H15.1165L17.5821 33.0976H17.923L20.5956 26.7744H20.6565L20.6809 31.4573C20.693 32.5732 20.62 32.6586 19.7129 32.7561V33.183H23.2865V33.1769Z" fill="white"/>
<path d="M31.9323 33.1767V32.7498C31.1713 32.6523 31.013 32.4937 30.6051 31.4267C29.8197 29.3352 29.0709 27.2194 28.2977 25.0913L27.6829 25.2498L25.205 31.4998C24.8032 32.5181 24.6632 32.6523 23.8657 32.7498L23.8535 33.1767H26.5627V32.7498C25.6799 32.6401 25.6556 32.4694 25.826 31.884C25.9721 31.3962 26.1304 30.9572 26.2644 30.5852H28.5839C28.7665 31.0852 28.9492 31.5913 29.0648 31.9572C29.2596 32.4937 29.1988 32.6401 28.4865 32.7498V33.1767H31.9323ZM28.3404 29.945H26.4531C26.7697 29.0791 27.068 28.2072 27.4089 27.3169H27.4454L28.3404 29.945Z" fill="white"/>
<path d="M40.9176 25.2744H37.9649V25.7012C38.8477 25.75 39.1034 25.9573 39.1643 26.4817C39.1886 26.8354 39.2617 27.4086 39.2617 28.4756V30.6159H39.213L34.5922 25.2805H32.3579V25.7073C32.8632 25.7561 33.1433 25.8537 33.3624 26.1464C33.5938 26.4269 33.6181 26.6586 33.6181 27.4451V29.9878C33.6181 31.0549 33.5451 31.5915 33.4964 31.9939C33.4477 32.5183 33.1676 32.7134 32.4918 32.7622V33.189H35.4567V32.7622C34.5618 32.7256 34.3548 32.4939 34.2939 31.9573C34.2574 31.5915 34.1965 31.0549 34.1965 29.9878V27.25H34.233L39.2617 33.3049H39.84V28.4756C39.84 27.4086 39.9131 26.8354 39.9496 26.4573C40.0105 25.8964 40.2662 25.7378 40.9176 25.7012V25.2744Z" fill="white"/>
<path d="M46.4577 27.1584C46.3603 26.4023 46.2751 25.8718 46.2264 25.4206C46.0072 25.3352 45.3193 25.0913 44.5461 25.0913C42.8293 25.0913 41.7761 26.134 41.7761 27.4755C41.7761 28.6401 42.6345 29.2986 43.8825 29.9328C44.7896 30.4206 45.3193 30.8718 45.3193 31.5852C45.3193 32.3535 44.8505 32.8596 44.1078 32.8596C42.945 32.8596 42.2327 31.4998 41.9891 30.7194L41.563 30.8535C41.6482 31.5974 41.8065 32.6157 41.9161 32.9206C42.0866 32.9937 42.3179 33.0913 42.6527 33.1889C43.018 33.2986 43.4381 33.3596 43.8764 33.3596C45.6419 33.3596 46.8169 32.2803 46.8169 30.8901C46.8169 29.6889 45.9463 29.0059 44.6739 28.384C43.6085 27.8474 43.1763 27.4572 43.1763 26.7925C43.1763 26.0974 43.6694 25.5913 44.3513 25.5913C45.3436 25.5913 45.788 26.4937 46.0437 27.2559L46.4577 27.1584Z" fill="white"/>
<path d="M51.1511 33.1769V32.75C50.2562 32.6647 50.1466 32.5793 50.1466 31.561V26.9025C50.1466 25.872 50.2562 25.7866 51.1511 25.7012V25.2744H47.5227V25.7012C48.4176 25.7866 48.5272 25.872 48.5272 26.9025V31.561C48.5272 32.5793 48.4176 32.6647 47.5227 32.75V33.1769H51.1511Z" fill="white"/>
<path d="M56.2716 25.0977C53.5016 25.0977 52.0283 27.1525 52.0283 29.244C52.0283 31.5794 53.7086 33.3659 56.1255 33.3659C58.3964 33.3659 60.2715 31.7745 60.2715 29.1464C60.2715 26.7379 58.4694 25.0977 56.2716 25.0977ZM56.0525 25.6038C57.4405 25.6038 58.4207 27.0611 58.4207 29.4818C58.4207 31.7196 57.4892 32.8476 56.3386 32.8476C54.7923 32.8476 53.873 31.0855 53.873 29.0062C53.873 26.9086 54.8288 25.6038 56.0525 25.6038Z" fill="white"/>
<path d="M69.3783 25.2744H66.4256V25.7012C67.3084 25.75 67.5641 25.9573 67.625 26.4817C67.6493 26.8354 67.7224 27.4086 67.7224 28.4756V30.6159H67.6737L63.0529 25.2805H60.8186V25.7073C61.3239 25.7561 61.604 25.8537 61.8231 26.1464C62.0545 26.4269 62.0788 26.6586 62.0788 27.4451V29.9878C62.0788 31.0549 62.0058 31.5915 61.9571 31.9939C61.9083 32.5183 61.6283 32.7134 60.9525 32.7622V33.189H63.9174V32.7622C63.0225 32.7256 62.8155 32.4939 62.7546 31.9573C62.7181 31.5915 62.6572 31.0549 62.6572 29.9878V27.25H62.6937L67.7224 33.3049H68.3007V28.4756C68.3007 27.4086 68.3738 26.8354 68.4103 26.4573C68.4712 25.8964 68.7269 25.7378 69.3783 25.7012V25.2744Z" fill="white"/>
<path d="M13.4607 0.499923C13.4607 0.316996 13.6068 0.170654 13.7894 0.170654H38.9145C39.0972 0.170654 39.2433 0.316996 39.2433 0.499923V22.8475C39.2433 23.0304 39.0972 23.1768 38.9145 23.1768H13.7894C13.6068 23.1768 13.4607 23.0304 13.4607 22.8475V0.499923Z" fill="#D4B372"/>
<path d="M14.7334 1.77458C14.7334 1.59165 14.8795 1.44531 15.0621 1.44531H37.6425C37.8251 1.44531 37.9712 1.59165 37.9712 1.77458V21.5612C37.9712 21.7441 37.8251 21.8905 37.6425 21.8905H15.0621C14.8795 21.8905 14.7334 21.7441 14.7334 21.5612V1.77458Z" fill="url(#paint0_radial_53_6868)"/>
<path fill-rule="evenodd" clip-rule="evenodd" d="M23.4204 11.5794V18.8233C23.4204 18.9818 23.3777 19.0794 23.2377 19.0794C23.0977 19.0794 23.0368 18.9818 23.0368 18.8233V17.866H22.6776C22.4219 17.866 21.5879 18.5062 21.0643 18.9086C20.8938 19.0367 20.7599 19.1465 20.6808 19.2013C20.1024 18.866 19.3779 18.5245 18.8422 18.3416C18.7448 18.433 18.6596 18.5123 18.5743 18.5855C18.4039 18.7379 18.276 18.8599 18.1847 18.9574C18.1482 18.994 18.1238 19.0245 18.0934 19.0489C18.0142 19.1343 17.9716 19.1769 17.9229 19.1769C17.8255 19.1769 17.7037 19.0611 17.7037 18.9574C17.7037 18.8599 17.9229 18.6221 18.9457 17.5794C19.6458 16.8599 19.9259 16.0062 19.9259 14.6891C19.9259 12.5123 18.9883 10.6587 17.9107 10.6587C17.5515 10.6587 17.3689 10.7989 17.3141 11.1587C17.2958 11.3416 17.2167 11.3965 17.1315 11.3965C16.9732 11.3965 16.894 11.1343 16.894 10.6952C16.894 9.69524 17.5942 8.90256 18.4526 8.90256C18.8544 8.90256 19.1222 9.07939 19.3597 9.23182C19.5606 9.35987 19.731 9.46963 19.9319 9.44524V7.98792C19.9319 7.60987 19.7919 7.2867 19.5119 7.0489C19.2744 6.84768 18.0325 6.01231 17.5698 6.01231C17.4785 6.01231 17.4176 6.03061 17.3567 6.0489C17.3141 6.06109 17.2715 6.07329 17.2289 6.07329C17.168 6.07329 17.1497 6.055 17.1497 6.01231C17.1497 5.95744 17.1802 5.92085 17.2715 5.81719C17.2837 5.805 17.2958 5.7867 17.308 5.77451L18.8848 4.21963C18.897 4.20744 18.9153 4.20134 18.9274 4.18914C18.9822 4.14646 19.0187 4.12207 19.0857 4.12207C19.4023 4.12207 20.2911 4.71963 21.0095 5.21353C21.5087 5.555 21.9349 5.84158 22.0384 5.84158C22.2271 5.84158 22.7994 5.48792 23.4143 5.10378C24.1387 4.65256 24.9302 4.15866 25.2407 4.15866C25.3868 4.15866 25.5451 4.28061 26.5678 5.10987L26.5739 5.11597C26.6409 5.17085 26.7079 5.22573 26.7809 5.28061C26.8296 5.31719 26.8905 5.37207 26.9636 5.43305C27.1766 5.60987 27.4689 5.85987 27.7428 6.02451C28.0655 6.22573 28.0837 6.26231 28.0837 6.64036C28.2846 6.59768 28.5038 6.43914 29.764 5.42085C30.1232 5.12207 31.1825 4.26231 31.2617 4.26231C31.3591 4.26231 32.2418 4.62207 33.5447 5.15866C33.9282 5.31719 33.983 5.35987 33.983 5.59768V15.9147C33.983 16.2501 34.0256 16.3721 34.1656 16.494C34.7623 17.0123 35.1275 17.2135 35.3284 17.2135C35.3893 17.2135 35.4685 17.1891 35.5293 17.1343C35.6267 16.994 35.6511 16.9757 35.712 16.9757C35.7729 16.9757 35.8337 17.055 35.8337 17.1343C35.8337 17.2562 34.9388 18.3721 34.0134 19.0916C33.4533 18.8904 32.4975 18.2318 31.9557 17.6769C31.7731 17.4757 31.7365 17.4391 31.7365 17.0977V9.70743C31.7365 8.84768 32.0105 8.26841 33.015 6.93304C33.5386 6.25622 33.5751 6.055 33.4716 6.055C33.4229 6.055 32.9724 6.36597 32.5645 6.64646C32.2844 6.83548 32.0288 7.01841 31.9313 7.07329C31.8887 7.0489 31.8461 7.02451 31.8035 7.00012C30.8233 6.43914 30.5068 6.25622 29.9467 6.25622C29.6301 6.25622 29.4048 6.41475 29.4048 6.61597V18.8904C29.4048 19.0489 29.3257 19.1708 29.2039 19.1708C29.1065 19.1708 29.0456 19.0733 29.0456 18.9147V17.994C28.4855 18.0855 27.9863 18.5428 27.6576 18.8477C27.481 19.0123 27.3532 19.1282 27.2862 19.1282C27.0671 19.1282 25.7703 17.5733 25.7703 17.4513V11.5794H23.4204ZM23.0551 6.49402C23.0551 6.09158 23.0125 5.95744 22.9394 5.95744C22.7629 5.95744 22.1175 6.35987 22.1175 6.49402V12.0184C22.1175 14.7013 21.8131 15.0184 21.1191 15.7501C21.1069 15.7623 21.0947 15.7806 21.0765 15.7928C20.7538 16.1282 20.6747 16.2135 20.4372 16.494C20.8573 17.0733 22.2575 17.3355 23.0551 17.2928V6.49402ZM25.7581 9.68914H23.4204V6.33548C23.4204 6.07329 23.536 5.93304 23.7613 5.93304C24.2605 5.93304 25.7581 7.06719 25.7581 7.48792V9.68914ZM29.0396 6.84768C29.0396 6.805 29.0213 6.7867 28.9604 6.7867C28.8995 6.7867 28.8021 6.82939 28.7412 6.86597L28.2846 7.14646C28.029 7.305 27.9437 7.38426 27.9437 7.50622V9.50012C27.9437 9.64036 28.1264 9.73792 28.2664 9.73792H29.0456V6.84768H29.0396ZM28.2786 11.5428H29.0335V17.3294C28.2968 17.2684 27.9559 16.8904 27.9559 16.0916V12.0001C27.9559 11.7013 28.0594 11.5428 28.2786 11.5428Z" fill="white"/>
<path d="M1.85683 40.2744C2.91006 40.2744 3.71367 41.0549 3.71367 42.061C3.71367 43.0671 2.91006 43.8415 1.85683 43.8415C0.803614 43.8415 0 43.0671 0 42.061C0 41.0549 0.803614 40.2744 1.85683 40.2744ZM1.85683 43.1342C2.44128 43.1342 2.89179 42.6708 2.89179 42.061C2.89179 41.4512 2.44128 40.9878 1.85683 40.9878C1.27239 40.9878 0.821878 41.4512 0.821878 42.061C0.821878 42.6708 1.27239 43.1342 1.85683 43.1342Z" fill="white"/>
<path d="M4.74268 40.3354H6.88565V41.0367H5.55847V41.7745H6.76998V42.4757H5.55847V43.7867H4.74268V40.3354Z" fill="white"/>
<path d="M7.89624 40.3354H10.0392V41.0367H8.71203V41.7745H9.92354V42.4757H8.71203V43.7867H7.89624V40.3354Z" fill="white"/>
<path d="M11.8715 40.3354V43.7867H11.0557V40.3354H11.8715Z" fill="white"/>
<path d="M12.9128 42.061C12.9128 41.0549 13.7165 40.2744 14.7697 40.2744C15.2385 40.2744 15.6463 40.4269 15.9751 40.683L15.5611 41.2866C15.342 41.1159 15.0863 40.9817 14.7697 40.9817C14.1852 40.9817 13.7347 41.4451 13.7347 42.0549C13.7347 42.6647 14.1852 43.1281 14.7697 43.1281C15.0802 43.1281 15.3785 42.9817 15.5916 42.7927L16.0238 43.3903C15.689 43.6769 15.2567 43.8354 14.7758 43.8354C13.7225 43.8415 12.9128 43.0671 12.9128 42.061Z" fill="white"/>
<path d="M17.8436 40.3354V43.7867H17.0278V40.3354H17.8436Z" fill="white"/>
<path d="M20.858 40.3354L22.0512 43.7867H21.1989L20.9736 43.0672H19.8473L19.6221 43.7867H18.7698L19.963 40.3354H20.858ZM20.4135 41.1952L20.03 42.4269H20.791L20.4135 41.1952Z" fill="white"/>
<path d="M22.9634 40.3354H23.7792V43.0793H25.1003V43.7867H22.9634V40.3354Z" fill="white"/>
<path d="M29.2719 40.3354C29.9903 40.3354 30.4895 40.7867 30.4895 41.4574C30.4895 41.9452 30.2338 42.311 29.8077 42.4696L30.5808 43.7806H29.6981L29.0162 42.5793H28.8092V43.7806H28.0056V40.3293H29.2719V40.3354ZM28.8092 40.9879V41.9696H29.1928C29.5033 41.9696 29.6859 41.7623 29.6859 41.4818C29.6859 41.1891 29.5033 40.994 29.1928 40.994H28.8092V40.9879Z" fill="white"/>
<path d="M31.5354 40.3354H33.7271V41.0245H32.3512V41.7074H33.6114V42.3842H32.3512V43.0915H33.7697V43.7806H31.5354V40.3354Z" fill="white"/>
<path d="M35.4932 42.0732C35.4932 42.6829 35.9438 43.1586 36.5282 43.1586C36.6804 43.1586 36.8509 43.1159 36.9726 43.0427V42.4634H36.2969V41.8354H37.7884V43.3781C37.4597 43.6647 37.0152 43.8415 36.5221 43.8415C35.4689 43.8415 34.6653 43.061 34.6653 42.061C34.6653 41.0549 35.4689 40.2744 36.5221 40.2744C36.9909 40.2744 37.3988 40.4269 37.7275 40.6829L37.3136 41.2866C37.0944 41.1159 36.8387 40.9817 36.5221 40.9817C35.9438 40.9878 35.4932 41.4512 35.4932 42.0732Z" fill="white"/>
<path d="M39.7667 40.3354V43.7867H38.9509V40.3354H39.7667Z" fill="white"/>
<path d="M42.6703 40.2744C43.7236 40.2744 44.5272 41.0549 44.5272 42.061C44.5272 43.0671 43.7236 43.8415 42.6703 43.8415C41.6171 43.8415 40.8135 43.061 40.8135 42.061C40.8074 41.0549 41.6171 40.2744 42.6703 40.2744ZM42.6703 43.1342C43.2548 43.1342 43.7053 42.6708 43.7053 42.061C43.7053 41.4512 43.2548 40.9878 42.6703 40.9878C42.0859 40.9878 41.6354 41.4512 41.6354 42.061C41.6293 42.6708 42.0798 43.1342 42.6703 43.1342Z" fill="white"/>
<path d="M45.5562 40.3354H46.4146L47.5774 42.5306V40.3354H48.3323V43.7867H47.4739L46.3111 41.5915V43.7867H45.5562V40.3354Z" fill="white"/>
<path d="M51.3279 40.3354L52.5211 43.7867H51.6688L51.4436 43.0672H50.3051L50.0799 43.7867H49.2275L50.4208 40.3354H51.3279ZM50.8835 41.1952L50.4999 42.4269H51.2609L50.8835 41.1952Z" fill="white"/>
<path d="M53.4338 40.3354H54.2496V43.0793H55.5707V43.7867H53.4338V40.3354Z" fill="white"/>
<path d="M59.2848 42.6342V43.7867H58.469V40.3354H59.7414C60.4659 40.3354 60.959 40.8111 60.959 41.4818C60.959 42.1525 60.4659 42.6281 59.7414 42.6281H59.2848V42.6342ZM59.6561 40.9879H59.2848V41.9818H59.6561C59.9666 41.9818 60.1554 41.7806 60.1554 41.4818C60.1554 41.183 59.9666 40.9879 59.6561 40.9879Z" fill="white"/>
<path d="M63.7351 40.3354L64.9284 43.7867H64.076L63.8508 43.0672H62.7123L62.4871 43.7867H61.6348L62.828 40.3354H63.7351ZM63.2846 41.1952L62.9011 42.4269H63.6621L63.2846 41.1952Z" fill="white"/>
<path d="M67.1137 40.3354C67.8321 40.3354 68.3313 40.7867 68.3313 41.4574C68.3313 41.9452 68.0756 42.311 67.6495 42.4696L68.4226 43.7806H67.5399L66.858 42.5793H66.6571V43.7806H65.8535V40.3293H67.1137V40.3354ZM66.645 40.9879V41.9696H67.0285C67.339 41.9696 67.5216 41.7623 67.5216 41.4818C67.5216 41.1891 67.339 40.994 67.0285 40.994H66.645V40.9879Z" fill="white"/>
<path d="M69.9815 41.0428H69.1353V40.3354H71.6374V41.0428H70.7912V43.7867H69.9754V41.0428H69.9815Z" fill="white"/>
<path d="M72.605 40.3354H73.4634L74.6262 42.5306V40.3354H75.3811V43.7867H74.5227L73.3599 41.5915V43.7867H72.605V40.3354Z" fill="white"/>
<path d="M76.5872 40.3354H78.7788V41.0245H77.4029V41.7074H78.6632V42.3842H77.4029V43.0915H78.8275V43.7806H76.5872V40.3354Z" fill="white"/>
<path d="M81.1769 40.3354C81.8953 40.3354 82.3945 40.7867 82.3945 41.4574C82.3945 41.9452 82.1388 42.311 81.7127 42.4696L82.4859 43.7806H81.6031L80.9212 42.5793H80.7143V43.7806H79.9106V40.3293H81.1769V40.3354ZM80.7082 40.9879V41.9696H81.0917C81.4022 41.9696 81.5848 41.7623 81.5848 41.4818C81.5848 41.1891 81.4022 40.994 81.0917 40.994H80.7082V40.9879Z" fill="white"/>
<defs>
<radialGradient id="paint0_radial_53_6868" cx="0" cy="0" r="1" gradientUnits="userSpaceOnUse" gradientTransform="translate(26.8876 2.4825) scale(41.2187 36.2724)">
<stop stop-color="#BF2026"/>
<stop offset="0.5051" stop-color="#BE2126"/>
<stop offset="1" stop-color="#C62127"/>
</radialGradient>
</defs>
</svg>
