<svg width="70" height="36" viewBox="0 0 70 36" fill="none" xmlns="http://www.w3.org/2000/svg">
<path d="M1.33667 1.02601C1.33667 0.822338 1.50489 0.657227 1.71239 0.657227H30.455C30.6625 0.657227 30.8307 0.822339 30.8307 1.02601V26.0575C30.8307 26.2612 30.6625 26.4263 30.455 26.4263H1.71239C1.50488 26.4263 1.33667 26.2612 1.33667 26.0575V1.02601Z" fill="#D3B271"/>
<path d="M2.79297 2.45766C2.79297 2.25398 2.96118 2.08887 3.16869 2.08887H28.9983C29.2058 2.08887 29.374 2.25398 29.374 2.45766V24.6259C29.374 24.8296 29.2058 24.9947 28.9983 24.9947H3.16869C2.96118 24.9947 2.79297 24.8296 2.79297 24.6259V2.45766Z" fill="url(#paint0_radial_73_7280)"/>
<path fill-rule="evenodd" clip-rule="evenodd" d="M12.7319 13.4422V21.5591C12.7319 21.736 12.6852 21.8472 12.5244 21.8472C12.3637 21.8472 12.2962 21.736 12.2962 21.5591V20.4876H11.8865C11.592 20.4876 10.6432 21.2034 10.04 21.6585L10.0399 21.6586L10.0398 21.6587L10.0398 21.6587C9.8465 21.8045 9.68875 21.9235 9.5994 21.9836C8.93557 21.6046 8.11096 21.2255 7.4938 21.0233C7.38326 21.1245 7.28192 21.2162 7.19012 21.2993C6.99766 21.4735 6.84714 21.6097 6.7418 21.7158C6.70248 21.7541 6.66875 21.7885 6.63923 21.8186C6.54805 21.9115 6.49712 21.9634 6.44619 21.9634C6.33209 21.9634 6.19206 21.832 6.19206 21.7158C6.19206 21.6046 6.44619 21.3367 7.61309 20.1692C8.41176 19.3656 8.73331 18.4053 8.73331 16.9295C8.73331 14.4935 7.65976 12.4112 6.42544 12.4112C6.01573 12.4112 5.80828 12.5679 5.74086 12.9722C5.72012 13.1744 5.62677 13.2401 5.53341 13.2401C5.3519 13.2401 5.25854 12.9469 5.25854 12.4567C5.25854 11.3397 6.05722 10.4451 7.0426 10.4451C7.50028 10.4451 7.81051 10.6422 8.07862 10.8125C8.30572 10.9567 8.50261 11.0818 8.73331 11.0516V9.41917C8.73331 8.99462 8.57253 8.63579 8.25099 8.36792C7.97612 8.14554 6.56028 7.20548 6.03129 7.20548C5.93004 7.20548 5.85623 7.22592 5.79094 7.244C5.73918 7.25833 5.69278 7.27118 5.64232 7.27118C5.5749 7.27118 5.54897 7.25097 5.54897 7.20548C5.54897 7.14721 5.58569 7.10484 5.68807 6.98669L5.73049 6.93761L7.53529 5.19395C7.55185 5.1823 7.56678 5.17128 7.58066 5.16104C7.645 5.11354 7.68669 5.08276 7.76349 5.08276C8.12822 5.08276 9.1396 5.75531 9.96694 6.30547C10.5395 6.68623 11.024 7.00837 11.1449 7.00837C11.3638 7.00837 12.0129 6.61259 12.7154 6.1842L12.7154 6.1842C13.5441 5.67891 14.4471 5.12825 14.8064 5.12825C14.9768 5.12825 15.1519 5.26646 16.3241 6.19194L16.5645 6.38166C16.6211 6.42556 16.6918 6.48346 16.7724 6.5495L16.7724 6.5495L16.7724 6.54953C17.0167 6.7496 17.352 7.02435 17.664 7.21053C18.0322 7.43291 18.0529 7.4784 18.0529 7.90294C18.2811 7.85746 18.5352 7.68056 19.9718 6.53834C20.3815 6.20477 21.5951 5.23944 21.6885 5.23944C21.8026 5.23944 22.8087 5.64377 24.2971 6.2452C24.7328 6.4221 24.8002 6.46758 24.8002 6.73545V18.2992C24.8002 18.6783 24.8469 18.8147 25.0076 18.9461C25.6922 19.5273 26.1071 19.7497 26.3353 19.7497C26.4027 19.7497 26.4961 19.7244 26.5635 19.6587C26.6776 19.5021 26.7035 19.4818 26.771 19.4818C26.8384 19.4818 26.911 19.5728 26.911 19.6587C26.911 19.7952 25.8841 21.0436 24.8313 21.8522C24.1934 21.6298 23.0939 20.8919 22.4768 20.2652C22.2693 20.0429 22.2278 19.9974 22.2278 19.6183V11.3397C22.2278 10.3794 22.5442 9.72747 23.6903 8.23146C24.2868 7.47335 24.3282 7.24591 24.2141 7.24591C24.1585 7.24591 23.6411 7.5956 23.1736 7.9115L23.1735 7.91152C22.8562 8.12594 22.562 8.32479 22.4508 8.38813L22.306 8.30683C21.1864 7.67819 20.8216 7.47335 20.1845 7.47335C19.8214 7.47335 19.5673 7.65024 19.5673 7.87767V21.6298C19.5673 21.8067 19.474 21.9432 19.3391 21.9432C19.225 21.9432 19.1576 21.832 19.1576 21.6551V20.6241C18.5135 20.7265 17.9491 21.2392 17.5718 21.5821C17.3718 21.7637 17.2244 21.8977 17.1453 21.8977C16.8964 21.8977 15.408 20.154 15.408 20.0176V13.4422H12.7319ZM12.3167 7.74119C12.3167 7.29138 12.27 7.13975 12.1819 7.13975C11.9796 7.13975 11.2431 7.58957 11.2431 7.74119V13.9324C11.2431 16.9364 10.8939 17.2955 10.1025 18.1093L10.0555 18.1577C9.68728 18.5367 9.59911 18.6277 9.32425 18.941C9.80656 19.588 11.4039 19.8811 12.3219 19.8356V7.74119H12.3167ZM15.408 11.3195H12.7319V7.5643C12.7319 7.27117 12.8667 7.11449 13.1209 7.11449C13.6913 7.11449 15.408 8.38812 15.408 8.85815V11.3195ZM19.1575 8.14047C19.1575 8.09498 19.1368 8.07476 19.0642 8.07476C18.9968 8.07476 18.8827 8.12025 18.8101 8.16574L18.2864 8.47909C17.9908 8.65598 17.8974 8.74696 17.8974 8.88342V11.1173C17.8974 11.274 18.1049 11.3852 18.2656 11.3852H19.1575V8.14047ZM18.2861 13.3967H19.1521V19.8811C18.3068 19.8154 17.9179 19.3908 17.9179 18.4963V13.9122C17.9179 13.5786 18.0372 13.3967 18.2861 13.3967Z" fill="white"/>
<path d="M9.69468 28.8672C10.316 28.8672 10.79 29.3171 10.79 29.897C10.79 30.477 10.316 30.9233 9.69468 30.9233C9.0734 30.9233 8.59937 30.477 8.59937 29.897C8.59937 29.3171 9.0734 28.8672 9.69468 28.8672ZM9.69468 30.5156C10.0394 30.5156 10.3052 30.2485 10.3052 29.897C10.3052 29.5455 10.0394 29.2784 9.69468 29.2784C9.34992 29.2784 9.08418 29.5455 9.08418 29.897C9.08418 30.2485 9.34992 30.5156 9.69468 30.5156Z" fill="white"/>
<path d="M11.3967 28.9023H12.6608V29.3065H11.8779V29.7318H12.5926V30.136H11.8779V30.8917H11.3967V28.9023Z" fill="white"/>
<path d="M13.2573 28.9023H14.5214V29.3065H13.7385V29.7318H14.4532V30.136H13.7385V30.8917H13.2573V28.9023Z" fill="white"/>
<path d="M15.6021 28.9023V30.8917H15.1208V28.9023H15.6021Z" fill="white"/>
<path d="M16.2163 29.897C16.2163 29.3171 16.6903 28.8672 17.3116 28.8672C17.5881 28.8672 17.8288 28.9551 18.0227 29.1027L17.7785 29.4506C17.6492 29.3522 17.4984 29.2749 17.3116 29.2749C16.9669 29.2749 16.7011 29.542 16.7011 29.8935C16.7011 30.245 16.9669 30.5121 17.3116 30.5121C17.4948 30.5121 17.6707 30.4277 17.7964 30.3188L18.0514 30.6632C17.8539 30.8284 17.5989 30.9198 17.3152 30.9198C16.6939 30.9233 16.2163 30.477 16.2163 29.897Z" fill="white"/>
<path d="M19.1253 28.9023V30.8917H18.644V28.9023H19.1253Z" fill="white"/>
<path d="M20.9032 28.9023L21.607 30.8917H21.1043L20.9714 30.477H20.307L20.1742 30.8917H19.6714L20.3753 28.9023H20.9032ZM20.641 29.3979L20.4148 30.1079H20.8637L20.641 29.3979Z" fill="white"/>
<path d="M22.1453 28.9023H22.6265V30.484H23.4058V30.8917H22.1453V28.9023Z" fill="white"/>
<path d="M0.746967 32.4273C1.17073 32.4273 1.4652 32.6874 1.4652 33.0741C1.4652 33.3552 1.31437 33.5661 1.06299 33.6575L1.51907 34.4132H0.998349L0.596137 33.7208H0.474036V34.4132H0V32.4238H0.746967V32.4273ZM0.474036 32.8034V33.3693H0.700282C0.883432 33.3693 0.991167 33.2498 0.991167 33.0881C0.991167 32.9194 0.883432 32.8069 0.700282 32.8069H0.474036V32.8034Z" fill="white"/>
<path d="M2.08276 32.4272H3.37559V32.8244H2.56398V33.2181H3.30736V33.6082H2.56398V34.0159H3.40073V34.4131H2.08276V32.4272Z" fill="white"/>
<path d="M4.41711 33.4289C4.41711 33.7804 4.68286 34.0546 5.02761 34.0546C5.11739 34.0546 5.21795 34.03 5.28977 33.9878V33.6539H4.89115V33.2919H5.77099V34.1811C5.57706 34.3463 5.31491 34.4482 5.02402 34.4482C4.40275 34.4482 3.92871 33.9983 3.92871 33.4219C3.92871 32.842 4.40275 32.3921 5.02402 32.3921C5.30054 32.3921 5.54115 32.48 5.73508 32.6276L5.49088 32.9755C5.36159 32.8771 5.21076 32.7998 5.02402 32.7998C4.68286 32.8033 4.41711 33.0704 4.41711 33.4289Z" fill="white"/>
<path d="M6.93801 32.4272V34.4166H6.45679V32.4272H6.93801Z" fill="white"/>
<path d="M8.65099 32.3921C9.27227 32.3921 9.74631 32.842 9.74631 33.4219C9.74631 34.0019 9.27227 34.4482 8.65099 34.4482C8.02972 34.4482 7.55568 33.9983 7.55568 33.4219C7.55209 32.842 8.02972 32.3921 8.65099 32.3921ZM8.65099 34.0405C8.99575 34.0405 9.2615 33.7734 9.2615 33.4219C9.2615 33.0704 8.99575 32.8033 8.65099 32.8033C8.30624 32.8033 8.04049 33.0704 8.04049 33.4219C8.0369 33.7734 8.30265 34.0405 8.65099 34.0405Z" fill="white"/>
<path d="M10.3535 32.4272H10.8599L11.5458 33.6926V32.4272H11.9911V34.4166H11.4847L10.7988 33.1513V34.4166H10.3535V32.4272Z" fill="white"/>
<path d="M13.7575 32.4272L14.4614 34.4166H13.9586L13.8257 34.0019H13.1542L13.0213 34.4166H12.5186L13.2224 32.4272H13.7575ZM13.4954 32.9228L13.2691 33.6328H13.718L13.4954 32.9228Z" fill="white"/>
<path d="M15.0002 32.4272H15.4815V34.0089H16.2608V34.4166H15.0002V32.4272Z" fill="white"/>
<path d="M18.4517 33.7521V34.4164H17.9705V32.427H18.721C19.1484 32.427 19.4393 32.7012 19.4393 33.0878C19.4393 33.4744 19.1484 33.7486 18.721 33.7486H18.4517V33.7521ZM18.6707 32.8031H18.4517V33.376H18.6707C18.8539 33.376 18.9652 33.26 18.9652 33.0878C18.9652 32.9156 18.8539 32.8031 18.6707 32.8031Z" fill="white"/>
<path d="M21.0769 32.427L21.7807 34.4164H21.278L21.1451 34.0016H20.4735L20.3407 34.4164H19.8379L20.5418 32.427H21.0769ZM20.8111 32.9226L20.5849 33.6326H21.0338L20.8111 32.9226Z" fill="white"/>
<path d="M23.0698 32.4271C23.4935 32.4271 23.788 32.6872 23.788 33.0738C23.788 33.355 23.6372 33.5659 23.3858 33.6573L23.8419 34.4129H23.3212L22.919 33.7205H22.8005V34.4129H22.3264V32.4236H23.0698V32.4271ZM22.7933 32.8032V33.3691H23.0195C23.2027 33.3691 23.3104 33.2496 23.3104 33.0879C23.3104 32.9192 23.2027 32.8067 23.0195 32.8067H22.7933V32.8032Z" fill="white"/>
<path d="M24.7614 32.8347H24.2622V32.427H25.7382V32.8347H25.239V34.4164H24.7578V32.8347H24.7614Z" fill="white"/>
<path d="M26.3093 32.427H26.8157L27.5016 33.6923V32.427H27.9469V34.4164H27.4406L26.7546 33.151V34.4164H26.3093V32.427Z" fill="white"/>
<path d="M28.6577 32.427H29.9505V32.8242H29.1389V33.2178H29.8823V33.608H29.1389V34.0157H29.9793V34.4128H28.6577V32.427Z" fill="white"/>
<path d="M31.3656 32.4271C31.7894 32.4271 32.0839 32.6872 32.0839 33.0738C32.0839 33.355 31.933 33.5659 31.6816 33.6573L32.1377 34.4129H31.617L31.2148 33.7205H31.0927V34.4129H30.6187V32.4236H31.3656V32.4271ZM31.0891 32.8032V33.3691H31.3153C31.4985 33.3691 31.6062 33.2496 31.6062 33.0879C31.6062 32.9192 31.4985 32.8067 31.3153 32.8067H31.0891V32.8032Z" fill="white"/>
<path opacity="0.6" d="M38.3962 0.657227H38.0371V35.7998H38.3962V0.657227Z" fill="white"/>
<path d="M53.518 11.2379C54.0408 10.4884 54.8405 9.92188 55.7427 9.67847C55.5823 9.78528 55.448 9.92158 55.3147 10.057C55.7788 9.9989 56.2611 10.0513 56.6913 10.2339C56.7468 10.6295 56.7767 11.0288 56.8418 11.423C56.8951 11.027 56.9356 10.6295 56.9863 10.2333C57.4063 10.0576 57.8776 9.99559 58.3306 10.0576L58.3611 10.081C58.3621 10.0741 58.3639 10.0606 58.3649 10.054C58.225 9.92459 58.0951 9.78377 57.9334 9.67877C58.8344 9.92278 59.6341 10.4875 60.1562 11.2367C60.0029 11.123 59.8278 11.0433 59.6546 10.9632C59.854 11.3685 59.9549 11.8246 59.9067 12.2732C59.5288 12.4429 59.1446 12.6006 58.7711 12.7793C59.1792 12.7086 59.5842 12.6217 59.9908 12.5446C60.3088 12.8822 60.5076 13.3122 60.598 13.7575C60.6874 13.5998 60.7758 13.4406 60.8316 13.2685C60.8631 14.1516 60.564 15.0407 60.0017 15.7372C60.0528 15.57 60.0799 15.3976 60.1039 15.2255C59.7652 15.5342 59.3462 15.7652 58.8895 15.8627C58.6016 15.5657 58.325 15.2583 58.0303 14.9676C58.2287 15.3244 58.4418 15.6735 58.6462 16.027C58.4094 16.4211 58.049 16.7386 57.6356 16.9549C57.8128 16.9859 57.9914 17.0139 58.172 17.019C57.3163 17.3135 56.3561 17.3126 55.5003 17.0181C55.6823 17.0145 55.862 16.9859 56.0408 16.9549C55.6274 16.7386 55.267 16.4211 55.0302 16.0267C55.234 15.6735 55.4483 15.3253 55.6449 14.9685C55.3496 15.2592 55.0748 15.5691 54.7832 15.8633C54.329 15.7625 53.9096 15.5351 53.5732 15.2252C53.5966 15.3988 53.623 15.5724 53.6754 15.7406C53.1127 15.0425 52.8121 14.1531 52.8433 13.2685C52.9015 13.4415 52.9903 13.6019 53.08 13.7611C53.1648 13.3131 53.3688 12.8828 53.686 12.5437C54.0928 12.6205 54.4978 12.7074 54.9059 12.7784C54.5327 12.5988 54.1477 12.442 53.7698 12.2717C53.7221 11.824 53.8221 11.3682 54.0218 10.9635C53.8473 11.0429 53.6719 11.1242 53.518 11.2379ZM56.8381 11.6023C56.2536 12.013 55.6682 12.4228 55.0832 12.8326C55.3059 13.4975 55.5306 14.1616 55.7542 14.8262C56.4782 14.8247 57.2022 14.8286 57.9262 14.8241C58.1459 14.1588 58.3752 13.4966 58.5942 12.8311C58.0076 12.4231 57.424 12.0109 56.8381 11.6023Z" fill="white"/>
<path d="M55.7389 0.657227H55.8249C55.8729 0.697544 55.918 0.744481 55.9227 0.809471C56.2389 2.45287 56.5576 4.09596 56.8729 5.73966C56.9006 5.8224 56.8514 5.92079 56.7579 5.93192C56.1159 6.04324 55.4903 6.24965 54.9186 6.55444C53.966 7.0578 53.1572 7.81602 52.6198 8.72828C52.5859 8.78605 52.5407 8.85254 52.4625 8.85013C52.3584 8.83028 52.2734 8.76438 52.1824 8.71654C50.7441 7.90929 49.3054 7.10294 47.8665 6.29658C47.8057 6.26439 47.7446 6.20662 47.7624 6.13291C47.7979 6.0285 47.8693 5.94034 47.9241 5.84557C49.0431 4.05083 50.7055 2.58134 52.6476 1.65073C53.6227 1.18015 54.6678 0.85039 55.7389 0.657227V0.657227Z" fill="#951B80"/>
<path d="M58.6344 1.89947C60.2205 1.85946 61.814 2.14288 63.2831 2.72087C64.414 3.16617 65.4717 3.78507 66.4025 4.5487C66.4546 4.59263 66.5119 4.63235 66.5558 4.6847C66.596 4.74819 66.5723 4.82912 66.5197 4.87847C65.3863 6.14065 64.2529 7.40283 63.1202 8.66532C63.085 8.70172 63.0451 8.74415 62.9891 8.74264C62.9177 8.74716 62.8685 8.68969 62.8177 8.65118C61.5333 7.57072 59.7491 7.07157 58.0656 7.3234C58.0017 7.32942 57.9279 7.35319 57.8724 7.31016C57.8263 7.28429 57.8132 7.23073 57.8064 7.18349C57.5637 5.60087 57.3216 4.01795 57.079 2.43534C57.0665 2.34417 57.0456 2.25361 57.0416 2.16154C57.0391 2.09264 57.1008 2.03547 57.1693 2.02795C57.6541 1.95363 58.1438 1.91271 58.6344 1.89947Z" fill="#E40613"/>
<path d="M45.8377 6.26395C45.8963 6.22995 45.9639 6.2489 46.019 6.27929C47.5521 7.07451 49.0873 7.86642 50.62 8.66255C50.7176 8.70557 50.7166 8.82773 50.6581 8.90174C49.8337 10.3499 49.7125 12.1494 50.3372 13.6881C50.358 13.7528 50.4048 13.8235 50.3665 13.8906C50.33 13.9595 50.2422 13.9727 50.1755 14.0022C48.5826 14.5922 46.9913 15.1859 45.3987 15.7765C45.3318 15.806 45.2417 15.8012 45.1997 15.7359C45.147 15.6378 45.1146 15.5307 45.0729 15.4278C44.2249 13.1947 44.1582 10.6968 44.8741 8.42185C45.0956 7.70997 45.3934 7.02066 45.7564 6.36534C45.7785 6.32864 45.7987 6.28712 45.8377 6.26395Z" fill="#01509F"/>
<path d="M66.181 6.54046C66.2405 6.50525 66.314 6.53173 66.3598 6.57596C67.7031 7.78399 68.7315 9.31275 69.3418 10.9838C69.748 12.0874 69.9639 13.2533 70.0001 14.4235V15.0207C69.9923 15.1251 69.9942 15.231 69.973 15.3342C69.9459 15.4103 69.8558 15.4287 69.7823 15.4215C68.0471 15.3384 66.3112 15.2608 64.576 15.1763C64.4691 15.1796 64.4121 15.0719 64.4317 14.9804C64.532 13.3364 63.8457 11.6668 62.6055 10.537C62.5563 10.4889 62.4943 10.4446 62.4741 10.377C62.4622 10.3135 62.5083 10.2623 62.5491 10.219C63.6974 9.05188 64.8451 7.88388 65.9928 6.71617C66.0539 6.65629 66.1084 6.588 66.181 6.54046Z" fill="#F28800"/>
<path d="M56.2815 9.22734C57.5248 9.06637 58.8301 9.45992 59.7544 10.2795C60.5685 10.9854 61.0878 11.9984 61.1694 13.0527C61.2616 14.1133 60.9112 15.2013 60.2124 16.0242C59.5111 16.8639 58.4641 17.4245 57.3538 17.5472C56.1372 17.6934 54.8659 17.3107 53.954 16.5188C53.1294 15.8184 52.5985 14.8053 52.5085 13.7477C52.4216 12.8132 52.6742 11.8534 53.2138 11.0729C53.8973 10.0683 55.0453 9.37357 56.2815 9.22734ZM53.5182 11.2378C53.6721 11.1241 53.8475 11.0428 54.0219 10.9634C53.8222 11.3681 53.7222 11.8239 53.7699 12.2716C54.1478 12.4419 54.5328 12.5987 54.9061 12.7783C54.4979 12.7073 54.093 12.6203 53.6861 12.5436C53.369 12.8827 53.1649 13.313 53.0802 13.761C52.9904 13.6018 52.9017 13.4414 52.8434 13.2684C52.8122 14.153 53.1129 15.0424 53.6755 15.7405C53.6232 15.5723 53.5967 15.3987 53.5733 15.225C53.9098 15.535 54.3291 15.7624 54.7833 15.8632C55.0749 15.569 55.3497 15.259 55.645 14.9684C55.4484 15.3252 55.2341 15.6734 55.0304 16.0266C55.2671 16.421 55.6276 16.7385 56.041 16.9548C55.8622 16.9858 55.6824 17.0144 55.5005 17.018C56.3562 17.3125 57.3164 17.3134 58.1722 17.0189C57.9915 17.0138 57.813 16.9858 57.6357 16.9548C58.0491 16.7385 58.4096 16.421 58.6463 16.0269C58.442 15.6734 58.2289 15.3243 58.0304 14.9675C58.3251 15.2581 58.6018 15.5656 58.8896 15.8626C59.3463 15.7651 59.7653 15.534 60.104 15.2253C60.08 15.3975 60.0529 15.5699 60.0018 15.7371C60.5641 15.0406 60.8632 14.1515 60.8317 13.2684C60.776 13.4405 60.6875 13.5997 60.5981 13.7574C60.5077 13.3121 60.309 12.8821 59.9909 12.5445C59.5843 12.6215 59.1794 12.7085 58.7712 12.7792C59.1448 12.6005 59.5289 12.4428 59.9068 12.2731C59.9551 11.8245 59.8541 11.3684 59.6548 10.9631C59.828 11.0431 60.0031 11.1229 60.1563 11.2366C59.6342 10.4874 58.8345 9.92267 57.9335 9.67866C58.0952 9.78367 58.2251 9.92448 58.365 10.0539C58.3641 10.0605 58.3622 10.074 58.3613 10.0809L58.3307 10.0575C57.8778 9.99548 57.4064 10.0575 56.9865 10.2332C56.9357 10.6294 56.8952 11.0269 56.8419 11.4229C56.7768 11.0287 56.7469 10.6294 56.6915 10.2338C56.2612 10.0511 55.779 9.99879 55.3148 10.0569C55.4481 9.92147 55.5824 9.78517 55.7428 9.67836C54.8406 9.92177 54.0409 10.4883 53.5182 11.2378Z" fill="#1D1D1B"/>
<path d="M56.8384 11.6023C57.4244 12.0109 58.0079 12.4231 58.5945 12.8311C58.3755 13.4966 58.1462 14.1589 57.9266 14.8241C57.2025 14.8286 56.4785 14.8247 55.7545 14.8262C55.5309 14.1616 55.3062 13.4975 55.0835 12.8326C55.6686 12.4228 56.2539 12.013 56.8384 11.6023Z" fill="#1D1D1B"/>
<path d="M49.0446 15.1389C49.1436 15.0829 49.253 15.1524 49.2791 15.2508C49.9511 16.7901 51.3599 18.0059 53.0178 18.4813C53.1178 18.4958 53.196 18.5899 53.1537 18.6868C52.6372 20.2917 52.1178 21.896 51.5994 23.5C51.5817 23.5996 51.4686 23.6495 51.3758 23.6074C50.0645 23.2213 48.8268 22.6045 47.7402 21.7973C46.166 20.6338 44.9118 19.0695 44.1426 17.3052V17.236C44.174 17.1854 44.2211 17.1466 44.2787 17.1262C45.8682 16.4657 47.4551 15.799 49.0446 15.1389Z" fill="#0090D7"/>
<path d="M62.8755 15.7727C62.9142 15.7658 62.9534 15.7646 62.9933 15.7688C64.7173 15.9006 66.4417 16.0285 68.1657 16.159C68.2613 16.1554 68.3392 16.2403 68.3196 16.3323C68.1644 18.5095 67.3124 20.631 65.9233 22.3505C65.2588 23.1767 64.4725 23.9112 63.5955 24.525C63.5266 24.5839 63.4157 24.562 63.3693 24.4882C62.3789 23.1863 61.3892 21.8838 60.3995 20.5813C60.344 20.5004 60.2627 20.4303 60.2384 20.334C60.2241 20.2459 60.3104 20.1968 60.3724 20.1523C61.7415 19.1904 62.6394 17.6354 62.7684 16.0053C62.7737 15.9204 62.7712 15.8022 62.8755 15.7727Z" fill="#FEED01"/>
<path d="M58.5805 19.3885C58.6584 19.3518 58.7403 19.4063 58.7771 19.4722C59.7444 20.8653 60.7154 22.2559 61.6821 23.6493C61.7647 23.7483 61.6749 23.865 61.5743 23.9065C59.3768 25.3363 56.6574 25.9895 54.0224 25.7326C53.3511 25.6682 52.6853 25.5484 52.0361 25.3718C51.9476 25.3556 51.8978 25.2587 51.9305 25.1796C52.3922 23.5581 52.8573 21.9376 53.3203 20.3168C53.3368 20.2145 53.4558 20.1666 53.5486 20.2099C54.8368 20.5659 56.2477 20.4762 57.4802 19.9704C57.8683 19.8167 58.23 19.6091 58.5805 19.3885Z" fill="#00963F"/>
<path d="M44.2282 28.5902C44.7332 28.5896 45.2382 28.5899 45.7432 28.5902C45.7429 30.0386 45.7435 31.487 45.7432 32.9358C46.3538 32.9361 46.9644 32.9355 47.575 32.9361C47.575 33.3627 47.5765 33.7897 47.5744 34.2163C46.4591 34.2166 45.3441 34.2166 44.2291 34.2163C44.2269 32.3409 44.2288 30.4656 44.2282 28.5902Z" fill="white"/>
<path d="M53.6459 28.5896C54.1509 28.5902 54.6559 28.5899 55.1609 28.5899C55.1612 30.0386 55.1609 31.4871 55.1612 32.9358C55.7718 32.9376 56.3827 32.9322 56.9936 32.9385C56.9924 33.3639 56.9936 33.7894 56.993 34.2148C55.8774 34.2145 54.7615 34.2145 53.6459 34.2145C53.6459 32.3397 53.6456 30.4647 53.6459 28.5896Z" fill="white"/>
<path d="M48.8152 30.0228C49.1894 29.7535 49.6567 29.6081 50.1234 29.619C50.4025 29.6214 50.6838 29.6819 50.928 29.8145C51.1078 29.909 51.2664 30.0354 51.4187 30.166C51.4184 30.0128 51.4187 29.86 51.4187 29.7071C51.8841 29.7068 52.3496 29.7068 52.815 29.7071C52.8147 31.2097 52.8153 32.712 52.8147 34.2146C52.3424 34.2149 51.8701 34.2146 51.3978 34.2146C51.3972 34.0696 51.3969 33.9245 51.3978 33.7798C51.0212 34.1361 50.4941 34.3376 49.967 34.3256C49.4785 34.3217 48.9822 34.1728 48.6081 33.8632C48.2398 33.5653 48.0062 33.1353 47.9021 32.687C47.8165 32.3082 47.7959 31.9126 47.866 31.5302C47.976 30.9383 48.3118 30.3811 48.8152 30.0228ZM50.0785 30.9137C49.8483 30.9651 49.6355 31.0918 49.4909 31.2732C49.2096 31.6228 49.1928 32.1241 49.3804 32.5185C49.5081 32.7932 49.7688 33.0102 50.0763 33.0728C50.5458 33.1729 51.0798 32.9686 51.3159 32.5564C51.5901 32.0904 51.4829 31.4285 51.0343 31.0984C50.7676 30.898 50.4041 30.8408 50.0785 30.9137Z" fill="white"/>
<path d="M60.7061 29.8626C61.1401 29.615 61.6756 29.5627 62.1622 29.6725C62.5124 29.7504 62.8127 29.961 63.0563 30.2098C63.056 30.0423 63.056 29.8744 63.0566 29.7068C63.5062 29.7071 63.956 29.7065 64.4059 29.7071C64.4062 30.8546 64.4059 32.0022 64.4059 33.15C64.4006 33.4602 64.4243 33.7728 64.3732 34.0806C64.3018 34.5386 64.0632 34.9742 63.6918 35.2706C63.2682 35.6154 62.7121 35.7731 62.1656 35.7999H61.8812C61.4152 35.7767 60.9444 35.6672 60.5466 35.4244C60.1083 35.1665 59.7921 34.7215 59.7238 34.2278C60.2513 34.2278 60.7787 34.2272 61.3061 34.2281C61.3743 34.3222 61.4448 34.4194 61.5457 34.4841C61.7124 34.5939 61.9245 34.5979 62.1192 34.5936C62.4033 34.5801 62.7152 34.4898 62.884 34.253C63.0317 34.0475 62.994 33.7852 62.9909 33.5499C62.7071 33.7801 62.3713 33.9558 62.0077 34.0319C61.6027 34.1131 61.1709 34.056 60.7993 33.883C60.298 33.6504 59.9335 33.1952 59.7653 32.6897C59.5777 32.1279 59.5918 31.5057 59.7989 30.9509C59.9656 30.5053 60.2787 30.1024 60.7061 29.8626ZM61.6965 30.8263C61.3896 30.9079 61.1603 31.1642 61.0709 31.4531C60.9454 31.8472 60.9949 32.3181 61.2843 32.6355C61.5653 32.9445 62.0582 32.9918 62.4351 32.8338C62.6647 32.7381 62.8507 32.5549 62.9548 32.3364C63.1018 32.0359 63.0912 31.6775 62.9666 31.3718C62.8722 31.1399 62.6766 30.9482 62.4339 30.8612C62.1999 30.7782 61.9373 30.7626 61.6965 30.8263Z" fill="white"/>
<path d="M66.0257 30.0054C66.5123 29.6636 67.1538 29.5366 67.7394 29.6711C68.0722 29.749 68.3557 29.9479 68.6055 30.1667C68.6052 30.0132 68.6052 29.8601 68.6055 29.7069C69.07 29.7069 69.5348 29.7069 69.9996 29.7072V34.215C69.527 34.2147 69.0544 34.215 68.5821 34.2147C68.5821 34.0699 68.5815 33.9255 68.5824 33.7811C68.4158 33.9358 68.2233 34.0645 68.0117 34.1554C67.464 34.3961 66.8133 34.3735 66.265 34.1476C65.7615 33.9397 65.3758 33.5118 65.1902 33.0187C65.0076 32.5349 64.9618 32.0017 65.0584 31.4956C65.1752 30.9068 65.5185 30.3559 66.0257 30.0054ZM67.2444 30.9186C67.045 30.9667 66.8603 31.0711 66.7232 31.2194C66.4083 31.557 66.3706 32.0733 66.5491 32.4816C66.6597 32.741 66.8821 32.9582 67.1606 33.0458C67.6254 33.1926 68.1849 33.0208 68.4578 32.6236C68.78 32.1636 68.6934 31.4674 68.2413 31.1147C67.9675 30.8975 67.5837 30.8364 67.2444 30.9186Z" fill="white"/>
<path d="M58.1425 27.7532C58.3749 27.7035 58.6285 27.7465 58.8245 27.8789C59.0774 28.0435 59.2223 28.3483 59.1837 28.6411C59.15 28.9795 58.8787 29.2798 58.5366 29.3587C58.2388 29.4363 57.8992 29.3433 57.6974 29.1161C57.4522 28.852 57.4154 28.4335 57.6079 28.132C57.7238 27.943 57.9207 27.8022 58.1425 27.7532Z" fill="white"/>
<path d="M57.6204 29.7073C58.0905 29.707 58.5603 29.707 59.0304 29.7073V34.2147C58.5606 34.2147 58.0905 34.215 57.6207 34.2147C57.6201 32.7121 57.6207 31.2098 57.6204 29.7073Z" fill="white"/>
<defs>
<radialGradient id="paint0_radial_73_7280" cx="0" cy="0" r="1" gradientUnits="userSpaceOnUse" gradientTransform="translate(16.6685 3.29867) scale(47.1911 40.6663)">
<stop stop-color="#C01617"/>
<stop offset="0.5051" stop-color="#BE181B"/>
<stop offset="1" stop-color="#C7120C"/>
</radialGradient>
</defs>
</svg>
